<svg width="209" height="229" viewBox="0 0 209 229" fill="none" xmlns="http://www.w3.org/2000/svg">
<path opacity="0.01" fill-rule="evenodd" clip-rule="evenodd" d="M63.626 0C64.1877 0.281054 64.1877 0.281054 63.626 0Z" fill="#F9F0D6"/>
<path opacity="0.01" fill-rule="evenodd" clip-rule="evenodd" d="M51.4082 0.421387C51.9699 0.702441 51.9699 0.702441 51.4082 0.421387Z" fill="#F9EED6"/>
<path opacity="0.01" fill-rule="evenodd" clip-rule="evenodd" d="M75.0039 1.26392C75.5656 1.54497 75.5656 1.54497 75.0039 1.26392Z" fill="#FCF2D7"/>
<path opacity="0.998" fill-rule="evenodd" clip-rule="evenodd" d="M191.723 19.3831C200.1 24.7593 204.175 32.4843 203.943 42.5584C201.967 52.7316 200.138 62.9848 198.465 73.3185C198.196 73.57 198.056 73.921 198.044 74.3719C198.06 75.17 198.341 75.5913 198.887 75.636C198.816 75.8467 198.746 76.0574 198.676 76.268C198.373 75.8673 198.022 75.7974 197.623 76.0574C198.645 77.7584 199.911 79.2332 201.415 80.4817C202.532 82.1596 203.796 83.7048 205.207 85.1168C206.227 87.294 207.348 89.4009 208.578 91.4374C208.477 91.9814 208.62 92.4027 209 92.7015C209 100.989 209 109.275 209 117.562C202.911 126.256 195.957 134.262 188.142 141.58C185.588 144.757 184.183 148.409 183.928 152.536C180.636 170.396 177.265 188.093 173.815 205.629C170.373 217.354 162.578 224.166 150.429 226.065C148.45 226.183 146.484 226.394 144.53 226.697C137.645 226.03 130.762 225.327 123.883 224.59C105.57 221.967 87.1705 219.58 68.6833 217.427C54.1734 215.213 39.7065 213.247 25.2822 211.528C18.6208 210.516 12.5813 207.987 7.16329 203.943C6.88224 203.381 6.46087 202.96 5.89918 202.679C5.63625 201.729 5.07456 201.027 4.2137 200.572C3.52392 199.048 2.68118 197.643 1.68548 196.359C0.716329 193.213 0.154643 189.983 0 186.667C1.15582 178.501 2.41993 170.354 3.79233 162.228C6.24555 149.816 8.49271 137.315 10.5343 124.726C11.9682 118.514 13.0915 112.193 13.9052 105.764C15.8519 93.4583 18.0991 81.0978 20.6471 68.6834C21.1886 67.3818 21.4692 65.9773 21.4899 64.4697C22.6427 59.9442 23.4855 55.3091 24.0181 50.5645C25.4516 44.3543 26.5754 38.0338 27.3891 31.6028C28.6393 26.165 30.3247 20.8275 32.4455 15.5908C34.5199 12.6702 36.7671 9.86138 39.1874 7.16335C41.1573 5.89798 43.1234 4.63387 45.0866 3.37102C52.3822 0.54405 59.8265 -0.228321 67.4192 1.05349C96.436 4.59299 125.089 8.10469 153.379 11.5877C162.553 12.5447 171.682 13.8088 180.768 15.3801C184.644 16.1798 188.296 17.5143 191.723 19.3831Z" fill="#FFF9F5"/>
<path opacity="0.012" fill-rule="evenodd" clip-rule="evenodd" d="M45.0869 3.37077C44.7755 3.42597 44.4944 3.3556 44.2441 3.16009C44.639 2.8685 44.9196 2.93887 45.0869 3.37077Z" fill="#FBEFD7"/>
<path opacity="0.01" fill-rule="evenodd" clip-rule="evenodd" d="M90.1738 2.94946C90.7355 3.23052 90.7355 3.23052 90.1738 2.94946Z" fill="#FCF2D7"/>
<path opacity="0.01" fill-rule="evenodd" clip-rule="evenodd" d="M93.5439 3.79241C93.7112 3.3605 93.9919 3.29013 94.3867 3.58172C94.1364 3.77724 93.8553 3.8476 93.5439 3.79241Z" fill="#FDF1D9"/>
<path opacity="0.01" fill-rule="evenodd" clip-rule="evenodd" d="M98.6006 3.79199C99.1623 4.07305 99.1623 4.07305 98.6006 3.79199Z" fill="#FCF1D8"/>
<path opacity="0.01" fill-rule="evenodd" clip-rule="evenodd" d="M42.1377 4.21362C42.6994 4.49468 42.6994 4.49468 42.1377 4.21362Z" fill="#F9EFD7"/>
<path opacity="0.01" fill-rule="evenodd" clip-rule="evenodd" d="M99.4424 4.21362C100.004 4.49468 100.004 4.49468 99.4424 4.21362Z" fill="#FCF2D9"/>
<path opacity="0.01" fill-rule="evenodd" clip-rule="evenodd" d="M104.078 4.63501C104.64 4.91606 104.64 4.91606 104.078 4.63501Z" fill="#FDF2D8"/>
<path opacity="0.01" fill-rule="evenodd" clip-rule="evenodd" d="M117.562 6.32031C118.124 6.60137 118.124 6.60137 117.562 6.32031Z" fill="#FAF0D6"/>
<path opacity="0.01" fill-rule="evenodd" clip-rule="evenodd" d="M118.826 6.32031C119.388 6.60137 119.388 6.60137 118.826 6.32031Z" fill="#FDF2D8"/>
<path opacity="0.01" fill-rule="evenodd" clip-rule="evenodd" d="M39.1883 7.16296C38.9073 6.60128 38.9073 6.60128 39.1883 7.16296Z" fill="#FAEFD7"/>
<path opacity="0.01" fill-rule="evenodd" clip-rule="evenodd" d="M119.669 6.7417C120.231 7.02275 120.231 7.02275 119.669 6.7417Z" fill="#FCF3D9"/>
<path opacity="0.01" fill-rule="evenodd" clip-rule="evenodd" d="M120.513 7.16299C120.829 6.71086 121.251 6.64049 121.777 6.9523C121.377 7.15583 120.956 7.22577 120.513 7.16299Z" fill="#FCF1D7"/>
<path opacity="0.012" fill-rule="evenodd" clip-rule="evenodd" d="M122.197 6.7417C122.759 7.02275 122.759 7.02275 122.197 6.7417Z" fill="#FBEFD6"/>
<path opacity="0.01" fill-rule="evenodd" clip-rule="evenodd" d="M124.304 7.16309C124.865 7.44414 124.865 7.44414 124.304 7.16309Z" fill="#FBF0D6"/>
<path opacity="0.01" fill-rule="evenodd" clip-rule="evenodd" d="M127.254 7.58472C127.816 7.86577 127.816 7.86577 127.254 7.58472Z" fill="#FBF0D7"/>
<path opacity="0.01" fill-rule="evenodd" clip-rule="evenodd" d="M131.046 8.00586C131.608 8.28691 131.608 8.28691 131.046 8.00586Z" fill="#FBF0D8"/>
<path opacity="0.01" fill-rule="evenodd" clip-rule="evenodd" d="M35.8164 9.69116C36.3781 9.97222 36.3781 9.97222 35.8164 9.69116Z" fill="#FAEEDA"/>
<path opacity="0.01" fill-rule="evenodd" clip-rule="evenodd" d="M144.108 10.1125C144.276 9.68057 144.556 9.6102 144.951 9.90179C144.701 10.0973 144.42 10.1677 144.108 10.1125Z" fill="#FCF0D8"/>
<path opacity="0.012" fill-rule="evenodd" clip-rule="evenodd" d="M147.479 10.5341C147.647 10.1022 147.927 10.0318 148.322 10.3234C148.072 10.5189 147.791 10.5893 147.479 10.5341Z" fill="#FCF1D7"/>
<path opacity="0.01" fill-rule="evenodd" clip-rule="evenodd" d="M149.165 10.1128C149.727 10.3938 149.727 10.3938 149.165 10.1128Z" fill="#FAEFD5"/>
<path opacity="0.01" fill-rule="evenodd" clip-rule="evenodd" d="M158.014 11.7985C158.181 11.3666 158.462 11.2962 158.856 11.5878C158.606 11.7833 158.325 11.8537 158.014 11.7985Z" fill="#FCF1D7"/>
<path opacity="0.01" fill-rule="evenodd" clip-rule="evenodd" d="M160.12 11.377C160.682 11.658 160.682 11.658 160.12 11.377Z" fill="#FBEED5"/>
<path opacity="0.01" fill-rule="evenodd" clip-rule="evenodd" d="M33.71 11.7981C34.2716 12.0791 34.2716 12.0791 33.71 11.7981Z" fill="#FAEFD6"/>
<path opacity="0.01" fill-rule="evenodd" clip-rule="evenodd" d="M161.384 11.7981C161.945 12.0791 161.945 12.0791 161.384 11.7981Z" fill="#FBF0D4"/>
<path fill-rule="evenodd" clip-rule="evenodd" d="M66.5761 12.2196C69.3778 12.5698 72.1866 12.8508 75.0035 13.0623C71.6802 13.3758 68.3092 13.1652 64.8906 12.4303C65.4355 12.2238 65.9976 12.1535 66.5761 12.2196Z" fill="#390E06"/>
<path opacity="0.01" fill-rule="evenodd" clip-rule="evenodd" d="M172.341 13.4838C172.508 13.0519 172.789 12.9815 173.184 13.2731C172.933 13.4686 172.652 13.539 172.341 13.4838Z" fill="#FCEFD7"/>
<path opacity="0.01" fill-rule="evenodd" clip-rule="evenodd" d="M174.869 13.905C175.036 13.473 175.317 13.4027 175.712 13.6943C175.462 13.8898 175.181 13.9602 174.869 13.905Z" fill="#FAEFD6"/>
<path fill-rule="evenodd" clip-rule="evenodd" d="M64.0472 11.7983C58.0966 11.4596 52.4785 12.7237 47.1924 15.5907C49.2057 13.7413 51.5936 12.5475 54.3557 12.009C57.5829 11.7983 60.8136 11.7284 64.0472 11.7983Z" fill="#3B1009"/>
<path opacity="0.996" fill-rule="evenodd" clip-rule="evenodd" d="M76.2676 13.4839C80.6334 13.8016 84.9874 14.223 89.33 14.748C87.8654 15.2296 86.3206 15.3 84.695 14.9587C81.2671 14.7337 78.4579 14.2419 76.2676 13.4839Z" fill="#46180F"/>
<path opacity="0.01" fill-rule="evenodd" clip-rule="evenodd" d="M179.504 14.3264C180.066 14.6075 180.066 14.6075 179.504 14.3264Z" fill="#FDF1D7"/>
<path opacity="0.012" fill-rule="evenodd" clip-rule="evenodd" d="M32.4452 15.5907C32.1641 15.029 32.1641 15.029 32.4452 15.5907Z" fill="#FAF0D8"/>
<path opacity="0.01" fill-rule="evenodd" clip-rule="evenodd" d="M32.0252 15.5908C31.7442 15.8719 31.7442 15.8719 32.0252 15.5908Z" fill="#FAF0D8"/>
<path fill-rule="evenodd" clip-rule="evenodd" d="M90.5947 15.1691C92.3004 15.1248 93.9859 15.2652 95.6512 15.5905C102.81 16.4677 109.974 17.3105 117.141 18.1187C116.596 18.3959 115.964 18.5367 115.245 18.54C106.431 17.5987 98.2144 16.4753 90.5947 15.1691Z" fill="#41150C"/>
<path fill-rule="evenodd" clip-rule="evenodd" d="M118.826 18.5403C121.784 18.7421 124.733 19.0232 127.675 19.383C127.13 19.6603 126.498 19.801 125.779 19.8044C122.843 19.6405 120.525 19.2191 118.826 18.5403Z" fill="#3E150D"/>
<path opacity="0.01" fill-rule="evenodd" clip-rule="evenodd" d="M191.725 18.9614C192.286 19.2425 192.286 19.2425 191.725 18.9614Z" fill="#FBF1D7"/>
<path fill-rule="evenodd" clip-rule="evenodd" d="M128.938 19.8043C135.263 20.4718 141.583 21.1742 147.9 21.9112C146.719 22.3907 145.454 22.4611 144.108 22.1219C138.757 21.5117 133.42 20.8093 128.096 20.015C128.346 19.8195 128.627 19.7491 128.938 19.8043Z" fill="#3F1109"/>
<path opacity="0.999" fill-rule="evenodd" clip-rule="evenodd" d="M95.6504 15.5906C96.3389 15.312 97.1113 15.1717 97.9679 15.1692C126.043 18.3488 154.064 21.9305 182.031 25.9141C182.553 26.2049 182.553 26.4156 182.031 26.5462C180.224 26.1564 178.397 25.8758 176.553 25.7034C173.967 25.1148 171.298 24.6934 168.547 24.4393C161.947 23.7019 155.346 22.9999 148.743 22.3325C148.599 21.9794 148.318 21.8386 147.9 21.9111C141.584 21.1741 135.263 20.4717 128.939 19.8043C128.64 19.4233 128.219 19.283 127.675 19.3829C124.733 19.023 121.783 18.742 118.826 18.5401C118.376 18.1466 117.814 18.0059 117.14 18.1188C109.973 17.3106 102.809 16.4679 95.6504 15.5906Z" fill="#F7F1E7"/>
<path opacity="0.01" fill-rule="evenodd" clip-rule="evenodd" d="M29.0752 22.3325C29.6369 22.6136 29.6369 22.6136 29.0752 22.3325Z" fill="#FDF3DA"/>
<path opacity="0.992" fill-rule="evenodd" clip-rule="evenodd" d="M148.744 22.3325C155.347 23 161.949 23.702 168.549 24.4394C168.004 24.7166 167.372 24.8574 166.652 24.8607C160.344 24.2792 154.375 23.4365 148.744 22.3325Z" fill="#41140C"/>
<path fill-rule="evenodd" clip-rule="evenodd" d="M176.555 25.7035C178.399 25.8758 180.225 26.1565 182.032 26.5462C183.563 27.1716 184.968 28.0143 186.246 29.0745C182.927 27.4362 179.415 26.3828 175.712 25.9142C175.962 25.7187 176.243 25.6483 176.555 25.7035Z" fill="#3E140B"/>
<path opacity="0.014" fill-rule="evenodd" clip-rule="evenodd" d="M27.3896 31.6025C26.927 31.1385 26.8566 30.5769 27.1789 29.917C27.3854 30.4618 27.4558 31.0239 27.3896 31.6025Z" fill="#FFF4DE"/>
<path opacity="0.016" fill-rule="evenodd" clip-rule="evenodd" d="M25.7031 37.0803C26.2648 37.3614 26.2648 37.3614 25.7031 37.0803Z" fill="#FDF4DC"/>
<path opacity="0.012" fill-rule="evenodd" clip-rule="evenodd" d="M25.2829 39.1875C25.7148 39.3548 25.7851 39.6354 25.4935 40.0302C25.298 39.7799 25.2277 39.4989 25.2829 39.1875Z" fill="#FFF4DB"/>
<path opacity="0.01" fill-rule="evenodd" clip-rule="evenodd" d="M24.8613 42.5583C25.423 42.8394 25.423 42.8394 24.8613 42.5583Z" fill="#FEF4DD"/>
<path opacity="0.01" fill-rule="evenodd" clip-rule="evenodd" d="M203.943 42.5583C204.377 42.7256 204.444 43.0063 204.153 43.4011C203.96 43.1508 203.888 42.8697 203.943 42.5583Z" fill="#FFF5DD"/>
<path opacity="0.01" fill-rule="evenodd" clip-rule="evenodd" d="M24.4385 43.8223C25.0002 44.1033 25.0002 44.1033 24.4385 43.8223Z" fill="#FEF4DB"/>
<path opacity="0.01" fill-rule="evenodd" clip-rule="evenodd" d="M203.942 44.2439C204.503 44.525 204.503 44.525 203.942 44.2439Z" fill="#FEF5DD"/>
<path opacity="0.98" fill-rule="evenodd" clip-rule="evenodd" d="M192.988 39.1875C192.981 43.3051 192.559 47.3785 191.724 51.4072C191.449 51.0074 191.309 50.516 191.303 49.9324C191.818 46.283 192.38 42.7013 192.988 39.1875Z" fill="#3E140B"/>
<path opacity="0.01" fill-rule="evenodd" clip-rule="evenodd" d="M23.5967 48.8787C24.1584 49.1597 24.1584 49.1597 23.5967 48.8787Z" fill="#FDF4DB"/>
<path opacity="0.01" fill-rule="evenodd" clip-rule="evenodd" d="M24.0174 50.5641C23.7364 50.0024 23.7364 50.0024 24.0174 50.5641Z" fill="#FCF2DE"/>
<path fill-rule="evenodd" clip-rule="evenodd" d="M190.881 54.3567C190.234 58.7196 189.531 63.0736 188.774 67.4192C189.226 62.8629 189.226 58.9302 188.774 55.6208C188.915 55.3397 189.055 55.0591 189.196 54.7781C189.532 55.443 189.743 56.145 189.828 56.8849C190.078 55.6983 190.429 54.8556 190.881 54.3567Z" fill="#582A1B"/>
<path opacity="0.02" fill-rule="evenodd" clip-rule="evenodd" d="M201.837 56.4636C202.397 56.7447 202.397 56.7447 201.837 56.4636Z" fill="#FEF4DD"/>
<path opacity="0.01" fill-rule="evenodd" clip-rule="evenodd" d="M21.9121 58.1489C22.4738 58.43 22.4738 58.43 21.9121 58.1489Z" fill="#FEF7DD"/>
<path opacity="0.01" fill-rule="evenodd" clip-rule="evenodd" d="M201.415 58.1489C201.975 58.43 201.975 58.43 201.415 58.1489Z" fill="#FEF5DE"/>
<path opacity="0.01" fill-rule="evenodd" clip-rule="evenodd" d="M21.4902 59.4131C22.0519 59.6941 22.0519 59.6941 21.4902 59.4131Z" fill="#FEF6DE"/>
<path opacity="0.012" fill-rule="evenodd" clip-rule="evenodd" d="M200.572 62.7842C201.006 62.9515 201.073 63.2321 200.782 63.6269C200.588 63.3766 200.517 63.0956 200.572 62.7842Z" fill="#FFF6DE"/>
<path opacity="0.01" fill-rule="evenodd" clip-rule="evenodd" d="M21.4911 64.4694C21.21 63.9077 21.21 63.9077 21.4911 64.4694Z" fill="#FDF5DD"/>
<path opacity="0.01" fill-rule="evenodd" clip-rule="evenodd" d="M20.2256 67.4189C20.7873 67.7 20.7873 67.7 20.2256 67.4189Z" fill="#FEF3DD"/>
<path opacity="0.01" fill-rule="evenodd" clip-rule="evenodd" d="M20.6463 68.6832C20.3653 68.1215 20.3653 68.1215 20.6463 68.6832Z" fill="#FEF4E0"/>
<path opacity="0.01" fill-rule="evenodd" clip-rule="evenodd" d="M198.466 73.3181C199.028 73.5992 199.028 73.5992 198.466 73.3181Z" fill="#FDF0D9"/>
<path opacity="0.01" fill-rule="evenodd" clip-rule="evenodd" d="M198.466 74.1609C199.028 74.4419 199.028 74.4419 198.466 74.1609Z" fill="#FCF4DC"/>
<path opacity="0.01" fill-rule="evenodd" clip-rule="evenodd" d="M18.5397 76.2678C18.9716 76.4351 19.042 76.7157 18.7504 77.1106C18.5549 76.8603 18.4845 76.5792 18.5397 76.2678Z" fill="#FFF5DE"/>
<path opacity="0.01" fill-rule="evenodd" clip-rule="evenodd" d="M18.1189 78.7961C18.5711 79.1126 18.6414 79.534 18.3296 80.0603C18.1261 79.6608 18.0562 79.2394 18.1189 78.7961Z" fill="#FFF5DF"/>
<path opacity="0.01" fill-rule="evenodd" clip-rule="evenodd" d="M201.415 80.0603C201.975 80.3414 201.975 80.3414 201.415 80.0603Z" fill="#FEF5DD"/>
<path fill-rule="evenodd" clip-rule="evenodd" d="M186.667 77.5321C186.454 78.9399 186.384 80.3443 186.456 81.7458C188.502 83.2901 190.398 84.9756 192.145 86.8022C190.02 85.418 187.983 83.8733 186.035 82.1671C185.754 80.903 185.754 79.6389 186.035 78.3748C186.102 77.5982 186.313 77.3176 186.667 77.5321Z" fill="#441910"/>
<path opacity="0.01" fill-rule="evenodd" clip-rule="evenodd" d="M205.207 84.6953C205.767 84.9764 205.767 84.9764 205.207 84.6953Z" fill="#FEF4DD"/>
<path opacity="0.01" fill-rule="evenodd" clip-rule="evenodd" d="M16.8545 85.9595C17.4162 86.2405 17.4162 86.2405 16.8545 85.9595Z" fill="#FEF4DC"/>
<path fill-rule="evenodd" clip-rule="evenodd" d="M29.4956 85.5378C29.7682 85.864 29.9085 86.2854 29.9169 86.802C29.552 89.5345 28.9903 91.9224 28.2314 93.9652C28.5437 91.1391 28.9651 88.3303 29.4956 85.5378Z" fill="#41170F"/>
<path opacity="0.01" fill-rule="evenodd" clip-rule="evenodd" d="M208.157 89.752C208.718 90.033 208.718 90.033 208.157 89.752Z" fill="#FEF3DB"/>
<path opacity="0.01" fill-rule="evenodd" clip-rule="evenodd" d="M209 91.0161C209 91.1564 209 91.2972 209 91.4375C208.718 91.2348 208.718 91.0941 209 91.0161Z" fill="#FDF4DB"/>
<path fill-rule="evenodd" clip-rule="evenodd" d="M195.095 90.1731C197.405 92.6849 198.95 95.6345 199.73 99.0219C198.399 96.2294 196.854 93.2799 195.095 90.1731Z" fill="#38120B"/>
<path opacity="0.01" fill-rule="evenodd" clip-rule="evenodd" d="M14.3262 94.3867C14.8879 94.6678 14.8879 94.6678 14.3262 94.3867Z" fill="#FEF5DD"/>
<path opacity="0.01" fill-rule="evenodd" clip-rule="evenodd" d="M15.1699 94.3867C15.7316 94.6678 15.7316 94.6678 15.1699 94.3867Z" fill="#FEF6DE"/>
<path opacity="0.01" fill-rule="evenodd" clip-rule="evenodd" d="M14.749 96.4937C15.3107 96.7747 15.3107 96.7747 14.749 96.4937Z" fill="#FEF7DE"/>
<path opacity="0.01" fill-rule="evenodd" clip-rule="evenodd" d="M14.3262 100.286C14.8879 100.567 14.8879 100.567 14.3262 100.286Z" fill="#FEF7E0"/>
<path opacity="0.01" fill-rule="evenodd" clip-rule="evenodd" d="M13.4844 104.5C14.0461 104.781 14.0461 104.781 13.4844 104.5Z" fill="#FEF5E0"/>
<path opacity="0.01" fill-rule="evenodd" clip-rule="evenodd" d="M13.9051 105.764C13.6241 105.202 13.6241 105.202 13.9051 105.764Z" fill="#FEF7E0"/>
<path opacity="0.01" fill-rule="evenodd" clip-rule="evenodd" d="M12.2207 111.241C12.7824 111.523 12.7824 111.523 12.2207 111.241Z" fill="#FEF7DF"/>
<path fill-rule="evenodd" clip-rule="evenodd" d="M199.73 110.82C199.582 112.654 198.882 114.199 197.623 115.455C198.301 113.614 199.003 112.069 199.73 110.82Z" fill="#391712"/>
<path opacity="0.01" fill-rule="evenodd" clip-rule="evenodd" d="M11.7988 113.348C12.3605 113.629 12.3605 113.629 11.7988 113.348Z" fill="#FEF7E1"/>
<path opacity="0.01" fill-rule="evenodd" clip-rule="evenodd" d="M11.376 115.877C11.9377 116.158 11.9377 116.158 11.376 115.877Z" fill="#FEF9DF"/>
<path fill-rule="evenodd" clip-rule="evenodd" d="M64.0477 11.7983C64.9895 11.674 65.8322 11.8148 66.5759 12.2197C65.9974 12.1535 65.4353 12.2239 64.8904 12.4304C68.309 13.1653 71.68 13.3759 75.0033 13.0624C75.5473 12.9626 75.9687 13.1029 76.2674 13.4838C78.4577 14.2419 81.267 14.7336 84.6948 14.9586C86.3205 15.2999 87.8652 15.2295 89.3299 14.7479C89.8739 14.6481 90.2953 14.7884 90.594 15.1693C98.2137 16.4755 106.43 17.5989 115.244 18.5403C115.963 18.5369 116.596 18.3961 117.14 18.1189C117.814 18.006 118.376 18.1467 118.826 18.5403C120.525 19.2191 122.842 19.6404 125.778 19.8044C126.498 19.801 127.13 19.6603 127.675 19.383C128.219 19.2831 128.64 19.4234 128.939 19.8044C128.627 19.7492 128.346 19.8195 128.096 20.015C133.42 20.8093 138.757 21.5118 144.108 22.1219C145.455 22.4611 146.719 22.3907 147.9 21.9112C148.318 21.8387 148.599 21.9795 148.743 22.3326C154.374 23.4366 160.343 24.2793 166.651 24.8608C167.371 24.8574 168.003 24.7167 168.547 24.4394C171.298 24.6935 173.967 25.1149 176.554 25.7035C176.242 25.6483 175.961 25.7187 175.711 25.9142C179.414 26.3828 182.925 27.4362 186.245 29.0745C190.16 31.2736 192.407 34.6446 192.987 39.1874C192.379 42.7012 191.817 46.2828 191.301 49.9323C191.307 50.5159 191.448 51.0072 191.723 51.4071C191.543 52.4648 191.262 53.4478 190.88 54.3567C190.428 54.8556 190.077 55.6983 189.827 56.8849C189.742 56.145 189.531 55.443 189.195 54.7781C189.054 55.0591 188.914 55.3398 188.773 55.6208C189.225 58.9303 189.225 62.8629 188.773 67.4192C188.223 70.8727 187.521 74.2437 186.666 77.5321C186.312 77.3176 186.101 77.5982 186.034 78.3748C185.753 79.6389 185.753 80.903 186.034 82.1671C187.983 83.8733 190.019 85.418 192.144 86.8022C193.439 87.674 194.422 88.7978 195.094 90.1732C196.853 93.2799 198.398 96.2295 199.729 99.0219C200.374 100.803 200.652 102.7 200.572 104.71C200.639 106.855 200.357 108.892 199.729 110.82C199.002 112.069 198.3 113.614 197.622 115.455C196.964 117.095 195.981 118.5 194.672 119.669C194.374 119.288 193.952 119.148 193.408 119.248C193.471 119.691 193.401 120.112 193.198 120.512C189.226 124.271 185.504 128.203 182.031 132.31C180.214 134.76 178.177 137.007 175.921 139.052C173.37 151.876 170.912 164.658 168.547 177.397C167.556 180.004 166.784 183.235 166.23 187.088C165.897 188.02 165.968 188.863 166.441 189.616C165.55 195.664 164.075 201.563 162.016 207.314C161.478 208.261 160.846 209.104 160.12 209.842C160.147 209.658 160.078 209.517 159.909 209.421C156.969 212.679 153.388 214.786 149.164 215.741C147.415 216.022 145.588 216.162 143.687 216.163C140.917 216.239 138.249 215.958 135.681 215.32C133.918 214.605 131.53 214.184 128.517 214.056C127.866 214.061 127.305 214.201 126.832 214.477C124.086 214.206 121.417 213.785 118.826 213.213C116.917 212.585 114.669 212.164 112.084 211.949C111.433 211.954 110.871 212.094 110.398 212.37C109.725 212.483 109.163 212.343 108.713 211.949C107.236 211.243 105.129 210.822 102.392 210.685C101.741 210.69 101.18 210.83 100.707 211.106C100.033 211.219 99.4714 211.079 99.0214 210.685C99.4647 210.748 99.8861 210.678 100.286 210.474C96.7793 209.948 93.268 209.457 89.7513 209C89.1003 209.004 88.5386 209.144 88.0658 209.421C87.5218 209.521 87.1004 209.38 86.8017 209C82.7839 208.083 78.4295 207.38 73.7392 206.893C73.0882 206.897 72.5265 207.038 72.0537 207.314C71.2468 207.434 70.5448 207.293 69.9469 206.893C70.3902 206.955 70.8115 206.885 71.211 206.682C68.6853 206.311 66.1571 205.96 63.6263 205.629C62.9753 205.633 62.4136 205.773 61.9409 206.05C61.5229 206.122 61.2422 205.982 61.0981 205.629C59.049 204.988 56.6611 204.566 53.9348 204.364C53.2838 204.369 52.7221 204.509 52.2493 204.786C49.5104 204.463 46.8419 204.041 44.2433 203.522C44.5547 203.577 44.8358 203.507 45.0861 203.311C43.2076 202.701 41.3818 202.631 39.6082 203.1C34.8977 202.525 30.2627 201.823 25.703 200.993C26.0144 201.049 26.2955 200.978 26.5458 200.783C22.3721 200.143 18.6501 198.528 15.3795 195.937C14.2569 193.799 13.3442 191.551 12.6406 189.195C12.349 189.416 12.1383 189.697 12.0085 190.038C11.6284 188.018 11.2774 186.051 10.9551 184.139C11.8724 178.567 12.9962 173.09 14.326 167.705C14.2708 168.017 14.3412 168.298 14.5367 168.548C15.0247 166.737 15.446 164.911 15.8008 163.07C16.0073 163.615 16.0777 164.177 16.0115 164.756C16.8926 164.679 17.7353 164.82 18.5397 165.177C19.7853 164.612 20.628 163.91 21.068 163.07C20.982 163.504 21.1927 163.925 21.7 164.334C21.8403 163.632 21.9811 162.93 22.1214 162.227C22.2276 164.371 21.9465 166.478 21.2786 168.548C20.8526 168.195 20.3609 168.055 19.8038 168.127C20.2286 169.853 20.65 171.538 21.068 173.183C21.1404 173.601 20.9997 173.882 20.6466 174.026C20.09 175.236 19.6686 176.781 19.3825 178.661C19.3909 179.177 19.5312 179.599 19.8038 179.925C19.6239 180.983 19.3433 181.966 18.9611 182.875C18.5195 183.437 18.2385 184.35 18.1184 185.613C18.3821 189.73 20.489 192.328 24.4389 193.409C24.8249 193.391 25.1059 193.25 25.2817 192.987C26.5163 193.324 27.7804 193.464 29.074 193.409C30.1978 193.69 31.3212 193.97 32.445 194.252C32.1336 194.196 31.8525 194.267 31.6022 194.462C34.5906 195.227 37.5402 195.437 40.451 195.094C44.7966 195.717 49.1506 196.28 53.5135 196.78C56.0172 197.214 58.5455 197.495 61.0981 197.623C69.6599 198.933 78.2281 200.197 86.8017 201.415C88.279 202.121 90.3859 202.542 93.1222 202.679C93.7733 202.674 94.3349 202.534 94.8077 202.258C99.6522 202.841 104.428 203.543 109.134 204.364C111.892 205.172 115.263 205.734 119.247 206.05C119.898 206.045 120.46 205.905 120.933 205.629C121.477 205.529 121.898 205.669 122.197 206.05C123.838 206.655 126.085 207.076 128.939 207.314C129.59 207.309 130.151 207.169 130.624 206.893C131.168 206.793 131.59 206.933 131.888 207.314C133.587 207.993 135.905 208.414 138.841 208.578C139.56 208.575 140.192 208.434 140.737 208.157C141.281 208.057 141.702 208.197 142.001 208.578C143.659 208.953 145.906 209.164 148.743 209.21C147.575 209.432 146.452 209.783 145.372 210.264C145.512 210.404 145.653 210.545 145.793 210.685C146.735 210.157 147.719 209.947 148.743 210.053C147.718 210.511 147.859 210.722 149.164 210.685C149.044 209.932 149.185 209.229 149.586 208.578C151.816 207.755 153.501 206.351 154.642 204.364C155.873 201.973 156.715 199.445 157.17 196.78C158.348 190.61 159.472 184.43 160.541 178.239C160.976 177.202 161.257 176.079 161.384 174.869C162.055 171.374 162.617 167.863 163.07 164.334C163.839 162.041 164.401 159.654 164.755 157.171C165.13 154.383 165.692 151.644 166.441 148.954C166.3 148.884 166.16 148.814 166.019 148.744C161.224 153.259 156.589 157.894 152.114 162.649C149.164 164.756 146.636 167.284 144.529 170.233C144.066 170.699 143.785 171.261 143.687 171.919C139.613 175.711 135.681 179.644 131.888 183.717C131.748 183.717 131.607 183.717 131.467 183.717C131.442 183.488 131.301 183.348 131.046 183.296C128.561 184.665 126.314 185.929 124.304 187.088C123.216 187.505 122.092 187.926 120.933 188.352C120.834 188.101 120.623 187.96 120.301 187.931C117.357 188.783 114.758 189.766 112.505 190.881C106.465 193.198 100.285 195.235 93.965 196.99C92.0115 197.386 90.1857 197.175 88.4872 196.358C88.6717 196.386 88.8125 196.316 88.9085 196.148C85.1187 194.663 83.5736 191.924 84.2735 187.931C84.201 187.513 84.3417 187.232 84.6948 187.088C84.6674 187.273 84.7374 187.414 84.9055 187.51C86.0559 185.136 86.6879 182.748 86.8017 180.346C86.7292 179.928 86.87 179.648 87.2231 179.504C87.8758 179.055 88.3671 178.213 88.6979 176.975C88.8382 177.678 88.9789 178.38 89.1192 179.082C89.509 178.852 89.86 178.571 90.1726 178.239C89.6691 177.621 89.6691 176.989 90.1726 176.343C89.7833 175.58 89.4323 175.65 89.1192 176.554C89.8065 172.945 90.9303 169.434 92.4902 166.02C92.6305 166.301 92.7712 166.581 92.9116 166.862C93.2246 166.045 93.1543 165.272 92.7009 164.545C94.0787 164.113 94.7812 164.464 94.8077 165.598C96.3365 164.331 97.3195 164.683 97.7573 166.652C97.3359 166.792 96.9146 166.933 96.4932 167.073C97.1425 167.739 97.6343 168.511 97.968 169.391C98.2023 168.508 98.413 168.438 98.6001 169.18C98.4475 169.696 98.2368 170.188 97.968 170.655C97.5466 170.233 97.1253 169.812 96.7039 169.391C96.5636 169.672 96.4228 169.952 96.2825 170.233C95.5034 169.126 94.5907 168.915 93.5436 169.601C94.8334 169.959 95.9572 170.591 96.9146 171.498C97.4147 170.91 97.6958 170.981 97.7573 171.708C97.5428 172.201 97.1918 172.552 96.7039 172.762C96.5712 173.972 96.3605 175.166 96.0718 176.343C96.1013 176.666 96.2416 176.876 96.4932 176.975C96.4768 177.432 96.336 177.853 96.0718 178.239C98.0952 178.899 99.921 179.882 101.55 181.189C102.322 182.919 103.024 184.605 103.656 186.246C104.12 186.708 104.682 186.779 105.342 186.456C107.594 185.613 109.841 184.77 112.084 183.928C111.988 183.76 111.847 183.69 111.663 183.717C115.353 182.158 119.145 180.753 123.04 179.504C123.496 179.139 123.566 178.718 123.25 178.239C122.501 177.275 121.588 176.572 120.511 176.133C120.178 175.587 119.757 175.096 119.247 174.658C117.281 173.815 115.315 172.972 113.348 172.13C111.878 169.109 110.052 166.37 107.87 163.913C107.342 162.82 106.64 161.837 105.763 160.963C105.101 159.813 104.118 159.04 102.814 158.646C103.235 158.505 103.656 158.365 104.078 158.224C103.246 158.016 102.404 157.945 101.55 158.014C101.541 158.706 101.822 159.268 102.392 159.699C101.438 161.789 100.525 163.896 99.6535 166.02C99.45 165.62 99.38 165.199 99.4428 164.756C98.4648 164.87 97.6221 164.589 96.9146 163.913C96.2964 164.007 95.6644 164.147 95.0184 164.334C95.1962 163.24 95.1962 162.116 95.0184 160.963C94.8419 161.457 94.5612 161.879 94.1757 162.227C94.1053 162.017 94.0353 161.806 93.965 161.595C94.8743 159.428 95.717 157.251 96.4932 155.064C98.6156 150.271 101.706 146.198 105.763 142.844C109.018 140.012 111.968 136.922 114.612 133.574C114.752 133.153 115.033 132.872 115.455 132.732C118.429 130.18 121.097 127.371 123.461 124.304C126.274 121.912 128.802 119.244 131.046 116.298C133.318 114.447 135.285 112.341 136.945 109.978C139.358 107.987 141.465 105.739 143.265 103.236C143.406 102.814 143.687 102.533 144.108 102.393C146.521 100.402 148.628 98.1547 150.429 95.651C150.373 95.3396 150.444 95.0585 150.639 94.8082C154.751 90.7677 158.754 86.6947 162.648 82.5885C166.559 79.6798 170.913 78.6963 175.711 79.6389C176.579 80.1913 177.491 80.1913 178.45 79.6389C179.599 73.1629 180.793 66.702 182.031 60.2559C182.105 58.8961 182.387 57.632 182.874 56.4636C183.71 54.9289 184.271 52.7521 184.56 49.9323C184.548 49.4815 184.407 49.1305 184.138 48.8789C184.817 45.8324 185.098 42.7425 184.981 39.6088C185.325 40.6491 185.536 41.7725 185.613 42.9797C186.421 38.6961 184.806 35.7465 180.767 34.1309C180.511 34.1832 180.371 34.3235 180.346 34.5523C176.243 33.7268 172.17 33.0244 168.126 32.4455C168.569 32.5082 168.991 32.4383 169.39 32.2348C166.721 31.8834 164.052 31.5324 161.384 31.1814C160.597 31.1843 159.894 31.3246 159.277 31.6027C156.267 31.21 153.318 30.7886 150.429 30.3386C151.007 30.4048 151.569 30.3344 152.114 30.1279C148.981 29.3631 145.89 29.1525 142.844 29.4959C136.097 28.6927 129.355 27.85 122.618 26.9677C120.701 26.9154 118.876 26.6343 117.14 26.1249C115.369 25.4503 112.981 25.0289 109.977 24.8608C109.326 24.8654 108.764 25.0058 108.292 25.2822C107.618 25.3951 107.056 25.2544 106.606 24.8608C106.917 24.916 107.199 24.8456 107.449 24.6501C102.613 23.9565 97.767 23.3245 92.9116 22.754C92.1923 22.7573 91.5602 22.8981 91.0154 23.1753C87.9925 22.8639 85.0429 22.4426 82.1666 21.9112C78.9781 21.0841 75.1858 20.452 70.7896 20.015C69.164 19.6737 67.6192 19.7441 66.1546 20.2257C65.5929 20.2257 65.0308 20.2257 64.4691 20.2257C64.1703 19.8448 63.749 19.7045 63.205 19.8044C60.8234 19.4664 58.4359 19.3961 56.0417 19.5937C54.7 19.9114 53.5762 20.5434 52.6707 21.4898C51.8823 21.6411 51.2503 22.0625 50.7745 22.754C49.7363 24.4116 48.8232 26.0971 48.0356 27.8104C48.063 27.6258 47.9931 27.4851 47.825 27.389C46.4926 31.1556 45.8605 34.948 45.9288 38.766C45.5529 40.6516 45.1316 42.4774 44.6647 44.2438C43.9058 46.2866 43.3441 48.6745 42.9792 51.4071C42.9876 51.9237 43.1279 52.3451 43.4006 52.6712C41.6586 62.286 39.8328 71.8372 37.9228 81.3244C37.978 81.013 37.9076 80.7319 37.7121 80.4816C36.7429 84.3081 36.2516 88.1004 36.2373 91.8586C36.0574 92.9163 35.7767 93.8993 35.3945 94.8082C34.6357 96.851 34.074 99.2389 33.7091 101.972C33.7175 102.488 33.8578 102.909 34.1304 103.236C33.8039 105.053 33.5232 106.879 33.2877 108.713C32.9068 109.012 32.7665 109.434 32.8663 109.978C32.1593 113.682 31.4568 117.334 30.7595 120.933C30.8223 120.49 30.7523 120.069 30.5488 119.669C29.9167 123.11 29.2847 126.551 28.6526 129.993C28.6644 130.443 28.8047 130.794 29.074 131.046C28.4183 135.206 27.5756 139.279 26.5458 143.266C25.7869 145.309 25.2252 147.696 24.8603 150.429C24.8687 150.946 25.009 151.367 25.2817 151.693C25.3815 152.237 25.2412 152.659 24.8603 152.957C24.7672 151.863 24.5565 151.863 24.2282 152.957C24.1579 152.536 24.0879 152.115 24.0175 151.693C24.3879 150.298 24.4583 148.893 24.2282 147.479C23.9379 147.841 23.5869 148.121 23.1748 148.322C21.8467 148.233 20.4422 148.233 18.9611 148.322C18.8928 149.176 18.9632 150.019 19.1718 150.85C19.4528 150.289 19.7335 150.289 20.0145 150.85C19.7545 150.178 19.8949 149.617 20.4359 149.165C21.0018 149.466 21.5635 149.325 22.1214 148.744C22.5992 149.133 23.091 149.555 23.5962 150.008C23.265 150.88 22.7033 151.583 21.9107 152.115C23.0808 152.581 23.7833 153.424 24.0175 154.643C23.7475 156.345 23.396 158.031 22.9641 159.699C22.8348 158.277 22.0624 157.715 20.6466 158.014C20.6466 158.435 20.6466 158.856 20.6466 159.278C19.8338 159.164 19.1318 159.375 18.5397 159.91C19.6585 159.379 20.4308 159.73 20.8573 160.963C20.9976 160.682 21.1383 160.402 21.2786 160.121C21.5597 160.682 21.8403 160.682 22.1214 160.121C22.622 160.568 22.8327 161.131 22.7534 161.806C21.8172 161.67 21.0444 161.951 20.4359 162.649C19.6184 161.429 18.565 160.446 17.2756 159.699C16.9246 160.542 16.5732 161.385 16.2222 162.227C16.041 161.093 16.1114 159.969 16.4329 158.856C17.1172 158.915 17.6085 158.634 17.9077 158.014C18.2102 158.414 18.5612 158.484 18.9611 158.224C18.4508 157.447 17.8891 157.096 17.2756 157.171C17.5567 156.188 17.8373 155.204 18.1184 154.221C18.1512 151.784 18.1512 149.397 18.1184 147.058C18.0185 146.514 18.1588 146.093 18.5397 145.794C19.6429 142.844 20.4856 139.262 21.068 135.049C21.0562 134.598 20.9158 134.247 20.6466 133.996C22.9683 120.563 25.4966 107.219 28.2313 93.9655C28.9901 91.9227 29.5518 89.5348 29.9167 86.8022C29.9083 86.2856 29.768 85.8642 29.4954 85.5381C32.9902 65.5529 36.7122 45.6082 40.6617 25.7035C41.622 22.6596 43.0264 19.8503 44.8754 17.2761C45.4868 16.4486 46.2591 15.8869 47.1929 15.5907C52.479 12.7237 58.0971 11.4596 64.0477 11.7983Z" fill="#73412A"/>
<path fill-rule="evenodd" clip-rule="evenodd" d="M136.945 109.978C135.285 112.341 133.319 114.447 131.046 116.298C132.706 113.935 134.672 111.828 136.945 109.978Z" fill="#41140C"/>
<path fill-rule="evenodd" clip-rule="evenodd" d="M143.266 103.235C141.465 105.739 139.358 107.987 136.945 109.977C138.746 107.473 140.853 105.226 143.266 103.235Z" fill="#43130C"/>
<path fill-rule="evenodd" clip-rule="evenodd" d="M164.755 95.6509C172.328 102.381 179.773 109.263 187.087 116.298C186.92 116.73 186.64 116.8 186.245 116.509C178.998 109.612 171.834 102.66 164.755 95.6509Z" fill="#F49D82"/>
<path fill-rule="evenodd" clip-rule="evenodd" d="M35.3954 94.8083C35.0651 97.632 34.6437 100.441 34.1313 103.236C33.8587 102.91 33.7184 102.488 33.71 101.972C34.0749 99.2391 34.6366 96.8512 35.3954 94.8083Z" fill="#3D1009"/>
<path opacity="0.996" fill-rule="evenodd" clip-rule="evenodd" d="M150.429 95.6509C148.628 98.1547 146.522 100.402 144.108 102.393C145.909 99.889 148.016 97.6414 150.429 95.6509Z" fill="#41120C"/>
<path fill-rule="evenodd" clip-rule="evenodd" d="M36.6597 89.3303C36.9323 89.6565 37.0726 90.0778 37.081 90.5944C36.8274 92.0743 36.5463 93.5491 36.2383 95.0188C36.3458 95.5776 36.6268 95.9989 37.081 96.2829C36.4532 96.5968 36.0318 97.0886 35.8169 97.7577C35.259 101.736 34.4862 105.669 33.4994 109.556C33.3039 109.306 33.2335 109.025 33.2887 108.713C33.5243 106.879 33.8049 105.053 34.1315 103.236C34.6438 100.441 35.0652 97.6317 35.3956 94.8081C35.7777 93.8992 36.0584 92.9162 36.2383 91.8585C36.2455 90.9884 36.3858 90.1457 36.6597 89.3303Z" fill="#F7E9D4"/>
<path opacity="0.999" fill-rule="evenodd" clip-rule="evenodd" d="M187.088 116.298C179.773 109.263 172.329 102.381 164.755 95.6511C163.503 95.4552 163.011 94.7528 163.281 93.5443C165.37 91.0308 167.828 88.9943 170.655 87.4344C181.33 86.9052 188.564 91.6102 192.355 101.55C193.639 107.605 191.883 112.521 187.088 116.298Z" fill="#F58C72"/>
<path fill-rule="evenodd" clip-rule="evenodd" d="M37.9228 81.3242C37.4559 83.9851 37.0345 86.6537 36.6587 89.3302C36.3848 90.1456 36.2445 90.9883 36.2373 91.8584C36.2516 88.1002 36.7429 84.3079 37.7121 80.4814C37.9076 80.7317 37.978 81.0128 37.9228 81.3242Z" fill="#390C06"/>
<path opacity="0.997" fill-rule="evenodd" clip-rule="evenodd" d="M175.711 79.6389C170.914 78.6963 166.56 79.6798 162.649 82.5885C162.464 82.6159 162.324 82.5459 162.228 82.3778C166.632 78.9247 171.548 77.9416 176.975 79.4282C176.576 79.6317 176.155 79.7017 175.711 79.6389Z" fill="#FCF7E8"/>
<path fill-rule="evenodd" clip-rule="evenodd" d="M184.139 48.8787C184.408 49.1302 184.549 49.4812 184.56 49.9321C184.272 52.7519 183.711 54.9287 182.875 56.4633C183.061 54.9236 183.202 53.3785 183.296 51.8283C183.649 51.6841 183.79 51.4035 183.718 50.9855C183.944 50.3042 184.085 49.6017 184.139 48.8787Z" fill="#4B1A10"/>
<path fill-rule="evenodd" clip-rule="evenodd" d="M183.297 51.8286C183.202 53.3788 183.062 54.924 182.875 56.4637C182.388 57.6321 182.107 58.8963 182.033 60.256C181.76 59.9299 181.62 59.5085 181.611 58.9919C182.005 56.2665 182.567 53.879 183.297 51.8286Z" fill="#FBF6E7"/>
<path opacity="0.996" fill-rule="evenodd" clip-rule="evenodd" d="M44.665 44.2439C44.4004 47.0793 43.979 49.8886 43.4009 52.6713C43.1282 52.3452 42.9879 51.9238 42.9795 51.4072C43.3444 48.6746 43.9061 46.2867 44.665 44.2439Z" fill="#3F120D"/>
<path opacity="0.988" fill-rule="evenodd" clip-rule="evenodd" d="M180.346 34.552C180.371 34.3232 180.511 34.1829 180.767 34.1306C184.805 35.7461 186.421 38.6957 185.613 42.9794C185.536 41.7722 185.325 40.6488 184.981 39.6084C184.333 37.1333 182.788 35.4478 180.346 34.552Z" fill="#44120A"/>
<path fill-rule="evenodd" clip-rule="evenodd" d="M164.755 32.4451C165.879 32.4451 167.002 32.4451 168.126 32.4451C172.17 33.0241 176.243 33.7265 180.346 34.552C182.788 35.4478 184.333 37.1333 184.981 39.6084C185.099 42.7421 184.818 45.832 184.138 48.8785C184.084 49.6016 183.944 50.304 183.717 50.9854C183.444 50.6593 183.304 50.2379 183.296 49.7213C184.064 46.3815 184.415 43.0105 184.349 39.6084C183.513 36.8097 181.617 35.1941 178.661 34.7626C173.604 34.0602 168.548 33.3582 163.491 32.6558C163.891 32.4523 164.312 32.3823 164.755 32.4451Z" fill="#F9F2DF"/>
<path fill-rule="evenodd" clip-rule="evenodd" d="M159.278 31.6028C159.895 31.3247 160.598 31.1843 161.385 31.1814C164.053 31.5324 166.722 31.8834 169.391 32.2348C168.992 32.4383 168.57 32.5083 168.127 32.4455C167.003 32.4455 165.88 32.4455 164.756 32.4455C163.012 31.9976 161.186 31.7165 159.278 31.6028Z" fill="#46140E"/>
<path fill-rule="evenodd" clip-rule="evenodd" d="M142.845 29.4956C145.891 29.1522 148.982 29.3628 152.115 30.1276C151.57 30.3341 151.008 30.4045 150.429 30.3383C147.888 30.1495 145.36 29.8685 142.845 29.4956Z" fill="#4A1B13"/>
<path fill-rule="evenodd" clip-rule="evenodd" d="M48.0366 27.8103C47.8963 28.653 47.7556 29.4958 47.6153 30.3385C46.9015 33.0652 46.3394 35.874 45.9298 38.7659C45.8615 34.9479 46.4936 31.1555 47.826 27.3889C47.9941 27.485 48.064 27.6257 48.0366 27.8103Z" fill="#41120B"/>
<path fill-rule="evenodd" clip-rule="evenodd" d="M113.769 26.125C114.893 26.125 116.016 26.125 117.14 26.125C118.875 26.6345 120.701 26.9155 122.618 26.9678C119.291 27.2981 115.921 27.0875 112.505 26.3357C112.904 26.1322 113.326 26.0623 113.769 26.125Z" fill="#FCF7E8"/>
<path fill-rule="evenodd" clip-rule="evenodd" d="M108.292 25.282C108.765 25.0055 109.326 24.8652 109.977 24.8606C112.982 25.0287 115.37 25.4501 117.141 26.1247C116.017 26.1247 114.894 26.1247 113.77 26.1247C112.018 25.7248 110.192 25.4438 108.292 25.282Z" fill="#4A1910"/>
<path fill-rule="evenodd" clip-rule="evenodd" d="M52.6713 21.4897C50.1734 24.2383 48.5579 27.469 47.8256 31.1813C47.6301 30.931 47.5597 30.6499 47.6149 30.3385C47.7552 29.4958 47.8959 28.653 48.0363 27.8103C48.8238 26.097 49.7369 24.4115 50.7752 22.7539C51.2509 22.0624 51.8829 21.641 52.6713 21.4897Z" fill="#FBF4E4"/>
<path fill-rule="evenodd" clip-rule="evenodd" d="M91.0156 23.175C91.5605 22.8978 92.1925 22.757 92.9118 22.7537C97.7672 23.3242 102.613 23.9563 107.449 24.6498C107.199 24.8453 106.918 24.9157 106.606 24.8605C102.53 24.4855 98.4562 24.0641 94.3866 23.5964C93.2333 23.6381 92.1095 23.4974 91.0156 23.175Z" fill="#4B1B12"/>
<path fill-rule="evenodd" clip-rule="evenodd" d="M66.1543 20.2257C67.619 19.7441 69.1637 19.6737 70.7894 20.015C75.1855 20.452 78.9779 21.084 82.1664 21.9112C76.8124 21.5037 71.4749 20.9416 66.1543 20.2257Z" fill="#501E14"/>
<path fill-rule="evenodd" clip-rule="evenodd" d="M64.4687 20.2255C65.0304 20.2255 65.5925 20.2255 66.1542 20.2255C71.4748 20.9414 76.8123 21.5035 82.1663 21.911C85.0425 22.4423 87.9921 22.8637 91.015 23.1751C92.1089 23.4974 93.2327 23.6382 94.386 23.5964C93.0629 24.0772 91.6585 24.1476 90.1723 23.8071C81.3303 22.6075 72.4815 21.4841 63.626 20.4362C63.8763 20.2406 64.1573 20.1703 64.4687 20.2255Z" fill="#FCF6E6"/>
<path opacity="0.999" fill-rule="evenodd" clip-rule="evenodd" d="M63.2063 19.8041C63.7503 19.7042 64.1716 19.8445 64.4704 20.2255C64.159 20.1703 63.8779 20.2406 63.6276 20.4361C72.4832 21.4841 81.3319 22.6075 90.174 23.8071C91.6601 24.1476 93.0646 24.0772 94.3877 23.5964C98.4573 24.0641 102.531 24.4855 106.607 24.8605C107.057 25.2541 107.619 25.3948 108.293 25.2819C110.193 25.4437 112.019 25.7248 113.771 26.1246C113.327 26.0619 112.906 26.1318 112.507 26.3353C115.922 27.087 119.293 27.2977 122.619 26.9674C129.357 27.8497 136.099 28.6925 142.845 29.4956C145.36 29.8685 147.889 30.1496 150.43 30.3383C153.319 30.7884 156.269 31.2097 159.279 31.6024C161.187 31.7162 163.012 31.9973 164.756 32.4452C164.313 32.3824 163.892 32.4524 163.492 32.6559C168.549 33.3583 173.605 34.0603 178.662 34.7627C181.618 35.1942 183.514 36.8097 184.35 39.6085C184.416 43.0106 184.065 46.3816 183.297 49.7214C183.305 50.238 183.445 50.6593 183.718 50.9855C183.791 51.4035 183.65 51.6841 183.297 51.8282C182.567 53.8786 182.005 56.2661 181.611 58.9915C181.62 59.5081 181.76 59.9295 182.033 60.2556C180.794 66.7017 179.6 73.1626 178.451 79.6386C177.493 80.191 176.58 80.191 175.712 79.6386C176.155 79.7014 176.577 79.6315 176.976 79.4279C171.549 77.9414 166.633 78.9244 162.228 82.3775C162.324 82.5457 162.465 82.6156 162.65 82.5882C158.755 86.6945 154.752 90.7674 150.641 94.808C150.445 95.0582 150.375 95.3393 150.43 95.6507C148.017 97.6412 145.91 99.8888 144.109 102.393C143.688 102.533 143.407 102.814 143.267 103.235C140.853 105.226 138.747 107.473 136.946 109.977C134.673 111.828 132.707 113.935 131.047 116.298C128.222 118.7 125.694 121.369 123.462 124.304C122.619 125.006 121.777 125.708 120.934 126.411C118.981 127.714 117.084 129.399 115.245 131.467C114.954 131.862 115.024 132.143 115.456 132.31C115.456 132.45 115.456 132.591 115.456 132.731C115.035 132.872 114.754 133.153 114.613 133.574C113.911 134.136 113.209 134.698 112.507 135.259C110.132 136.988 107.814 139.094 105.554 141.58C105.262 141.975 105.333 142.255 105.765 142.423C105.765 142.563 105.765 142.704 105.765 142.844C101.707 146.197 98.617 150.271 96.4945 155.064C95.6328 156.361 94.8604 157.766 94.177 159.278C92.8193 162.826 91.4848 166.338 90.174 169.812C90.2014 169.627 90.1314 169.487 89.9633 169.39C87.7717 175.544 85.6649 181.724 83.6427 187.931C82.5004 192.742 84.2562 195.902 88.9099 197.412C89.8988 197.595 90.8823 197.806 91.8594 198.044C100.067 196.102 107.793 193.574 115.035 190.459C116.061 189.881 117.185 189.46 118.406 189.195C118.505 189.446 118.715 189.587 119.038 189.616C121.777 188.703 124.516 187.79 127.255 186.877C128.974 186.022 130.518 184.969 131.89 183.717C135.926 180.314 139.789 176.662 143.477 172.761C143.673 172.511 143.743 172.23 143.688 171.919C150.989 164.969 158.082 157.805 164.967 150.429C165.008 152.266 164.798 154.093 164.335 155.907C164.344 156.423 164.484 156.845 164.756 157.171C164.402 159.653 163.84 162.041 163.071 164.334C162.075 167.059 161.373 170.149 160.964 173.604C160.973 174.121 161.113 174.542 161.386 174.868C161.258 176.079 160.977 177.202 160.543 178.239C160.598 177.928 160.528 177.647 160.332 177.396C159.002 183.406 157.808 189.446 156.75 195.515C156.759 196.032 156.899 196.453 157.172 196.779C156.717 199.444 155.874 201.972 154.644 204.364C154.363 204.504 154.082 204.645 153.801 204.786C153.828 204.601 153.758 204.46 153.59 204.364C151.389 206.972 148.58 208.095 145.163 207.735C128.844 206.011 112.552 204.045 96.2838 201.836C95.5646 201.839 94.9325 201.98 94.3877 202.257C91.8683 201.907 89.3401 201.627 86.803 201.415C78.2294 200.196 69.6612 198.932 61.0994 197.622C59.6794 196.987 57.6429 196.566 54.9896 196.358C54.406 196.364 53.9146 196.505 53.5148 196.779C49.1519 196.279 44.7979 195.717 40.4523 195.094C37.7964 194.703 35.1274 194.422 32.4463 194.251C31.3225 193.97 30.1991 193.69 29.0753 193.409C29.5186 193.471 29.94 193.401 30.3394 193.198C28.0741 192.867 25.827 192.446 23.5975 191.934C20.8784 190.647 19.474 188.47 19.3838 185.403C20.0972 183.398 20.2375 181.432 19.8052 179.503C20.288 177.711 20.5691 175.885 20.6479 174.026C21.001 173.881 21.1417 173.601 21.0693 173.183C22.0945 167.634 23.2183 162.156 24.4402 156.749C25.2758 155.215 25.8375 153.038 26.1257 150.218C26.1139 149.767 25.9736 149.416 25.7043 149.165C26.0398 147.207 26.3208 145.24 26.5471 143.265C27.5769 139.279 28.4196 135.206 29.0753 131.046C29.3446 128.856 29.7659 126.749 30.3394 124.725C30.2766 125.169 30.3466 125.59 30.5501 125.989C31.3928 121.496 32.2356 117.002 33.0783 112.505C33.4108 111.573 33.3404 110.731 32.8676 109.977C32.7678 109.433 32.9081 109.012 33.289 108.713C33.2338 109.025 33.3042 109.306 33.4997 109.556C34.4865 105.668 35.2593 101.736 35.8172 97.7575C36.0321 97.0884 36.4535 96.5967 37.0813 96.2827C36.6271 95.9987 36.346 95.5774 36.2386 95.0186C36.5466 93.5489 36.8277 92.0741 37.0813 90.5943C37.0729 90.0777 36.9326 89.6563 36.66 89.3301C37.0358 86.6536 37.4572 83.9851 37.9241 81.3241C39.8341 71.837 41.6599 62.2858 43.4019 52.671C43.98 49.8882 44.4014 47.0789 44.666 44.2435C45.1329 42.4772 45.5542 40.6514 45.9301 38.7657C46.3397 35.8739 46.9018 33.065 47.6156 30.3383C47.5604 30.6497 47.6308 30.9308 47.8263 31.1811C48.5586 27.4688 50.1741 24.2382 52.672 21.4896C53.6462 21.144 54.6297 20.793 55.6216 20.4361C58.2261 20.3637 60.7543 20.153 63.2063 19.8041Z" fill="#FEDEB8"/>
<path fill-rule="evenodd" clip-rule="evenodd" d="M106.606 106.185C111.807 106.757 117.004 107.389 122.197 108.081C124.188 109.107 124.82 110.723 124.093 112.927C123.602 113.98 122.829 114.753 121.776 115.245C117.389 115.34 113.035 114.988 108.713 114.191C109.186 113.915 109.748 113.774 110.399 113.77C113.566 114.139 116.726 114.561 119.88 115.034C123.285 114.604 124.268 112.919 122.829 109.977C122.164 109.328 121.391 108.836 120.512 108.503C115.273 107.924 110.638 107.152 106.606 106.185Z" fill="#E27F51"/>
<path opacity="0.998" fill-rule="evenodd" clip-rule="evenodd" d="M67.8408 109.135C68.3136 108.858 68.8753 108.718 69.5263 108.713C72.7456 109.168 75.9762 109.519 79.2178 109.767C85.8569 110.494 91.8968 111.407 97.3367 112.506C87.4859 111.536 77.6541 110.412 67.8408 109.135Z" fill="#E38051"/>
<path opacity="0.999" fill-rule="evenodd" clip-rule="evenodd" d="M106.607 106.185C110.638 107.152 115.273 107.925 120.512 108.503C121.391 108.837 122.164 109.328 122.83 109.978C124.269 112.919 123.286 114.604 119.88 115.034C116.726 114.561 113.566 114.139 110.399 113.77C109.748 113.775 109.186 113.915 108.714 114.191C104.831 113.865 101.038 113.303 97.3367 112.506C91.8968 111.407 85.8569 110.494 79.2178 109.767C75.9762 109.52 72.7456 109.169 69.5263 108.713C68.8753 108.718 68.3136 108.858 67.8408 109.135C61.8022 108.409 55.7622 107.636 49.7219 106.817C46.329 104.983 45.9077 102.595 48.4578 99.654C49.1737 99.2504 49.9465 99.0397 50.7753 99.022C69.4589 101.307 88.0695 103.695 106.607 106.185Z" fill="#E79264"/>
<path opacity="0.999" fill-rule="evenodd" clip-rule="evenodd" d="M54.3569 75.0039C84.2081 78.1735 113.985 81.8954 143.687 86.1702C146.092 88.7233 145.811 90.9705 142.845 92.9121C140.457 93.1932 138.069 93.1932 135.681 92.9121C108.715 89.5412 81.7473 86.1702 54.7783 82.7993C52.4806 81.7863 51.5679 80.0304 52.0394 77.5321C52.6125 76.469 53.3848 75.6263 54.3569 75.0039Z" fill="#E89264"/>
<path opacity="0.996" fill-rule="evenodd" clip-rule="evenodd" d="M57.3075 40.8728C56.5044 46.2145 55.6616 51.552 54.7793 56.8848C54.5425 59.5888 55.6662 61.415 58.1502 62.3626C62.5839 65.0716 67.219 67.4591 72.0554 69.5259C72.6673 69.8639 73.3693 70.0746 74.1623 70.158C73.1792 70.439 72.1958 70.439 71.2127 70.158C66.6438 67.6626 62.0087 65.2747 57.3075 62.9947C55.2436 61.592 54.1202 59.6254 53.9365 57.0955C54.9904 51.4041 56.0438 45.7156 57.0968 40.03C57.2923 40.2803 57.3627 40.5614 57.3075 40.8728Z" fill="#FEF3D2"/>
<path fill-rule="evenodd" clip-rule="evenodd" d="M58.1494 62.3625C62.6863 64.4201 67.1811 66.5973 71.6333 68.8938C73.7865 69.134 75.8933 68.9233 77.9538 68.2617C76.1731 69.2966 74.2066 69.718 72.0546 69.5258C67.2181 67.459 62.5831 65.0715 58.1494 62.3625Z" fill="#E1784A"/>
<path opacity="0.999" fill-rule="evenodd" clip-rule="evenodd" d="M77.9524 68.2619C75.8919 68.9235 73.785 69.1342 71.6318 68.894C67.1796 66.5975 62.6849 64.4203 58.148 62.3627C55.664 61.4151 54.5402 59.5889 54.777 56.8849C55.6594 51.5521 56.5021 46.2146 57.3052 40.8729C57.4426 38.707 58.4256 36.9512 60.2548 35.6057C64.6607 33.7884 69.085 32.033 73.528 30.3386C74.4487 30.516 75.3614 30.7267 76.2669 30.9707C81.1455 33.375 85.9913 35.8329 90.8041 38.3447C91.5348 39.5236 92.0265 40.7878 92.2789 42.137C90.9921 49.4844 89.5173 56.788 87.8546 64.0482C87.2044 64.8396 86.432 65.4716 85.537 65.9444C83.0366 66.8482 80.5084 67.621 77.9524 68.2619Z" fill="#E79163"/>
<path fill-rule="evenodd" clip-rule="evenodd" d="M134.838 50.143C135.311 49.8666 135.872 49.7263 136.523 49.7217C139.461 50.1713 142.411 50.5227 145.372 50.7751C151.856 51.6035 157.755 52.5166 163.07 53.514C153.621 52.7016 144.21 51.5778 134.838 50.143Z" fill="#FEEECD"/>
<path opacity="0.999" fill-rule="evenodd" clip-rule="evenodd" d="M134.838 50.1433C144.211 51.578 153.621 52.7018 163.07 53.5142C164.133 53.8867 165.257 54.2382 166.441 54.5677C168.762 56.9425 168.622 59.1897 166.02 61.3096C162.497 61.543 158.985 61.4027 155.485 60.8882C138.186 58.7578 120.91 56.5106 103.657 54.1463C101.839 52.4098 101.487 50.3729 102.604 48.0364C102.984 47.5304 103.475 47.1789 104.078 46.983C105.624 46.702 107.168 46.702 108.713 46.983C117.408 48.1751 126.117 49.2285 134.838 50.1433Z" fill="#E79264"/>
<path opacity="0.999" fill-rule="evenodd" clip-rule="evenodd" d="M83.8532 43.8224C85.4705 43.6147 86.3132 44.3171 86.3815 45.9293C85.4873 50.7342 84.5043 55.5095 83.4319 60.2559C82.1703 60.992 80.8358 61.5537 79.4289 61.9413C78.4648 61.1517 77.6924 60.1686 77.1113 58.9917C78.0952 57.8684 78.868 56.6043 79.4289 55.1994C80.1966 52.1487 80.7583 49.0588 81.1143 45.9293C82.0945 45.2694 83.0071 44.5674 83.8532 43.8224Z" fill="#FEE1BA"/>
<path opacity="0.999" fill-rule="evenodd" clip-rule="evenodd" d="M63.6274 40.8727C65.9226 40.5887 68.0294 41.08 69.9479 42.3475C71.6334 43.3305 73.3189 44.314 75.0044 45.2971C77.3691 47.0567 78.1415 49.3743 77.3219 52.2497C76.9701 54.4408 75.9866 56.267 74.3723 57.7275C74.4326 59.6574 74.3622 61.5535 74.1616 63.416C70.7241 63.3494 68.9683 61.5936 68.8945 58.1489C65.9685 54.8892 64.283 55.4508 63.8381 59.8344C62.4594 59.1568 61.1952 58.314 60.0458 57.3061C59.7647 56.3231 59.7647 55.3396 60.0458 54.3565C60.8817 51.0134 61.5838 47.6424 62.1526 44.2437C62.3077 42.9522 62.7994 41.8284 63.6274 40.8727Z" fill="#FEE0B9"/>
<path opacity="0.999" fill-rule="evenodd" clip-rule="evenodd" d="M66.9987 47.1933C68.6686 47.0201 70.2138 47.3711 71.6338 48.2467C73.2232 49.8846 73.2232 51.5701 71.6338 53.3032C70.1725 53.7587 68.9084 53.478 67.8415 52.4604C67.2966 52.254 66.7345 52.1836 66.156 52.2497C65.9786 50.4623 66.2596 48.7768 66.9987 47.1933Z" fill="#E79264"/>
<path opacity="0.999" fill-rule="evenodd" clip-rule="evenodd" d="M72.8968 36.2377C73.6127 36.1703 74.3152 36.2402 75.0037 36.4484C77.6954 38.0753 80.5042 39.4797 83.4311 40.6621C81.5273 42.1091 79.4205 42.9518 77.1105 43.1903C74.3708 41.6102 71.7022 39.9247 69.1045 38.1339C70.3421 37.375 71.6062 36.7429 72.8968 36.2377Z" fill="#FEE2BB"/>
<path fill-rule="evenodd" clip-rule="evenodd" d="M63.2061 19.8044C60.7542 20.1533 58.226 20.364 55.6215 20.4364C54.6296 20.7933 53.6461 21.1443 52.6719 21.4899C53.5774 20.5435 54.7012 19.9114 56.0428 19.5937C58.4371 19.3961 60.8245 19.4664 63.2061 19.8044Z" fill="#FCF6E7"/>
<path opacity="0.01" fill-rule="evenodd" clip-rule="evenodd" d="M10.9551 118.405C11.5168 118.686 11.5168 118.686 10.9551 118.405Z" fill="#FEF6E1"/>
<path fill-rule="evenodd" clip-rule="evenodd" d="M32.8669 109.978C33.3397 110.731 33.41 111.574 33.0776 112.506C32.2348 117.002 31.3921 121.497 30.5494 125.99C30.3458 125.59 30.2759 125.169 30.3387 124.725C30.342 123.442 30.4824 122.178 30.76 120.933C31.4574 117.334 32.1598 113.682 32.8669 109.978Z" fill="#F7EEDE"/>
<path opacity="0.996" fill-rule="evenodd" clip-rule="evenodd" d="M131.047 116.298C128.803 119.244 126.275 121.912 123.462 124.304C125.694 121.369 128.222 118.701 131.047 116.298Z" fill="#44150C"/>
<path opacity="0.999" fill-rule="evenodd" clip-rule="evenodd" d="M165.177 107.449C167.435 109.568 169.682 111.675 171.919 113.77C155.445 131.579 138.59 149.066 121.354 166.23C120.833 166.328 120.412 166.539 120.09 166.862C119.42 166.808 118.858 166.527 118.405 166.02C117.242 163.831 115.978 161.725 114.612 159.699C114.936 159.378 115.147 158.956 115.244 158.435C132.256 141.774 148.9 124.779 165.177 107.449Z" fill="#DA6D53"/>
<path opacity="0.999" fill-rule="evenodd" clip-rule="evenodd" d="M165.177 107.449C148.901 124.779 132.257 141.775 115.245 158.435C115.147 158.956 114.937 159.378 114.613 159.699C112.49 157.085 110.032 154.837 107.239 152.957C106.958 152.676 106.958 152.396 107.239 152.115C123.896 135.036 140.4 117.831 156.75 100.497C157.171 100.216 157.593 100.216 158.014 100.497C160.358 102.911 162.746 105.229 165.177 107.449Z" fill="#F58971"/>
<path opacity="0.01" fill-rule="evenodd" clip-rule="evenodd" d="M10.5342 120.933C11.0959 121.214 11.0959 121.214 10.5342 120.933Z" fill="#FEF5DF"/>
<path opacity="0.01" fill-rule="evenodd" clip-rule="evenodd" d="M10.1123 123.04C10.674 123.321 10.674 123.321 10.1123 123.04Z" fill="#FEF6DE"/>
<path fill-rule="evenodd" clip-rule="evenodd" d="M30.7602 120.933C30.4825 122.178 30.3422 123.442 30.3388 124.725C29.7653 126.75 29.3439 128.856 29.0747 131.046C28.8054 130.794 28.6651 130.443 28.6533 129.993C29.2854 126.551 29.9174 123.11 30.5495 119.669C30.753 120.068 30.823 120.49 30.7602 120.933Z" fill="#350B05"/>
<path opacity="0.016" fill-rule="evenodd" clip-rule="evenodd" d="M205.207 123.883C205.767 124.164 205.767 124.164 205.207 123.883Z" fill="#FEF3DB"/>
<path opacity="0.01" fill-rule="evenodd" clip-rule="evenodd" d="M10.534 124.725C10.253 124.164 10.253 124.164 10.534 124.725Z" fill="#FDF4DD"/>
<path opacity="0.992" fill-rule="evenodd" clip-rule="evenodd" d="M194.673 119.669C190.6 124.023 186.386 128.237 182.032 132.31C185.505 128.204 189.227 124.271 193.199 120.512C193.402 120.113 193.472 119.691 193.409 119.248C193.953 119.148 194.375 119.288 194.673 119.669Z" fill="#421309"/>
<path opacity="0.992" fill-rule="evenodd" clip-rule="evenodd" d="M123.461 124.304C121.098 127.371 118.429 130.18 115.455 132.731C115.455 132.591 115.455 132.45 115.455 132.31C117.281 130.343 119.107 128.377 120.933 126.411C121.776 125.708 122.618 125.006 123.461 124.304Z" fill="#45160C"/>
<path fill-rule="evenodd" clip-rule="evenodd" d="M120.933 126.411C119.107 128.377 117.281 130.343 115.455 132.31C115.023 132.143 114.953 131.862 115.245 131.467C117.083 129.399 118.98 127.714 120.933 126.411Z" fill="#FCF8E8"/>
<path opacity="0.999" fill-rule="evenodd" clip-rule="evenodd" d="M171.919 113.77C174.871 116.582 177.821 119.391 180.768 122.197C177.684 125.844 174.453 129.355 171.077 132.731C165.015 138.371 159.256 144.271 153.8 150.429C150.711 153.238 147.761 156.188 144.952 159.278C140.574 163.233 136.501 167.446 132.732 171.919C131.835 172.721 130.852 173.423 129.782 174.026C127.15 170.831 123.919 168.443 120.091 166.862C120.412 166.539 120.834 166.328 121.355 166.23C138.591 149.066 155.445 131.579 171.919 113.77Z" fill="#F48970"/>
<path opacity="0.01" fill-rule="evenodd" clip-rule="evenodd" d="M8.42773 133.574C8.98942 133.855 8.98942 133.855 8.42773 133.574Z" fill="#FEF7E0"/>
<path fill-rule="evenodd" clip-rule="evenodd" d="M20.6469 133.996C20.9161 134.248 21.0565 134.599 21.0683 135.05C20.4859 139.262 19.6432 142.844 18.54 145.794C19.1346 141.839 19.8366 137.906 20.6469 133.996Z" fill="#441912"/>
<path opacity="0.01" fill-rule="evenodd" clip-rule="evenodd" d="M7.58559 136.524C8.01749 136.691 8.08786 136.972 7.79627 137.367C7.60076 137.116 7.53039 136.835 7.58559 136.524Z" fill="#FFF7E0"/>
<path opacity="0.01" fill-rule="evenodd" clip-rule="evenodd" d="M194.673 136.945C195.235 137.226 195.235 137.226 194.673 136.945Z" fill="#FEF4DC"/>
<path opacity="0.012" fill-rule="evenodd" clip-rule="evenodd" d="M7.58559 137.788C8.01749 137.955 8.08786 138.236 7.79627 138.631C7.60076 138.38 7.53039 138.099 7.58559 137.788Z" fill="#FDF7E0"/>
<path opacity="0.996" fill-rule="evenodd" clip-rule="evenodd" d="M112.506 135.26C110.259 137.647 108.011 140.035 105.764 142.423C105.332 142.256 105.262 141.975 105.553 141.58C107.813 139.094 110.131 136.988 112.506 135.26Z" fill="#FDF8E8"/>
<path opacity="0.01" fill-rule="evenodd" clip-rule="evenodd" d="M7.16309 139.473C7.72477 139.754 7.72477 139.754 7.16309 139.473Z" fill="#FEF7E0"/>
<path fill-rule="evenodd" clip-rule="evenodd" d="M114.612 133.574C111.968 136.922 109.018 140.012 105.764 142.844C105.764 142.704 105.764 142.563 105.764 142.423C108.011 140.035 110.258 137.648 112.506 135.26C113.208 134.698 113.91 134.136 114.612 133.574Z" fill="#441810"/>
<path opacity="0.01" fill-rule="evenodd" clip-rule="evenodd" d="M6.74121 141.58C7.3029 141.861 7.3029 141.861 6.74121 141.58Z" fill="#FEF4DD"/>
<path opacity="0.01" fill-rule="evenodd" clip-rule="evenodd" d="M6.74121 142.423C7.3029 142.704 7.3029 142.704 6.74121 142.423Z" fill="#FEF7DF"/>
<path opacity="0.999" fill-rule="evenodd" clip-rule="evenodd" d="M44.0339 135.892C48.1478 136.263 90.3553 140.477 94.3878 141.369C96.3893 144.247 95.8272 146.494 92.7023 148.111C88.6976 148.301 46.6308 144.298 42.7698 143.266C40.2336 140.303 40.655 137.844 44.0339 135.892Z" fill="#E69063"/>
<path fill-rule="evenodd" clip-rule="evenodd" d="M26.5468 143.266C26.3205 145.24 26.0395 147.207 25.7041 149.165C25.3497 149.957 25.209 150.799 25.2827 151.693C25.0101 151.367 24.8698 150.946 24.8613 150.429C25.2262 147.696 25.7879 145.308 26.5468 143.266Z" fill="#3C0F07"/>
<path fill-rule="evenodd" clip-rule="evenodd" d="M171.076 132.731C165.62 138.89 159.862 144.789 153.8 150.429C159.255 144.271 165.014 138.371 171.076 132.731Z" fill="#512514"/>
<path opacity="0.01" fill-rule="evenodd" clip-rule="evenodd" d="M5.05762 151.693C5.6193 151.974 5.6193 151.974 5.05762 151.693Z" fill="#FEF6DE"/>
<path opacity="0.01" fill-rule="evenodd" clip-rule="evenodd" d="M4.63477 152.957C5.19645 153.238 5.19645 153.238 4.63477 152.957Z" fill="#FEF6DB"/>
<path opacity="0.996" fill-rule="evenodd" clip-rule="evenodd" d="M25.7026 149.165C25.9718 149.417 26.1122 149.768 26.124 150.218C25.8357 153.038 25.2741 155.215 24.4385 156.75C24.6336 155.493 24.7739 154.229 24.8598 152.957C25.2408 152.659 25.3811 152.237 25.2812 151.693C25.2075 150.8 25.3482 149.957 25.7026 149.165Z" fill="#FBF4E5"/>
<path opacity="0.01" fill-rule="evenodd" clip-rule="evenodd" d="M4.63539 153.8C5.0673 153.967 5.13766 154.248 4.84608 154.643C4.65056 154.392 4.58019 154.111 4.63539 153.8Z" fill="#FFF7E1"/>
<path opacity="0.01" fill-rule="evenodd" clip-rule="evenodd" d="M4.21289 155.485C4.77458 155.766 4.77458 155.766 4.21289 155.485Z" fill="#FEF7DF"/>
<path opacity="0.01" fill-rule="evenodd" clip-rule="evenodd" d="M183.717 156.75C184.278 157.031 184.278 157.031 183.717 156.75Z" fill="#FEF5DD"/>
<path opacity="0.01" fill-rule="evenodd" clip-rule="evenodd" d="M183.296 158.014C183.858 158.295 183.858 158.295 183.296 158.014Z" fill="#FEF5DD"/>
<path opacity="0.01" fill-rule="evenodd" clip-rule="evenodd" d="M3.79164 158.435C4.22355 158.602 4.29391 158.883 4.00233 159.278C3.80681 159.028 3.73644 158.746 3.79164 158.435Z" fill="#FFF4DE"/>
<path opacity="0.01" fill-rule="evenodd" clip-rule="evenodd" d="M3.37109 160.121C3.93278 160.402 3.93278 160.402 3.37109 160.121Z" fill="#FEF5DE"/>
<path opacity="0.01" fill-rule="evenodd" clip-rule="evenodd" d="M184.139 160.542C184.7 160.823 184.7 160.823 184.139 160.542Z" fill="#FCF3DA"/>
<path opacity="0.01" fill-rule="evenodd" clip-rule="evenodd" d="M3.79314 162.227C3.36123 162.06 3.29086 161.779 3.58245 161.385C3.77797 161.635 3.84834 161.916 3.79314 162.227Z" fill="#FFF4DF"/>
<path opacity="0.998" fill-rule="evenodd" clip-rule="evenodd" d="M18.1191 147.058C18.152 149.397 18.152 151.784 18.1191 154.221C17.8381 155.204 17.5574 156.188 17.2764 157.171C17.8899 157.096 18.4516 157.447 18.9619 158.224C18.562 158.484 18.211 158.414 17.9084 158.014C17.6093 158.634 17.118 158.915 16.4336 158.856C16.1121 159.969 16.0418 161.093 16.223 162.227C16.574 161.385 16.9254 160.542 17.2764 159.699C18.5658 160.446 19.6192 161.429 20.4367 162.649C21.0451 161.951 21.8179 161.67 22.7542 161.806C22.8334 161.131 22.6227 160.568 22.1221 160.121C21.8411 160.682 21.5605 160.682 21.2794 160.121C21.1391 160.402 20.9983 160.682 20.858 160.963C20.4316 159.73 19.6592 159.379 18.5405 159.91C19.1325 159.375 19.8345 159.164 20.6473 159.278C20.6473 158.856 20.6473 158.435 20.6473 158.014C22.0632 157.715 22.8355 158.277 22.9649 159.699C23.3968 158.031 23.7482 156.345 24.0183 154.643C23.784 153.424 23.0816 152.581 21.9115 152.115C22.7041 151.583 23.2657 150.88 23.5969 150.008C23.0917 149.555 22.6 149.133 22.1221 148.744C21.5642 149.325 21.0026 149.466 20.4367 149.165C19.8956 149.617 19.7553 150.178 20.0153 150.85C19.7342 150.289 19.4536 150.289 19.1726 150.85C18.964 150.019 18.8936 149.176 18.9619 148.322C20.443 148.233 21.8474 148.233 23.1756 148.322C23.5877 148.121 23.9387 147.841 24.229 147.479C24.4591 148.893 24.3887 150.298 24.0183 151.693C24.0887 152.115 24.1586 152.536 24.229 152.957C24.5572 151.863 24.7679 151.863 24.861 152.957C24.7751 154.229 24.6348 155.493 24.4397 156.75C23.2177 162.156 22.0939 167.634 21.0687 173.183C20.6507 171.538 20.2293 169.853 19.8046 168.127C20.3617 168.055 20.8534 168.195 21.2794 168.548C21.9473 166.478 22.2283 164.371 22.1221 162.227C21.9818 162.93 21.8411 163.632 21.7008 164.334C21.1934 163.925 20.9828 163.504 21.0687 163.07C20.6288 163.91 19.7861 164.612 18.5405 165.177C17.7361 164.82 16.8934 164.679 16.0123 164.756C16.0784 164.177 16.0081 163.615 15.8016 163.07C15.4468 164.911 15.0254 166.737 14.5375 168.548C14.342 168.298 14.2716 168.017 14.3268 167.705C15.4287 160.791 16.6928 153.909 18.1191 147.058Z" fill="#693824"/>
<path opacity="0.999" fill-rule="evenodd" clip-rule="evenodd" d="M105.764 160.963C106.64 161.837 107.342 162.82 107.871 163.913C109.6 166.734 111.285 169.613 112.927 172.551C115.621 173.468 118.15 174.662 120.512 176.132C121.182 176.949 121.885 177.791 122.619 178.661C118.073 181.358 113.157 182.341 107.871 181.61C107.89 182.789 108.031 183.772 108.292 184.56C106.843 185.278 105.298 185.84 103.657 186.245C103.024 184.604 102.322 182.919 101.55 181.189C100.534 179.481 98.989 178.498 96.915 178.239C98.3881 173.329 100.074 168.483 101.971 163.702C101.942 163.38 101.802 163.169 101.55 163.07C101.857 161.753 102.489 160.629 103.446 159.699C104.176 160.222 104.948 160.643 105.764 160.963Z" fill="#FEC996"/>
<path fill-rule="evenodd" clip-rule="evenodd" d="M101.55 163.07C101.802 163.169 101.942 163.38 101.971 163.702C100.074 168.483 98.3881 173.329 96.915 178.239C98.989 178.498 100.534 179.481 101.55 181.189C99.9215 179.882 98.0957 178.899 96.0723 178.239C96.3365 177.853 96.4772 177.432 96.4936 176.975C98.0131 172.276 99.6986 167.641 101.55 163.07Z" fill="#F8E8BE"/>
<path fill-rule="evenodd" clip-rule="evenodd" d="M164.756 157.171C164.483 156.845 164.343 156.424 164.335 155.907C164.797 154.093 165.008 152.267 164.967 150.429C158.082 157.806 150.989 164.969 143.688 171.919C143.786 171.261 144.067 170.699 144.53 170.234C147.199 167.846 149.727 165.317 152.115 162.649C156.589 157.894 161.225 153.259 166.02 148.744C166.16 148.814 166.301 148.884 166.441 148.954C165.693 151.644 165.131 154.383 164.756 157.171Z" fill="#FCF6E6"/>
<path fill-rule="evenodd" clip-rule="evenodd" d="M152.114 162.649C149.726 165.317 147.198 167.845 144.529 170.233C146.636 167.284 149.164 164.756 152.114 162.649Z" fill="#471107"/>
<path opacity="0.012" fill-rule="evenodd" clip-rule="evenodd" d="M181.611 167.705C182.173 167.986 182.173 167.986 181.611 167.705Z" fill="#FDF3D9"/>
<path fill-rule="evenodd" clip-rule="evenodd" d="M144.951 159.278C141.182 163.75 137.109 167.964 132.731 171.919C136.501 167.447 140.574 163.233 144.951 159.278Z" fill="#4E2513"/>
<path fill-rule="evenodd" clip-rule="evenodd" d="M163.07 164.334C162.617 167.863 162.055 171.374 161.384 174.868C161.112 174.542 160.971 174.121 160.963 173.604C161.372 170.149 162.074 167.059 163.07 164.334Z" fill="#FBF4E6"/>
<path opacity="0.998" fill-rule="evenodd" clip-rule="evenodd" d="M96.4948 155.064C95.7186 157.251 94.8758 159.428 93.9665 161.595C94.0369 161.806 94.1068 162.017 94.1772 162.228C94.5628 161.879 94.8434 161.457 95.02 160.963C95.1978 162.116 95.1978 163.24 95.02 164.334C95.6659 164.147 96.298 164.007 96.9161 163.913C97.6236 164.589 98.4663 164.87 99.4443 164.756C99.3816 165.199 99.4515 165.62 99.655 166.02C100.527 163.896 101.44 161.789 102.394 159.699C101.824 159.268 101.543 158.706 101.551 158.014C102.405 157.946 103.248 158.016 104.079 158.224C103.658 158.365 103.237 158.506 102.815 158.646C104.119 159.04 105.103 159.813 105.765 160.963C104.949 160.644 104.177 160.222 103.447 159.699C102.49 160.629 101.858 161.753 101.551 163.07C99.6997 167.641 98.0142 172.276 96.4948 176.975C96.2432 176.876 96.1029 176.666 96.0734 176.343C96.362 175.166 96.5727 173.972 96.7054 172.762C97.1934 172.552 97.5444 172.201 97.7589 171.708C97.6973 170.981 97.4163 170.91 96.9161 171.498C95.9588 170.591 94.835 169.959 93.5452 169.601C94.5923 168.915 95.505 169.126 96.2841 170.234C96.4244 169.952 96.5651 169.672 96.7054 169.391C97.1268 169.812 97.5482 170.234 97.9695 170.655C98.2384 170.188 98.4491 169.696 98.6016 169.18C98.4145 168.438 98.2038 168.508 97.9695 169.391C97.6358 168.511 97.1441 167.739 96.4948 167.073C96.9161 166.933 97.3375 166.792 97.7589 166.652C97.3211 164.683 96.338 164.331 94.8093 165.598C94.7827 164.465 94.0803 164.114 92.7024 164.545C93.1558 165.272 93.2262 166.045 92.9131 166.863C92.7728 166.582 92.6321 166.301 92.4917 166.02C90.9318 169.434 89.808 172.945 89.1208 176.554C89.4339 175.65 89.7849 175.58 90.1742 176.343C89.6707 176.989 89.6707 177.621 90.1742 178.24C89.8615 178.571 89.5105 178.852 89.1208 179.082C88.9805 178.38 88.8397 177.678 88.6994 176.975C88.3686 178.213 87.8773 179.055 87.2246 179.504C88.1242 176.243 89.1073 173.013 90.1742 169.812C91.4851 166.338 92.8196 162.827 94.1772 159.278C94.8607 157.766 95.633 156.362 96.4948 155.064Z" fill="#653321"/>
<path fill-rule="evenodd" clip-rule="evenodd" d="M37.9231 166.441C48.2252 167.395 58.4784 168.73 68.6831 170.444C70.7702 172.401 70.9109 174.507 69.1045 176.765C68.0932 177.481 66.9694 177.832 65.7335 177.818C56.5999 176.64 47.4701 175.445 38.3445 174.237C34.5635 171.835 34.4232 169.237 37.9231 166.441Z" fill="#E69164"/>
<path fill-rule="evenodd" clip-rule="evenodd" d="M107.87 163.913C110.052 166.37 111.878 169.109 113.348 172.13C115.314 172.972 117.281 173.815 119.247 174.658C119.757 175.096 120.178 175.587 120.511 176.133C118.149 174.662 115.621 173.468 112.927 172.551C111.284 169.614 109.599 166.734 107.87 163.913Z" fill="#FBEEC0"/>
<path opacity="0.01" fill-rule="evenodd" clip-rule="evenodd" d="M181.188 171.076C181.75 171.357 181.75 171.357 181.188 171.076Z" fill="#FCF1D9"/>
<path fill-rule="evenodd" clip-rule="evenodd" d="M20.6479 174.026C20.5691 175.885 20.288 177.711 19.8052 179.504C19.8052 179.644 19.8052 179.785 19.8052 179.925C19.5325 179.599 19.3922 179.178 19.3838 178.661C19.6699 176.781 20.0913 175.236 20.6479 174.026Z" fill="#3A120D"/>
<path opacity="0.996" fill-rule="evenodd" clip-rule="evenodd" d="M143.687 171.919C143.742 172.23 143.672 172.511 143.476 172.762C139.788 176.663 135.925 180.315 131.889 183.717C135.681 179.644 139.614 175.711 143.687 171.919Z" fill="#FDF9E9"/>
<path opacity="0.992" fill-rule="evenodd" clip-rule="evenodd" d="M86.8021 180.346C86.6883 182.748 86.0563 185.136 84.9059 187.51C84.7378 187.414 84.6678 187.273 84.6952 187.088C85.2295 184.783 85.932 182.536 86.8021 180.346Z" fill="#4B1A11"/>
<path opacity="0.999" fill-rule="evenodd" clip-rule="evenodd" d="M120.511 176.133C121.588 176.572 122.501 177.274 123.25 178.239C123.566 178.718 123.496 179.139 123.039 179.504C119.145 180.753 115.353 182.158 111.662 183.717C110.516 183.912 109.392 184.193 108.291 184.56C108.03 183.772 107.89 182.789 107.87 181.61C113.156 182.341 118.072 181.358 122.618 178.661C121.884 177.792 121.182 176.949 120.511 176.133Z" fill="#FCDDB2"/>
<path opacity="0.012" fill-rule="evenodd" clip-rule="evenodd" d="M178.24 184.56C178.802 184.841 178.802 184.841 178.24 184.56Z" fill="#FDF2DA"/>
<path fill-rule="evenodd" clip-rule="evenodd" d="M131.467 183.717C129.258 185.225 126.87 186.349 124.304 187.088C126.314 185.929 128.561 184.665 131.046 183.296C131.301 183.348 131.442 183.488 131.467 183.717Z" fill="#45150D"/>
<path fill-rule="evenodd" clip-rule="evenodd" d="M111.663 183.717C111.848 183.69 111.989 183.76 112.085 183.928C109.842 184.77 107.595 185.613 105.343 186.456C104.683 186.778 104.121 186.708 103.657 186.245C105.298 185.84 106.843 185.278 108.292 184.56C109.393 184.193 110.517 183.912 111.663 183.717Z" fill="#4A180F"/>
<path fill-rule="evenodd" clip-rule="evenodd" d="M131.467 183.717C131.607 183.717 131.748 183.717 131.888 183.717C130.517 184.969 128.972 186.023 127.253 186.878C124.514 187.791 121.775 188.703 119.036 189.616C118.714 189.587 118.503 189.447 118.404 189.195C119.214 188.831 120.056 188.551 120.933 188.352C122.092 187.926 123.216 187.505 124.303 187.088C126.87 186.349 129.258 185.225 131.467 183.717Z" fill="#F8F0DD"/>
<path fill-rule="evenodd" clip-rule="evenodd" d="M168.547 177.396C167.799 181.46 167.097 185.533 166.44 189.616C165.967 188.863 165.897 188.02 166.229 187.088C166.783 183.234 167.556 180.004 168.547 177.396Z" fill="#3B110B"/>
<path fill-rule="evenodd" clip-rule="evenodd" d="M120.932 188.352C120.056 188.551 119.214 188.831 118.404 189.195C117.183 189.46 116.06 189.881 115.033 190.459C114.19 190.599 113.348 190.74 112.505 190.88C114.758 189.766 117.357 188.783 120.3 187.931C120.623 187.96 120.833 188.101 120.932 188.352Z" fill="#3E0F0A"/>
<path opacity="0.01" fill-rule="evenodd" clip-rule="evenodd" d="M177.396 188.774C177.958 189.055 177.958 189.055 177.396 188.774Z" fill="#FDF4D9"/>
<path fill-rule="evenodd" clip-rule="evenodd" d="M18.9629 182.875C18.1066 188.198 20.2135 191.569 25.2834 192.987C25.1077 193.25 24.8266 193.391 24.4407 193.409C20.4907 192.328 18.3839 189.73 18.1201 185.613C18.2402 184.35 18.5213 183.437 18.9629 182.875Z" fill="#471910"/>
<path fill-rule="evenodd" clip-rule="evenodd" d="M19.8047 179.504C20.237 181.432 20.0967 183.398 19.3833 185.403C19.4735 188.47 20.8779 190.647 23.597 191.934C25.8265 192.446 28.0736 192.867 30.3389 193.198C29.9395 193.402 29.5181 193.472 29.0748 193.409C27.7812 193.464 26.5171 193.324 25.2825 192.988C20.2126 191.569 18.1057 188.198 18.9619 182.875C19.3441 181.966 19.6247 180.983 19.8047 179.925C19.8047 179.785 19.8047 179.644 19.8047 179.504Z" fill="#F8F1E2"/>
<path opacity="0.999" fill-rule="evenodd" clip-rule="evenodd" d="M160.542 178.24C159.473 184.43 158.349 190.61 157.171 196.78C156.899 196.454 156.758 196.032 156.75 195.516C157.808 189.446 159.001 183.406 160.332 177.397C160.527 177.647 160.598 177.928 160.542 178.24Z" fill="#FBF5E6"/>
<path opacity="0.01" fill-rule="evenodd" clip-rule="evenodd" d="M177.396 190.88C177.958 191.161 177.958 191.161 177.396 190.88Z" fill="#FDF5D7"/>
<path opacity="0.01" fill-rule="evenodd" clip-rule="evenodd" d="M176.976 192.145C177.537 192.426 177.537 192.426 176.976 192.145Z" fill="#FDF0DB"/>
<path fill-rule="evenodd" clip-rule="evenodd" d="M10.955 184.139C11.2773 186.051 11.6283 188.018 12.0084 190.038C12.1382 189.697 12.3489 189.416 12.6404 189.195C13.3441 191.551 14.2568 193.799 15.3794 195.937C18.65 198.528 22.372 200.143 26.5457 200.783C26.2954 200.978 26.0143 201.049 25.7029 200.993C15.6562 199.799 10.7405 194.181 10.955 184.139Z" fill="#562A1C"/>
<path opacity="0.996" fill-rule="evenodd" clip-rule="evenodd" d="M84.2733 187.931C83.5734 191.924 85.1185 194.663 88.9083 196.148C88.8123 196.316 88.6715 196.386 88.487 196.358C84.4667 194.919 83.0618 192.11 84.2733 187.931Z" fill="#4C1E13"/>
<path fill-rule="evenodd" clip-rule="evenodd" d="M90.1717 169.812C89.1048 173.013 88.1217 176.243 87.2221 179.504C86.869 179.648 86.7282 179.928 86.8007 180.346C85.9306 182.536 85.2282 184.783 84.6939 187.088C84.3407 187.232 84.2 187.513 84.2725 187.931C83.061 192.11 84.4659 194.919 88.4862 196.358C90.1847 197.175 92.0105 197.386 93.964 196.99C100.284 195.235 106.464 193.198 112.504 190.88C113.347 190.74 114.19 190.599 115.032 190.459C107.79 193.574 100.065 196.103 91.8571 198.044C90.88 197.806 89.8965 197.595 88.9076 197.412C84.2539 195.902 82.4981 192.742 83.6404 187.931C85.6626 181.724 87.7694 175.544 89.961 169.391C90.1291 169.487 90.1991 169.627 90.1717 169.812Z" fill="#FAF4E1"/>
<path fill-rule="evenodd" clip-rule="evenodd" d="M32.4453 194.251C35.1265 194.422 37.7954 194.703 40.4513 195.094C37.5405 195.437 34.5909 195.226 31.6025 194.462C31.8528 194.267 32.1339 194.196 32.4453 194.251Z" fill="#471912"/>
<path opacity="0.998" fill-rule="evenodd" clip-rule="evenodd" d="M53.5137 196.78C53.9136 196.505 54.4049 196.364 54.9885 196.358C57.6418 196.566 59.6783 196.988 61.0983 197.623C58.5457 197.495 56.0175 197.214 53.5137 196.78Z" fill="#FAF3E6"/>
<path opacity="0.01" fill-rule="evenodd" clip-rule="evenodd" d="M4.21372 200.572C3.93267 200.853 3.93267 200.853 4.21372 200.572Z" fill="#FAF0D8"/>
<path fill-rule="evenodd" clip-rule="evenodd" d="M86.8027 201.415C89.3398 201.627 91.868 201.907 94.3874 202.258C94.5277 202.258 94.6684 202.258 94.8088 202.258C94.336 202.534 93.7743 202.674 93.1233 202.679C90.3869 202.542 88.2801 202.121 86.8027 201.415Z" fill="#42120B"/>
<path opacity="0.01" fill-rule="evenodd" clip-rule="evenodd" d="M5.90024 202.679C5.61919 202.96 5.61919 202.96 5.90024 202.679Z" fill="#F9EFD7"/>
<path fill-rule="evenodd" clip-rule="evenodd" d="M39.6094 203.1C41.3829 202.631 43.2087 202.701 45.0872 203.311C44.8369 203.506 44.5558 203.577 44.2444 203.522C42.6942 203.427 41.1491 203.286 39.6094 203.1Z" fill="#3A110A"/>
<path opacity="0.01" fill-rule="evenodd" clip-rule="evenodd" d="M7.16392 203.943C6.88286 204.224 6.88286 204.224 7.16392 203.943Z" fill="#F9F0D8"/>
<path opacity="0.01" fill-rule="evenodd" clip-rule="evenodd" d="M6.74121 204.786C7.3029 205.067 7.3029 205.067 6.74121 204.786Z" fill="#FBEED5"/>
<path fill-rule="evenodd" clip-rule="evenodd" d="M52.25 204.786C52.7228 204.509 53.2845 204.369 53.9355 204.365C56.6617 204.566 59.0496 204.988 61.0988 205.629C58.1424 205.409 55.1928 205.128 52.25 204.786Z" fill="#350E09"/>
<path fill-rule="evenodd" clip-rule="evenodd" d="M109.135 204.365C113.067 204.786 117 205.207 120.933 205.629C120.46 205.905 119.899 206.045 119.248 206.05C115.264 205.734 111.893 205.172 109.135 204.365Z" fill="#41110A"/>
<path fill-rule="evenodd" clip-rule="evenodd" d="M61.9414 206.05C62.4142 205.773 62.9759 205.633 63.6269 205.628C66.1576 205.96 68.6859 206.311 71.2115 206.682C70.8121 206.885 70.3907 206.955 69.9474 206.893C67.2709 206.673 64.6024 206.392 61.9414 206.05Z" fill="#36100A"/>
<path opacity="0.992" fill-rule="evenodd" clip-rule="evenodd" d="M122.197 206.05C125.026 206.147 127.835 206.428 130.625 206.893C130.152 207.169 129.59 207.309 128.939 207.314C126.086 207.076 123.838 206.654 122.197 206.05Z" fill="#46150E"/>
<path fill-rule="evenodd" clip-rule="evenodd" d="M94.3877 202.258C94.9325 201.98 95.5646 201.84 96.2839 201.836C112.552 204.045 128.844 206.012 145.163 207.735C148.58 208.095 151.389 206.972 153.59 204.364C153.758 204.46 153.828 204.601 153.801 204.786C152.651 206.138 151.247 207.191 149.587 207.946C147.091 208.496 144.563 208.706 142.003 208.578C141.704 208.197 141.282 208.057 140.738 208.157C137.793 207.83 134.844 207.549 131.89 207.314C131.591 206.933 131.17 206.793 130.626 206.893C127.836 206.428 125.027 206.147 122.198 206.05C121.899 205.669 121.478 205.529 120.934 205.629C117.001 205.207 113.068 204.786 109.136 204.364C104.429 203.543 99.6536 202.841 94.8091 202.258C94.6687 202.258 94.528 202.258 94.3877 202.258Z" fill="#F7EBD7"/>
<path fill-rule="evenodd" clip-rule="evenodd" d="M72.0537 207.314C72.5265 207.038 73.0882 206.897 73.7392 206.893C78.4295 207.38 82.7839 208.083 86.8017 208.999C81.8729 208.541 76.9568 207.98 72.0537 207.314Z" fill="#441810"/>
<path fill-rule="evenodd" clip-rule="evenodd" d="M131.889 207.314C134.843 207.549 137.792 207.83 140.737 208.157C140.193 208.434 139.561 208.575 138.841 208.578C135.905 208.414 133.588 207.993 131.889 207.314Z" fill="#40150C"/>
<path opacity="0.01" fill-rule="evenodd" clip-rule="evenodd" d="M173.604 207.735C174.036 207.903 174.106 208.183 173.815 208.578C173.619 208.328 173.549 208.047 173.604 207.735Z" fill="#FBEED8"/>
<path opacity="0.012" fill-rule="evenodd" clip-rule="evenodd" d="M12.6406 208.157C13.2023 208.438 13.2023 208.438 12.6406 208.157Z" fill="#F8EED4"/>
<path fill-rule="evenodd" clip-rule="evenodd" d="M154.642 204.365C153.501 206.351 151.816 207.755 149.586 208.578C149.184 209.229 149.044 209.932 149.164 210.685C147.859 210.722 147.718 210.511 148.743 210.053C147.719 209.947 146.735 210.157 145.793 210.685C145.653 210.545 145.512 210.404 145.372 210.264C146.451 209.783 147.575 209.432 148.743 209.21C145.906 209.164 143.659 208.953 142.001 208.578C144.562 208.706 147.09 208.496 149.586 207.946C151.245 207.191 152.65 206.138 153.799 204.786C154.08 204.646 154.361 204.505 154.642 204.365Z" fill="#572719"/>
<path opacity="0.01" fill-rule="evenodd" clip-rule="evenodd" d="M172.761 209.842C173.322 210.123 173.322 210.123 172.761 209.842Z" fill="#FAEED5"/>
<path fill-rule="evenodd" clip-rule="evenodd" d="M88.0664 209.421C88.5392 209.144 89.1009 209.004 89.7519 209C93.2686 209.457 96.7799 209.948 100.286 210.474C99.8867 210.678 99.4653 210.748 99.022 210.685C95.3599 210.355 91.7083 209.934 88.0664 209.421Z" fill="#451811"/>
<path opacity="0.01" fill-rule="evenodd" clip-rule="evenodd" d="M172.341 210.685C172.903 210.966 172.903 210.966 172.341 210.685Z" fill="#FCEDD5"/>
<path opacity="0.01" fill-rule="evenodd" clip-rule="evenodd" d="M20.2256 211.528C20.3929 211.096 20.6735 211.025 21.0683 211.317C20.818 211.513 20.537 211.583 20.2256 211.528Z" fill="#FBEFD4"/>
<path opacity="0.016" fill-rule="evenodd" clip-rule="evenodd" d="M21.4902 211.106C22.0519 211.387 22.0519 211.387 21.4902 211.106Z" fill="#FAEFD6"/>
<path fill-rule="evenodd" clip-rule="evenodd" d="M100.707 211.106C101.18 210.83 101.741 210.69 102.393 210.685C105.129 210.822 107.236 211.243 108.713 211.949C106.037 211.73 103.368 211.449 100.707 211.106Z" fill="#471A11"/>
<path opacity="0.01" fill-rule="evenodd" clip-rule="evenodd" d="M24.0176 211.528C24.5793 211.809 24.5793 211.809 24.0176 211.528Z" fill="#F9F0D7"/>
<path opacity="0.01" fill-rule="evenodd" clip-rule="evenodd" d="M25.2821 211.528C25.001 211.809 25.001 211.809 25.2821 211.528Z" fill="#FBEFD7"/>
<path opacity="0.996" fill-rule="evenodd" clip-rule="evenodd" d="M110.399 212.37C110.872 212.094 111.434 211.954 112.085 211.949C114.67 212.164 116.918 212.585 118.827 213.213C115.998 213.116 113.189 212.835 110.399 212.37Z" fill="#3F170F"/>
<path opacity="0.01" fill-rule="evenodd" clip-rule="evenodd" d="M33.71 213.213C34.2716 213.494 34.2716 213.494 33.71 213.213Z" fill="#F9EED5"/>
<path opacity="0.01" fill-rule="evenodd" clip-rule="evenodd" d="M41.2939 214.056C41.8556 214.337 41.8556 214.337 41.2939 214.056Z" fill="#FCEFD7"/>
<path opacity="0.01" fill-rule="evenodd" clip-rule="evenodd" d="M42.1377 214.056C42.6994 214.337 42.6994 214.337 42.1377 214.056Z" fill="#FDEFD4"/>
<path fill-rule="evenodd" clip-rule="evenodd" d="M160.121 209.842C157.327 213.347 153.675 215.313 149.165 215.741C153.388 214.786 156.97 212.679 159.91 209.421C160.078 209.517 160.148 209.658 160.121 209.842Z" fill="#3A0F06"/>
<path opacity="0.01" fill-rule="evenodd" clip-rule="evenodd" d="M43.8223 214.477C44.384 214.758 44.384 214.758 43.8223 214.477Z" fill="#FDF2D7"/>
<path fill-rule="evenodd" clip-rule="evenodd" d="M126.832 214.477C127.305 214.201 127.866 214.061 128.518 214.056C131.53 214.184 133.918 214.605 135.681 215.32C132.718 215.162 129.768 214.881 126.832 214.477Z" fill="#481C13"/>
<path opacity="0.01" fill-rule="evenodd" clip-rule="evenodd" d="M47.6152 215.32C47.9317 214.868 48.3531 214.797 48.8793 215.109C48.4799 215.313 48.0585 215.383 47.6152 215.32Z" fill="#FDF0D8"/>
<path opacity="0.01" fill-rule="evenodd" clip-rule="evenodd" d="M58.1491 216.163C58.581 216.33 58.6513 216.611 58.3597 217.005C58.1642 216.755 58.0939 216.474 58.1491 216.163Z" fill="#FCF2D9"/>
<path opacity="0.01" fill-rule="evenodd" clip-rule="evenodd" d="M60.2549 217.006C60.4222 216.574 60.7028 216.503 61.0976 216.795C60.8473 216.99 60.5663 217.061 60.2549 217.006Z" fill="#FCF1DA"/>
<path opacity="0.01" fill-rule="evenodd" clip-rule="evenodd" d="M61.5195 216.584C62.0812 216.865 62.0812 216.865 61.5195 216.584Z" fill="#FCF2D8"/>
<path opacity="0.01" fill-rule="evenodd" clip-rule="evenodd" d="M64.0488 217.005C64.6105 217.286 64.6105 217.286 64.0488 217.005Z" fill="#FCF2DA"/>
<path opacity="0.01" fill-rule="evenodd" clip-rule="evenodd" d="M68.6845 217.427C68.2206 217.89 67.6589 217.96 66.999 217.638C67.5439 217.431 68.106 217.361 68.6845 217.427Z" fill="#FDF0D7"/>
<path opacity="0.01" fill-rule="evenodd" clip-rule="evenodd" d="M69.1045 218.27C69.4209 217.818 69.8423 217.747 70.3686 218.059C69.9691 218.263 69.5478 218.332 69.1045 218.27Z" fill="#FCEFD6"/>
<path opacity="0.01" fill-rule="evenodd" clip-rule="evenodd" d="M70.79 217.848C71.3517 218.129 71.3517 218.129 70.79 217.848Z" fill="#FDF1D8"/>
<path opacity="0.01" fill-rule="evenodd" clip-rule="evenodd" d="M72.0537 218.27C72.6154 218.551 72.6154 218.551 72.0537 218.27Z" fill="#FDF2D5"/>
<path opacity="0.01" fill-rule="evenodd" clip-rule="evenodd" d="M72.8975 218.691C73.2139 218.239 73.6353 218.169 74.1616 218.48C73.7621 218.684 73.3407 218.754 72.8975 218.691Z" fill="#FCEFD5"/>
<path opacity="0.01" fill-rule="evenodd" clip-rule="evenodd" d="M83.8525 219.533C84.4142 219.815 84.4142 219.815 83.8525 219.533Z" fill="#FBF0D8"/>
<path opacity="0.01" fill-rule="evenodd" clip-rule="evenodd" d="M85.1162 220.376C85.4327 219.924 85.854 219.854 86.3803 220.166C85.9809 220.369 85.5595 220.439 85.1162 220.376Z" fill="#FCF1D7"/>
<path opacity="0.01" fill-rule="evenodd" clip-rule="evenodd" d="M88.4873 220.377C89.049 220.658 89.049 220.658 88.4873 220.377Z" fill="#FEF2D5"/>
<path opacity="0.01" fill-rule="evenodd" clip-rule="evenodd" d="M89.3301 220.377C89.8918 220.658 89.8918 220.658 89.3301 220.377Z" fill="#FCF1D6"/>
<path opacity="0.01" fill-rule="evenodd" clip-rule="evenodd" d="M91.8594 220.798C92.4211 221.079 92.4211 221.079 91.8594 220.798Z" fill="#FDF0D7"/>
<path opacity="0.01" fill-rule="evenodd" clip-rule="evenodd" d="M94.3877 221.219C94.9494 221.5 94.9494 221.5 94.3877 221.219Z" fill="#FEF3D7"/>
<path opacity="0.01" fill-rule="evenodd" clip-rule="evenodd" d="M96.915 221.64C97.4767 221.921 97.4767 221.921 96.915 221.64Z" fill="#FCF0D3"/>
<path opacity="0.01" fill-rule="evenodd" clip-rule="evenodd" d="M99.4424 221.64C100.004 221.921 100.004 221.921 99.4424 221.64Z" fill="#FCF1D6"/>
<path opacity="0.01" fill-rule="evenodd" clip-rule="evenodd" d="M111.663 223.747C111.83 223.315 112.111 223.245 112.506 223.537C112.256 223.732 111.974 223.802 111.663 223.747Z" fill="#FDF0D7"/>
<path opacity="0.01" fill-rule="evenodd" clip-rule="evenodd" d="M115.455 223.747C116.017 224.028 116.017 224.028 115.455 223.747Z" fill="#FCF0D7"/>
<path opacity="0.01" fill-rule="evenodd" clip-rule="evenodd" d="M117.983 224.59C118.3 224.138 118.721 224.067 119.248 224.379C118.848 224.583 118.427 224.653 117.983 224.59Z" fill="#FCF0D7"/>
<path opacity="0.01" fill-rule="evenodd" clip-rule="evenodd" d="M158.856 224.169C159.418 224.45 159.418 224.45 158.856 224.169Z" fill="#F7ECD1"/>
<path opacity="0.01" fill-rule="evenodd" clip-rule="evenodd" d="M121.354 224.591C121.916 224.872 121.916 224.872 121.354 224.591Z" fill="#FCF2D8"/>
<path opacity="0.01" fill-rule="evenodd" clip-rule="evenodd" d="M123.883 224.59C123.419 225.053 122.857 225.123 122.197 224.801C122.742 224.594 123.304 224.524 123.883 224.59Z" fill="#FCF0D8"/>
<path opacity="0.01" fill-rule="evenodd" clip-rule="evenodd" d="M124.304 225.011C124.865 225.293 124.865 225.293 124.304 225.011Z" fill="#FDF2D6"/>
<path opacity="0.01" fill-rule="evenodd" clip-rule="evenodd" d="M125.147 225.433C125.464 224.981 125.885 224.91 126.412 225.222C126.012 225.426 125.591 225.496 125.147 225.433Z" fill="#FCEFD6"/>
<path opacity="0.01" fill-rule="evenodd" clip-rule="evenodd" d="M151.271 226.276C151.833 226.557 151.833 226.557 151.271 226.276Z" fill="#F7EDD5"/>
<path opacity="0.01" fill-rule="evenodd" clip-rule="evenodd" d="M137.788 226.697C138.35 226.978 138.35 226.978 137.788 226.697Z" fill="#F8EDD2"/>
<path opacity="0.01" fill-rule="evenodd" clip-rule="evenodd" d="M139.053 226.697C139.614 226.978 139.614 226.978 139.053 226.697Z" fill="#FAEED6"/>
<path opacity="0.01" fill-rule="evenodd" clip-rule="evenodd" d="M141.58 226.697C142.142 226.978 142.142 226.978 141.58 226.697Z" fill="#FAEED5"/>
<path opacity="0.01" fill-rule="evenodd" clip-rule="evenodd" d="M149.165 226.697C149.727 226.978 149.727 226.978 149.165 226.697Z" fill="#F8EDD2"/>
<path opacity="0.01" fill-rule="evenodd" clip-rule="evenodd" d="M150.008 226.697C150.569 226.978 150.569 226.978 150.008 226.697Z" fill="#F9EED3"/>
<path opacity="0.01" fill-rule="evenodd" clip-rule="evenodd" d="M141.58 227.54C142.142 227.821 142.142 227.821 141.58 227.54Z" fill="#F9ECD3"/>
<path opacity="0.01" fill-rule="evenodd" clip-rule="evenodd" d="M143.688 228.383C144.249 228.664 144.249 228.664 143.688 228.383Z" fill="#F6EAD1"/>
</svg>
