<svg width="238" height="246" viewBox="0 0 238 246" fill="none" xmlns="http://www.w3.org/2000/svg">
<path opacity="0.01" fill-rule="evenodd" clip-rule="evenodd" d="M159.718 0.410717C159.895 -0.0477897 160.193 -0.122493 160.612 0.187055C160.347 0.394614 160.048 0.469317 159.718 0.410717Z" fill="#F8EDD5"/>
<path opacity="0.01" fill-rule="evenodd" clip-rule="evenodd" d="M151.667 0.857983C151.845 0.399476 152.142 0.324773 152.562 0.634321C152.296 0.841879 151.998 0.916583 151.667 0.857983Z" fill="#FAECD6"/>
<path opacity="0.01" fill-rule="evenodd" clip-rule="evenodd" d="M161.061 0.410889C161.657 0.709254 161.657 0.709254 161.061 0.410889Z" fill="#F9EED5"/>
<path opacity="0.01" fill-rule="evenodd" clip-rule="evenodd" d="M148.982 1.30542C149.579 1.60379 149.579 1.60379 148.982 1.30542Z" fill="#F8ECD4"/>
<path opacity="0.01" fill-rule="evenodd" clip-rule="evenodd" d="M144.957 3.09473C145.553 3.39309 145.553 3.39309 144.957 3.09473Z" fill="#F8EDD7"/>
<path opacity="0.01" fill-rule="evenodd" clip-rule="evenodd" d="M144.51 6.67329C144.212 6.077 144.212 6.077 144.51 6.67329Z" fill="#FAF0D8"/>
<path opacity="0.01" fill-rule="evenodd" clip-rule="evenodd" d="M143.167 6.67334C143.763 6.9717 143.763 6.9717 143.167 6.67334Z" fill="#FDF2D9"/>
<path opacity="0.01" fill-rule="evenodd" clip-rule="evenodd" d="M141.825 9.35742C142.421 9.65579 142.421 9.65579 141.825 9.35742Z" fill="#FBF0D8"/>
<path opacity="0.01" fill-rule="evenodd" clip-rule="evenodd" d="M102.015 11.1465C102.611 11.4448 102.611 11.4448 102.015 11.1465Z" fill="#FAEFD7"/>
<path opacity="0.01" fill-rule="evenodd" clip-rule="evenodd" d="M105.145 10.699C105.497 10.8256 105.796 11.0492 106.039 11.37C105.451 11.6061 105.152 11.3825 105.145 10.699Z" fill="#FAEED7"/>
<path opacity="0.012" fill-rule="evenodd" clip-rule="evenodd" d="M106.487 11.1465C107.084 11.4448 107.084 11.4448 106.487 11.1465Z" fill="#F9F0D8"/>
<path opacity="0.012" fill-rule="evenodd" clip-rule="evenodd" d="M107.381 11.5938C108.333 11.0888 109.376 11.0141 110.512 11.3702C109.479 11.5925 108.435 11.6668 107.381 11.5938Z" fill="#FAF0D8"/>
<path opacity="0.016" fill-rule="evenodd" clip-rule="evenodd" d="M112.749 11.5938C113.345 11.8921 113.345 11.8921 112.749 11.5938Z" fill="#FBF1DA"/>
<path opacity="0.01" fill-rule="evenodd" clip-rule="evenodd" d="M95.7511 14.7253C95.4528 14.129 95.4528 14.129 95.7511 14.7253Z" fill="#FAEFD8"/>
<path opacity="0.01" fill-rule="evenodd" clip-rule="evenodd" d="M94.4092 14.7251C95.0055 15.0235 95.0055 15.0235 94.4092 14.7251Z" fill="#FBF1D7"/>
<path opacity="0.01" fill-rule="evenodd" clip-rule="evenodd" d="M93.5148 16.0671C93.2164 15.4708 93.2164 15.4708 93.5148 16.0671Z" fill="#FAF1D7"/>
<path opacity="0.01" fill-rule="evenodd" clip-rule="evenodd" d="M175.375 18.3038C175.553 17.8453 175.851 17.7706 176.27 18.0801C176.004 18.2877 175.706 18.3624 175.375 18.3038Z" fill="#FDF2D9"/>
<path opacity="0.01" fill-rule="evenodd" clip-rule="evenodd" d="M178.953 19.6458C179.549 19.9441 179.549 19.9441 178.953 19.6458Z" fill="#FBEFD6"/>
<path opacity="0.01" fill-rule="evenodd" clip-rule="evenodd" d="M84.5685 24.5661C84.2701 23.9698 84.2701 23.9698 84.5685 24.5661Z" fill="#FBF0D9"/>
<path opacity="0.01" fill-rule="evenodd" clip-rule="evenodd" d="M48.335 29.9341C48.9312 30.2324 48.9312 30.2324 48.335 29.9341Z" fill="#F5EBD2"/>
<path opacity="0.01" fill-rule="evenodd" clip-rule="evenodd" d="M47.4401 37.9862C46.3213 37.9813 46.2466 37.6829 47.2164 37.0916C47.4239 37.3573 47.4987 37.6556 47.4401 37.9862Z" fill="#FBEFD7"/>
<path opacity="0.01" fill-rule="evenodd" clip-rule="evenodd" d="M187.005 37.9858C187.601 38.2842 187.601 38.2842 187.005 37.9858Z" fill="#FDF0D8"/>
<path opacity="0.01" fill-rule="evenodd" clip-rule="evenodd" d="M186.558 38.8804C187.154 39.1787 187.154 39.1787 186.558 38.8804Z" fill="#FCF2DA"/>
<path opacity="0.01" fill-rule="evenodd" clip-rule="evenodd" d="M44.756 42.9067C44.4576 42.3104 44.4576 42.3104 44.756 42.9067Z" fill="#FBF2D9"/>
<path opacity="0.01" fill-rule="evenodd" clip-rule="evenodd" d="M41.1777 43.3538C41.7742 43.6521 41.7742 43.6521 41.1777 43.3538Z" fill="#FBF0D6"/>
<path opacity="0.01" fill-rule="evenodd" clip-rule="evenodd" d="M42.0732 43.3538C42.6697 43.6521 42.6697 43.6521 42.0732 43.3538Z" fill="#FBF0D7"/>
<path opacity="0.01" fill-rule="evenodd" clip-rule="evenodd" d="M37.5994 46.9324C38.0579 47.11 38.1325 47.4079 37.8231 47.827C37.6154 47.5613 37.5408 47.2629 37.5994 46.9324Z" fill="#FBEED6"/>
<path opacity="0.01" fill-rule="evenodd" clip-rule="evenodd" d="M36.7036 52.3004C36.2451 52.1228 36.1706 51.8249 36.48 51.4058C36.6877 51.6715 36.7622 51.9698 36.7036 52.3004Z" fill="#FBF0D7"/>
<path opacity="0.01" fill-rule="evenodd" clip-rule="evenodd" d="M36.2569 54.0895C35.9586 53.4933 35.9586 53.4933 36.2569 54.0895Z" fill="#F9F0D9"/>
<path opacity="0.01" fill-rule="evenodd" clip-rule="evenodd" d="M35.3623 55.8789C35.9587 56.1773 35.9587 56.1773 35.3623 55.8789Z" fill="#FDF2D6"/>
<path opacity="0.01" fill-rule="evenodd" clip-rule="evenodd" d="M195.505 56.3264C196.101 56.6248 196.101 56.6248 195.505 56.3264Z" fill="#FEF3D9"/>
<path opacity="0.01" fill-rule="evenodd" clip-rule="evenodd" d="M35.3623 57.6682C35.9587 57.9666 35.9587 57.9666 35.3623 57.6682Z" fill="#FEF3D9"/>
<path opacity="0.01" fill-rule="evenodd" clip-rule="evenodd" d="M36.2574 58.563C36.3243 59.0336 36.2497 59.4809 36.0337 59.905C35.7027 59.3463 35.7772 58.8989 36.2574 58.563Z" fill="#FEF3DC"/>
<path opacity="0.012" fill-rule="evenodd" clip-rule="evenodd" d="M200.424 59.0103C201.02 59.3086 201.02 59.3086 200.424 59.0103Z" fill="#FDF2DA"/>
<path opacity="0.01" fill-rule="evenodd" clip-rule="evenodd" d="M208.924 63.4836C209.52 63.782 209.52 63.782 208.924 63.4836Z" fill="#FCF3DB"/>
<path opacity="0.01" fill-rule="evenodd" clip-rule="evenodd" d="M209.819 63.9309C210.416 64.2293 210.416 64.2293 209.819 63.9309Z" fill="#FEF3DB"/>
<path opacity="0.01" fill-rule="evenodd" clip-rule="evenodd" d="M215.634 67.062C216.23 67.3604 216.23 67.3604 215.634 67.062Z" fill="#FEF6DF"/>
<path opacity="0.01" fill-rule="evenodd" clip-rule="evenodd" d="M42.9668 69.2986C43.5631 69.5969 43.5631 69.5969 42.9668 69.2986Z" fill="#FEF5DD"/>
<path opacity="0.01" fill-rule="evenodd" clip-rule="evenodd" d="M41.625 69.7458C42.2214 70.0442 42.2214 70.0442 41.625 69.7458Z" fill="#FEF5DD"/>
<path opacity="0.01" fill-rule="evenodd" clip-rule="evenodd" d="M44.7559 71.0879C45.3521 71.3863 45.3521 71.3863 44.7559 71.0879Z" fill="#FEF4DD"/>
<path opacity="0.01" fill-rule="evenodd" clip-rule="evenodd" d="M44.7566 71.9824C45.2151 72.16 45.2898 72.4579 44.9803 72.8771C44.7727 72.6114 44.698 72.313 44.7566 71.9824Z" fill="#FFF4DC"/>
<path opacity="0.01" fill-rule="evenodd" clip-rule="evenodd" d="M42.5195 75.561C43.1159 75.8594 43.1159 75.8594 42.5195 75.561Z" fill="#FEF5DD"/>
<path opacity="0.999" fill-rule="evenodd" clip-rule="evenodd" d="M175.375 18.3036C178.916 20.3447 182.122 22.8797 184.993 25.9081C188.774 34.715 186.91 42.0959 179.401 48.0506C179.606 48.2358 179.755 48.4595 179.849 48.7216C195.946 57.2172 211.901 65.94 227.712 74.8901C234.108 80.1519 237.463 86.9365 237.777 95.2433C238.094 111.722 238.02 128.124 237.553 144.449C237.147 150.066 235.433 155.285 232.409 160.105C226.018 168.509 219.383 176.71 212.503 184.708C211.874 184.92 211.576 185.367 211.609 186.05C207.823 190.041 204.244 194.216 200.873 198.575C197.101 202.871 193.224 207.121 189.242 211.324C186.814 213.131 184.279 214.697 181.638 216.021C181.194 215.944 180.896 216.093 180.743 216.468C179.826 216.674 178.932 216.973 178.059 217.363C176.235 219.482 174.595 221.719 173.139 224.073C171.151 226.178 169.213 228.341 167.324 230.559C165.122 232.175 163.035 233.89 161.061 235.703C147.088 244.468 132.028 247.003 115.881 243.308C112.968 242.338 109.986 241.443 106.935 240.624C106.782 240.249 106.484 240.099 106.04 240.176C103.672 238.992 101.286 237.799 98.883 236.598C98.73 236.223 98.4321 236.073 97.9883 236.15C96.5895 234.63 94.9496 233.437 93.0677 232.572C92.2899 231.345 91.2458 230.45 89.9365 229.888C88.9949 228.422 87.7271 227.378 86.1342 226.757C76.124 232.559 65.314 235.615 53.7032 235.927C52.835 236.063 52.0897 236.435 51.4666 237.045C50.6337 236.044 49.6643 235.746 48.559 236.15C38.6298 235.513 29.0123 233.426 19.7066 229.888C15.301 227.422 11.4242 224.29 8.07619 220.494C4.57624 216.044 2.41419 210.975 1.58999 205.285C1.02037 185.169 0.647594 165.114 0.47168 145.12C1.73396 140.292 3.44871 135.595 5.61591 131.029C7.7071 129.466 9.72006 127.528 11.6548 125.214C15.4067 122.891 19.2835 120.803 23.2852 118.951C25.0071 119.001 26.4237 118.405 27.5348 117.162C30.1505 117.678 31.8652 116.634 32.679 114.031C32.43 108.519 32.2809 103.002 32.2317 97.4799C30.5353 97.581 28.895 97.9541 27.3111 98.5982C20.3995 98.6953 16.8209 95.2661 16.5753 88.3098C16.9951 85.9273 17.8898 83.7654 19.2593 81.8236C25.4041 77.5369 31.1448 78.1336 36.4813 83.6129C36.9262 83.3597 37.299 83.0613 37.5996 82.7182C40.8547 79.4962 43.6877 75.9176 46.0987 71.9825C45.8751 71.5351 45.6514 71.0878 45.4277 70.6405C43.2059 68.8664 41.1181 66.9282 39.1652 64.8253C37.812 62.8673 36.8427 60.7797 36.2576 58.5627C36.2576 57.0718 36.2576 55.5804 36.2576 54.0895C36.6756 53.6118 36.8247 53.0155 36.7049 52.3002C38.7332 48.6299 41.4171 45.4986 44.7568 42.9064C46.2267 41.6092 47.1213 39.9688 47.4407 37.9858C48.7809 30.3831 53.2541 25.9099 60.8604 24.5661C66.0691 24.9276 69.946 27.3131 72.4908 31.7233C72.7897 33.14 73.5349 34.2583 74.7275 35.0782C74.2144 35.6513 74.3638 35.8002 75.1748 35.5256C78.5673 32.061 81.6986 28.4082 84.5686 24.5661C87.5625 21.7207 90.5448 18.8878 93.5151 16.067C94.4876 15.9551 95.2332 15.5078 95.7517 14.725C103.446 11.3455 111.199 11.1965 119.013 14.2777C119.466 14.8028 120.062 15.1007 120.802 15.1723C125.18 17.4756 129.579 19.8612 133.998 22.3295C136.322 21.4984 138.111 20.007 139.366 17.8563C140.786 13.9543 142.502 10.2267 144.51 6.67316C149.216 1.33033 155.032 -0.384266 161.956 1.52894C168.052 4.34663 171.854 9.04353 173.362 15.6196C173.714 16.4186 174.235 17.0896 174.928 17.6326C174.386 18.1278 174.535 18.3515 175.375 18.3036Z" fill="#FFF9F5"/>
<path fill-rule="evenodd" clip-rule="evenodd" d="M178.953 61.2468C182.678 62.9592 186.257 64.8979 189.689 67.062C185.821 65.5769 182.242 63.6382 178.953 61.2468Z" fill="#3B130D"/>
<path fill-rule="evenodd" clip-rule="evenodd" d="M51.018 52.7476C49.9587 53.3215 48.9894 54.0672 48.1104 54.9842C47.812 55.8788 47.812 56.7735 48.1104 57.6681C50.114 59.0759 52.1269 60.4178 54.1493 61.694C53.8509 61.694 53.553 61.694 53.2546 61.694C51.863 60.773 50.3721 59.9531 48.7814 59.2338C46.122 55.9696 46.8677 53.8073 51.018 52.7476Z" fill="#411812"/>
<path fill-rule="evenodd" clip-rule="evenodd" d="M170.454 56.3262C170.481 56.0833 170.63 55.9344 170.901 55.8789C187.06 64.7028 203.312 73.2767 219.66 81.6C222.316 83.2882 224.254 85.5996 225.475 88.5336C225.419 88.8051 225.271 88.954 225.028 88.9809C224.444 87.2126 223.4 85.8706 221.896 84.955C220.981 83.6729 219.788 82.7036 218.318 82.0474C214.567 80.1717 210.839 78.3077 207.135 76.4558C201.537 72.985 195.722 69.8538 189.689 67.062C186.257 64.8979 182.678 62.9592 178.953 61.2468C176.209 59.5004 173.376 57.8601 170.454 56.3262Z" fill="#F7F2EA"/>
<path fill-rule="evenodd" clip-rule="evenodd" d="M77.4102 51.8528C76.9539 52.6812 76.283 53.2775 75.3973 53.6421C74.4816 53.146 73.5127 52.8476 72.4897 52.7474C72.3367 52.3726 72.0388 52.2232 71.595 52.3001C67.4953 49.1733 65.2587 44.998 64.8851 39.775C63.7713 37.3899 61.982 36.7189 59.5173 37.7621C58.3202 41.4279 57.053 45.0812 55.715 48.7215C54.327 50.3381 52.7613 51.6801 51.0181 52.7474C46.8678 53.8071 46.1221 55.9695 48.7815 59.2336C50.3722 59.9529 51.8631 60.7729 53.2547 61.6939C51.1143 61.2555 49.1013 60.2119 47.2158 58.5626C46.1669 56.5877 46.3905 54.7984 47.8868 53.1948C51.6596 52.1713 54.4178 49.9347 56.1623 46.4849C56.8825 43.9768 57.4788 41.4418 57.9516 38.8804C59.2475 36.7981 61.1111 36.1271 63.5432 36.8674C64.0652 37.3895 64.5868 37.911 65.1088 38.4331C65.854 41.1116 66.5997 43.7956 67.3454 46.4849C68.954 49.8067 71.5632 51.8944 75.1736 52.7474C76.1872 52.5546 76.8582 51.9584 77.1866 50.9581C77.3941 51.2238 77.4688 51.5222 77.4102 51.8528Z" fill="#F8F3EB"/>
<path opacity="0.012" fill-rule="evenodd" clip-rule="evenodd" d="M72.4902 31.2761C73.0865 31.5745 73.0865 31.5745 72.4902 31.2761Z" fill="#FCF4DC"/>
<path fill-rule="evenodd" clip-rule="evenodd" d="M168.665 28.1448C170.715 28.6538 172.578 29.5485 174.257 30.8287C175.043 32.6001 175.117 34.3894 174.48 36.1966C174.669 34.6046 174.446 32.9642 173.809 31.276C171.832 30.1573 170.118 29.1137 168.665 28.1448Z" fill="#41160F"/>
<path opacity="0.01" fill-rule="evenodd" clip-rule="evenodd" d="M72.4902 29.0396C73.0865 29.3379 73.0865 29.3379 72.4902 29.0396Z" fill="#FCF1D9"/>
<path opacity="0.01" fill-rule="evenodd" clip-rule="evenodd" d="M69.3594 26.3555C69.9557 26.6538 69.9557 26.6538 69.3594 26.3555Z" fill="#FBF2D7"/>
<path opacity="0.01" fill-rule="evenodd" clip-rule="evenodd" d="M67.1221 25.4609C67.7184 25.7593 67.7184 25.7593 67.1221 25.4609Z" fill="#FBF0D7"/>
<path opacity="0.01" fill-rule="evenodd" clip-rule="evenodd" d="M65.333 24.5662C65.9293 24.8645 65.9293 24.8645 65.333 24.5662Z" fill="#F9EED4"/>
<path opacity="0.016" fill-rule="evenodd" clip-rule="evenodd" d="M135.116 20.5403C135.712 20.8386 135.712 20.8386 135.116 20.5403Z" fill="#FEF3DB"/>
<path fill-rule="evenodd" clip-rule="evenodd" d="M152.114 18.751C152.605 19.2435 152.679 19.8398 152.337 20.5403C151.952 21.9417 151.281 23.1348 150.324 24.1189C151.009 22.3627 151.605 20.5734 152.114 18.751Z" fill="#3D120A"/>
<path opacity="0.01" fill-rule="evenodd" clip-rule="evenodd" d="M123.038 15.6196C123.634 15.918 123.634 15.918 123.038 15.6196Z" fill="#FEF3DC"/>
<path opacity="0.01" fill-rule="evenodd" clip-rule="evenodd" d="M120.802 14.7251C121.398 15.0235 121.398 15.0235 120.802 14.7251Z" fill="#FDF5DB"/>
<path opacity="0.012" fill-rule="evenodd" clip-rule="evenodd" d="M140.036 13.8303C140.632 14.1287 140.632 14.1287 140.036 13.8303Z" fill="#FDF3DB"/>
<path opacity="0.016" fill-rule="evenodd" clip-rule="evenodd" d="M119.012 13.8303C119.608 14.1287 119.608 14.1287 119.012 13.8303Z" fill="#F9F0D9"/>
<path opacity="0.01" fill-rule="evenodd" clip-rule="evenodd" d="M119.013 13.8305C118.714 13.2342 118.714 13.2342 119.013 13.8305Z" fill="#F9F1DA"/>
<path opacity="0.01" fill-rule="evenodd" clip-rule="evenodd" d="M114.538 12.041C115.134 12.3394 115.134 12.3394 114.538 12.041Z" fill="#FAF1D9"/>
<path opacity="0.01" fill-rule="evenodd" clip-rule="evenodd" d="M31.3369 79.1396C31.9333 79.438 31.9333 79.438 31.3369 79.1396Z" fill="#FEF7DF"/>
<path opacity="0.01" fill-rule="evenodd" clip-rule="evenodd" d="M37.5986 79.1396C38.195 79.438 38.195 79.438 37.5986 79.1396Z" fill="#FEF4DD"/>
<path opacity="0.01" fill-rule="evenodd" clip-rule="evenodd" d="M19.2588 81.8237C18.9606 81.2274 18.9606 81.2274 19.2588 81.8237Z" fill="#FDF3DC"/>
<path opacity="0.01" fill-rule="evenodd" clip-rule="evenodd" d="M18.8116 81.8237C18.5133 82.1221 18.5133 82.1221 18.8116 81.8237Z" fill="#FEF3DB"/>
<path opacity="0.01" fill-rule="evenodd" clip-rule="evenodd" d="M37.5987 82.7182C37.3004 82.1219 37.3004 82.1219 37.5987 82.7182Z" fill="#FEF6DF"/>
<path opacity="0.01" fill-rule="evenodd" clip-rule="evenodd" d="M235.316 83.1658C235.913 83.4641 235.913 83.4641 235.316 83.1658Z" fill="#FEF6DB"/>
<path opacity="0.01" fill-rule="evenodd" clip-rule="evenodd" d="M237.105 86.2971C237.702 86.5955 237.702 86.5955 237.105 86.2971Z" fill="#FEF5DB"/>
<path opacity="0.01" fill-rule="evenodd" clip-rule="evenodd" d="M237.105 87.6389C237.702 87.9373 237.702 87.9373 237.105 87.6389Z" fill="#FEF3DB"/>
<path opacity="0.999" fill-rule="evenodd" clip-rule="evenodd" d="M189.689 76.0085C191.672 76.7757 193.61 77.6704 195.505 78.6925C196.513 77.5863 197.482 77.5863 198.412 78.6925C198.561 78.5435 198.711 78.3941 198.86 78.2452C199.089 79.1492 199.611 79.8202 200.425 80.2581C199.232 79.9598 198.04 79.6618 196.847 79.3635C198.227 80.2402 199.643 81.0602 201.096 81.8238C201.635 81.5683 202.157 81.27 202.662 80.9291C202.04 79.8394 202.263 79.5415 203.333 80.0345C203.471 79.673 203.694 79.3747 204.004 79.1398C204.608 79.8197 205.204 80.1181 205.793 80.0345C205.104 80.4961 204.881 81.0924 205.122 81.8238C205.945 81.2275 206.169 81.3022 205.793 82.0474C206.24 82.2711 206.688 82.4947 207.135 82.7184C208.408 78.6057 208.706 78.7551 208.03 83.1657C207.294 83.2615 206.623 83.1121 206.017 82.7184C205.868 83.0168 205.718 83.3147 205.569 83.6131C204.746 83.0168 204.523 83.0915 204.898 83.8367C207.754 85.4207 210.587 86.688 213.398 87.639C213.77 88.0863 214.143 88.5336 214.516 88.9809C215.16 86.8781 216.278 85.4614 217.871 84.7314C217.69 84.3086 217.391 84.0103 216.976 83.8367C217.573 83.2404 217.573 82.6437 216.976 82.0474C215.634 81.3764 214.292 80.7054 212.95 80.0345C212.019 80.6871 211.049 81.2834 210.043 81.8238C209.399 80.7958 209.027 79.8265 208.924 78.9162C209.819 79.0651 210.714 79.2145 211.608 79.3635C210.012 78.4948 208.521 77.5259 207.135 76.4559C210.839 78.3078 214.567 80.1718 218.318 82.0474C219.789 82.7036 220.982 83.673 221.897 84.955C220.98 84.7488 220.085 84.4504 219.213 84.0604C217.993 85.4328 218.29 86.4017 220.107 86.968C219.511 87.2663 219.511 87.5643 220.107 87.8626C218.652 89.0078 219.099 89.5298 221.449 89.4283C221.449 89.8756 221.449 90.3229 221.449 90.7702C220.714 90.866 220.043 90.7166 219.436 90.3229C219.325 90.8257 219.101 91.273 218.766 91.6649C218.231 91.5101 218.231 91.2864 218.766 90.9939C217.959 90.709 217.363 90.1874 216.976 89.4283C217.131 88.8933 217.355 88.8933 217.647 89.4283C217.863 89.0042 217.938 88.5569 217.871 88.0863C219.423 87.9924 219.423 87.4703 217.871 86.5207C217.363 86.1856 216.916 86.2599 216.529 86.7443C216.989 86.6531 217.437 86.8767 217.871 87.4153C217.647 87.639 217.424 87.8626 217.2 88.0863C215.519 87.4234 215.296 87.7213 216.529 88.9809C216.367 89.2865 216.218 89.5848 216.082 89.8756C215.933 89.8756 215.783 89.8756 215.634 89.8756C213.961 88.891 212.172 88.1453 210.266 87.639C203.408 83.762 196.548 79.8855 189.689 76.0085Z" fill="#6A3925"/>
<path opacity="0.01" fill-rule="evenodd" clip-rule="evenodd" d="M237.553 89.8757C238.149 90.1741 238.149 90.1741 237.553 89.8757Z" fill="#FEF3DC"/>
<path opacity="0.01" fill-rule="evenodd" clip-rule="evenodd" d="M17.0225 93.9016C17.6189 94.2 17.6189 94.2 17.0225 93.9016Z" fill="#FEF4DC"/>
<path opacity="0.01" fill-rule="evenodd" clip-rule="evenodd" d="M19.7061 97.0327C20.3025 97.3311 20.3025 97.3311 19.7061 97.0327Z" fill="#FEF5DE"/>
<path opacity="0.018" fill-rule="evenodd" clip-rule="evenodd" d="M30.4422 97.9272C31.2718 97.8252 31.6446 98.1236 31.5605 98.8219C31.2623 98.2256 30.9641 98.2256 30.6659 98.8219C30.4582 98.5561 30.3836 98.2578 30.4422 97.9272Z" fill="#FEF5DE"/>
<path opacity="0.01" fill-rule="evenodd" clip-rule="evenodd" d="M21.9424 98.3745C22.5388 98.6729 22.5388 98.6729 21.9424 98.3745Z" fill="#FEF5DB"/>
<path opacity="0.012" fill-rule="evenodd" clip-rule="evenodd" d="M22.8369 98.822C23.4333 99.1204 23.4333 99.1204 22.8369 98.822Z" fill="#FEF5DC"/>
<path opacity="0.01" fill-rule="evenodd" clip-rule="evenodd" d="M31.3369 114.031C31.9333 114.329 31.9333 114.329 31.3369 114.031Z" fill="#FEF6DD"/>
<path opacity="0.016" fill-rule="evenodd" clip-rule="evenodd" d="M31.3369 114.926C31.9333 115.224 31.9333 115.224 31.3369 114.926Z" fill="#FEF6DC"/>
<path opacity="0.01" fill-rule="evenodd" clip-rule="evenodd" d="M25.5205 117.61C26.1169 117.908 26.1169 117.908 25.5205 117.61Z" fill="#FCF5DC"/>
<path opacity="0.01" fill-rule="evenodd" clip-rule="evenodd" d="M23.2842 118.952C22.986 118.355 22.986 118.355 23.2842 118.952Z" fill="#FEF5DD"/>
<path opacity="0.01" fill-rule="evenodd" clip-rule="evenodd" d="M21.4951 118.952C22.0915 119.25 22.0915 119.25 21.4951 118.952Z" fill="#FEF6DE"/>
<path opacity="0.01" fill-rule="evenodd" clip-rule="evenodd" d="M20.1533 119.399C20.7497 119.697 20.7497 119.697 20.1533 119.399Z" fill="#FEF6DE"/>
<path fill-rule="evenodd" clip-rule="evenodd" d="M225.922 93.9016C225.918 92.5395 225.769 91.1976 225.475 89.8757C226.09 89.9862 226.463 90.583 226.593 91.665C226.891 109.558 226.891 127.451 226.593 145.344C226.518 128.121 226.295 110.973 225.922 93.9016Z" fill="#FCFEFB"/>
<path opacity="0.01" fill-rule="evenodd" clip-rule="evenodd" d="M16.5752 121.188C17.1716 121.487 17.1716 121.487 16.5752 121.188Z" fill="#FEF6DF"/>
<path opacity="0.01" fill-rule="evenodd" clip-rule="evenodd" d="M11.6543 125.214C11.3561 124.618 11.3561 124.618 11.6543 125.214Z" fill="#FEF7E0"/>
<path opacity="0.01" fill-rule="evenodd" clip-rule="evenodd" d="M5.3916 130.135C5.98802 130.433 5.98802 130.433 5.3916 130.135Z" fill="#FCF4DE"/>
<path opacity="0.01" fill-rule="evenodd" clip-rule="evenodd" d="M237.553 144.449C238.033 144.785 238.108 145.232 237.777 145.791C237.561 145.367 237.486 144.92 237.553 144.449Z" fill="#FEF3DD"/>
<path opacity="0.01" fill-rule="evenodd" clip-rule="evenodd" d="M237.553 146.686C238.149 146.984 238.149 146.984 237.553 146.686Z" fill="#FEF4DE"/>
<path opacity="0.01" fill-rule="evenodd" clip-rule="evenodd" d="M0.0234375 147.133C0.619868 147.431 0.619868 147.431 0.0234375 147.133Z" fill="#FCF5DD"/>
<path fill-rule="evenodd" clip-rule="evenodd" d="M225.475 147.133C225.271 149.692 224.376 151.928 222.791 153.843C223.76 151.331 224.655 149.094 225.475 147.133Z" fill="#39140D"/>
<path opacity="0.01" fill-rule="evenodd" clip-rule="evenodd" d="M0.0234375 161.895C0.619868 162.193 0.619868 162.193 0.0234375 161.895Z" fill="#FDF3DC"/>
<path fill-rule="evenodd" clip-rule="evenodd" d="M225.922 145.791C226.187 148.966 225.367 151.948 223.462 154.737C219.159 160.503 214.537 166.02 209.595 171.288C209.417 171.186 209.342 171.037 209.371 170.841C213.695 165.845 217.944 160.776 222.12 155.632C222.474 155.075 222.698 154.479 222.791 153.843C224.376 151.928 225.271 149.692 225.475 147.133C225.879 146.816 226.028 146.369 225.922 145.791Z" fill="#FAF8F2"/>
<path opacity="0.01" fill-rule="evenodd" clip-rule="evenodd" d="M0.0234375 162.789C0.619868 163.088 0.619868 163.088 0.0234375 162.789Z" fill="#FCF2DD"/>
<path opacity="0.01" fill-rule="evenodd" clip-rule="evenodd" d="M0.0237042 165.473C0.503889 165.809 0.57844 166.257 0.247366 166.815C0.0314071 166.391 -0.0431484 165.944 0.0237042 165.473Z" fill="#FCF2DD"/>
<path opacity="0.01" fill-rule="evenodd" clip-rule="evenodd" d="M0.0234375 169.052C0.619868 169.35 0.619868 169.35 0.0234375 169.052Z" fill="#FDF2DB"/>
<path opacity="0.01" fill-rule="evenodd" clip-rule="evenodd" d="M225.475 169.499C226.071 169.798 226.071 169.798 225.475 169.499Z" fill="#FEF4DC"/>
<path fill-rule="evenodd" clip-rule="evenodd" d="M12.5488 147.133C12.9213 163.907 13.1449 180.756 13.2198 197.681C13.3416 200.45 13.5652 203.208 13.8908 205.956C13.8783 206.435 13.7291 206.807 13.4435 207.074C13.2396 205.212 12.9414 203.423 12.5488 201.707C12.5488 183.515 12.5488 165.324 12.5488 147.133Z" fill="#370602"/>
<path opacity="0.01" fill-rule="evenodd" clip-rule="evenodd" d="M0.0234375 179.788C0.619868 180.086 0.619868 180.086 0.0234375 179.788Z" fill="#FEF3DB"/>
<path opacity="0.016" fill-rule="evenodd" clip-rule="evenodd" d="M0.0234375 180.682C0.619868 180.98 0.619868 180.98 0.0234375 180.682Z" fill="#FCF3DB"/>
<path opacity="0.01" fill-rule="evenodd" clip-rule="evenodd" d="M218.317 180.682C218.914 180.98 218.914 180.98 218.317 180.682Z" fill="#FEF5DB"/>
<path opacity="0.012" fill-rule="evenodd" clip-rule="evenodd" d="M212.502 184.708C213.098 185.007 213.098 185.007 212.502 184.708Z" fill="#FDF2D8"/>
<path opacity="0.998" fill-rule="evenodd" clip-rule="evenodd" d="M13.4436 142.212C13.0743 143.839 12.7761 145.479 12.549 147.133C12.549 165.324 12.549 183.515 12.549 201.707C12.6206 202.467 12.546 203.212 12.3253 203.943C12.1762 202.75 12.0271 201.558 11.878 200.365C11.5797 182.472 11.5797 164.579 11.878 146.686C12.1762 145.195 12.4744 143.703 12.7726 142.212C13.0813 141.659 13.3049 141.659 13.4436 142.212Z" fill="#FEFDF8"/>
<path opacity="0.01" fill-rule="evenodd" clip-rule="evenodd" d="M212.056 185.603C212.652 185.901 212.652 185.901 212.056 185.603Z" fill="#FDF3DB"/>
<path fill-rule="evenodd" clip-rule="evenodd" d="M168.665 28.1448C170.117 29.1137 171.832 30.1573 173.809 31.276C174.446 32.9642 174.669 34.6046 174.48 36.1966C171.578 37.9125 168.671 39.7018 165.757 41.5645C163.196 44.5844 161.929 48.014 161.955 51.8529C164.871 53.2356 167.704 54.727 170.454 56.3262C173.376 57.86 176.209 59.5004 178.953 61.2467C182.243 63.6381 185.821 65.5768 189.689 67.0619C195.722 69.8537 201.537 72.985 207.135 76.4558C208.521 77.5258 210.012 78.4947 211.608 79.3634C210.713 79.2144 209.819 79.065 208.924 78.916C209.027 79.8263 209.399 80.7957 210.042 81.8236C211.049 81.2833 212.018 80.687 212.95 80.0343C214.292 80.7053 215.634 81.3763 216.976 82.0473C217.572 82.6436 217.572 83.2403 216.976 83.8366C217.391 84.0102 217.689 84.3085 217.871 84.7313C216.278 85.4613 215.16 86.878 214.516 88.9808C214.143 88.5335 213.77 88.0862 213.397 87.6389C210.586 86.6878 207.753 85.4206 204.898 83.8366C204.522 83.0914 204.746 83.0167 205.569 83.6129C205.718 83.3146 205.868 83.0167 206.016 82.7183C206.623 83.1119 207.294 83.2613 208.029 83.1656C208.706 78.755 208.408 78.6056 207.135 82.7183C206.687 82.4946 206.24 82.271 205.793 82.0473C206.169 81.3021 205.945 81.2274 205.122 81.8236C204.88 81.0923 205.104 80.496 205.793 80.0343C205.204 80.118 204.607 79.8196 204.004 79.1397C203.694 79.3745 203.47 79.6729 203.333 80.0343C202.263 79.5414 202.039 79.8393 202.662 80.929C202.157 81.2699 201.635 81.5682 201.096 81.8236C199.643 81.0601 198.226 80.2401 196.846 79.3634C198.039 79.6617 199.232 79.9596 200.425 80.258C199.611 79.8201 199.089 79.1491 198.859 78.2451C198.71 78.394 198.561 78.5434 198.412 78.6924C197.482 77.5861 196.513 77.5861 195.504 78.6924C193.61 77.6702 191.671 76.7756 189.689 76.0084C189.242 76.0084 188.794 76.0084 188.347 76.0084C183.048 72.6866 177.531 69.7043 171.796 67.0619C165.165 62.9783 158.307 59.2508 151.219 55.8789C146.816 53.0048 142.193 50.4698 137.352 48.2743C133.177 45.7394 129.002 43.2048 124.827 40.6698C121.021 38.0946 116.995 35.858 112.749 33.96C111.514 33.5663 110.321 33.0448 109.171 32.3943C107.978 32.096 106.785 32.096 105.592 32.3943C88.0719 52.8965 70.552 73.3992 53.0317 93.9014C52.5803 94.5836 52.3566 95.3292 52.3607 96.138C51.9169 99.3355 51.768 102.616 51.9133 105.979C51.9133 109.856 51.9133 113.733 51.9133 117.61C51.9133 120.442 51.9133 123.276 51.9133 126.109C62.6057 126.169 72.4469 129.077 81.4367 134.832C87.7807 139.851 90.0173 146.338 88.1466 154.29C87.8236 157.128 88.2709 159.811 89.4886 162.342C90.7147 163.439 91.9824 164.483 93.2908 165.473C96.1939 161.591 99.3999 158.012 102.908 154.737C105.523 153.207 108.058 151.567 110.513 149.817C115.082 147.78 119.853 146.438 124.827 145.791C140.759 145.112 153.88 150.778 164.192 162.789C167.021 166.809 169.258 171.133 170.902 175.762C172.811 180.955 173.556 186.323 173.138 191.865C172.989 193.953 172.84 196.04 172.691 198.128C174.991 197.46 177.004 196.268 178.73 194.549C191.702 178.893 204.674 163.237 217.647 147.58C217.871 143.259 217.945 138.934 217.871 134.608C217.871 130.88 217.871 127.152 217.871 123.425C217.871 118.057 217.871 112.689 217.871 107.321C217.871 103.594 217.871 99.8656 217.871 96.138C217.871 95.3923 217.871 94.6471 217.871 93.9014C218.243 111.122 218.467 128.419 218.542 145.791C218.84 128.345 218.84 110.9 218.542 93.4541C218.268 91.8571 217.448 90.6641 216.081 89.8755C216.217 89.5847 216.366 89.2864 216.529 88.9808C215.295 87.7212 215.519 87.4232 217.2 88.0862C217.423 87.8625 217.647 87.6389 217.871 87.4152C217.436 86.8766 216.989 86.653 216.529 86.7442C216.916 86.2598 217.363 86.1855 217.871 86.5205C219.423 87.4702 219.423 87.9922 217.871 88.0862C217.937 88.5568 217.863 89.0041 217.647 89.4282C217.354 88.8932 217.131 88.8932 216.976 89.4282C217.362 90.1873 217.959 90.7088 218.765 90.9938C218.23 91.2863 218.23 91.51 218.765 91.6648C219.101 91.2729 219.325 90.8256 219.436 90.3228C220.043 90.7164 220.714 90.8659 221.449 90.7701C221.449 90.3228 221.449 89.8755 221.449 89.4282C219.099 89.5297 218.652 89.0077 220.107 87.8625C219.511 87.5642 219.511 87.2662 220.107 86.9679C218.29 86.4016 217.992 85.4327 219.213 84.0603C220.085 84.4503 220.979 84.7487 221.896 84.9549C223.4 85.8706 224.444 87.2126 225.028 88.9808C224.951 89.4246 225.1 89.7225 225.475 89.8755C225.77 91.1973 225.919 92.5393 225.922 93.9014C225.922 111.198 225.922 128.494 225.922 145.791C226.028 146.368 225.879 146.816 225.475 147.133C224.655 149.094 223.76 151.331 222.791 153.843C222.698 154.479 222.474 155.075 222.12 155.632C217.944 160.776 213.695 165.845 209.371 170.841C201.632 179.851 193.953 188.947 186.334 198.128C184.158 200.454 181.847 202.616 179.401 204.614C176.566 206.069 173.584 207.112 170.454 207.745C163.288 221.847 151.956 230.421 136.458 233.466C131.607 233.139 126.686 232.841 121.696 232.572C121.147 232.581 120.7 232.73 120.354 233.019C119.91 233.096 119.612 232.947 119.459 232.572C116.604 231.567 113.473 230.449 110.065 229.217C107.506 227.789 104.971 226.373 102.461 224.967C96.6976 220.987 92.2244 215.843 89.0412 209.535C88.445 209.236 87.8482 209.236 87.2519 209.535C85.0605 212.994 82.2276 215.752 78.7528 217.81C75.6188 219.16 72.7859 220.502 70.2536 221.836C68.2505 222.562 66.1633 223.158 63.9911 223.625C63.6449 223.336 63.1975 223.187 62.6491 223.178C60.8661 223.451 59.0768 223.675 57.2812 223.849C51.0867 223.97 44.9736 224.045 38.9409 224.073C31.4353 223.188 24.7254 220.429 18.8114 215.797C16.2821 213.349 14.4929 210.441 13.4435 207.074C13.7291 206.807 13.8783 206.435 13.8908 205.956C13.5652 203.208 13.3416 200.45 13.2198 197.681C13.1449 180.756 12.9213 163.907 12.5488 147.133C12.776 145.479 13.0742 143.839 13.4435 142.212C15.3623 137.978 18.3444 134.624 22.39 132.148C28.9781 128.674 35.9862 126.661 43.4142 126.109C43.6781 115.524 43.9018 104.937 44.0852 94.3487C44.5839 92.457 45.3292 90.6677 46.3218 88.9808C50.8697 83.5382 55.4172 78.0961 59.9652 72.6535C59.4825 72.2259 58.9609 71.8532 58.3995 71.5352C57.7156 67.9101 56.2989 64.6298 54.15 61.6941C52.1276 60.4178 50.1147 59.0759 48.1111 57.6681C47.8127 56.7735 47.8127 55.8789 48.1111 54.9842C48.9901 54.0672 49.9594 53.3215 51.0187 52.7476C52.7619 51.6803 54.3275 50.3383 55.7156 48.7217C57.0535 45.0813 58.3208 41.428 59.5178 37.7622C61.9826 36.7191 63.7719 37.3901 64.8857 39.7752C64.5574 44.4274 66.1977 48.379 69.8063 51.6293C70.3632 51.9831 70.9595 52.2068 71.5956 52.3003C72.0393 52.2233 72.3373 52.3727 72.4902 52.7476C75.0342 54.8634 76.9729 54.4161 78.3055 51.4056C85.0229 42.6698 92.1801 34.2454 99.777 26.1318C103.668 23.6201 107.843 23.0238 112.302 24.3425C124.9 31.3118 137.425 38.3943 149.877 45.5904C149.766 43.3663 148.722 41.5023 146.746 39.9988C144.747 38.9338 142.66 38.0391 140.483 37.3149C138.5 35.9801 137.904 34.2651 138.694 32.1707C139.197 31.9188 139.794 31.3968 140.483 30.605C142.996 29.8186 145.381 28.7746 147.641 27.4738C148.812 26.5317 149.706 25.4134 150.325 24.1188C151.282 23.1347 151.953 21.9417 152.338 20.5403C152.68 19.8397 152.605 19.2435 152.114 18.751C153.078 12.9138 155.986 11.5719 160.837 14.725C161.286 20.555 163.895 25.0283 168.665 28.1448Z" fill="#72412A"/>
<path opacity="0.999" fill-rule="evenodd" clip-rule="evenodd" d="M80.542 180.682C80.9853 185.47 79.4943 189.496 76.0687 192.76C75.9198 192.76 75.7704 192.76 75.6214 192.76C75.5946 192.517 75.4456 192.368 75.1741 192.313C70.6284 195.046 65.7078 196.76 60.4124 197.457C55.1277 197.876 49.9092 198.249 44.7561 198.575C43.6114 198.71 42.5675 198.561 41.6248 198.128C42.0954 198.194 42.5427 198.12 42.9668 197.904C40.8699 197.579 38.7824 197.207 36.7042 196.786C36.2943 196.805 35.9961 196.954 35.8096 197.233C33.4459 196.743 31.2093 195.998 29.0997 194.997C29.6536 194.858 29.6536 194.634 29.0997 194.326C25.6352 193.098 23.1749 190.787 21.7189 187.392C21.5405 187.494 21.466 187.643 21.4952 187.839C21.1203 187.686 20.9711 187.388 21.0479 186.945C21.4168 185.09 21.6405 183.151 21.7189 181.13C24.6543 183.305 27.8602 184.946 31.3363 186.05C31.7463 186.031 32.0445 185.882 32.231 185.603C33.9084 186.101 35.5487 186.548 37.1515 186.945C36.821 186.886 36.5228 186.961 36.2569 187.168C42.5918 188.591 49.0034 189.038 55.4918 188.51C52.2805 188.434 49.1492 188.21 46.098 187.839C49.3783 187.839 52.6589 187.839 55.9392 187.839C59.0409 188.329 62.1722 188.105 65.333 187.168C64.9089 186.952 64.4616 186.878 63.991 186.945C69.7955 185.977 75.0891 183.741 79.871 180.235C80.0423 180.484 80.266 180.633 80.542 180.682Z" fill="#FDBE89"/>
<path opacity="0.988" fill-rule="evenodd" clip-rule="evenodd" d="M32.2313 185.603C32.0448 185.882 31.7466 186.031 31.3366 186.05C27.8605 184.946 24.6546 183.305 21.7192 181.13C21.6408 183.151 21.4171 185.09 21.0482 186.945C20.4159 184.692 20.4905 182.455 21.2718 180.235C24.598 182.681 28.2511 184.47 32.2313 185.603Z" fill="#FBE4A9"/>
<path opacity="0.992" fill-rule="evenodd" clip-rule="evenodd" d="M41.625 178.893C47.361 178.448 53.1762 178.298 59.0706 178.446C53.3444 179.461 47.5292 179.61 41.625 178.893Z" fill="#FDE2A6"/>
<path fill-rule="evenodd" clip-rule="evenodd" d="M63.9909 177.998C62.372 178.331 60.7321 178.48 59.0703 178.446C60.678 177.654 62.3179 177.505 63.9909 177.998Z" fill="#FBF0B4"/>
<path opacity="0.996" fill-rule="evenodd" clip-rule="evenodd" d="M76.0688 173.078C72.7202 175.438 68.9922 176.929 64.8857 177.551C67.1188 176.619 69.6538 175.65 72.4902 174.644C73.5339 173.973 74.5779 173.302 75.6215 172.631C75.893 172.686 76.042 172.835 76.0688 173.078Z" fill="#FAE5A8"/>
<path fill-rule="evenodd" clip-rule="evenodd" d="M28.6523 175.762C32.1176 177.076 35.6962 177.97 39.3881 178.446C39.0419 178.735 38.5946 178.884 38.0461 178.893C34.6469 178.456 31.5156 177.412 28.6523 175.762Z" fill="#47140E"/>
<path fill-rule="evenodd" clip-rule="evenodd" d="M102.013 167.71C98.4908 172.523 96.0305 177.891 94.6326 183.814C94.4251 183.548 94.3504 183.25 94.409 182.919C95.5331 177.092 98.0676 172.023 102.013 167.71Z" fill="#F9F2E3"/>
<path fill-rule="evenodd" clip-rule="evenodd" d="M21.0478 161.447C19.8647 166.679 21.5049 170.705 25.9683 173.525C26.5647 174.121 27.1612 174.718 27.7576 175.314C21.2326 172.337 18.996 167.715 21.0478 161.447Z" fill="#4C1912"/>
<path opacity="0.999" fill-rule="evenodd" clip-rule="evenodd" d="M69.3593 165.921C69.999 165.457 70.7447 165.158 71.5959 165.026C71.9319 165.506 72.3792 165.581 72.9379 165.25C75.1745 164.131 77.4112 163.013 79.6478 161.895C79.8178 164.069 79.8178 166.156 79.6478 168.157C78.7979 170.05 77.6048 171.691 76.0692 173.078C76.0423 172.835 75.8934 172.686 75.6219 172.631C74.5782 173.302 73.5342 173.973 72.4906 174.644C69.6541 175.65 67.1191 176.619 64.8861 177.551C64.7331 177.926 64.4352 178.075 63.9914 177.998C62.3184 177.505 60.6786 177.654 59.0709 178.446C53.1765 178.299 47.3613 178.448 41.6252 178.893C40.9018 178.652 40.1563 178.503 39.3886 178.446C35.6967 177.97 32.1181 177.076 28.6528 175.762C28.5 175.387 28.2018 175.238 27.7582 175.314C27.1618 174.718 26.5653 174.121 25.9689 173.525C22.211 170.529 20.7944 166.652 21.7193 161.895C27.7788 165.753 34.4141 167.915 41.6252 168.381C50.043 168.995 58.3932 168.548 66.6754 167.039C67.9883 166.904 68.8829 166.531 69.3593 165.921Z" fill="#FEBE89"/>
<path fill-rule="evenodd" clip-rule="evenodd" d="M144.957 158.316C152.879 162.138 158.619 168.102 162.179 176.209C163.209 179.223 164.178 182.205 165.087 185.156C165.087 188.585 165.087 192.014 165.087 195.444C164.599 197.51 164.003 199.597 163.297 201.707C163.03 201.601 162.881 201.378 162.85 201.036C167.024 182.453 161.06 168.213 144.957 158.316Z" fill="#F9F0DC"/>
<path fill-rule="evenodd" clip-rule="evenodd" d="M21.0486 161.447C26.3879 164.271 32.054 166.209 38.0469 167.262C46.0956 168.438 54.1474 168.438 62.2024 167.262C64.6041 166.898 66.9896 166.451 69.3596 165.921C68.8832 166.531 67.9885 166.904 66.6756 167.039C58.3934 168.548 50.0432 168.995 41.6255 168.381C34.4144 167.915 27.7791 165.753 21.7196 161.895C20.7947 166.652 22.2112 170.528 25.9691 173.525C21.5057 170.705 19.8655 166.679 21.0486 161.447Z" fill="#FAE3A7"/>
<path fill-rule="evenodd" clip-rule="evenodd" d="M38.0459 167.263C46.0991 167.255 54.1509 167.255 62.2014 167.263C54.1464 168.438 46.0946 168.438 38.0459 167.263Z" fill="#521F14"/>
<path opacity="0.999" fill-rule="evenodd" clip-rule="evenodd" d="M217.87 134.608C217.944 138.934 217.87 143.259 217.646 147.58C204.674 163.237 191.702 178.893 178.729 194.549C177.004 196.268 174.991 197.461 172.69 198.128C172.839 196.04 172.989 193.953 173.138 191.865C173.507 189.86 173.731 187.773 173.809 185.603C188.435 168.519 203.123 151.52 217.87 134.608Z" fill="#E08C61"/>
<path fill-rule="evenodd" clip-rule="evenodd" d="M79.6475 168.157C79.8175 166.156 79.8175 164.069 79.6475 161.895C77.4109 163.013 75.1743 164.131 72.9377 165.25C72.379 165.581 71.9316 165.506 71.5957 165.026C74.6147 163.889 77.4476 162.398 80.0949 160.553C80.7108 163.148 80.5619 165.683 79.6475 168.157Z" fill="#FCE4A9"/>
<path fill-rule="evenodd" clip-rule="evenodd" d="M40.283 159.211C45.4943 159.555 50.7132 159.704 55.9393 159.658C56.6993 159.586 57.445 159.661 58.1759 159.882C52.5128 160.703 46.8466 160.703 41.1776 159.882C40.3534 159.811 40.0552 159.587 40.283 159.211Z" fill="#501A11"/>
<path opacity="0.998" fill-rule="evenodd" clip-rule="evenodd" d="M30.4414 156.527C30.5466 156.26 30.7703 156.111 31.1124 156.079C33.2775 156.95 35.5141 157.547 37.8223 157.869C38.7322 157.934 39.4778 157.636 40.0589 156.974C40.208 157.123 40.3571 157.272 40.5062 157.421C40.6438 157.06 40.8675 156.762 41.1772 156.527C41.6273 156.723 41.6273 157.021 41.1772 157.421C40.7853 157.757 40.338 157.981 39.8352 158.092C40.4316 158.241 41.0281 158.391 41.6245 158.54C48.4185 158.703 55.1283 158.778 61.7541 158.763C59.7367 158.935 57.7984 159.233 55.9389 159.658C50.7128 159.704 45.4939 159.555 40.2825 159.211C38.3876 158.808 36.4492 158.36 34.4673 157.869C33.0902 157.509 31.7482 157.062 30.4414 156.527Z" fill="#FCD69B"/>
<path opacity="0.996" fill-rule="evenodd" clip-rule="evenodd" d="M116.776 156.527C116.925 156.527 117.075 156.527 117.224 156.527C114.111 158.331 110.831 160.344 107.383 162.566C105.652 164.372 103.863 166.086 102.015 167.71C103.385 165.665 105.025 163.801 106.935 162.118C108.805 160.912 110.594 159.645 112.303 158.316C113.796 157.719 115.287 157.122 116.776 156.527Z" fill="#F8F0DF"/>
<path fill-rule="evenodd" clip-rule="evenodd" d="M116.775 156.527C115.286 157.122 113.795 157.719 112.302 158.316C113.581 156.922 115.072 156.326 116.775 156.527Z" fill="#3B110A"/>
<path fill-rule="evenodd" clip-rule="evenodd" d="M77.4108 152.501C75.3008 154.302 72.9148 155.644 70.2536 156.527C68.5019 157.114 66.7126 157.561 64.8857 157.869C67.096 156.869 69.631 155.9 72.4903 154.961C74.0577 154.103 75.5486 153.134 76.9635 152.053C77.235 152.109 77.384 152.258 77.4108 152.501Z" fill="#FAE5A9"/>
<path fill-rule="evenodd" clip-rule="evenodd" d="M25.9688 154.737C27.1616 155.185 28.3545 155.632 29.5473 156.079C29.7002 156.454 29.9984 156.604 30.442 156.527C31.7488 157.062 33.0908 157.509 34.4679 157.869C34.3627 158.136 34.139 158.285 33.7969 158.316C30.8858 157.674 28.2764 156.481 25.9688 154.737Z" fill="#47140E"/>
<path opacity="0.999" fill-rule="evenodd" clip-rule="evenodd" d="M123.485 154.29C126.915 154.29 130.344 154.29 133.773 154.29C135.803 154.797 137.891 155.319 140.036 155.856C141.842 156.46 143.483 157.281 144.956 158.316C161.06 168.213 167.024 182.453 162.849 201.035C162.881 201.378 163.03 201.601 163.297 201.706C162.357 204.779 160.94 207.612 159.047 210.206C156.809 212.816 154.497 215.351 152.114 217.81C149.64 219.419 147.105 220.91 144.509 222.283C144.482 222.04 144.333 221.891 144.062 221.836C141.629 222.97 139.094 223.79 136.457 224.296C132.365 224.693 128.339 225.066 124.38 225.415C122.58 225.174 120.79 224.876 119.012 224.52C119.012 224.371 119.012 224.222 119.012 224.073C112.755 221.84 107.163 218.112 102.237 212.889C102.059 212.991 101.984 213.141 102.013 213.337C101.715 213.188 101.417 213.038 101.119 212.889C101.119 212.591 101.119 212.293 101.119 211.995C95.8121 204.486 93.2771 196.136 93.5142 186.945C93.6744 185.518 93.9727 184.176 94.4089 182.919C94.3503 183.249 94.425 183.548 94.6325 183.813C96.0304 177.89 98.4907 172.523 102.013 167.71C103.861 166.086 105.651 164.371 107.381 162.566C110.83 160.344 114.11 158.331 117.222 156.527C117.222 156.378 117.222 156.228 117.222 156.079C119.394 155.612 121.482 155.016 123.485 154.29Z" fill="#FEDFB9"/>
<path fill-rule="evenodd" clip-rule="evenodd" d="M123.485 191.418C123.26 192.127 122.813 192.351 122.143 192.089C120.607 190.728 119.34 189.163 118.34 187.392C115.871 184.608 112.963 184.012 109.617 185.603C109.064 185.464 109.064 185.241 109.617 184.932C112.228 183.424 114.763 183.572 117.222 185.379C118.862 187.317 120.502 189.256 122.143 191.194C122.71 191.146 123.158 191.22 123.485 191.418Z" fill="#FBF4E2"/>
<path fill-rule="evenodd" clip-rule="evenodd" d="M147.64 171.736C148.388 172.113 148.91 172.709 149.206 173.525C149.504 174.867 149.504 176.209 149.206 177.551C147.854 179.864 146.437 182.1 144.956 184.261C140.441 189.522 136.265 195.039 132.431 200.812C130.341 202.967 128.403 205.279 126.616 207.746C123.162 209.96 119.881 209.737 116.775 207.075C114.303 202.733 111.545 198.559 108.499 194.55C107.997 193.697 107.625 192.802 107.381 191.866C107.612 189.985 108.208 188.196 109.17 186.498C109.319 186.199 109.469 185.901 109.617 185.603C112.963 184.012 115.871 184.609 118.34 187.392C119.34 189.163 120.607 190.729 122.143 192.089C122.813 192.351 123.26 192.127 123.485 191.418C128.086 185.325 132.857 179.361 137.799 173.525C140.573 170.147 143.853 169.55 147.64 171.736Z" fill="#703F29"/>
<path fill-rule="evenodd" clip-rule="evenodd" d="M144.957 184.261C146.438 182.1 147.854 179.863 149.206 177.551C149.505 176.209 149.505 174.867 149.206 173.525C148.911 172.709 148.389 172.113 147.641 171.736C143.947 168.492 140.667 168.94 137.799 173.078C137.341 172.9 137.266 172.602 137.576 172.183C141.453 168.008 145.329 168.008 149.206 172.183C150.456 174.044 150.604 175.983 149.653 177.998C148.493 180.422 146.927 182.509 144.957 184.261Z" fill="#FBF4E2"/>
<path opacity="0.996" fill-rule="evenodd" clip-rule="evenodd" d="M147.641 171.736C143.854 169.55 140.574 170.146 137.8 173.525C137.8 173.376 137.8 173.227 137.8 173.078C140.668 168.94 143.948 168.492 147.641 171.736Z" fill="#471910"/>
<path fill-rule="evenodd" clip-rule="evenodd" d="M123.485 154.29C121.482 155.016 119.394 155.612 117.223 156.079C119.107 154.936 121.194 154.339 123.485 154.29Z" fill="#3D0D06"/>
<path fill-rule="evenodd" clip-rule="evenodd" d="M78.3057 152.053C76.3979 154.396 73.9376 156.036 70.9249 156.974C70.5827 156.943 70.359 156.794 70.2539 156.527C72.915 155.644 75.3011 154.302 77.4111 152.501C77.7095 152.352 78.0074 152.202 78.3057 152.053Z" fill="#491911"/>
<path fill-rule="evenodd" clip-rule="evenodd" d="M133.774 154.29C130.344 154.29 126.915 154.29 123.485 154.29C125.252 153.77 127.116 153.472 129.077 153.396C131.305 153.428 132.871 153.726 133.774 154.29Z" fill="#43130A"/>
<path fill-rule="evenodd" clip-rule="evenodd" d="M21.0483 145.344C20.6741 147.641 21.2705 149.579 22.8376 151.159C23.5639 152.631 24.6076 153.824 25.9689 154.738C21.821 152.852 20.1808 149.72 21.0483 145.344Z" fill="#47150F"/>
<path fill-rule="evenodd" clip-rule="evenodd" d="M22.8369 151.159C25.0806 153.151 27.3172 154.791 29.5468 156.08C28.3539 155.632 27.1611 155.185 25.9682 154.738C24.6069 153.824 23.5632 152.631 22.8369 151.159Z" fill="#FADBA0"/>
<path opacity="0.999" fill-rule="evenodd" clip-rule="evenodd" d="M102.909 154.738C99.4008 158.012 96.1948 161.591 93.2917 165.473C91.9833 164.483 90.7155 163.439 89.4894 162.342C88.2718 159.812 87.8245 157.128 88.1475 154.29C88.5894 151.991 88.7384 149.605 88.5948 147.133C93.5784 149.287 98.35 151.822 102.909 154.738Z" fill="#E28E62"/>
<path opacity="0.988" fill-rule="evenodd" clip-rule="evenodd" d="M24.1789 141.765C23.4434 142.885 22.7724 144.078 22.166 145.344C21.7859 147.366 22.0096 149.305 22.837 151.159C21.2699 149.579 20.6734 147.641 21.0477 145.344C21.7578 143.886 22.8016 142.693 24.1789 141.765Z" fill="#F8DDA4"/>
<path fill-rule="evenodd" clip-rule="evenodd" d="M51.9131 117.61C65.896 124.75 79.763 132.131 93.5142 139.752C99.2565 143.046 104.922 146.401 110.513 149.817C108.058 151.567 105.523 153.207 102.908 154.738C98.3489 151.822 93.5773 149.287 88.5937 147.133C88.7372 149.605 88.5883 151.991 88.1463 154.29C90.017 146.338 87.7804 139.851 81.4365 134.832C72.4466 129.077 62.6055 126.169 51.9131 126.109C51.9131 123.276 51.9131 120.443 51.9131 117.61Z" fill="#C96B45"/>
<path fill-rule="evenodd" clip-rule="evenodd" d="M76.0684 139.976C78.7966 141.538 80.4369 143.924 80.9889 147.133C80.6633 149.129 79.7686 150.769 78.305 152.054C78.305 151.905 78.305 151.755 78.305 151.606C80.5613 148.698 80.636 145.716 78.5286 142.66C77.6161 141.823 76.7962 140.929 76.0684 139.976Z" fill="#4B1710"/>
<path opacity="0.999" fill-rule="evenodd" clip-rule="evenodd" d="M217.87 123.425C217.87 127.152 217.87 130.88 217.87 134.608C203.123 151.52 188.436 168.519 173.809 185.603C173.731 187.773 173.507 189.86 173.138 191.865C173.556 186.323 172.811 180.955 170.901 175.762C173.531 174.254 175.842 172.316 177.835 169.946C190.952 154.221 204.298 138.714 217.87 123.425Z" fill="#C26641"/>
<path fill-rule="evenodd" clip-rule="evenodd" d="M61.7551 135.055C66.8537 135.81 71.6253 137.45 76.0694 139.976C76.7972 140.929 77.6172 141.823 78.5297 142.66C80.6371 145.716 80.5623 148.698 78.306 151.606C78.0631 151.58 77.9142 151.431 77.8587 151.159C79.5653 148.544 79.64 145.86 78.0824 143.107C73.619 138.823 68.3258 136.587 62.2024 136.397C61.6674 136.243 61.6674 136.019 62.2024 135.726C61.6061 135.577 61.0094 135.428 60.4131 135.279C60.8371 135.063 61.2845 134.989 61.7551 135.055Z" fill="#FAE0A4"/>
<path fill-rule="evenodd" clip-rule="evenodd" d="M38.494 135.055C36.2071 135.47 33.9704 136.066 31.7842 136.845C32.3874 136.076 33.4311 135.554 34.9154 135.279C35.8101 135.055 36.7047 134.832 37.5994 134.608C38.0093 134.627 38.3075 134.776 38.494 135.055Z" fill="#3B0E08"/>
<path fill-rule="evenodd" clip-rule="evenodd" d="M45.2031 134.16C45.6504 134.16 46.0978 134.16 46.5451 134.16C51.0304 134.071 55.5037 134.22 59.9648 134.608C59.2339 134.903 58.4139 135.052 57.5045 135.055C53.3292 134.83 49.2286 134.532 45.2031 134.16Z" fill="#FAEBB0"/>
<path opacity="0.999" fill-rule="evenodd" clip-rule="evenodd" d="M45.2029 134.161C49.2284 134.532 53.329 134.83 57.5044 135.055C58.4138 135.053 59.2337 134.904 59.9646 134.608C60.6799 134.488 61.2762 134.637 61.7539 135.055C61.2834 134.989 60.836 135.063 60.412 135.279C61.0082 135.428 61.605 135.577 62.2013 135.726C61.6663 136.019 61.6663 136.242 62.2013 136.397C68.3247 136.586 73.6179 138.823 78.0813 143.107C79.6388 145.86 79.5641 148.543 77.8576 151.159C77.9131 151.43 78.062 151.579 78.3049 151.606C78.3049 151.755 78.3049 151.905 78.3049 152.054C78.0066 152.203 77.7086 152.352 77.4103 152.501C77.3834 152.258 77.2345 152.109 76.963 152.054C75.5481 153.134 74.0571 154.103 72.4897 154.961C69.6304 155.901 67.0954 156.869 64.8852 157.869C63.9838 158.506 62.9402 158.804 61.7539 158.763C55.1282 158.778 48.4183 158.703 41.6244 158.54C41.0279 158.391 40.4315 158.241 39.8351 158.092C40.3379 157.981 40.7852 157.757 41.177 157.421C41.6272 157.021 41.6272 156.723 41.177 156.527C40.8673 156.762 40.6436 157.06 40.506 157.421C40.357 157.273 40.2078 157.123 40.0587 156.974C39.4776 157.636 38.732 157.934 37.8221 157.869C35.514 157.547 33.2774 156.95 31.1122 156.08C30.7701 156.111 30.5465 156.26 30.4413 156.527C29.9977 156.604 29.6995 156.454 29.5466 156.08C27.3171 154.791 25.0804 153.151 22.8367 151.159C22.0094 149.305 21.7857 147.366 22.1658 145.344C22.7722 144.078 23.4432 142.885 24.1787 141.765C26.3476 139.562 28.8825 137.922 31.7832 136.845C33.9695 136.066 36.2061 135.47 38.4931 135.055C38.9367 135.132 39.2349 134.983 39.3877 134.608C41.3157 134.349 43.254 134.199 45.2029 134.161Z" fill="#FEBD88"/>
<path fill-rule="evenodd" clip-rule="evenodd" d="M46.5459 134.161C46.0985 134.161 45.6512 134.161 45.2039 134.161C43.2549 134.199 41.3166 134.349 39.3887 134.608C41.0588 133.947 42.8481 133.574 44.7566 133.49C47.8878 133.191 51.0191 133.191 54.1504 133.49C51.5344 133.567 48.9994 133.791 46.5459 134.161Z" fill="#411109"/>
<path opacity="0.999" fill-rule="evenodd" clip-rule="evenodd" d="M217.871 107.321C217.871 112.689 217.871 118.057 217.871 123.425C204.298 138.714 190.952 154.221 177.835 169.947C175.842 172.316 173.531 174.254 170.902 175.762C169.258 171.133 167.021 166.809 164.192 162.789C164.163 162.594 164.237 162.444 164.415 162.342C165.099 162.892 165.621 163.563 165.981 164.355C166.681 164.697 167.278 164.623 167.77 164.131C170.614 163.309 172.925 161.669 174.704 159.211C189.032 141.829 203.421 124.533 217.871 107.321Z" fill="#E08C61"/>
<path fill-rule="evenodd" clip-rule="evenodd" d="M215.634 89.8757C215.783 89.8757 215.932 89.8757 216.081 89.8757C217.448 90.6644 218.268 91.8574 218.541 93.4543C218.84 110.9 218.84 128.346 218.541 145.791C218.467 128.419 218.243 111.123 217.87 93.9016C217.696 92.2372 216.95 90.8952 215.634 89.8757Z" fill="#4A2819"/>
<path opacity="0.999" fill-rule="evenodd" clip-rule="evenodd" d="M51.9131 105.979C56.0316 107.591 60.0575 109.455 63.9908 111.571C84.0488 122.719 104.178 133.752 124.38 144.673C124.716 144.973 124.865 145.346 124.827 145.791C119.853 146.438 115.082 147.78 110.513 149.817C104.922 146.401 99.2565 143.046 93.5142 139.752C79.763 132.131 65.896 124.75 51.9131 117.61C51.9131 113.733 51.9131 109.856 51.9131 105.979Z" fill="#E28D62"/>
<path opacity="0.999" fill-rule="evenodd" clip-rule="evenodd" d="M217.87 96.1379C217.87 99.8655 217.87 103.593 217.87 107.321C203.421 124.533 189.032 141.829 174.704 159.211C172.925 161.669 170.614 163.309 167.77 164.131C167.72 163.855 167.572 163.632 167.323 163.46C169.987 163.315 171.702 162.048 172.467 159.658C171.711 160.835 171.189 160.685 170.901 159.211C169.44 158.168 168.173 158.466 167.099 160.105C165.99 158.607 166.214 157.414 167.77 156.527C168.236 157.641 168.608 157.641 168.888 156.527C169.037 156.825 169.187 157.123 169.336 157.421C169.62 156.766 169.993 156.169 170.454 155.632C170.084 155.223 169.636 154.925 169.112 154.737C167.402 156.128 165.464 156.65 163.297 156.303C164.139 156.214 164.884 155.991 165.533 155.632C166.996 155.46 168.264 154.864 169.336 153.843C185.621 134.653 201.8 115.418 217.87 96.1379Z" fill="#C46742"/>
<path opacity="0.999" fill-rule="evenodd" clip-rule="evenodd" d="M52.3605 96.1379C88.9315 115.991 125.612 135.748 162.402 155.408C163.436 155.631 164.479 155.705 165.534 155.632C164.884 155.991 164.139 156.214 163.297 156.303C165.464 156.65 167.402 156.128 169.112 154.737C169.636 154.925 170.084 155.223 170.454 155.632C169.993 156.169 169.62 156.766 169.336 157.421C169.187 157.123 169.037 156.825 168.888 156.527C168.608 157.641 168.236 157.641 167.77 156.527C166.214 157.414 165.99 158.607 167.099 160.105C168.173 158.466 169.44 158.168 170.901 159.211C171.189 160.685 171.711 160.835 172.467 159.658C171.702 162.048 169.987 163.315 167.323 163.46C167.572 163.632 167.72 163.855 167.77 164.131C167.278 164.622 166.681 164.697 165.981 164.355C165.621 163.563 165.099 162.892 164.415 162.342C164.237 162.444 164.162 162.593 164.192 162.789C153.88 150.778 140.759 145.112 124.827 145.791C124.866 145.345 124.716 144.973 124.38 144.673C104.179 133.752 84.049 122.718 63.991 111.571C60.0577 109.454 56.0317 107.59 51.9132 105.979C51.7678 102.616 51.9168 99.3354 52.3605 96.1379Z" fill="#C96B46"/>
<path fill-rule="evenodd" clip-rule="evenodd" d="M188.348 76.0085C188.795 76.0085 189.242 76.0085 189.69 76.0085C196.548 79.8855 203.408 83.762 210.267 87.639C202.744 84.1024 195.438 80.2255 188.348 76.0085Z" fill="#F6C496"/>
<path fill-rule="evenodd" clip-rule="evenodd" d="M171.796 67.062C177.531 69.7044 183.047 72.6867 188.347 76.0085C182.612 73.3661 177.095 70.3838 171.796 67.062Z" fill="#F7C497"/>
<path fill-rule="evenodd" clip-rule="evenodd" d="M60.4125 54.5369C59.9978 55.3344 59.6252 56.0797 59.2942 56.7735C60.2081 57.5375 60.9538 58.4322 61.5308 59.4574C61.6995 58.8124 62.0721 58.3651 62.6491 58.1155C62.4053 59.0517 62.0327 59.9464 61.5308 60.7994C60.8115 59.2145 59.7675 57.8726 58.3996 56.7735C58.1012 56.4751 58.1012 56.1772 58.3996 55.8788C59.122 55.4825 59.793 55.0352 60.4125 54.5369Z" fill="#FBE3A9"/>
<path opacity="0.999" fill-rule="evenodd" clip-rule="evenodd" d="M62.6489 58.1156C62.0718 58.3652 61.6992 58.8126 61.5306 59.4576C60.9535 58.4323 60.2078 57.5377 59.2939 56.7737C59.625 56.0799 59.9976 55.3346 60.4123 54.537C60.8251 54.1778 61.2725 54.1031 61.7542 54.3134C62.2982 55.0264 62.8945 55.6974 63.5435 56.3263C63.038 56.8282 62.7397 57.425 62.6489 58.1156Z" fill="#FDBA84"/>
<path opacity="0.988" fill-rule="evenodd" clip-rule="evenodd" d="M78.3054 51.4058C76.9729 54.4163 75.0342 54.8636 72.4902 52.7477C73.5133 52.8479 74.4822 53.1463 75.3978 53.6424C76.2835 53.2778 76.9545 52.6815 77.4108 51.8531C77.7092 51.7041 78.0071 51.5547 78.3054 51.4058Z" fill="#3F0D07"/>
<path fill-rule="evenodd" clip-rule="evenodd" d="M62.6497 58.1154C62.7405 57.4248 63.0389 56.828 63.5444 56.3262C62.8953 55.6972 62.299 55.0262 61.7551 54.3132C61.2733 54.103 60.826 54.1777 60.4131 54.5369C60.4703 53.8256 60.7687 53.2293 61.3077 52.7476C62.2865 54.0994 63.4795 55.2177 64.8863 56.1025C64.1988 56.8661 63.4531 57.5371 62.6497 58.1154Z" fill="#F8D89E"/>
<path fill-rule="evenodd" clip-rule="evenodd" d="M137.353 48.2744C142.193 50.4699 146.816 53.0049 151.22 55.8789C146.379 53.6835 141.756 51.1485 137.353 48.2744Z" fill="#F5C294"/>
<path opacity="0.992" fill-rule="evenodd" clip-rule="evenodd" d="M64.8858 39.7751C65.2593 44.9981 67.4959 49.1734 71.5957 52.3002C70.9596 52.2067 70.3633 51.9831 69.8064 51.6292C66.1978 48.379 64.5575 44.4273 64.8858 39.7751Z" fill="#491A11"/>
<path fill-rule="evenodd" clip-rule="evenodd" d="M112.749 33.9602C116.995 35.8582 121.02 38.0948 124.827 40.6701C120.581 38.7721 116.555 36.5354 112.749 33.9602Z" fill="#4D1E13"/>
<path opacity="0.999" fill-rule="evenodd" clip-rule="evenodd" d="M112.749 33.9601C116.555 36.5353 120.581 38.7719 124.827 40.6699C129.002 43.2049 133.177 45.7394 137.352 48.2744C141.755 51.1485 146.378 53.6835 151.219 55.8789C158.306 59.2509 165.165 62.9784 171.796 67.062C177.095 70.3839 182.612 73.3662 188.347 76.0085C195.437 80.2254 202.744 84.1024 210.266 87.6389C212.171 88.1453 213.961 88.891 215.634 89.8756C216.95 90.895 217.695 92.237 217.87 93.9015C217.87 94.6472 217.87 95.3924 217.87 96.1381C201.8 115.419 185.621 134.654 169.336 153.843C168.263 154.864 166.996 155.46 165.533 155.632C164.479 155.705 163.435 155.631 162.402 155.409C125.612 135.748 88.9314 115.991 52.3604 96.1381C52.3564 95.3293 52.58 94.5836 53.0314 93.9015C70.5517 73.3993 88.0716 52.8966 105.592 32.3944C106.785 32.0961 107.978 32.0961 109.171 32.3944C110.321 33.0448 111.514 33.5664 112.749 33.9601Z" fill="#F6A07A"/>
<path fill-rule="evenodd" clip-rule="evenodd" d="M159.718 71.0879C169.528 75.9928 179.219 81.137 188.794 86.5206C189.364 86.9576 189.364 87.3307 188.794 87.6389C187.64 86.4602 186.298 85.4913 184.768 84.7313C176.175 80.5117 167.826 75.9642 159.718 71.0879Z" fill="#F28C68"/>
<path opacity="0.999" fill-rule="evenodd" clip-rule="evenodd" d="M159.719 71.0879C167.826 75.9642 176.176 80.5117 184.769 84.7313C186.299 85.4913 187.641 86.4602 188.795 87.6389C186.084 92.8306 186.456 97.7511 189.913 102.401C191.479 103.668 193.044 104.936 194.61 106.203C194.285 106.829 194.061 107.5 193.939 108.216C187.154 116.193 180.37 124.171 173.586 132.148C172.542 132.446 171.498 132.446 170.454 132.148C165.212 129.5 159.993 129.5 154.798 132.148C153.307 133.341 151.816 134.533 150.325 135.726C149.281 136.025 148.237 136.025 147.193 135.726C125.611 124.078 104.066 112.373 82.5551 100.611C82.2568 99.8656 82.2568 99.1204 82.5551 98.3747C87.3782 90.8695 86.2599 84.458 79.2002 79.1398C85.3853 70.727 91.9462 62.6004 98.8825 54.7606C101.39 54.9628 103.776 55.7085 106.04 56.9972C111.484 57.6315 115.808 55.6928 119.012 51.182C119.758 50.8837 120.503 50.8837 121.249 51.182C134.069 57.8628 146.892 64.4984 159.719 71.0879Z" fill="#FEDEB7"/>
<path opacity="0.999" fill-rule="evenodd" clip-rule="evenodd" d="M132.432 71.5352C145.737 70.9117 154.46 76.8758 158.6 89.4282C159.37 101.794 153.928 110.218 142.273 114.702C130.358 118.929 120.442 116.171 112.526 106.427C109.252 100.98 108.804 95.3136 111.184 89.4282C115.373 79.9391 122.456 73.9745 132.432 71.5352Z" fill="#F49C76"/>
<path opacity="0.999" fill-rule="evenodd" clip-rule="evenodd" d="M126.17 86.7443C128.18 86.5936 129.448 87.4882 129.972 89.4283C130.121 91.0686 130.27 92.7085 130.419 94.3488C130.652 94.8033 131.025 95.1012 131.538 95.2435C137.26 93.2538 143.076 91.6139 148.983 90.3229C151.881 90.4634 152.999 91.9543 152.338 94.7962C151.261 95.8948 149.994 96.7147 148.536 97.2564C142.345 99.4698 136.082 101.408 129.748 103.072C124.168 103.595 122.08 101.06 123.486 95.4671C123.561 93.6032 123.635 91.7396 123.71 89.8756C124.129 88.4898 124.95 87.4462 126.17 86.7443Z" fill="#FEE0B9"/>
<path opacity="0.999" fill-rule="evenodd" clip-rule="evenodd" d="M156.587 27.2502C157.954 29.2927 159.595 31.1567 161.507 32.8418C162.104 33.1402 162.7 33.4381 163.297 33.7364C160.364 35.3267 158.202 37.6376 156.81 40.67C155.43 37.6487 153.268 35.3374 150.324 33.7364C153.417 32.5081 155.505 30.3462 156.587 27.2502Z" fill="#FCC188"/>
<path opacity="0.998" fill-rule="evenodd" clip-rule="evenodd" d="M150.324 24.1189C149.706 25.4135 148.811 26.5318 147.64 27.4738C145.38 28.7746 142.995 29.8187 140.483 30.6051C139.793 31.3969 139.197 31.9189 138.693 32.1707C138.854 31.3338 139.301 30.6628 140.035 30.1578C144.032 29.056 147.462 27.0431 150.324 24.1189Z" fill="#44150E"/>
<path opacity="0.01" fill-rule="evenodd" clip-rule="evenodd" d="M211.608 186.05C211.757 186.05 211.907 186.05 212.056 186.05C211.973 186.35 211.824 186.35 211.608 186.05Z" fill="#FDF5DC"/>
<path opacity="0.01" fill-rule="evenodd" clip-rule="evenodd" d="M0.0237042 186.945C0.503889 187.281 0.57844 187.728 0.247366 188.287C0.0314071 187.863 -0.0431484 187.415 0.0237042 186.945Z" fill="#FDF2DB"/>
<path fill-rule="evenodd" clip-rule="evenodd" d="M37.1515 186.945C40.1002 187.536 43.0823 187.835 46.098 187.84C49.1492 188.21 52.2804 188.434 55.4918 188.51C49.0033 189.038 42.5917 188.591 36.2568 187.169C36.5227 186.961 36.821 186.886 37.1515 186.945Z" fill="#FDECAD"/>
<path fill-rule="evenodd" clip-rule="evenodd" d="M63.9913 186.945C64.4619 186.878 64.9092 186.952 65.3333 187.168C62.1725 188.105 59.0412 188.329 55.9395 187.839C58.6386 187.667 61.3226 187.368 63.9913 186.945Z" fill="#FBE6A9"/>
<path opacity="0.992" fill-rule="evenodd" clip-rule="evenodd" d="M109.171 186.498C108.209 188.196 107.613 189.985 107.381 191.865C107.311 190.344 107.46 188.852 107.829 187.392C108.276 187.094 108.723 186.796 109.171 186.498Z" fill="#38110A"/>
<path fill-rule="evenodd" clip-rule="evenodd" d="M76.0684 192.76C79.494 189.496 80.9849 185.47 80.5416 180.682C81.5033 184.102 80.8324 187.532 78.5286 190.971C77.8796 191.849 77.0596 192.445 76.0684 192.76Z" fill="#40130D"/>
<path opacity="0.01" fill-rule="evenodd" clip-rule="evenodd" d="M236.657 189.181C237.254 189.48 237.254 189.48 236.657 189.181Z" fill="#FEF6DE"/>
<path opacity="0.01" fill-rule="evenodd" clip-rule="evenodd" d="M0.0237042 190.523C0.503889 190.859 0.57844 191.307 0.247366 191.865C0.0314071 191.441 -0.0431484 190.994 0.0237042 190.523Z" fill="#FEF4DD"/>
<path fill-rule="evenodd" clip-rule="evenodd" d="M29.1 194.997C25.4022 193.834 22.8674 191.448 21.4954 187.839C21.4662 187.643 21.5407 187.494 21.7191 187.392C23.1751 190.787 25.6354 193.098 29.1 194.326C29.6539 194.634 29.6539 194.858 29.1 194.997Z" fill="#F7E1A7"/>
<path opacity="0.01" fill-rule="evenodd" clip-rule="evenodd" d="M208.477 191.865C209.073 192.164 209.073 192.164 208.477 191.865Z" fill="#FEF3DB"/>
<path opacity="0.01" fill-rule="evenodd" clip-rule="evenodd" d="M235.764 192.313C236.36 192.611 236.36 192.611 235.764 192.313Z" fill="#FEF7DE"/>
<path opacity="0.996" fill-rule="evenodd" clip-rule="evenodd" d="M165.086 185.156C165.565 186.777 165.862 188.492 165.981 190.3C165.861 192.365 165.562 194.08 165.086 195.444C165.086 192.014 165.086 188.585 165.086 185.156Z" fill="#3A1006"/>
<path opacity="0.01" fill-rule="evenodd" clip-rule="evenodd" d="M235.764 194.102C236.36 194.4 236.36 194.4 235.764 194.102Z" fill="#FEF5DD"/>
<path opacity="0.012" fill-rule="evenodd" clip-rule="evenodd" d="M0.0234375 194.997C0.619868 195.295 0.619868 195.295 0.0234375 194.997Z" fill="#FDF2DB"/>
<path opacity="0.999" fill-rule="evenodd" clip-rule="evenodd" d="M93.5143 193.207C93.8484 200.426 96.3829 206.689 101.119 211.995C101.119 212.293 101.119 212.591 101.119 212.889C100.54 212.536 100.018 212.089 99.5531 211.548C99.3657 212.072 99.0678 212.519 98.6585 212.889C96.8835 208.14 95.0942 203.369 93.2906 198.575C93.1926 199.218 92.969 199.815 92.6196 200.364C91.6046 199.776 90.561 199.254 89.4883 198.799C90.5521 198.363 90.4027 198.065 89.041 197.904C90.2542 197.006 90.9251 197.379 91.054 199.022C91.8502 198.18 91.9249 197.285 91.2776 196.339C91.5617 195.683 91.9348 195.086 92.3959 194.549C92.5449 192.313 92.6943 190.076 92.8433 187.839C92.922 189.713 93.1457 191.502 93.5143 193.207Z" fill="#5D2F1F"/>
<path opacity="0.012" fill-rule="evenodd" clip-rule="evenodd" d="M235.316 195.891C235.775 196.069 235.849 196.367 235.54 196.786C235.332 196.52 235.258 196.222 235.316 195.891Z" fill="#FFF4DE"/>
<path fill-rule="evenodd" clip-rule="evenodd" d="M35.8096 197.233C35.9961 196.954 36.2943 196.805 36.7042 196.786C38.7824 197.207 40.8699 197.58 42.9668 197.904C42.5427 198.121 42.0954 198.195 41.6248 198.128C39.6671 197.945 37.7287 197.647 35.8096 197.233Z" fill="#FDF1B2"/>
<path opacity="0.01" fill-rule="evenodd" clip-rule="evenodd" d="M234.868 197.233C235.464 197.532 235.464 197.532 234.868 197.233Z" fill="#FEF5DE"/>
<path opacity="0.01" fill-rule="evenodd" clip-rule="evenodd" d="M0.0234375 197.681C0.619868 197.979 0.619868 197.979 0.0234375 197.681Z" fill="#FCF3DA"/>
<path fill-rule="evenodd" clip-rule="evenodd" d="M93.5142 186.945C93.2771 196.136 95.8121 204.486 101.119 211.995C96.3829 206.689 93.8484 200.426 93.5142 193.207C93.5142 191.12 93.5142 189.032 93.5142 186.945Z" fill="#F8F0E2"/>
<path fill-rule="evenodd" clip-rule="evenodd" d="M75.6212 192.76C69.7599 196.088 63.4974 198.026 56.8336 198.575C55.79 198.575 54.7459 198.575 53.7023 198.575C50.72 198.575 47.7382 198.575 44.7559 198.575C49.909 198.249 55.1275 197.876 60.4122 197.457C65.7076 196.76 70.6282 195.046 75.1739 192.313C75.4454 192.368 75.5944 192.517 75.6212 192.76Z" fill="#FDF0B3"/>
<path opacity="0.01" fill-rule="evenodd" clip-rule="evenodd" d="M200.872 198.575C201.468 198.874 201.468 198.874 200.872 198.575Z" fill="#FDF3D9"/>
<path fill-rule="evenodd" clip-rule="evenodd" d="M53.7032 198.575C54.7468 198.575 55.7909 198.575 56.8345 198.575C57.7412 198.503 58.6358 198.578 59.5184 198.799C54.9123 199.44 50.2897 199.589 45.6514 199.246C48.4163 199.169 51.1002 198.946 53.7032 198.575Z" fill="#48150E"/>
<path opacity="0.01" fill-rule="evenodd" clip-rule="evenodd" d="M234.421 199.917C234.901 200.253 234.976 200.701 234.645 201.259C234.429 200.835 234.354 200.388 234.421 199.917Z" fill="#FFF3DE"/>
<path fill-rule="evenodd" clip-rule="evenodd" d="M107.828 187.392C107.459 188.852 107.31 190.344 107.381 191.865C107.624 192.802 107.997 193.696 108.499 194.549C111.544 198.558 114.303 202.733 116.774 207.074C112.987 202.493 109.632 197.573 106.71 192.313C106.38 190.63 106.528 188.99 107.157 187.392C107.466 186.838 107.689 186.838 107.828 187.392Z" fill="#F9F0DD"/>
<path opacity="0.01" fill-rule="evenodd" clip-rule="evenodd" d="M0.470516 201.707C0.929032 201.884 1.00359 202.182 0.694178 202.601C0.486467 202.335 0.411912 202.037 0.470516 201.707Z" fill="#FDF2DB"/>
<path opacity="0.996" fill-rule="evenodd" clip-rule="evenodd" d="M32.2311 204.838C28.4267 204.626 24.9227 203.284 21.7189 200.812C21.6356 201.946 21.412 202.99 21.048 203.943C20.9743 202.593 21.0488 201.251 21.2716 199.917C24.6227 202.226 28.2758 203.867 32.2311 204.838Z" fill="#FAEBB0"/>
<path fill-rule="evenodd" clip-rule="evenodd" d="M80.5413 199.917C81.359 203.134 80.6138 205.967 78.3047 208.416C78.3047 208.267 78.3047 208.118 78.3047 207.969C79.7759 205.493 80.5216 202.809 80.5413 199.917Z" fill="#461611"/>
<path opacity="0.996" fill-rule="evenodd" clip-rule="evenodd" d="M79.6477 199.917C79.9461 199.917 80.244 199.917 80.5423 199.917C80.5227 202.809 79.777 205.493 78.3057 207.969C78.0628 207.942 77.9139 207.793 77.8584 207.522C79.3592 205.202 79.9555 202.667 79.6477 199.917Z" fill="#F9E3AB"/>
<path opacity="0.999" fill-rule="evenodd" clip-rule="evenodd" d="M79.6473 199.917C79.9551 202.667 79.3588 205.202 77.858 207.522C77.9135 207.793 78.0624 207.942 78.3053 207.969C78.3053 208.118 78.3053 208.267 78.3053 208.416C75.6576 211.009 72.5263 212.798 68.9115 213.784C68.8064 213.517 68.5827 213.368 68.2405 213.337C65.5387 214.235 62.78 214.906 59.965 215.35C60.3891 215.566 60.8364 215.64 61.307 215.574C59.6094 216.073 57.8201 216.371 55.9391 216.468C50.6415 215.986 45.2736 215.539 39.8355 215.126C39.287 215.135 38.8397 215.284 38.4935 215.574C38.1953 215.574 37.8971 215.574 37.5988 215.574C37.2817 215.169 36.8344 215.02 36.2569 215.126C35.6794 215.232 35.232 215.083 34.9149 214.679C35.2454 214.738 35.5437 214.663 35.8095 214.455C34.1457 214.002 32.5055 213.48 30.889 212.89C30.6176 212.945 30.4685 213.094 30.4417 213.337C28.2154 212.522 26.1279 211.478 24.1791 210.206C22.6647 208.37 21.621 206.282 21.0479 203.943C21.4119 202.99 21.6355 201.946 21.7188 200.812C24.9226 203.284 28.4266 204.626 32.231 204.838C32.6745 204.761 32.9727 204.91 33.1256 205.285C33.466 205.821 34.2116 206.193 35.3622 206.403C45.6869 208.513 55.9754 208.364 66.2276 205.956C65.9619 205.749 65.6635 205.674 65.3329 205.732C65.6501 205.328 66.0974 205.179 66.6749 205.285C70.737 205.001 74.614 203.733 78.3053 201.483C78.8591 201.174 78.8591 200.951 78.3053 200.812C78.3053 200.663 78.3053 200.514 78.3053 200.365C78.8014 200.339 79.2487 200.19 79.6473 199.917Z" fill="#FEBF8A"/>
<path opacity="0.992" fill-rule="evenodd" clip-rule="evenodd" d="M78.3052 200.812C78.859 200.951 78.859 201.174 78.3052 201.483C74.6139 203.733 70.737 205.001 66.6748 205.285C70.7548 204.339 74.6314 202.848 78.3052 200.812Z" fill="#F9E3A8"/>
<path opacity="0.998" fill-rule="evenodd" clip-rule="evenodd" d="M78.306 200.365C78.306 200.514 78.306 200.663 78.306 200.812C74.6321 202.848 70.7556 204.339 66.6755 205.285C66.0981 205.179 65.6507 205.328 65.3336 205.732C56.3987 207.267 47.4522 207.416 38.4941 206.18C46.3295 206.388 54.2319 206.165 62.2023 205.509C65.2557 205.044 68.2376 204.298 71.1488 203.272C70.5825 203.134 70.0604 202.91 69.5832 202.601C69.3814 203.688 69.0083 203.762 68.4648 202.825C69.3121 202.342 69.461 201.745 68.9122 201.036C69.6104 200.893 70.1325 200.521 70.4778 199.917C70.6939 200.341 70.7681 200.789 70.7015 201.259C72.4679 201.346 72.4679 201.569 70.7015 201.93C71.5313 202.119 72.3516 202.343 73.1617 202.601C74.8598 201.789 76.5748 201.043 78.306 200.365Z" fill="#612B1C"/>
<path opacity="0.01" fill-rule="evenodd" clip-rule="evenodd" d="M194.609 206.18C195.206 206.478 195.206 206.478 194.609 206.18Z" fill="#FDF2D7"/>
<path opacity="0.996" fill-rule="evenodd" clip-rule="evenodd" d="M33.126 205.285C34.9047 205.641 36.694 205.939 38.4939 206.18C47.452 207.416 56.3985 207.267 65.3333 205.732C65.6639 205.674 65.9622 205.749 66.228 205.956C55.9757 208.364 45.6873 208.513 35.3626 206.403C34.2119 206.193 33.4664 205.821 33.126 205.285Z" fill="#FBE5AA"/>
<path fill-rule="evenodd" clip-rule="evenodd" d="M132.432 200.812C130.616 204.343 128.081 207.25 124.827 209.535C123.527 210.124 122.185 210.274 120.801 209.982C119.608 209.386 118.416 208.789 117.223 208.193C116.886 207.893 116.737 207.52 116.775 207.075C119.882 209.737 123.163 209.96 126.617 207.746C128.404 205.279 130.342 202.967 132.432 200.812Z" fill="#FAF1DD"/>
<path opacity="0.996" fill-rule="evenodd" clip-rule="evenodd" d="M24.1797 210.206C26.1285 211.478 28.216 212.522 30.4422 213.337C31.8731 213.963 33.3642 214.41 34.9155 214.679C35.2326 215.083 35.6799 215.232 36.2574 215.126C31.6138 215.119 27.5879 213.479 24.1797 210.206Z" fill="#4B1911"/>
<path fill-rule="evenodd" clip-rule="evenodd" d="M30.4414 213.337C30.4682 213.094 30.6173 212.945 30.8887 212.89C32.5053 213.48 34.1455 214.002 35.8093 214.455C35.5434 214.663 35.2452 214.738 34.9146 214.679C33.3634 214.41 31.8723 213.963 30.4414 213.337Z" fill="#FBEDB1"/>
<path opacity="0.01" fill-rule="evenodd" clip-rule="evenodd" d="M187.452 213.337C188.048 213.635 188.048 213.635 187.452 213.337Z" fill="#FBEFD3"/>
<path opacity="0.012" fill-rule="evenodd" clip-rule="evenodd" d="M3.15527 213.784C3.75169 214.083 3.75169 214.083 3.15527 213.784Z" fill="#FDF3DC"/>
<path fill-rule="evenodd" clip-rule="evenodd" d="M68.9113 213.784C66.7847 214.389 64.6971 214.986 62.6488 215.574C62.2015 215.574 61.7541 215.574 61.3068 215.574C60.8362 215.64 60.3889 215.566 59.9648 215.35C62.7799 214.906 65.5385 214.235 68.2403 213.337C68.5825 213.368 68.8062 213.517 68.9113 213.784Z" fill="#FBECB3"/>
<path fill-rule="evenodd" clip-rule="evenodd" d="M38.4941 215.574C38.8403 215.284 39.2876 215.135 39.8361 215.126C45.2742 215.539 50.6421 215.986 55.9398 216.468C50.0888 216.662 44.2736 216.364 38.4941 215.574Z" fill="#F9DDA3"/>
<path opacity="0.01" fill-rule="evenodd" clip-rule="evenodd" d="M181.637 216.021C182.233 216.319 182.233 216.319 181.637 216.021Z" fill="#FBF2DA"/>
<path opacity="0.01" fill-rule="evenodd" clip-rule="evenodd" d="M4.0498 216.468C4.64622 216.767 4.64622 216.767 4.0498 216.468Z" fill="#FCF1D8"/>
<path opacity="0.01" fill-rule="evenodd" clip-rule="evenodd" d="M180.743 216.468C181.339 216.767 181.339 216.767 180.743 216.468Z" fill="#FEF7DD"/>
<path fill-rule="evenodd" clip-rule="evenodd" d="M37.5997 215.574C37.898 215.574 38.1961 215.574 38.4944 215.574C44.2738 216.365 50.089 216.663 55.94 216.468C57.821 216.371 59.6103 216.073 61.3079 215.574C61.7552 215.574 62.2025 215.574 62.6499 215.574C62.9804 215.515 63.2788 215.59 63.5445 215.797C62.2504 216.022 61.1321 216.543 60.1896 217.363C55.6783 217.277 51.1304 217.202 46.5462 217.139C43.2168 217.036 39.9365 216.589 36.7051 215.797C36.971 215.59 37.2692 215.515 37.5997 215.574Z" fill="#521F14"/>
<path opacity="0.01" fill-rule="evenodd" clip-rule="evenodd" d="M180.742 216.916C180.444 217.214 180.444 217.214 180.742 216.916Z" fill="#FEF2D6"/>
<path opacity="0.01" fill-rule="evenodd" clip-rule="evenodd" d="M234.868 216.916C235.464 217.214 235.464 217.214 234.868 216.916Z" fill="#FAF1D8"/>
<path opacity="0.01" fill-rule="evenodd" clip-rule="evenodd" d="M235.316 217.81C235.913 218.108 235.913 218.108 235.316 217.81Z" fill="#FCF1D6"/>
<path opacity="0.01" fill-rule="evenodd" clip-rule="evenodd" d="M236.211 218.705C235.913 219.003 235.913 219.003 236.211 218.705Z" fill="#FBF1D8"/>
<path opacity="0.01" fill-rule="evenodd" clip-rule="evenodd" d="M6.28613 219.152C6.88255 219.45 6.88255 219.45 6.28613 219.152Z" fill="#FDEFD9"/>
<path fill-rule="evenodd" clip-rule="evenodd" d="M78.7531 217.81C76.231 219.742 73.3981 221.084 70.2539 221.836C72.7862 220.502 75.6191 219.16 78.7531 217.81Z" fill="#3D150F"/>
<path opacity="0.01" fill-rule="evenodd" clip-rule="evenodd" d="M236.211 220.047C236.807 220.345 236.807 220.345 236.211 220.047Z" fill="#FBF2D6"/>
<path opacity="0.012" fill-rule="evenodd" clip-rule="evenodd" d="M8.07621 220.494C7.77798 220.793 7.77798 220.793 8.07621 220.494Z" fill="#F9EFD9"/>
<path fill-rule="evenodd" clip-rule="evenodd" d="M119.012 224.073C112.191 222.304 106.525 218.725 102.014 213.337C101.985 213.141 102.059 212.992 102.238 212.89C107.164 218.112 112.756 221.84 119.012 224.073Z" fill="#F6EDDD"/>
<path opacity="0.988" fill-rule="evenodd" clip-rule="evenodd" d="M152.113 217.811C148.376 221.444 143.902 223.904 138.694 225.191C137.85 225.54 137.104 225.466 136.457 224.968C139.296 224.518 141.98 223.624 144.509 222.284C147.105 220.911 149.64 219.42 152.113 217.811Z" fill="#441810"/>
<path opacity="0.01" fill-rule="evenodd" clip-rule="evenodd" d="M175.375 223.625C175.971 223.924 175.971 223.924 175.375 223.625Z" fill="#F9F0D6"/>
<path fill-rule="evenodd" clip-rule="evenodd" d="M63.9916 223.626C55.6673 225.183 47.3171 225.333 38.9414 224.073C44.974 224.045 51.0871 223.97 57.2817 223.849C59.0772 223.675 60.8665 223.451 62.6496 223.178C63.198 223.187 63.6453 223.336 63.9916 223.626Z" fill="#512215"/>
<path opacity="0.01" fill-rule="evenodd" clip-rule="evenodd" d="M173.138 224.073C173.734 224.371 173.734 224.371 173.138 224.073Z" fill="#F9ECD2"/>
<path fill-rule="evenodd" clip-rule="evenodd" d="M144.509 222.284C141.981 223.623 139.297 224.518 136.458 224.967C135.88 224.861 135.433 225.01 135.116 225.415C131.522 225.885 127.943 225.885 124.38 225.415C128.34 225.066 132.366 224.694 136.458 224.296C139.095 223.79 141.63 222.97 144.062 221.836C144.334 221.892 144.483 222.041 144.509 222.284Z" fill="#F6EBD8"/>
<path opacity="0.01" fill-rule="evenodd" clip-rule="evenodd" d="M172.69 224.968C173.287 225.266 173.287 225.266 172.69 224.968Z" fill="#F9EFD8"/>
<path fill-rule="evenodd" clip-rule="evenodd" d="M119.012 224.52C120.79 224.876 122.58 225.174 124.38 225.415C127.943 225.885 131.522 225.885 135.115 225.415C135.446 225.356 135.744 225.431 136.01 225.638C135.414 225.787 134.817 225.937 134.221 226.086C130.83 226.168 127.476 226.392 124.156 226.757C123.854 226.274 123.407 225.976 122.814 225.862C121.706 226.234 120.587 226.309 119.459 226.086C120.055 225.937 120.652 225.787 121.248 225.638C120.358 225.471 119.612 225.098 119.012 224.52Z" fill="#4A1B13"/>
<path opacity="0.01" fill-rule="evenodd" clip-rule="evenodd" d="M86.3574 227.204C86.9537 227.502 86.9537 227.502 86.3574 227.204Z" fill="#FDF2DA"/>
<path opacity="0.01" fill-rule="evenodd" clip-rule="evenodd" d="M87.7002 228.546C88.2965 228.845 88.2965 228.845 87.7002 228.546Z" fill="#FEF3DC"/>
<path opacity="0.01" fill-rule="evenodd" clip-rule="evenodd" d="M16.127 229.441C16.7234 229.739 16.7234 229.739 16.127 229.441Z" fill="#F7ECD6"/>
<path opacity="0.01" fill-rule="evenodd" clip-rule="evenodd" d="M19.7061 229.888C19.4079 230.186 19.4079 230.186 19.7061 229.888Z" fill="#F7EDD6"/>
<path opacity="0.01" fill-rule="evenodd" clip-rule="evenodd" d="M89.9367 229.888C89.6383 230.186 89.6383 230.186 89.9367 229.888Z" fill="#FEF3D8"/>
<path opacity="0.996" fill-rule="evenodd" clip-rule="evenodd" d="M102.46 224.968C104.97 226.373 107.505 227.79 110.064 229.217C113.472 230.449 116.603 231.567 119.458 232.572C113.041 231.582 107.375 229.047 102.46 224.968Z" fill="#37100A"/>
<path opacity="0.01" fill-rule="evenodd" clip-rule="evenodd" d="M19.2588 231.23C19.8552 231.528 19.8552 231.528 19.2588 231.23Z" fill="#F7EED2"/>
<path opacity="0.01" fill-rule="evenodd" clip-rule="evenodd" d="M90.8301 231.23C91.4264 231.528 91.4264 231.528 90.8301 231.23Z" fill="#FDF2D8"/>
<path opacity="0.01" fill-rule="evenodd" clip-rule="evenodd" d="M93.0666 232.572C93.0666 232.721 93.0666 232.87 93.0666 233.019C92.7669 232.804 92.7669 232.655 93.0666 232.572Z" fill="#FDF3DA"/>
<path opacity="0.01" fill-rule="evenodd" clip-rule="evenodd" d="M27.3105 233.019C27.907 233.318 27.907 233.318 27.3105 233.019Z" fill="#F9EDD5"/>
<path opacity="0.01" fill-rule="evenodd" clip-rule="evenodd" d="M93.0674 233.019C93.3657 233.019 93.5147 233.168 93.5147 233.467C93.3657 233.318 93.2163 233.168 93.0674 233.019Z" fill="#FBF2D9"/>
<path fill-rule="evenodd" clip-rule="evenodd" d="M120.354 233.019C120.7 232.73 121.147 232.581 121.695 232.572C126.686 232.841 131.606 233.139 136.457 233.467C131.059 234.132 125.691 233.983 120.354 233.019Z" fill="#4D1F14"/>
<path opacity="0.01" fill-rule="evenodd" clip-rule="evenodd" d="M93.5146 233.467C94.1109 233.765 94.1109 233.765 93.5146 233.467Z" fill="#FCF1DA"/>
<path opacity="0.01" fill-rule="evenodd" clip-rule="evenodd" d="M30.8887 233.914C31.4851 234.212 31.4851 234.212 30.8887 233.914Z" fill="#F8EED5"/>
<path opacity="0.012" fill-rule="evenodd" clip-rule="evenodd" d="M70.2539 233.914C70.8502 234.212 70.8502 234.212 70.2539 233.914Z" fill="#FCF0D9"/>
<path opacity="0.01" fill-rule="evenodd" clip-rule="evenodd" d="M31.7842 234.808C31.9616 234.35 32.2598 234.275 32.6788 234.585C32.4129 234.792 32.1147 234.867 31.7842 234.808Z" fill="#FAEED5"/>
<path opacity="0.01" fill-rule="evenodd" clip-rule="evenodd" d="M33.126 234.361C33.7224 234.659 33.7224 234.659 33.126 234.361Z" fill="#FAEED5"/>
<path opacity="0.012" fill-rule="evenodd" clip-rule="evenodd" d="M94.8574 234.361C95.4537 234.659 95.4537 234.659 94.8574 234.361Z" fill="#FAF1DA"/>
<path opacity="0.01" fill-rule="evenodd" clip-rule="evenodd" d="M94.8566 234.809C94.5582 235.107 94.5582 235.107 94.8566 234.809Z" fill="#FDF1D7"/>
<path opacity="0.01" fill-rule="evenodd" clip-rule="evenodd" d="M162.402 234.809C162.999 235.107 162.999 235.107 162.402 234.809Z" fill="#FBEFD5"/>
<path opacity="0.01" fill-rule="evenodd" clip-rule="evenodd" d="M161.061 235.703C161.657 236.001 161.657 236.001 161.061 235.703Z" fill="#F9EFD7"/>
<path opacity="0.01" fill-rule="evenodd" clip-rule="evenodd" d="M46.5459 236.15C47.1422 236.449 47.1422 236.449 46.5459 236.15Z" fill="#F8F0D6"/>
<path opacity="0.01" fill-rule="evenodd" clip-rule="evenodd" d="M47.4395 236.15C48.0357 236.449 48.0357 236.449 47.4395 236.15Z" fill="#F9EED5"/>
<path opacity="0.01" fill-rule="evenodd" clip-rule="evenodd" d="M55.0451 236.598C54.7467 236.002 54.7467 236.002 55.0451 236.598Z" fill="#F9EED5"/>
<path opacity="0.01" fill-rule="evenodd" clip-rule="evenodd" d="M57.2812 236.15C57.8775 236.449 57.8775 236.449 57.2812 236.15Z" fill="#FAEFD7"/>
<path opacity="0.01" fill-rule="evenodd" clip-rule="evenodd" d="M97.9874 236.15C97.6891 236.449 97.6891 236.449 97.9874 236.15Z" fill="#FDF0D7"/>
<path opacity="0.01" fill-rule="evenodd" clip-rule="evenodd" d="M55.0449 236.598C55.6412 236.896 55.6412 236.896 55.0449 236.598Z" fill="#FCEED6"/>
<path opacity="0.01" fill-rule="evenodd" clip-rule="evenodd" d="M98.882 236.598C98.882 236.747 98.882 236.896 98.882 237.045C98.5823 236.83 98.5823 236.68 98.882 236.598Z" fill="#FDF3DB"/>
<path opacity="0.016" fill-rule="evenodd" clip-rule="evenodd" d="M98.8828 237.045C99.4791 237.343 99.4791 237.343 98.8828 237.045Z" fill="#FCF2D9"/>
<path opacity="0.01" fill-rule="evenodd" clip-rule="evenodd" d="M99.7764 237.492C100.373 237.791 100.373 237.791 99.7764 237.492Z" fill="#FBF0D8"/>
<path opacity="0.01" fill-rule="evenodd" clip-rule="evenodd" d="M98.4355 237.94C99.0318 238.238 99.0318 238.238 98.4355 237.94Z" fill="#FCF2D8"/>
<path opacity="0.01" fill-rule="evenodd" clip-rule="evenodd" d="M153.456 240.176C154.052 240.475 154.052 240.475 153.456 240.176Z" fill="#F9EED6"/>
<path opacity="0.01" fill-rule="evenodd" clip-rule="evenodd" d="M106.039 240.176C106.192 240.551 106.49 240.701 106.934 240.624C106.537 241.194 106.09 241.194 105.592 240.624C105.647 240.352 105.796 240.203 106.039 240.176Z" fill="#FCF1D9"/>
<path opacity="0.01" fill-rule="evenodd" clip-rule="evenodd" d="M108.276 241.966C108.873 242.264 108.873 242.264 108.276 241.966Z" fill="#F9EDD4"/>
<path opacity="0.01" fill-rule="evenodd" clip-rule="evenodd" d="M115.88 243.308C115.702 243.766 115.404 243.841 114.985 243.531C115.251 243.324 115.549 243.249 115.88 243.308Z" fill="#FAEED6"/>
<path opacity="0.01" fill-rule="evenodd" clip-rule="evenodd" d="M116.327 243.755C116.923 244.053 116.923 244.053 116.327 243.755Z" fill="#FBF1D9"/>
<path opacity="0.01" fill-rule="evenodd" clip-rule="evenodd" d="M143.167 243.755C143.763 244.053 143.763 244.053 143.167 243.755Z" fill="#FBEFD4"/>
<path opacity="0.01" fill-rule="evenodd" clip-rule="evenodd" d="M118.117 244.65C118.295 244.191 118.593 244.117 119.012 244.426C118.746 244.634 118.448 244.708 118.117 244.65Z" fill="#FCEFD8"/>
<path opacity="0.01" fill-rule="evenodd" clip-rule="evenodd" d="M119.906 244.65C120.503 244.948 120.503 244.948 119.906 244.65Z" fill="#FAEDD6"/>
<path opacity="0.012" fill-rule="evenodd" clip-rule="evenodd" d="M120.802 244.65C121.398 244.948 121.398 244.948 120.802 244.65Z" fill="#FAEED4"/>
<path opacity="0.01" fill-rule="evenodd" clip-rule="evenodd" d="M138.246 245.097C138.424 244.638 138.722 244.564 139.141 244.873C138.875 245.081 138.577 245.156 138.246 245.097Z" fill="#FAEED8"/>
<path opacity="0.01" fill-rule="evenodd" clip-rule="evenodd" d="M123.485 245.097C124.082 245.395 124.082 245.395 123.485 245.097Z" fill="#FCEFD7"/>
<path opacity="0.01" fill-rule="evenodd" clip-rule="evenodd" d="M124.827 245.544C125.005 245.086 125.303 245.011 125.722 245.321C125.456 245.528 125.158 245.603 124.827 245.544Z" fill="#FAEED7"/>
<path opacity="0.016" fill-rule="evenodd" clip-rule="evenodd" d="M135.563 245.544C135.741 245.086 136.039 245.011 136.458 245.321C136.192 245.528 135.894 245.603 135.563 245.544Z" fill="#FAECD4"/>
<path opacity="0.012" fill-rule="evenodd" clip-rule="evenodd" d="M136.904 245.097C137.501 245.395 137.501 245.395 136.904 245.097Z" fill="#FBEED2"/>
<path opacity="0.01" fill-rule="evenodd" clip-rule="evenodd" d="M138.246 245.097C137.948 245.395 137.948 245.395 138.246 245.097Z" fill="#FAF0D7"/>
<path opacity="0.012" fill-rule="evenodd" clip-rule="evenodd" d="M119.012 245.544C119.608 245.843 119.608 245.843 119.012 245.544Z" fill="#F7EDD5"/>
</svg>
