<svg width="282" height="231" viewBox="0 0 282 231" fill="none" xmlns="http://www.w3.org/2000/svg">
<path opacity="0.01" fill-rule="evenodd" clip-rule="evenodd" d="M131.636 0C132.349 0.356916 132.349 0.356916 131.636 0Z" fill="#F4E6C8"/>
<path opacity="0.01" fill-rule="evenodd" clip-rule="evenodd" d="M142.873 0C143.586 0.356916 143.586 0.356916 142.873 0Z" fill="#F2E1C8"/>
<path opacity="0.01" fill-rule="evenodd" clip-rule="evenodd" d="M130.03 0.534912C130.744 0.891828 130.744 0.891828 130.03 0.534912Z" fill="#F4E6CB"/>
<path opacity="0.01" fill-rule="evenodd" clip-rule="evenodd" d="M145.548 0.534912C146.261 0.891828 146.261 0.891828 145.548 0.534912Z" fill="#F4E4C7"/>
<path opacity="0.01" fill-rule="evenodd" clip-rule="evenodd" d="M127.355 1.07007C128.069 1.42698 128.069 1.42698 127.355 1.07007Z" fill="#F3E3C8"/>
<path opacity="0.01" fill-rule="evenodd" clip-rule="evenodd" d="M126.819 2.14044C126.463 1.42714 126.463 1.42714 126.819 2.14044Z" fill="#F5E5CA"/>
<path opacity="0.01" fill-rule="evenodd" clip-rule="evenodd" d="M148.76 1.60522C149.473 1.96214 149.473 1.96214 148.76 1.60522Z" fill="#F5E5CA"/>
<path opacity="0.998" fill-rule="evenodd" clip-rule="evenodd" d="M151.436 3.21044C152.662 4.15597 154.089 4.69108 155.717 4.81576C164.819 8.55882 173.916 11.9476 183.007 14.9828C185.159 16.1782 187.478 17.0702 189.963 17.6583C191.963 18.7451 194.103 19.6371 196.385 20.3338C196.755 20.0529 197.022 19.696 197.187 19.2636C198.086 21.0899 199.602 21.9819 201.736 21.9391C202.962 22.8847 204.389 23.4198 206.017 23.5445C208.327 24.8501 210.823 25.7421 213.508 26.22C214.193 26.9857 215.085 27.3426 216.184 27.2902C216.367 27.7386 216.723 27.9173 217.254 27.8253C217.633 28.309 218.168 28.4872 218.859 28.3604C221.606 30.3408 224.459 30.4302 227.421 28.628C229.763 23.6718 232.438 18.9452 235.447 14.4477C237.023 13.4786 238.628 12.4977 240.263 11.5046C246.635 9.35131 252.521 10.5109 257.922 14.9828C260.911 19.7104 263.497 24.7051 265.681 29.9657C267.525 32.1318 269.665 33.9159 272.102 35.3168C279.671 39.801 282.349 46.5786 280.129 55.6508C278.359 59.564 275.773 62.864 272.37 65.5502C269.821 67.0475 267.413 68.7416 265.146 70.6338C262.964 75.1773 260.644 79.6364 258.189 84.0114C257.588 86.9277 257.142 89.8708 256.852 92.8406C257.547 95.8554 257.547 98.7985 256.852 101.67C256.456 122.528 256.099 144.468 255.781 167.488C255.053 171.795 253.447 175.72 250.965 179.26C249.36 180.509 247.933 181.936 246.685 183.541C242.807 186.282 238.704 188.601 234.377 190.497C232.955 190.73 231.706 191.265 230.631 192.103C219.062 196.641 207.646 201.457 196.385 206.551C191.7 208.092 187.241 210.054 183.007 212.437C182.476 212.345 182.12 212.523 181.937 212.972C179.185 213.529 176.688 214.6 174.445 216.182C168.814 217.93 163.463 220.249 158.392 223.139C156.044 223.622 153.903 224.514 151.971 225.814C147.478 227.183 142.93 228.253 138.326 229.025C134.416 228.821 130.403 228.464 126.286 227.955C123.701 226.938 121.026 226.046 118.259 225.279C114.15 223.193 109.869 221.409 105.417 219.928C103.43 218.759 101.289 217.867 98.9954 217.253C97.374 216.234 95.5905 215.521 93.6443 215.112C90.4711 213.26 87.0818 211.834 83.4773 210.831C82.1123 209.431 80.5069 208.985 78.6614 209.494C79.0183 209.315 79.3747 209.137 79.7316 208.959C76.0902 207.136 72.3444 205.62 68.4944 204.41C58.8325 199.924 49.2006 195.821 39.5986 192.103C37.3806 190.906 35.062 189.836 32.6423 188.892C31.7203 187.973 30.6501 187.259 29.4316 186.752C28.5118 185.297 27.2629 184.227 25.6859 183.541C25.7779 183.01 25.5992 182.654 25.1508 182.471C24.9726 181.936 24.6157 181.579 24.0806 181.401C23.7542 180.366 23.2191 179.474 22.4753 178.725C19.6119 172.985 18.5417 167.01 19.2646 160.799C18.249 160.457 18.0703 159.743 18.7295 158.659C18.79 157.749 18.4336 157.125 17.6593 156.786C15.3188 155.674 12.9108 154.604 10.4354 153.575C9.45079 154.288 9.18324 154.199 9.63273 153.308C8.81027 152.394 7.91825 151.591 6.9572 150.9C6.60028 150.186 6.06518 149.651 5.35188 149.294C5.12071 148.647 4.7638 148.112 4.28167 147.689C4.19605 146.804 3.83967 146.091 3.21146 145.549C0.607633 137.132 2.74806 130.265 9.63273 124.947C8.65723 124.413 7.76521 123.789 6.9572 123.074C5.54077 120.945 3.93546 118.984 2.14125 117.188C2.18619 113.839 2.27556 110.45 2.4088 107.021C3.07982 105.146 3.88248 103.362 4.81677 101.67C8.72519 97.7545 13.3624 95.2577 18.7295 94.1784C19.1747 81.7837 19.4423 69.2981 19.5322 56.721C20.0368 54.9423 20.4825 53.1588 20.8699 51.3699C21.7106 50.2275 22.4239 48.9791 23.0104 47.6242C27.7364 41.5096 33.8013 37.2287 41.204 34.7817C46.9355 33.0517 52.4653 30.9113 57.7922 28.3604C69.5458 24.2064 81.14 19.7473 92.5741 14.9828C94.2019 14.8581 95.6285 14.323 96.855 13.3774C106.96 9.83237 116.949 6.08663 126.821 2.14023C130.347 1.37449 133.914 0.839387 137.523 0.534912C142.277 0.87952 146.914 1.77101 151.436 3.21044Z" fill="#FFF9F5"/>
<path opacity="0.012" fill-rule="evenodd" clip-rule="evenodd" d="M151.435 2.67554C152.148 3.03245 152.148 3.03245 151.435 2.67554Z" fill="#F4E4CA"/>
<path opacity="0.016" fill-rule="evenodd" clip-rule="evenodd" d="M117.723 4.81578C117.935 4.2673 118.291 4.17793 118.793 4.54823C118.475 4.79651 118.118 4.88588 117.723 4.81578Z" fill="#F7E5CA"/>
<path opacity="0.012" fill-rule="evenodd" clip-rule="evenodd" d="M155.716 4.28076C156.429 4.63768 156.429 4.63768 155.716 4.28076Z" fill="#F5E8CC"/>
<path opacity="0.01" fill-rule="evenodd" clip-rule="evenodd" d="M113.442 5.88623C114.156 6.24315 114.156 6.24315 113.442 5.88623Z" fill="#F7E6CA"/>
<path opacity="0.01" fill-rule="evenodd" clip-rule="evenodd" d="M161.603 5.88623C162.316 6.24315 162.316 6.24315 161.603 5.88623Z" fill="#F4E4C8"/>
<path opacity="0.01" fill-rule="evenodd" clip-rule="evenodd" d="M113.442 6.42114C113.086 6.77806 113.086 6.77806 113.442 6.42114Z" fill="#F5E4CA"/>
<path opacity="0.01" fill-rule="evenodd" clip-rule="evenodd" d="M162.672 6.42114C163.385 6.77806 163.385 6.77806 162.672 6.42114Z" fill="#F4E4C9"/>
<path opacity="0.01" fill-rule="evenodd" clip-rule="evenodd" d="M169.628 9.09668C170.341 9.4536 170.341 9.4536 169.628 9.09668Z" fill="#F5E5C9"/>
<path opacity="0.012" fill-rule="evenodd" clip-rule="evenodd" d="M244.543 9.63194C244.755 9.08346 245.112 8.99409 245.613 9.36439C245.295 9.61268 244.938 9.70204 244.543 9.63194Z" fill="#ECDCC1"/>
<path opacity="0.01" fill-rule="evenodd" clip-rule="evenodd" d="M247.219 9.63194C247.431 9.08346 247.788 8.99409 248.289 9.36439C247.971 9.61268 247.614 9.70204 247.219 9.63194Z" fill="#ECDDC2"/>
<path opacity="0.016" fill-rule="evenodd" clip-rule="evenodd" d="M242.402 10.1669C242.615 9.61837 242.971 9.52901 243.473 9.8993C243.155 10.1476 242.798 10.237 242.402 10.1669Z" fill="#EDDDC4"/>
<path opacity="0.01" fill-rule="evenodd" clip-rule="evenodd" d="M172.305 10.167C173.018 10.5239 173.018 10.5239 172.305 10.167Z" fill="#F6E7CA"/>
<path opacity="0.01" fill-rule="evenodd" clip-rule="evenodd" d="M237.587 10.167C238.3 10.5239 238.3 10.5239 237.587 10.167Z" fill="#EBDFC3"/>
<path opacity="0.01" fill-rule="evenodd" clip-rule="evenodd" d="M251.5 10.167C252.213 10.5239 252.213 10.5239 251.5 10.167Z" fill="#EEE1C4"/>
<path opacity="0.012" fill-rule="evenodd" clip-rule="evenodd" d="M173.374 10.7019C174.087 11.0588 174.087 11.0588 173.374 10.7019Z" fill="#F5E6CB"/>
<path opacity="0.01" fill-rule="evenodd" clip-rule="evenodd" d="M252.569 11.2372C252.782 10.6887 253.138 10.5993 253.64 10.9696C253.322 11.2179 252.965 11.3073 252.569 11.2372Z" fill="#EEDEC4"/>
<path opacity="0.012" fill-rule="evenodd" clip-rule="evenodd" d="M254.175 11.2371C254.888 11.594 254.888 11.594 254.175 11.2371Z" fill="#EEDCC1"/>
<path opacity="0.01" fill-rule="evenodd" clip-rule="evenodd" d="M96.8536 13.3775C96.4967 12.6642 96.4967 12.6642 96.8536 13.3775Z" fill="#F8E9CF"/>
<path opacity="0.01" fill-rule="evenodd" clip-rule="evenodd" d="M235.981 12.8425C236.695 13.1994 236.695 13.1994 235.981 12.8425Z" fill="#F2E0C7"/>
<path opacity="0.01" fill-rule="evenodd" clip-rule="evenodd" d="M256.316 12.8425C257.03 13.1994 257.03 13.1994 256.316 12.8425Z" fill="#F2E0C4"/>
<path opacity="0.01" fill-rule="evenodd" clip-rule="evenodd" d="M93.1084 13.9126C93.8217 14.2695 93.8217 14.2695 93.1084 13.9126Z" fill="#F6E6CB"/>
<path opacity="0.01" fill-rule="evenodd" clip-rule="evenodd" d="M235.446 14.4478C235.089 13.7345 235.089 13.7345 235.446 14.4478Z" fill="#F2E1C7"/>
<path opacity="0.01" fill-rule="evenodd" clip-rule="evenodd" d="M92.5731 14.9828C92.1777 15.0529 91.8208 14.9635 91.5029 14.7152C92.0043 14.3449 92.3607 14.4343 92.5731 14.9828Z" fill="#F7E7CD"/>
<path opacity="0.01" fill-rule="evenodd" clip-rule="evenodd" d="M183.006 14.4478C183.719 14.8047 183.719 14.8047 183.006 14.4478Z" fill="#F5E8CD"/>
<path opacity="0.01" fill-rule="evenodd" clip-rule="evenodd" d="M257.922 14.4478C258.635 14.8047 258.635 14.8047 257.922 14.4478Z" fill="#F0E1C6"/>
<path opacity="0.01" fill-rule="evenodd" clip-rule="evenodd" d="M233.306 14.9829C234.019 15.3398 234.019 15.3398 233.306 14.9829Z" fill="#F2E4C8"/>
<path opacity="0.01" fill-rule="evenodd" clip-rule="evenodd" d="M189.963 17.1233C190.676 17.4802 190.676 17.4802 189.963 17.1233Z" fill="#F3E4C9"/>
<path opacity="0.01" fill-rule="evenodd" clip-rule="evenodd" d="M79.1953 18.7288C79.9086 19.0857 79.9086 19.0857 79.1953 18.7288Z" fill="#F4E6CA"/>
<path opacity="0.01" fill-rule="evenodd" clip-rule="evenodd" d="M80.2656 18.7288C80.9789 19.0857 80.9789 19.0857 80.2656 18.7288Z" fill="#F4E4C8"/>
<path fill-rule="evenodd" clip-rule="evenodd" d="M142.873 15.5181C149.727 17.6242 156.505 19.9434 163.207 22.4744C162.805 23.0486 162.27 23.138 161.602 22.742C155.243 20.4764 149 18.0684 142.873 15.5181Z" fill="#58180C"/>
<path opacity="0.01" fill-rule="evenodd" clip-rule="evenodd" d="M194.778 19.2638C194.991 18.7153 195.347 18.6259 195.849 18.9962C195.531 19.2445 195.174 19.3339 194.778 19.2638Z" fill="#F7E7CD"/>
<path opacity="0.01" fill-rule="evenodd" clip-rule="evenodd" d="M262.203 20.3337C262.751 20.5462 262.841 20.9026 262.47 21.404C262.222 21.0861 262.133 20.7292 262.203 20.3337Z" fill="#F5E3CA"/>
<path opacity="0.01" fill-rule="evenodd" clip-rule="evenodd" d="M201.734 21.9393C202.269 21.226 202.805 21.226 203.34 21.9393C202.805 21.9393 202.269 21.9393 201.734 21.9393Z" fill="#F6E8CC"/>
<path opacity="0.01" fill-rule="evenodd" clip-rule="evenodd" d="M66.3525 21.9392C67.0658 22.2961 67.0658 22.2961 66.3525 21.9392Z" fill="#F4E5C9"/>
<path opacity="0.012" fill-rule="evenodd" clip-rule="evenodd" d="M71.7041 21.9392C72.4174 22.2961 72.4174 22.2961 71.7041 21.9392Z" fill="#F5E7CB"/>
<path opacity="0.01" fill-rule="evenodd" clip-rule="evenodd" d="M203.34 21.9392C204.053 22.2961 204.053 22.2961 203.34 21.9392Z" fill="#F7E9CC"/>
<path opacity="0.01" fill-rule="evenodd" clip-rule="evenodd" d="M206.016 23.0095C206.729 23.3664 206.729 23.3664 206.016 23.0095Z" fill="#F8EBCF"/>
<path fill-rule="evenodd" clip-rule="evenodd" d="M164.277 23.0095C171.236 25.5074 178.193 28.0047 185.146 30.501C185.021 30.8205 184.753 30.9987 184.344 31.0361C177.435 28.5548 170.568 25.9687 163.742 23.2771C163.864 23.0636 164.043 22.9748 164.277 23.0095Z" fill="#55160B"/>
<path opacity="0.01" fill-rule="evenodd" clip-rule="evenodd" d="M66.8877 24.0798C67.601 24.4367 67.601 24.4367 66.8877 24.0798Z" fill="#F6E8CC"/>
<path opacity="0.01" fill-rule="evenodd" clip-rule="evenodd" d="M209.227 24.0798C209.94 24.4367 209.94 24.4367 209.227 24.0798Z" fill="#F6E8CC"/>
<path fill-rule="evenodd" clip-rule="evenodd" d="M253.64 35.8518C252.764 35.1834 252.14 34.2914 251.767 33.1762C250.909 30.6928 250.106 28.1955 249.359 25.6848C247.702 24.4588 245.919 24.2801 244.008 25.1497C245.843 23.1093 247.805 23.1093 249.894 25.1497C250.981 28.7889 252.229 32.3565 253.64 35.8518Z" fill="#581C10"/>
<path opacity="0.01" fill-rule="evenodd" clip-rule="evenodd" d="M62.0723 26.2201C62.2847 25.6716 62.6411 25.5822 63.1425 25.9525C62.8246 26.2008 62.4677 26.2902 62.0723 26.2201Z" fill="#F6E7CC"/>
<path opacity="0.012" fill-rule="evenodd" clip-rule="evenodd" d="M57.791 27.2905C58.5043 27.6474 58.5043 27.6474 57.791 27.2905Z" fill="#F8E9CD"/>
<path opacity="0.01" fill-rule="evenodd" clip-rule="evenodd" d="M57.791 27.8254C57.791 28.0036 57.791 28.1824 57.791 28.3605C56.3639 28.1824 56.3639 28.0036 57.791 27.8254Z" fill="#F6E6CC"/>
<path opacity="0.01" fill-rule="evenodd" clip-rule="evenodd" d="M54.0449 28.3606C54.7582 28.7175 54.7582 28.7175 54.0449 28.3606Z" fill="#F6E7CC"/>
<path opacity="0.012" fill-rule="evenodd" clip-rule="evenodd" d="M55.6504 28.3606C56.3637 28.7175 56.3637 28.7175 55.6504 28.3606Z" fill="#F5E7CC"/>
<path opacity="0.01" fill-rule="evenodd" clip-rule="evenodd" d="M54.046 28.8955C53.6891 29.2524 53.6891 29.2524 54.046 28.8955Z" fill="#F8E8CB"/>
<path opacity="0.01" fill-rule="evenodd" clip-rule="evenodd" d="M45.4834 32.6415C45.6958 32.093 46.0522 32.0036 46.5536 32.3739C46.2358 32.6222 45.8788 32.7116 45.4834 32.6415Z" fill="#F8E6CB"/>
<path opacity="0.996" fill-rule="evenodd" clip-rule="evenodd" d="M92.5737 30.501C90.1807 32.0244 87.327 33.3622 84.012 34.5143C81.673 35.264 79.3544 36.0666 77.0556 36.9222C76.7308 36.8559 76.5526 36.6777 76.5205 36.3871C81.8689 34.426 87.2199 32.4637 92.5737 30.501Z" fill="#54160B"/>
<path opacity="0.01" fill-rule="evenodd" clip-rule="evenodd" d="M42.8076 33.1763C43.5209 33.5332 43.5209 33.5332 42.8076 33.1763Z" fill="#F4E6CC"/>
<path opacity="0.01" fill-rule="evenodd" clip-rule="evenodd" d="M41.2032 34.7818C40.8463 34.0685 40.8463 34.0685 41.2032 34.7818Z" fill="#F9E7CE"/>
<path opacity="0.01" fill-rule="evenodd" clip-rule="evenodd" d="M35.8525 35.8523C36.5658 36.2092 36.5658 36.2092 35.8525 35.8523Z" fill="#F6E7CC"/>
<path opacity="0.01" fill-rule="evenodd" clip-rule="evenodd" d="M30.501 39.0626C30.7134 38.5141 31.0698 38.4248 31.5712 38.7951C31.2533 39.0433 30.8964 39.1327 30.501 39.0626Z" fill="#F8EACF"/>
<path opacity="0.01" fill-rule="evenodd" clip-rule="evenodd" d="M27.8252 40.668C28.5385 41.0249 28.5385 41.0249 27.8252 40.668Z" fill="#F7E9CD"/>
<path opacity="0.01" fill-rule="evenodd" clip-rule="evenodd" d="M25.1504 43.3435C25.8637 43.7004 25.8637 43.7004 25.1504 43.3435Z" fill="#F8ECD1"/>
<path fill-rule="evenodd" clip-rule="evenodd" d="M58.327 43.3435C56.3311 44.7787 53.8337 45.9377 50.8355 46.8217C49.5668 47.215 48.3179 47.6607 47.0898 48.1595C46.765 48.0931 46.5868 47.9149 46.5547 47.6244C50.4353 46.0929 54.3592 44.6658 58.327 43.3435Z" fill="#54160B"/>
<path opacity="0.01" fill-rule="evenodd" clip-rule="evenodd" d="M23.0089 47.6243C22.652 46.911 22.652 46.911 23.0089 47.6243Z" fill="#F8EDD2"/>
<path opacity="0.01" fill-rule="evenodd" clip-rule="evenodd" d="M281.466 47.6243C282.178 47.9812 282.178 47.9812 281.466 47.6243Z" fill="#F5E9CD"/>
<path opacity="0.01" fill-rule="evenodd" clip-rule="evenodd" d="M20.8692 51.3702C20.5123 50.6569 20.5123 50.6569 20.8692 51.3702Z" fill="#FDEDD1"/>
<path opacity="0.01" fill-rule="evenodd" clip-rule="evenodd" d="M20.3341 51.3701C20.4042 51.7656 20.3148 52.1225 20.0665 52.4403C19.6962 51.9389 19.7856 51.5826 20.3341 51.3701Z" fill="#FAE9D1"/>
<path opacity="0.999" fill-rule="evenodd" clip-rule="evenodd" d="M142.873 15.5179C149 18.0682 155.243 20.4761 161.602 22.7418C162.27 23.1378 162.806 23.0484 163.207 22.4742C163.738 22.3822 164.095 22.5609 164.278 23.0093C164.043 22.9746 163.865 23.0634 163.743 23.2769C170.568 25.9685 177.435 28.5546 184.344 31.0359C184.753 30.9985 185.021 30.8203 185.147 30.5008C190.936 32.5476 196.644 34.688 202.27 36.9221C204.266 38.3572 206.763 39.5163 209.762 40.4003C212.101 41.15 214.419 41.9526 216.718 42.8082C217.043 42.7419 217.221 42.5637 217.253 42.2731C219.521 42.9666 221.662 43.8581 223.674 44.9487C224.665 45.7305 225.824 46.2656 227.153 46.554C230.683 45.6406 233.626 43.8571 235.982 41.2029C236.263 40.2772 236.798 39.5634 237.587 39.0625C238.031 39.5077 238.476 39.3295 238.925 38.5274C241.302 34.3386 242.997 29.8796 244.008 25.1498C245.919 24.2802 247.703 24.4589 249.359 25.6849C250.107 28.1956 250.91 30.6929 251.767 33.1763C252.14 34.2915 252.765 35.1835 253.64 35.8519C256.855 40.2237 260.958 43.5231 265.948 45.7513C266.738 46.7209 267.451 47.7018 268.088 48.6944C268.465 50.997 267.751 52.8698 265.948 54.313C261.97 55.8086 258.492 58.0384 255.513 61.0018C253.319 64.7272 251.535 68.6517 250.162 72.7742C248.777 74.944 246.904 75.6573 244.543 74.9146C244.142 75.3833 243.874 75.9184 243.741 76.5199C243.473 106.128 243.384 135.738 243.473 165.347C242.509 168.7 240.725 171.554 238.122 173.909C224.306 179.392 210.394 185.19 196.384 191.3C196.506 191.514 196.685 191.602 196.919 191.568C196.736 192.016 196.38 192.195 195.849 192.103C195.817 191.812 195.639 191.634 195.314 191.568C179.305 198.076 163.787 204.853 148.76 211.902C145.906 213.15 143.052 214.399 140.198 215.647C137.542 216.18 134.867 216.27 132.171 215.915C127.416 214.185 122.779 212.312 118.259 210.296C115.016 208.235 111.27 206.452 107.021 204.945C106.697 205.012 106.518 205.19 106.486 205.48C105.139 205.072 103.89 204.536 102.74 203.875C102.975 203.91 103.154 203.821 103.276 203.607C97.7474 201.028 92.2182 198.977 86.6873 197.454C85.3399 197.045 84.0915 196.51 82.9416 195.848C83.1759 195.883 83.3547 195.794 83.4767 195.581C75.25 192.155 67.0446 188.676 58.8618 185.146C58.537 185.213 58.3588 185.391 58.3267 185.681C53.0265 183.74 47.8542 181.599 42.8086 179.26C41.4131 178.076 39.6296 176.917 37.4576 175.782C35.6281 174.012 34.2009 172.318 33.1767 170.698C32.7283 170.515 32.5496 170.159 32.6416 169.628C33.0858 164.907 33.3533 160.091 33.4443 155.18C34.575 153.986 35.9127 153.272 37.4576 153.04C37.8145 153.04 38.1709 153.04 38.5278 153.04C38.5278 153.218 38.5278 153.397 38.5278 153.575C38.2934 153.54 38.1147 153.629 37.9927 153.843C38.8216 154.492 39.4455 155.295 39.8656 156.251C40.0437 159.818 40.2225 163.385 40.4007 166.953C40.6056 167.25 40.8732 167.428 41.2033 167.488C42.6979 169.041 44.4814 170.2 46.5544 170.966C50.9331 172.663 55.3034 174.358 59.6645 176.05C60.0214 175.693 60.0214 175.336 59.6645 174.979C56.4201 172.538 53.6552 169.684 51.3703 166.418C48.4968 161.91 46.1782 157.451 44.414 153.04C43.9655 152.857 43.7868 152.501 43.8789 151.97C44.0223 151.114 43.8435 150.401 43.3437 149.829C42.5523 143.388 42.7311 136.967 43.8789 130.566C44.2358 130.566 44.414 130.387 44.414 130.03C45.7694 126.071 47.5534 122.325 49.765 118.793C50.8604 117.696 51.7524 116.448 52.4405 115.048C54.0459 113.62 55.6512 112.194 57.2565 110.767C59.5879 108.967 61.9071 107.183 64.2129 105.416C66.8429 104.42 69.5184 103.528 72.2395 102.74C77.1244 102.721 82.1186 102.811 87.2224 103.008C91.324 103.869 95.2485 105.207 98.9947 107.021C103.177 109.322 106.833 112.354 109.964 116.118C111.493 118.471 113.01 120.79 114.513 123.074C115.511 126.069 116.403 129.101 117.188 132.171C116.839 132.679 116.661 133.303 116.653 134.044C116.938 137.788 117.295 141.444 117.723 145.013C116.588 151.991 114.091 158.412 110.232 164.277C100.936 175.79 88.8069 181.409 73.8448 181.133C75.4843 182.128 77.0896 183.109 78.6607 184.076C86.1666 187.623 93.8363 190.923 101.67 193.976C102.339 194.372 102.874 194.282 103.276 193.708C109.655 196.31 116.076 198.807 122.539 201.2C122.722 201.648 123.079 201.827 123.61 201.735C125.744 203.098 128.062 203.543 130.566 203.072C130.936 202.501 131.203 201.877 131.369 201.2C131.726 167.488 131.726 133.776 131.369 100.065C131.167 99.2929 130.721 98.7578 130.031 98.4592C129.698 97.4773 128.984 96.8528 127.89 96.5864C124.146 95.1903 120.401 93.8525 116.653 92.5731C111.459 90.1581 106.108 88.0177 100.6 86.1518C100.417 85.7034 100.061 85.5247 99.5298 85.6167C94.2917 83.3548 88.9406 81.3926 83.4767 79.7305C82.5279 78.9857 81.4577 78.3612 80.266 77.8577C76.9179 76.5338 73.5291 75.3742 70.099 74.3795C62.409 70.8949 54.5606 67.6842 46.5544 64.7476C44.8474 63.1524 43.4203 63.3312 42.2735 65.2827C42.0953 65.2827 41.9166 65.2827 41.7384 65.2827C41.5725 64.6202 41.305 64.6202 40.9358 65.2827C40.4916 77.1465 40.581 88.9188 41.2033 100.6C41.2033 100.957 41.2033 101.313 41.2033 101.67C41.0251 101.67 40.8464 101.67 40.6682 101.67C40.703 101.435 40.6142 101.257 40.4007 101.135C37.9654 103.319 35.6468 103.141 33.4443 100.6C33.3544 86.4178 33.0868 72.3263 32.6416 58.3263C33.6166 54.6801 35.757 52.0046 39.0629 50.2997C41.5602 49.4077 44.057 48.5162 46.5544 47.6242C46.5865 47.9148 46.7647 48.0929 47.0895 48.1593C48.3176 47.6606 49.5665 47.2148 50.8352 46.8215C53.8334 45.9375 56.3308 44.7785 58.3267 43.3434C64.2674 40.8262 70.3318 38.5071 76.5203 36.387C76.5524 36.6775 76.7306 36.8557 77.0554 36.9221C79.3542 36.0664 81.6728 35.2638 84.0118 34.5141C87.3268 33.362 90.1805 32.0243 92.5735 30.5008C106.024 25.2985 119.58 20.215 133.241 15.2503C136.561 14.1068 139.771 14.1956 142.873 15.5179Z" fill="#804425"/>
<path opacity="0.988" fill-rule="evenodd" clip-rule="evenodd" d="M51.9052 57.256C55.6536 58.6837 59.3993 60.1108 63.1424 61.5369C63.0166 61.8563 62.7491 62.0345 62.3397 62.072C58.4747 60.6299 54.6401 59.1139 50.835 57.5236C51.1528 57.2753 51.5097 57.1859 51.9052 57.256Z" fill="#5C1E0E"/>
<path opacity="0.996" fill-rule="evenodd" clip-rule="evenodd" d="M93.1084 52.9753C98.1395 54.6524 103.134 56.4364 108.091 58.3264C108.059 58.617 107.881 58.7952 107.556 58.8615C102.516 57.3177 97.6996 55.356 93.1084 52.9753Z" fill="#FBDA9C"/>
<path opacity="0.996" fill-rule="evenodd" clip-rule="evenodd" d="M172.84 53.5105C176.278 54.4271 179.667 55.4973 183.007 56.7211C185.39 57.6447 187.708 58.7149 189.963 59.9318C184.097 58.0969 178.389 55.9565 172.84 53.5105Z" fill="#5B1E0E"/>
<path opacity="0.996" fill-rule="evenodd" clip-rule="evenodd" d="M68.4934 49.7649C63.6277 52.2612 58.2766 54.4904 52.4402 56.4537C57.2562 58.4159 62.0721 60.3776 66.8881 62.3399C66.7661 62.5534 66.5874 62.6422 66.353 62.6074C65.2828 62.2505 64.2126 61.8941 63.1423 61.5372C59.3993 60.1112 55.6535 58.684 51.9051 57.2564C51.4968 56.8454 50.9617 56.5779 50.2998 56.4537C56.323 54.0645 62.3878 51.8347 68.4934 49.7649Z" fill="#FAD69B"/>
<path fill-rule="evenodd" clip-rule="evenodd" d="M171.234 52.4401C171.266 52.1496 171.445 51.9714 171.769 51.905C172.998 52.4037 174.246 52.8495 175.515 53.2428C178.513 54.1268 181.011 55.2858 183.007 56.721C179.667 55.4972 176.278 54.427 172.84 53.5103C172.417 53.0282 171.882 52.6713 171.234 52.4401Z" fill="#F7CF93"/>
<path opacity="0.996" fill-rule="evenodd" clip-rule="evenodd" d="M239.728 49.2297C242.203 51.6233 244.433 54.2988 246.417 57.2563C247.027 56.4119 247.294 55.5204 247.219 54.5808C247.533 54.6926 247.801 54.8714 248.022 55.1159C249.003 54.135 249.984 53.1537 250.965 52.1728C251.467 51.8025 251.823 51.8919 252.035 52.4404C249.692 54.1602 247.819 56.3006 246.417 58.8616C244.701 55.3594 242.203 52.5057 238.925 50.2999C238.643 49.5957 238.91 49.2388 239.728 49.2297Z" fill="#F7CD92"/>
<path fill-rule="evenodd" clip-rule="evenodd" d="M110.232 50.3C110.265 50.0094 110.443 49.8312 110.768 49.7649C118.437 52.708 126.107 55.6511 133.777 58.5941C133.655 58.8076 133.476 58.8965 133.242 58.8617C129.902 57.6379 126.513 56.5677 123.075 55.6511C118.875 53.7728 114.595 51.9888 110.232 50.3Z" fill="#F7D296"/>
<path opacity="0.999" fill-rule="evenodd" clip-rule="evenodd" d="M183.541 66.3531C185.067 67.1964 186.672 67.9991 188.357 68.761C184.314 70.5146 180.211 72.1199 176.049 73.577C174.678 73.6444 173.429 73.7338 172.304 73.8445C159.159 69.0489 146.137 64.0543 133.241 58.8616C133.475 58.8964 133.654 58.8075 133.776 58.594C126.106 55.651 118.436 52.7079 110.766 49.7648C110.442 49.8311 110.263 50.0093 110.231 50.2999C109.7 50.3919 109.344 50.2132 109.161 49.7648C105.688 47.8919 101.764 46.1972 97.3888 44.6813C95.5849 44.1098 93.8014 43.4853 92.0377 42.8084C91.7129 42.8748 91.5347 43.053 91.5026 43.3435C90.3826 43.0519 89.3124 42.6061 88.292 42.0058C92.751 40.4004 97.2106 38.7951 101.67 37.1898C103.453 36.8329 105.237 36.8329 107.021 37.1898C132.614 46.8367 158.121 56.558 183.541 66.3531Z" fill="#F9B07A"/>
<path fill-rule="evenodd" clip-rule="evenodd" d="M150.365 44.9487C153.576 46.0189 156.787 47.0892 159.997 48.1594C163.619 49.785 167.365 51.2116 171.234 52.4402C171.882 52.6714 172.417 53.0283 172.84 53.5104C170.12 52.8715 167.445 52.0688 164.813 51.1024C159.571 49.1718 154.755 47.1207 150.365 44.9487Z" fill="#591D0D"/>
<path fill-rule="evenodd" clip-rule="evenodd" d="M201.2 47.0894C209.488 49.7633 217.693 52.7064 225.815 55.9186C224.171 56.9128 222.388 57.5368 220.464 57.7915C221.413 57.0466 222.483 56.4221 223.675 55.9186C216.067 53.1179 208.575 50.1748 201.2 47.0894Z" fill="#FAD296"/>
<path fill-rule="evenodd" clip-rule="evenodd" d="M99.5293 46.5542C102.74 47.6244 105.951 48.6946 109.161 49.7648C109.344 50.2133 109.701 50.392 110.231 50.2999C114.594 51.9887 118.874 53.7728 123.074 55.651C117.106 53.8696 111.22 51.8186 105.415 49.4973C103.009 48.6529 101.046 47.6715 99.5293 46.5542Z" fill="#5D200F"/>
<path opacity="0.999" fill-rule="evenodd" clip-rule="evenodd" d="M252.035 52.4402C251.823 51.8917 251.466 51.8023 250.965 52.1726C249.984 53.1534 249.003 54.1348 248.022 55.1157C247.8 54.8711 247.533 54.6924 247.219 54.5806C247.294 55.5202 247.026 56.4117 246.416 57.2561C244.433 54.2986 242.203 51.623 239.728 49.2295C242.082 46.7889 244.312 44.2921 246.416 41.738C249.375 44.519 252.497 47.1051 255.781 49.4971C254.516 50.4827 253.267 51.4636 252.035 52.4402Z" fill="#F9AE79"/>
<path opacity="0.999" fill-rule="evenodd" clip-rule="evenodd" d="M158.926 31.5711C162.641 33.7158 166.922 35.3211 171.768 36.3871C175.922 37.2946 179.846 38.7217 183.541 40.6679C189.238 43.222 195.125 45.3624 201.199 47.0892C208.574 50.1746 216.065 53.1177 223.673 55.9184C222.482 56.422 221.412 57.0464 220.463 57.7913C215.151 60.6044 209.533 62.7448 203.607 64.2126C199.038 62.8379 194.489 61.4113 189.962 59.9317C187.707 58.7149 185.388 57.6447 183.005 56.7211C181.009 55.2859 178.512 54.1269 175.514 53.2429C174.245 52.8496 172.996 52.4039 171.768 51.9051C171.443 51.9715 171.265 52.1497 171.233 52.4402C167.364 51.2116 163.618 49.785 159.996 48.1594C160.23 48.1942 160.409 48.1054 160.531 47.8918C155.043 45.6465 149.514 43.5061 143.943 41.4706C143.274 41.0746 142.739 41.164 142.337 41.7381C135.375 39.2392 128.418 36.7418 121.468 34.2466C119.972 33.4113 118.366 32.6981 116.652 32.1062C123.58 28.9978 130.715 26.501 138.057 24.6147C145.207 26.5031 152.163 28.8217 158.926 31.5711Z" fill="#F8AB77"/>
<path fill-rule="evenodd" clip-rule="evenodd" d="M235.982 41.2031C233.627 43.8572 230.684 45.6408 227.153 46.5542C225.825 46.2658 224.666 45.7307 223.675 44.9489C225.45 45.3347 227.234 45.424 229.026 45.2164C231.432 43.9557 233.751 42.6179 235.982 41.2031Z" fill="#5A1B0D"/>
<path opacity="0.992" fill-rule="evenodd" clip-rule="evenodd" d="M142.338 41.7382C142.74 41.164 143.275 41.0746 143.943 41.4706C149.515 43.5062 155.044 45.6466 160.531 47.8919C160.409 48.1054 160.231 48.1942 159.996 48.1594C156.786 47.0892 153.575 46.019 150.364 44.9488C150.181 44.5004 149.825 44.3217 149.294 44.4137C147.017 43.4168 144.699 42.5248 142.338 41.7382Z" fill="#F8D296"/>
<path opacity="0.996" fill-rule="evenodd" clip-rule="evenodd" d="M91.5029 43.3435C91.535 43.0529 91.7132 42.8747 92.038 42.8083C93.8017 43.4853 95.5853 44.1097 97.3891 44.6812C101.764 46.1972 105.689 47.8919 109.161 49.7647C105.951 48.6945 102.74 47.6243 99.5295 46.5541C96.9428 45.3528 94.2673 44.2826 91.5029 43.3435Z" fill="#F8D498"/>
<path opacity="0.996" fill-rule="evenodd" clip-rule="evenodd" d="M183.541 40.668C189.616 42.3948 195.502 44.5352 201.2 47.0892C195.125 45.3625 189.239 43.222 183.541 40.668Z" fill="#FAD699"/>
<path fill-rule="evenodd" clip-rule="evenodd" d="M121.47 34.2466C128.42 36.7418 135.376 39.2391 142.339 41.7381C144.7 42.5247 147.018 43.4167 149.295 44.4136C148.893 44.9878 148.358 45.0771 147.69 44.6812C138.771 41.2923 129.853 37.903 120.935 34.5141C121.057 34.3006 121.235 34.2118 121.47 34.2466Z" fill="#5B1D0D"/>
<path fill-rule="evenodd" clip-rule="evenodd" d="M202.27 36.9224C207.301 38.5994 212.295 40.3834 217.252 42.2734C217.22 42.564 217.042 42.7422 216.717 42.8085C214.419 41.9529 212.1 41.1502 209.761 40.4005C206.763 39.5166 204.265 38.3575 202.27 36.9224Z" fill="#56180D"/>
<path fill-rule="evenodd" clip-rule="evenodd" d="M158.927 31.5713C163.361 32.9021 167.641 34.5074 171.769 36.3872C166.923 35.3213 162.643 33.716 158.927 31.5713Z" fill="#FBD598"/>
<path opacity="0.01" fill-rule="evenodd" clip-rule="evenodd" d="M225.279 28.3606C225.993 28.7175 225.993 28.7175 225.279 28.3606Z" fill="#FAEED0"/>
<path opacity="0.01" fill-rule="evenodd" clip-rule="evenodd" d="M218.857 27.8254C219.571 28.1824 219.571 28.1824 218.857 27.8254Z" fill="#FAE9CF"/>
<path opacity="0.01" fill-rule="evenodd" clip-rule="evenodd" d="M217.253 27.2905C217.431 27.2905 217.61 27.2905 217.788 27.2905C217.689 27.649 217.51 27.649 217.253 27.2905Z" fill="#F9EACF"/>
<path opacity="0.01" fill-rule="evenodd" clip-rule="evenodd" d="M217.788 26.7551C218.501 27.112 218.501 27.112 217.788 26.7551Z" fill="#F9E9CD"/>
<path opacity="0.012" fill-rule="evenodd" clip-rule="evenodd" d="M217.253 27.2902C216.896 27.2902 216.54 27.2902 216.183 27.2902C216.183 27.112 216.183 26.9333 216.183 26.7551C216.945 25.9359 217.302 26.1141 217.253 27.2902Z" fill="#F9E8CC"/>
<path opacity="0.998" fill-rule="evenodd" clip-rule="evenodd" d="M244.008 25.1499C242.997 29.8797 241.302 34.3387 238.925 38.5275C238.476 39.3297 238.031 39.5079 237.587 39.0627C240.156 35.3463 241.851 31.2437 242.67 26.7552C242.872 25.9836 243.318 25.4485 244.008 25.1499Z" fill="#54160C"/>
<path opacity="0.01" fill-rule="evenodd" clip-rule="evenodd" d="M219.928 26.22C220.641 26.5769 220.641 26.5769 219.928 26.22Z" fill="#F8E7CA"/>
<path opacity="0.01" fill-rule="evenodd" clip-rule="evenodd" d="M216.183 26.7552C215.787 26.8253 215.43 26.736 215.112 26.4877C215.614 26.1174 215.97 26.2067 216.183 26.7552Z" fill="#F7E8CD"/>
<path opacity="0.01" fill-rule="evenodd" clip-rule="evenodd" d="M227.955 25.6851C228.668 26.042 228.668 26.042 227.955 25.6851Z" fill="#F9EBD0"/>
<path opacity="0.01" fill-rule="evenodd" clip-rule="evenodd" d="M218.857 25.6851C219.571 26.042 219.571 26.042 218.857 25.6851Z" fill="#F7E7CB"/>
<path opacity="0.01" fill-rule="evenodd" clip-rule="evenodd" d="M213.507 26.2201C213.719 25.6716 214.076 25.5822 214.577 25.9525C214.259 26.2008 213.902 26.2902 213.507 26.2201Z" fill="#F7E6CD"/>
<path opacity="0.999" fill-rule="evenodd" clip-rule="evenodd" d="M93.1085 52.9753C97.6997 55.356 102.516 57.3177 107.556 58.8615C107.881 58.7951 108.059 58.6169 108.091 58.3264C108.622 58.2343 108.979 58.4131 109.162 58.8615C108.499 59.0274 108.499 59.2949 109.162 59.6641C122.538 64.6278 135.915 69.5325 149.295 74.3795C152.88 76.1432 156.626 77.6592 160.532 78.9279C158.263 79.7092 156.48 80.6906 155.181 81.871C150.448 83.9269 145.632 85.8891 140.733 87.7572C140.607 87.4377 140.34 87.2595 139.93 87.2221C138.157 88.189 136.284 88.4566 134.312 88.0247C123.788 84.0114 113.264 79.9981 102.74 75.9849C102.416 76.0512 102.237 76.2294 102.205 76.52C90.159 72.0085 78.2084 67.3707 66.3532 62.6072C66.5876 62.642 66.7663 62.5532 66.8883 62.3397C62.0723 60.3774 57.2564 58.4157 52.4404 56.4535C58.2768 54.4902 63.6279 52.2609 68.4936 49.7647C71.7957 47.9239 75.3628 47.1213 79.1957 47.3567C84.0368 48.8775 88.674 50.7503 93.1085 52.9753Z" fill="#F9AD79"/>
<path opacity="0.01" fill-rule="evenodd" clip-rule="evenodd" d="M18.1934 64.7476C18.9067 65.1045 18.9067 65.1045 18.1934 64.7476Z" fill="#F8ECD0"/>
<path opacity="0.01" fill-rule="evenodd" clip-rule="evenodd" d="M18.1934 65.8179C18.9067 66.1748 18.9067 66.1748 18.1934 65.8179Z" fill="#F9EDD2"/>
<path opacity="0.01" fill-rule="evenodd" clip-rule="evenodd" d="M270.228 67.4231C270.941 67.78 270.941 67.78 270.228 67.4231Z" fill="#F9E9CF"/>
<path fill-rule="evenodd" clip-rule="evenodd" d="M109.162 58.8616C122.706 63.7305 136.084 68.9034 149.295 74.3796C135.916 69.5326 122.538 64.6279 109.162 59.6642C108.499 59.295 108.499 59.0275 109.162 58.8616Z" fill="#FBD69A"/>
<path fill-rule="evenodd" clip-rule="evenodd" d="M46.5547 64.7476C54.5609 67.6842 62.4093 70.8949 70.0993 74.3795C63.1002 71.9565 56.1438 69.3703 49.2302 66.6204C47.8341 66.1581 46.9426 65.5342 46.5547 64.7476Z" fill="#FBDA9D"/>
<path fill-rule="evenodd" clip-rule="evenodd" d="M183.542 66.353C185.982 66.78 188.301 67.5827 190.498 68.761C185.996 70.4402 181.537 72.2237 177.121 74.1121C175.466 74.5059 173.861 74.4165 172.305 73.8445C173.431 73.7337 174.679 73.6444 176.05 73.577C180.212 72.1199 184.315 70.5145 188.358 68.761C186.673 67.999 185.068 67.1964 183.542 66.353Z" fill="#F8D295"/>
<path opacity="0.999" fill-rule="evenodd" clip-rule="evenodd" d="M39.0629 50.3C35.757 52.0048 33.6165 54.6804 32.6416 58.3266C32.1118 71.8428 31.9336 85.3987 32.1065 98.9946C32.1766 99.3901 32.0872 99.747 31.8389 100.065C31.6607 99.5297 31.482 98.9946 31.3038 98.4595C30.9469 85.7952 30.9469 73.1314 31.3038 60.467C31.7346 55.5002 34.1426 51.9331 38.5277 49.7649C38.8526 49.8312 39.0307 50.0094 39.0629 50.3Z" fill="#FEF8EA"/>
<path opacity="0.996" fill-rule="evenodd" clip-rule="evenodd" d="M149.295 74.3796C153.786 75.7281 158.245 77.2441 162.673 78.928C160.224 80.0646 157.727 81.0454 155.181 81.8711C156.48 80.6907 158.264 79.7093 160.532 78.928C156.626 77.6593 152.88 76.1433 149.295 74.3796Z" fill="#FAD195"/>
<path fill-rule="evenodd" clip-rule="evenodd" d="M102.205 76.52C102.237 76.2294 102.415 76.0512 102.74 75.9849C113.264 79.9982 123.787 84.0114 134.311 88.0247C136.284 88.4566 138.157 88.189 139.93 87.2221C140.339 87.2595 140.607 87.4377 140.733 87.7572C138.338 88.7637 135.841 89.0313 133.241 88.5598C122.895 84.4882 112.55 80.4749 102.205 76.52Z" fill="#F8D397"/>
<path opacity="0.01" fill-rule="evenodd" clip-rule="evenodd" d="M262.737 76.52C263.451 76.8769 263.451 76.8769 262.737 76.52Z" fill="#F9E9CC"/>
<path opacity="0.999" fill-rule="evenodd" clip-rule="evenodd" d="M201.2 179.26C192.753 182.859 184.37 186.605 176.05 190.498C168.879 193.245 161.744 196.099 154.645 199.059C154.613 198.769 154.435 198.59 154.11 198.524C150.922 199.914 147.711 201.252 144.478 202.537C143.616 202.923 142.813 202.834 142.07 202.27C141.714 168.38 141.714 134.49 142.07 100.6C142.695 99.262 143.676 98.2812 145.014 97.6567C144.891 97.4432 144.713 97.3544 144.478 97.3892C153.24 93.5476 162.158 89.9801 171.234 86.687C171.144 96.3206 171.234 105.952 171.501 115.583C171.947 116.742 172.75 117.545 173.909 117.991C175.258 118.419 176.15 118.329 176.585 117.723C185.99 113.558 195.443 109.367 204.945 105.148C205.417 104.769 205.773 104.323 206.016 103.81C205.924 103.28 206.102 102.923 206.551 102.74C206.516 102.975 206.605 103.153 206.818 103.275C206.996 102.918 207.175 102.562 207.353 102.205C207.457 92.7284 207.724 83.2747 208.156 73.8445C211.416 71.6816 214.984 70.0763 218.858 69.0286C218.89 69.3191 219.068 69.4973 219.393 69.5637C223.139 68.0477 226.885 66.5312 230.63 65.0153C231.493 64.63 232.296 64.7188 233.038 65.2828C233.395 97.7461 233.395 130.209 233.038 162.672C232.566 164.064 231.763 165.224 230.63 166.15C220.642 170.431 210.653 174.712 200.664 178.993C200.786 179.206 200.965 179.295 201.2 179.26Z" fill="#EE9768"/>
<path fill-rule="evenodd" clip-rule="evenodd" d="M83.4766 79.7307C88.9405 81.3928 94.2916 83.355 99.5297 85.6169C99.4976 85.9074 99.3194 86.0856 98.9946 86.152C93.6816 84.2069 88.5092 82.0664 83.4766 79.7307Z" fill="#F9D398"/>
<path opacity="0.01" fill-rule="evenodd" clip-rule="evenodd" d="M18.194 82.9412C18.7425 83.1536 18.8319 83.51 18.4616 84.0114C18.2133 83.6935 18.1239 83.3366 18.194 82.9412Z" fill="#FCEFD3"/>
<path fill-rule="evenodd" clip-rule="evenodd" d="M208.156 73.8445C207.724 83.2746 207.456 92.7284 207.353 102.205C207.175 102.562 206.996 102.918 206.818 103.275C206.604 103.153 206.516 102.975 206.55 102.74C206.55 93.8216 206.55 84.9035 206.55 75.9849C206.894 75.1416 207.429 74.4277 208.156 73.8445Z" fill="#F6B47F"/>
<path fill-rule="evenodd" clip-rule="evenodd" d="M41.7372 65.2827C41.9095 77.0952 41.7313 88.8675 41.2021 100.6C40.5798 88.9189 40.4904 77.1466 40.9346 65.2827C41.3038 64.6203 41.5713 64.6203 41.7372 65.2827Z" fill="#612717"/>
<path opacity="0.999" fill-rule="evenodd" clip-rule="evenodd" d="M197.454 99.5297C197.155 100.22 196.62 100.666 195.849 100.867C190.82 102.87 185.825 104.921 180.866 107.021C180.705 99.3253 180.884 91.6556 181.401 84.0117C184.436 82.2827 187.647 80.8556 191.033 79.7308C191.158 80.0503 191.426 80.2285 191.835 80.2659C193.495 79.6543 195.1 78.941 196.651 78.1255C196.742 85.3526 197.009 92.4877 197.454 99.5297Z" fill="#EF996A"/>
<path opacity="0.998" fill-rule="evenodd" clip-rule="evenodd" d="M206.551 75.9849C206.551 84.9035 206.551 93.8215 206.551 102.74C206.102 102.923 205.924 103.28 206.016 103.81C205.696 103.685 205.518 103.417 205.48 103.008C205.812 93.2789 206.169 84.2715 206.551 75.9849Z" fill="#370A00"/>
<path opacity="0.01" fill-rule="evenodd" clip-rule="evenodd" d="M18.1934 85.0818C18.9067 85.4387 18.9067 85.4387 18.1934 85.0818Z" fill="#FBEFD2"/>
<path opacity="0.999" fill-rule="evenodd" clip-rule="evenodd" d="M197.453 99.5297C197.009 92.4877 196.741 85.3526 196.651 78.1254C195.1 78.9409 193.494 79.6542 191.835 80.2659C191.426 80.2284 191.158 80.0502 191.032 79.7308C193.067 78.6959 195.208 77.982 197.453 77.5903C197.453 84.9036 197.453 92.2164 197.453 99.5297Z" fill="#FCCC93"/>
<path opacity="0.01" fill-rule="evenodd" clip-rule="evenodd" d="M258.455 85.0818C259.168 85.4387 259.168 85.4387 258.455 85.0818Z" fill="#F9E8CC"/>
<path opacity="0.999" fill-rule="evenodd" clip-rule="evenodd" d="M32.6419 58.3264C33.0871 72.3264 33.3547 86.4179 33.4446 100.6C35.647 103.141 37.9657 103.319 40.4009 101.135C40.6144 101.257 40.7033 101.436 40.6685 101.67C40.4261 102.183 40.0697 102.629 39.5983 103.008C38.1824 103.274 36.7553 103.363 35.3174 103.275C33.6099 102.287 32.5397 100.86 32.1068 98.9944C31.9339 85.3985 32.1121 71.8427 32.6419 58.3264Z" fill="#591705"/>
<path fill-rule="evenodd" clip-rule="evenodd" d="M41.7382 65.283C41.9164 65.283 42.0951 65.283 42.2733 65.283C42.3627 77.0569 42.2733 88.8292 42.0058 100.6C41.857 101.09 41.5895 101.446 41.2031 101.67C41.2031 101.313 41.2031 100.957 41.2031 100.6C41.7323 88.8677 41.9105 77.0954 41.7382 65.283Z" fill="#FEECAF"/>
<path opacity="0.999" fill-rule="evenodd" clip-rule="evenodd" d="M46.5543 64.7478C46.9422 65.5344 47.8337 66.1583 49.2298 66.6207C56.1434 69.3706 63.0998 71.9567 70.0989 74.3797C73.529 75.3745 76.9178 76.534 80.266 77.8579C81.4576 78.3614 82.5278 78.9859 83.4766 79.7308C88.5093 82.0665 93.6816 84.2069 98.9946 86.152C99.3195 86.0857 99.4976 85.9075 99.5298 85.6169C100.061 85.5249 100.417 85.7036 100.6 86.152C100.366 86.1172 100.187 86.2061 100.065 86.4196C105.428 88.9501 110.957 91.0011 116.653 92.5733C120.4 93.8527 124.146 95.1905 127.89 96.5866C128.984 96.8531 129.698 97.4775 130.031 98.4595C130.651 133.041 130.74 167.645 130.298 202.27C128.145 202.861 126.093 202.504 124.145 201.2C123.82 201.266 123.642 201.444 123.61 201.735C123.079 201.827 122.722 201.648 122.539 201.2C122.774 201.235 122.952 201.146 123.074 200.932C109.162 195.224 95.2489 189.517 81.3362 183.809C80.6678 183.413 80.1327 183.502 79.7308 184.076C79.3739 184.076 79.0176 184.076 78.6606 184.076C77.0896 183.109 75.4842 182.128 73.8447 181.133C88.8068 181.409 100.935 175.79 110.232 164.277C114.081 159.608 116.668 154.257 117.991 148.224C118.417 146.866 118.327 145.617 117.723 144.479C117.723 141.981 117.723 139.484 117.723 136.987C118.164 139.027 118.432 141.167 118.526 143.408C118.9 140.185 118.811 136.974 118.258 133.776C119.084 133.629 119.619 132.559 119.864 130.566C118.548 128.506 117.923 128.862 117.991 131.636C117.183 128.578 116.024 125.724 114.513 123.074C110.329 114.164 103.729 107.654 94.7138 103.543C94.0455 103.147 93.5104 103.236 93.1085 103.811C91.4181 103.366 89.8128 102.831 88.2925 102.205C88.5649 101.755 88.2085 101.488 87.2223 101.403C78.9887 100.003 71.319 101.341 64.2128 105.416C61.907 107.183 59.5879 108.967 57.2564 110.767C57.044 110.218 56.6876 110.129 56.1862 110.499C54.6092 111.803 53.3608 113.319 52.4405 115.048C51.7523 116.448 50.8603 117.697 49.7649 118.793C49.7997 118.559 49.7109 118.38 49.4974 118.258C46.6934 121.884 44.9987 125.808 44.4139 130.031C44.4139 130.388 44.2357 130.566 43.8788 130.566C41.4414 137.356 41.1738 144.313 43.0761 151.435C43.3346 150.928 43.4234 150.393 43.3437 149.83C43.8434 150.401 44.0222 151.114 43.8788 151.97C43.0071 152.805 42.3826 152.627 42.0059 151.435C41.8058 151.925 41.5382 152.371 41.2032 152.773C41.779 153.696 41.8684 154.677 41.4708 155.716C40.895 154.336 39.9142 153.444 38.5277 153.04C38.1708 153.04 37.8144 153.04 37.4575 153.04C36.7442 153.04 36.0304 153.04 35.3171 153.04C35.3171 141.981 35.3171 130.923 35.3171 119.864C37.6485 117.648 38.0049 115.152 36.3873 112.372C35.4284 109.458 35.072 106.426 35.3171 103.275C36.7549 103.363 38.182 103.274 39.5979 103.008C40.0693 102.629 40.4257 102.183 40.6681 101.67C40.8463 101.67 41.025 101.67 41.2032 101.67C41.5896 101.446 41.8571 101.09 42.0059 100.6C42.2734 88.8292 42.3628 77.0568 42.2734 65.2829C43.4202 63.3314 44.8473 63.1526 46.5543 64.7478Z" fill="#F9AC78"/>
<path opacity="0.01" fill-rule="evenodd" clip-rule="evenodd" d="M18.1934 87.2222C18.9067 87.5791 18.9067 87.5791 18.1934 87.2222Z" fill="#FBF0D2"/>
<path fill-rule="evenodd" clip-rule="evenodd" d="M100.6 86.1519C106.107 88.0178 111.458 90.1582 116.653 92.5731C110.957 91.001 105.427 88.9499 100.064 86.4194C100.186 86.2059 100.365 86.1171 100.6 86.1519Z" fill="#FBD79A"/>
<path opacity="0.01" fill-rule="evenodd" clip-rule="evenodd" d="M18.194 90.968C18.7425 91.1805 18.8319 91.5368 18.4616 92.0382C18.2133 91.7204 18.1239 91.3635 18.194 90.968Z" fill="#FBEED4"/>
<path opacity="0.994" fill-rule="evenodd" clip-rule="evenodd" d="M181.401 84.0117C180.885 91.6557 180.706 99.3254 180.866 107.021C180.333 99.8027 180.155 92.4899 180.331 85.0819C180.331 84.9037 180.331 84.725 180.331 84.5468C180.688 84.3686 181.045 84.1899 181.401 84.0117Z" fill="#FEC88F"/>
<path opacity="0.01" fill-rule="evenodd" clip-rule="evenodd" d="M18.7286 94.1785C18.3717 93.4652 18.3717 93.4652 18.7286 94.1785Z" fill="#FCEED3"/>
<path opacity="0.01" fill-rule="evenodd" clip-rule="evenodd" d="M15.5176 94.7137C15.73 94.1652 16.0864 94.0759 16.5878 94.4462C16.2699 94.6945 15.913 94.7838 15.5176 94.7137Z" fill="#FCEED4"/>
<path opacity="0.01" fill-rule="evenodd" clip-rule="evenodd" d="M13.3779 94.1785C13.8001 94.3299 14.157 94.5975 14.4481 94.9811C13.7439 95.2637 13.387 94.9961 13.3779 94.1785Z" fill="#FCEDD4"/>
<path opacity="0.01" fill-rule="evenodd" clip-rule="evenodd" d="M11.7725 95.2488C12.4858 95.6057 12.4858 95.6057 11.7725 95.2488Z" fill="#FAEDD2"/>
<path opacity="0.01" fill-rule="evenodd" clip-rule="evenodd" d="M10.7021 95.7837C11.4154 96.1406 11.4154 96.1406 10.7021 95.7837Z" fill="#FDEFD2"/>
<path opacity="0.996" fill-rule="evenodd" clip-rule="evenodd" d="M180.331 85.0818C180.155 92.4898 180.333 99.8025 180.866 107.021C180.509 107.734 180.153 107.734 179.796 107.021C179.62 99.6131 179.798 92.3004 180.331 85.0818Z" fill="#D98256"/>
<path fill-rule="evenodd" clip-rule="evenodd" d="M171.234 86.687C172.209 96.3045 172.655 106.115 172.571 116.118C173.639 117.32 174.977 117.855 176.585 117.723C176.15 118.329 175.258 118.419 173.909 117.991C172.75 117.545 171.947 116.742 171.501 115.583C171.234 105.952 171.144 96.3205 171.234 86.687Z" fill="#F5AF7B"/>
<path fill-rule="evenodd" clip-rule="evenodd" d="M180.331 84.5467C180.331 84.7248 180.331 84.9036 180.331 85.0818C179.798 92.3003 179.62 99.6131 179.796 107.021C179.175 99.6222 179.086 92.1307 179.528 84.5467C179.898 83.8842 180.165 83.8842 180.331 84.5467Z" fill="#3E0E00"/>
<path opacity="0.01" fill-rule="evenodd" clip-rule="evenodd" d="M4.81651 101.67C4.4596 100.957 4.4596 100.957 4.81651 101.67Z" fill="#FBEFD4"/>
<path fill-rule="evenodd" clip-rule="evenodd" d="M88.2926 102.205C82.8784 101.336 77.5274 101.514 72.2395 102.74C69.5185 103.528 66.8429 104.42 64.2129 105.416C71.3191 101.341 78.9888 100.003 87.2224 101.402C88.2086 101.487 88.565 101.755 88.2926 102.205Z" fill="#F9DA9E"/>
<path opacity="0.01" fill-rule="evenodd" clip-rule="evenodd" d="M2.14062 104.345C2.85392 104.702 2.85392 104.702 2.14062 104.345Z" fill="#FEF0D5"/>
<path fill-rule="evenodd" clip-rule="evenodd" d="M88.2924 102.205C89.8127 102.831 91.418 103.366 93.1084 103.81C95.3296 104.474 97.2913 105.544 98.9945 107.021C95.2483 105.207 91.3238 103.869 87.2222 103.008C82.1184 102.811 77.1242 102.722 72.2393 102.74C77.5272 101.514 82.8782 101.336 88.2924 102.205Z" fill="#5D1F10"/>
<path opacity="0.996" fill-rule="evenodd" clip-rule="evenodd" d="M93.1084 103.81C93.5103 103.236 94.0454 103.147 94.7137 103.543C103.729 107.654 110.329 114.164 114.513 123.074C113.01 120.79 111.493 118.471 109.964 116.118C106.833 112.354 103.176 109.322 98.9946 107.021C97.2913 105.544 95.3296 104.474 93.1084 103.81Z" fill="#F4CD94"/>
<path opacity="0.01" fill-rule="evenodd" clip-rule="evenodd" d="M0 110.232C0.713296 110.589 0.713296 110.589 0 110.232Z" fill="#FAEFD4"/>
<path opacity="0.999" fill-rule="evenodd" clip-rule="evenodd" d="M21.4036 108.091C26.4614 109.317 31.4556 110.743 36.3865 112.372C38.0042 115.151 37.6478 117.648 35.3163 119.864C34.8262 120.122 34.2911 120.3 33.711 120.399C31.9345 119.972 30.1504 119.615 28.36 119.329C26.3977 118.615 24.436 117.901 22.4738 117.188C20.9343 116.118 18.9721 115.137 16.5876 114.245C15.1059 112.315 15.2841 110.531 17.1227 108.894C18.6558 108.796 20.0824 108.528 21.4036 108.091Z" fill="#804425"/>
<path fill-rule="evenodd" clip-rule="evenodd" d="M21.4042 108.091C20.083 108.529 18.6564 108.796 17.1233 108.894C15.2847 110.532 15.1065 112.315 16.5882 114.245C18.9727 115.137 20.9349 116.118 22.4744 117.188C20.175 116.843 18.0346 116.04 16.0531 114.78C13.9164 109.527 15.6999 107.297 21.4042 108.091Z" fill="#4E150C"/>
<path opacity="0.999" fill-rule="evenodd" clip-rule="evenodd" d="M90.4323 113.442C85.519 111.912 80.5243 111.555 75.4493 112.372C75.3653 113.107 75.4547 113.821 75.7169 114.513C76.0668 113.873 76.3344 113.873 76.5195 114.513C75.7046 115.951 74.9908 115.862 74.3791 114.245C75.1293 113.527 74.9512 113.081 73.844 112.907C71.3381 113.982 68.8408 115.052 66.3525 116.118C71.9663 111.609 78.3876 110.093 85.6163 111.569C87.4919 111.633 89.0972 112.258 90.4323 113.442Z" fill="#FACA91"/>
<path opacity="0.996" fill-rule="evenodd" clip-rule="evenodd" d="M57.2564 110.767C55.6511 112.194 54.0457 113.621 52.4404 115.048C53.3608 113.319 54.6092 111.803 56.1862 110.499C56.6876 110.129 57.0439 110.218 57.2564 110.767Z" fill="#FDDC9E"/>
<path opacity="0.905" fill-rule="evenodd" clip-rule="evenodd" d="M256.85 101.67C256.808 102.435 256.986 103.149 257.386 103.81C256.943 123.766 256.676 143.743 256.583 163.742C256.483 165.099 256.216 166.348 255.78 167.488C256.098 144.468 256.455 122.528 256.85 101.67Z" fill="#EED7B8"/>
<path fill-rule="evenodd" clip-rule="evenodd" d="M49.7641 118.793C47.5526 122.325 45.7685 126.071 44.4131 130.03C44.998 125.807 46.6926 121.883 49.4966 118.258C49.7101 118.38 49.7989 118.559 49.7641 118.793Z" fill="#F6D398"/>
<path opacity="0.016" fill-rule="evenodd" clip-rule="evenodd" d="M6.95616 123.074C6.59925 123.431 6.59925 123.431 6.95616 123.074Z" fill="#F9ECD2"/>
<path opacity="0.998" fill-rule="evenodd" clip-rule="evenodd" d="M191.033 121.469C196.143 122.112 201.138 123.272 206.016 124.947C207.145 125.557 208.125 126.36 208.959 127.355C209.569 131.941 209.836 136.578 209.762 141.268C209.836 145.957 209.569 150.595 208.959 155.18C203.864 160.618 198.067 165.077 191.568 168.558C187.434 167.302 183.332 165.964 179.261 164.545C177.517 163.897 176.001 162.916 174.712 161.602C174.102 156.926 173.835 152.2 173.91 147.421C173.835 142.643 174.102 137.916 174.712 133.241C178.48 129.622 182.493 126.322 186.752 123.342C188.103 122.422 189.531 121.797 191.033 121.469Z" fill="#E38758"/>
<path fill-rule="evenodd" clip-rule="evenodd" d="M207.086 177.12C205.124 177.833 203.162 178.547 201.2 179.26C200.966 179.295 200.787 179.206 200.665 178.993C210.654 174.712 220.642 170.431 230.631 166.15C231.764 165.224 232.566 164.064 233.039 162.672C233.396 130.209 233.396 97.7461 233.039 65.2828C232.296 64.7188 231.494 64.63 230.631 65.0153C226.885 66.5312 223.139 68.0477 219.394 69.5637C219.069 69.4973 218.891 69.3191 218.859 69.0285C223.225 67.1166 227.684 65.3326 232.236 63.6775C233.266 63.7256 233.891 64.2608 234.109 65.2828C234.466 97.211 234.466 129.139 234.109 161.067C233.761 163.28 232.779 165.153 231.166 166.685C223.091 170.191 215.065 173.669 207.086 177.12Z" fill="#F3B481"/>
<path opacity="0.998" fill-rule="evenodd" clip-rule="evenodd" d="M90.4322 113.442C93.233 114.187 95.7303 115.525 97.9237 117.456C100.932 120.546 103.608 123.846 105.95 127.355C108.237 133.05 108.951 138.936 108.091 145.014C105.593 157.323 98.4577 165.707 86.6865 170.164C84.2191 170.691 81.7223 171.048 79.195 171.234C77.2595 171.288 75.476 170.931 73.844 170.164C69.9093 168.911 65.9854 166.949 62.0716 164.277C61.2599 164.271 60.6354 163.915 60.1988 163.207C59.2623 162.012 58.4597 160.763 57.7908 159.461C55.8831 156.33 54.5454 152.942 53.7775 149.294C53.5779 144.012 53.4885 138.839 53.5099 133.776C53.8669 132.528 54.2232 131.279 54.5801 130.031C57.1588 124.242 61.0833 119.605 66.3525 116.118C68.8407 115.052 71.3381 113.982 73.844 112.907C74.9511 113.081 75.1293 113.527 74.3791 114.245C74.9907 115.862 75.7045 115.951 76.5195 114.513C76.3343 113.873 76.0668 113.873 75.7168 114.513C75.4546 113.821 75.3653 113.107 75.4493 112.372C80.5242 111.555 85.5189 111.912 90.4322 113.442Z" fill="#F9AF7A"/>
<path opacity="0.998" fill-rule="evenodd" clip-rule="evenodd" d="M28.3603 119.328C30.1508 119.615 31.9348 119.972 33.7114 120.399C34.2914 120.3 34.8265 120.121 35.3167 119.863C35.3167 130.923 35.3167 141.981 35.3167 153.04C33.7568 153.261 32.776 154.153 32.3736 155.716C32.106 159.636 32.0172 163.56 32.106 167.488C32.0028 169.601 31.7352 169.601 31.3034 167.488C30.8956 163.36 31.0738 159.257 31.8385 155.18C32.2323 153.671 33.1238 152.601 34.514 151.97C34.8709 141.803 34.8709 131.636 34.514 121.469C32.2751 120.913 30.0459 120.289 27.8252 119.596C27.9472 119.382 28.1259 119.294 28.3603 119.328Z" fill="#FDFCF5"/>
<path fill-rule="evenodd" clip-rule="evenodd" d="M96.3186 138.058C96.8066 136.936 97.4311 135.866 98.1915 134.847C98.9396 129.083 96.5316 126.764 90.9675 127.891C90.3051 127.725 90.3051 127.457 90.9675 127.088C95.8001 125.747 98.6538 127.62 99.5292 132.706C99.267 135.02 98.1968 136.804 96.3186 138.058Z" fill="#FCD499"/>
<path opacity="0.999" fill-rule="evenodd" clip-rule="evenodd" d="M96.3195 138.057C91.3168 143.688 86.5902 149.574 82.1392 155.716C79.6574 158.946 76.5361 159.749 72.7748 158.124C69.1185 153.397 65.4616 148.67 61.8052 143.943C60.5343 139.97 61.8721 137.473 65.8185 136.452C66.9299 136.555 68.0001 136.822 69.0291 137.255C71.4617 139.864 73.6915 142.629 75.7179 145.549C76.1021 146.058 76.5479 146.146 77.0557 145.816C81.6036 139.755 86.2413 133.779 90.9684 127.89C96.5325 126.763 98.9404 129.082 98.1924 134.847C97.432 135.866 96.8075 136.936 96.3195 138.057Z" fill="#7E4124"/>
<path fill-rule="evenodd" clip-rule="evenodd" d="M105.95 127.355C109.164 133.217 109.966 139.46 108.358 146.084C108.11 145.766 108.021 145.409 108.091 145.013C108.951 138.936 108.237 133.05 105.95 127.355Z" fill="#541A0D"/>
<path opacity="0.999" fill-rule="evenodd" clip-rule="evenodd" d="M114.513 123.074C116.024 125.724 117.183 128.578 117.991 131.636C117.923 128.862 118.548 128.506 119.864 130.566C119.619 132.559 119.084 133.629 118.258 133.776C118.811 136.974 118.899 140.185 118.526 143.408C118.432 141.167 118.164 139.027 117.723 136.987C117.614 135.372 117.436 133.767 117.188 132.171C116.403 129.101 115.511 126.069 114.513 123.074Z" fill="#FAC58C"/>
<path opacity="0.01" fill-rule="evenodd" clip-rule="evenodd" d="M2.14062 131.101C2.85392 131.458 2.85392 131.458 2.14062 131.101Z" fill="#FCEFD5"/>
<path opacity="0.01" fill-rule="evenodd" clip-rule="evenodd" d="M2.14062 132.706C2.85392 133.063 2.85392 133.063 2.14062 132.706Z" fill="#FAEDD5"/>
<path opacity="0.999" fill-rule="evenodd" clip-rule="evenodd" d="M20.3338 134.847C23.8618 135.155 27.4293 135.602 31.0359 136.184C33.0474 139.72 31.9772 141.682 27.8253 142.071C28.1431 142.319 28.5001 142.408 28.8955 142.338C27.951 142.852 26.8808 143.031 25.6849 142.873C22.4464 142.62 19.2358 142.085 16.053 141.268C14.7291 139.83 14.6397 138.225 15.7854 136.452C17.197 135.631 18.7135 135.096 20.3338 134.847Z" fill="#814526"/>
<path opacity="0.997" fill-rule="evenodd" clip-rule="evenodd" d="M191.567 127.89C194.53 127.669 197.384 128.115 200.129 129.228C201.467 129.853 202.448 130.833 203.072 132.171C203.429 137.344 203.429 142.516 203.072 147.689C202.909 148.728 202.464 149.619 201.734 150.365C202.143 151.017 202.678 151.552 203.34 151.97C202.269 152.505 201.199 153.04 200.129 153.575C200.826 154.693 200.559 155.585 199.326 156.251C199.447 154.461 198.733 153.212 197.186 152.505C193.778 152.878 190.656 153.948 187.822 155.716C187.379 157.834 187.112 159.975 187.019 162.137C186.797 162.382 186.53 162.56 186.216 162.672C183.915 161.351 181.686 159.924 179.527 158.391C179.171 151.792 179.171 145.192 179.527 138.592C183.227 134.576 187.24 131.008 191.567 127.89Z" fill="#EC9466"/>
<path fill-rule="evenodd" clip-rule="evenodd" d="M20.334 134.847C24.1413 134.619 27.887 134.887 31.5712 135.649C33.7657 137.947 33.5875 140.088 31.0361 142.071C30.3442 142.333 29.6304 142.422 28.8957 142.338C28.5002 142.408 28.1433 142.319 27.8255 142.071C31.9773 141.682 33.0476 139.72 31.0361 136.184C27.4295 135.602 23.8619 135.155 20.334 134.847Z" fill="#480F08"/>
<path opacity="0.997" fill-rule="evenodd" clip-rule="evenodd" d="M117.187 132.171C117.435 133.767 117.613 135.372 117.723 136.987C117.723 139.484 117.723 141.981 117.723 144.479C117.723 144.657 117.723 144.835 117.723 145.014C117.294 141.445 116.938 137.788 116.652 134.044C116.66 133.303 116.839 132.679 117.187 132.171Z" fill="#4B1205"/>
<path opacity="0.994" fill-rule="evenodd" clip-rule="evenodd" d="M243.473 165.347C243.384 135.738 243.473 106.128 243.741 76.5198C243.874 75.9184 244.141 75.3833 244.543 74.9145C246.904 75.6572 248.776 74.9439 250.162 72.7741C251.535 68.6516 253.318 64.7272 255.513 61.0018C258.491 58.0384 261.969 55.8086 265.947 54.3129C267.751 52.8698 268.465 50.9969 268.088 48.6943C268.517 48.7141 268.695 49.2492 268.623 50.2997C268.615 51.4416 268.347 52.5118 267.82 53.5103C264.652 55.7572 261.353 57.8088 257.921 59.664C254.747 63.78 252.339 68.3284 250.697 73.3092C249.188 75.4459 247.137 76.3379 244.543 75.9847C244.633 105.059 244.543 134.134 244.276 163.207C244.097 164.277 243.919 165.347 243.741 166.418C243.492 166.1 243.403 165.743 243.473 165.347Z" fill="#FEFCF4"/>
<path fill-rule="evenodd" clip-rule="evenodd" d="M16.0527 141.268C19.2355 142.084 22.4462 142.619 25.6846 142.873C22.825 142.962 19.9713 142.873 17.1229 142.606C16.6515 142.227 16.2951 141.78 16.0527 141.268Z" fill="#3C0403"/>
<path opacity="0.996" fill-rule="evenodd" clip-rule="evenodd" d="M54.5805 130.031C54.2236 131.279 53.8672 132.528 53.5103 133.776C52.1169 139.819 52.1169 145.883 53.5103 151.97C52.7799 151.4 52.3342 150.33 52.1726 148.759C51.0462 143.722 51.2249 138.728 52.7077 133.776C53.0373 132.001 53.6612 130.752 54.5805 130.031Z" fill="#5A200F"/>
<path fill-rule="evenodd" clip-rule="evenodd" d="M43.8787 130.566C42.7309 136.967 42.5521 143.388 43.3436 149.829C43.4233 150.392 43.3345 150.928 43.076 151.435C41.1737 144.313 41.4413 137.356 43.8787 130.566Z" fill="#FDCF93"/>
<path opacity="0.01" fill-rule="evenodd" clip-rule="evenodd" d="M2.14062 144.479C2.85392 144.835 2.85392 144.835 2.14062 144.479Z" fill="#FCEDD2"/>
<path opacity="0.01" fill-rule="evenodd" clip-rule="evenodd" d="M3.21104 145.549C3.28114 145.944 3.19178 146.301 2.94349 146.619C2.5732 146.117 2.66256 145.761 3.21104 145.549Z" fill="#FBEBD1"/>
<path opacity="0.01" fill-rule="evenodd" clip-rule="evenodd" d="M4.28017 147.689C3.97142 148.37 3.61504 148.37 3.20996 147.689C3.46146 147.174 3.81838 147.174 4.28017 147.689Z" fill="#FBECD1"/>
<path opacity="0.996" fill-rule="evenodd" clip-rule="evenodd" d="M117.724 144.479C118.328 145.617 118.417 146.866 117.991 148.224C116.669 154.257 114.082 159.608 110.232 164.277C114.091 158.413 116.588 151.991 117.724 145.014C117.724 144.835 117.724 144.657 117.724 144.479Z" fill="#FAD79B"/>
<path opacity="0.01" fill-rule="evenodd" clip-rule="evenodd" d="M2.14062 148.224C2.85392 148.581 2.85392 148.581 2.14062 148.224Z" fill="#F8EAD1"/>
<path opacity="0.01" fill-rule="evenodd" clip-rule="evenodd" d="M3.74512 148.759C4.45841 149.116 4.45841 149.116 3.74512 148.759Z" fill="#FBECD1"/>
<path opacity="0.01" fill-rule="evenodd" clip-rule="evenodd" d="M5.35167 149.295C4.99476 149.652 4.99476 149.652 5.35167 149.295Z" fill="#F8EAD0"/>
<path opacity="0.012" fill-rule="evenodd" clip-rule="evenodd" d="M6.95616 150.9C7.02626 151.295 6.9369 151.652 6.68861 151.97C6.31831 151.468 6.40768 151.112 6.95616 150.9Z" fill="#FAEAD3"/>
<path opacity="0.01" fill-rule="evenodd" clip-rule="evenodd" d="M6.95605 152.505C7.66935 152.862 7.66935 152.862 6.95605 152.505Z" fill="#FBECCF"/>
<path opacity="0.01" fill-rule="evenodd" clip-rule="evenodd" d="M8.02734 153.04C8.74064 153.397 8.74064 153.397 8.02734 153.04Z" fill="#F9EAD1"/>
<path fill-rule="evenodd" clip-rule="evenodd" d="M53.5099 133.776C53.4885 138.839 53.5779 144.012 53.7775 149.294C54.5453 152.941 55.8831 156.33 57.7908 159.461C55.8076 157.278 54.3805 154.781 53.5099 151.97C52.1165 145.883 52.1165 139.819 53.5099 133.776Z" fill="#F8D196"/>
<path opacity="0.01" fill-rule="evenodd" clip-rule="evenodd" d="M16.589 157.321C16.2321 156.608 16.2321 156.608 16.589 157.321Z" fill="#FBEBD0"/>
<path opacity="0.01" fill-rule="evenodd" clip-rule="evenodd" d="M17.6583 156.786C17.3014 157.143 17.3014 157.143 17.6583 156.786Z" fill="#FAEDD0"/>
<path opacity="0.01" fill-rule="evenodd" clip-rule="evenodd" d="M16.0538 157.321C15.6969 157.678 15.6969 157.678 16.0538 157.321Z" fill="#F9EBD0"/>
<path opacity="0.01" fill-rule="evenodd" clip-rule="evenodd" d="M16.5879 157.321C16.7661 157.321 16.9448 157.321 17.123 157.321C17.024 157.68 16.8453 157.68 16.5879 157.321Z" fill="#F9EACF"/>
<path opacity="0.01" fill-rule="evenodd" clip-rule="evenodd" d="M257.386 157.321C258.099 157.678 258.099 157.678 257.386 157.321Z" fill="#F4E5C9"/>
<path opacity="0.012" fill-rule="evenodd" clip-rule="evenodd" d="M17.6582 157.856C18.3715 158.213 18.3715 158.213 17.6582 157.856Z" fill="#FAEBCF"/>
<path opacity="0.01" fill-rule="evenodd" clip-rule="evenodd" d="M257.386 158.926C258.099 159.283 258.099 159.283 257.386 158.926Z" fill="#F4E5C9"/>
<path opacity="0.992" fill-rule="evenodd" clip-rule="evenodd" d="M51.3695 166.418C47.7976 162.664 45.4785 158.205 44.4131 153.04C46.1773 157.451 48.4959 161.91 51.3695 166.418Z" fill="#591D0E"/>
<path fill-rule="evenodd" clip-rule="evenodd" d="M38.5273 153.575C39.4225 154.026 40.047 154.74 40.4002 155.716C40.5693 159.653 40.8368 163.577 41.2028 167.488C40.8727 167.429 40.6051 167.25 40.4002 166.953C40.222 163.385 40.0432 159.818 39.8651 156.251C39.445 155.295 38.8211 154.492 37.9922 153.843C38.1142 153.629 38.2929 153.54 38.5273 153.575Z" fill="#511407"/>
<path opacity="0.01" fill-rule="evenodd" clip-rule="evenodd" d="M257.386 160.532C258.099 160.889 258.099 160.889 257.386 160.532Z" fill="#F3E4C8"/>
<path opacity="0.999" fill-rule="evenodd" clip-rule="evenodd" d="M43.8784 151.97C43.7864 152.501 43.9651 152.857 44.4135 153.04C45.4789 158.206 47.798 162.665 51.3699 166.418C53.6548 169.685 56.4197 172.538 59.664 174.979C60.0209 175.336 60.0209 175.693 59.664 176.05C55.3029 174.358 50.9327 172.663 46.5539 170.966C44.4809 170.2 42.6974 169.041 41.2029 167.488C40.8369 163.577 40.5693 159.653 40.4002 155.716C40.047 154.74 39.4226 154.026 38.5273 153.575C38.5273 153.397 38.5273 153.218 38.5273 153.04C39.9138 153.444 40.8947 154.336 41.4704 155.716C41.868 154.677 41.7786 153.696 41.2029 152.773C41.5378 152.371 41.8054 151.925 42.0055 151.435C42.3822 152.626 43.0067 152.805 43.8784 151.97Z" fill="#F6B07A"/>
<path opacity="0.999" fill-rule="evenodd" clip-rule="evenodd" d="M35.3172 153.04C36.0305 153.04 36.7443 153.04 37.4576 153.04C35.9127 153.272 34.575 153.986 33.4443 155.18C33.3533 160.091 33.0858 164.907 32.6416 169.628C32.785 168.773 32.6063 168.059 32.1065 167.488C32.0177 163.56 32.1065 159.636 32.3741 155.716C32.7765 154.153 33.7573 153.261 35.3172 153.04Z" fill="#5E1E0C"/>
<path fill-rule="evenodd" clip-rule="evenodd" d="M130.031 98.4592C130.721 98.7578 131.167 99.2929 131.368 100.065C131.725 133.776 131.725 167.488 131.368 201.2C131.203 201.877 130.936 202.501 130.566 203.072C128.062 203.543 125.743 203.098 123.609 201.735C123.641 201.444 123.82 201.266 124.144 201.2C126.093 202.504 128.144 202.86 130.298 202.27C130.74 167.645 130.651 133.041 130.031 98.4592Z" fill="#FBCE94"/>
<path opacity="0.997" fill-rule="evenodd" clip-rule="evenodd" d="M144.478 97.3892C144.713 97.3544 144.891 97.4432 145.013 97.6567C143.676 98.2812 142.695 99.262 142.07 100.6C141.713 134.49 141.713 168.38 142.07 202.27C142.813 202.834 143.616 202.923 144.478 202.537C147.711 201.252 150.922 199.914 154.11 198.524C154.435 198.59 154.613 198.769 154.645 199.059C152.728 199.753 150.945 200.645 149.294 201.735C147.375 202.374 145.413 202.909 143.408 203.34C142.727 203.303 142.104 203.124 141.535 202.805C141.178 168.38 141.178 133.955 141.535 99.5296C142.312 98.4786 143.293 97.7654 144.478 97.3892Z" fill="#FDC38D"/>
<path opacity="0.01" fill-rule="evenodd" clip-rule="evenodd" d="M256.851 165.347C257.425 165.749 257.514 166.284 257.118 166.953C256.86 166.445 256.771 165.91 256.851 165.347Z" fill="#F3E2C7"/>
<path fill-rule="evenodd" clip-rule="evenodd" d="M62.0723 164.277C65.986 166.949 69.91 168.911 73.8446 170.164C70.8624 169.705 68.0087 168.813 65.2829 167.488C64.0489 166.611 62.9787 165.541 62.0723 164.277Z" fill="#FAD79A"/>
<path fill-rule="evenodd" clip-rule="evenodd" d="M65.2822 167.488C68.0081 168.813 70.8618 169.705 73.8439 170.164C75.476 170.931 77.2595 171.288 79.195 171.234C81.7223 171.048 84.2191 170.691 86.6865 170.164C86.9208 170.129 87.0996 170.218 87.2216 170.431C81.1123 172.32 75.0479 172.141 69.028 169.896C67.5623 169.347 66.3139 168.544 65.2822 167.488Z" fill="#55190B"/>
<path opacity="0.01" fill-rule="evenodd" clip-rule="evenodd" d="M19.2634 172.839C19.8118 173.052 19.9012 173.408 19.5309 173.909C19.2826 173.591 19.1933 173.235 19.2634 172.839Z" fill="#F8E7CB"/>
<path opacity="0.996" fill-rule="evenodd" clip-rule="evenodd" d="M42.8087 179.26C38.0687 178.086 34.8581 175.231 33.1768 170.698C34.201 172.318 35.6281 174.012 37.4576 175.782C39.6296 176.917 41.4131 178.076 42.8087 179.26Z" fill="#511208"/>
<path opacity="0.01" fill-rule="evenodd" clip-rule="evenodd" d="M19.7979 174.979C20.5111 175.336 20.5111 175.336 19.7979 174.979Z" fill="#F6E7C9"/>
<path opacity="0.01" fill-rule="evenodd" clip-rule="evenodd" d="M253.64 175.515C254.353 175.872 254.353 175.872 253.64 175.515Z" fill="#EFDFC4"/>
<path opacity="0.012" fill-rule="evenodd" clip-rule="evenodd" d="M20.334 176.05C21.0473 176.407 21.0473 176.407 20.334 176.05Z" fill="#F6E8CB"/>
<path opacity="0.01" fill-rule="evenodd" clip-rule="evenodd" d="M252.569 177.12C253.283 177.477 253.283 177.477 252.569 177.12Z" fill="#F0E0C4"/>
<path opacity="0.012" fill-rule="evenodd" clip-rule="evenodd" d="M20.8691 177.655C21.5824 178.012 21.5824 178.012 20.8691 177.655Z" fill="#F6E4C8"/>
<path opacity="0.01" fill-rule="evenodd" clip-rule="evenodd" d="M22.4747 178.725C22.1178 179.082 22.1178 179.082 22.4747 178.725Z" fill="#F4E5C8"/>
<path opacity="0.01" fill-rule="evenodd" clip-rule="evenodd" d="M250.965 179.26C251.678 179.617 251.678 179.617 250.965 179.26Z" fill="#EEDEC2"/>
<path opacity="0.984" fill-rule="evenodd" clip-rule="evenodd" d="M238.121 173.909C231.948 176.975 225.705 179.829 219.392 182.471C211.901 185.503 204.409 188.535 196.918 191.568C196.684 191.602 196.505 191.514 196.383 191.3C210.392 185.19 224.305 179.392 238.121 173.909Z" fill="#52160F"/>
<path opacity="0.01" fill-rule="evenodd" clip-rule="evenodd" d="M24.0792 181.401C23.7223 181.758 23.7223 181.758 24.0792 181.401Z" fill="#F6E5CA"/>
<path opacity="0.01" fill-rule="evenodd" clip-rule="evenodd" d="M25.1495 182.471C24.7926 182.828 24.7926 182.828 25.1495 182.471Z" fill="#F6E8CF"/>
<path opacity="0.01" fill-rule="evenodd" clip-rule="evenodd" d="M247.754 183.006C248.467 183.363 248.467 183.363 247.754 183.006Z" fill="#F0E0C3"/>
<path opacity="0.01" fill-rule="evenodd" clip-rule="evenodd" d="M25.6847 183.541C25.3278 183.898 25.3278 183.898 25.6847 183.541Z" fill="#F2E3C8"/>
<path opacity="0.01" fill-rule="evenodd" clip-rule="evenodd" d="M246.683 183.541C247.396 183.898 247.396 183.898 246.683 183.541Z" fill="#F0E1C6"/>
<path opacity="0.988" fill-rule="evenodd" clip-rule="evenodd" d="M207.086 177.12C206.698 177.906 205.806 178.53 204.41 178.993C195.045 183.094 185.591 186.929 176.05 190.498C184.37 186.605 192.753 182.859 201.2 179.26C203.162 178.547 205.124 177.833 207.086 177.12Z" fill="#5B230F"/>
<path opacity="0.01" fill-rule="evenodd" clip-rule="evenodd" d="M29.4305 186.752C29.4305 186.93 29.4305 187.109 29.4305 187.287C28.8018 187.404 28.2667 187.226 27.8252 186.752C28.2174 186.438 28.7525 186.438 29.4305 186.752Z" fill="#F4E3C9"/>
<path opacity="0.01" fill-rule="evenodd" clip-rule="evenodd" d="M243.473 186.217C244.186 186.573 244.186 186.573 243.473 186.217Z" fill="#EFDFC3"/>
<path opacity="0.01" fill-rule="evenodd" clip-rule="evenodd" d="M29.4313 187.287C29.9798 187.499 30.0692 187.856 29.6989 188.357C29.4506 188.039 29.3612 187.682 29.4313 187.287Z" fill="#F3E2C8"/>
<path opacity="0.01" fill-rule="evenodd" clip-rule="evenodd" d="M240.798 187.822C241.511 188.179 241.511 188.179 240.798 187.822Z" fill="#F2E1C1"/>
<path opacity="0.01" fill-rule="evenodd" clip-rule="evenodd" d="M32.6417 188.892C32.2848 189.249 32.2848 189.249 32.6417 188.892Z" fill="#F2E3CB"/>
<path fill-rule="evenodd" clip-rule="evenodd" d="M219.393 182.471C219.628 182.436 219.806 182.525 219.928 182.739C205.9 188.903 191.809 194.968 177.655 200.932C176.987 201.328 176.452 201.239 176.05 200.665C182.553 197.683 189.152 194.829 195.849 192.103C196.38 192.195 196.736 192.016 196.919 191.568C204.41 188.536 211.902 185.504 219.393 182.471Z" fill="#FAF4EC"/>
<path fill-rule="evenodd" clip-rule="evenodd" d="M78.6602 184.076C79.0171 184.076 79.3735 184.076 79.7304 184.076C87.5788 187.287 95.4266 190.497 103.275 193.708C102.873 194.282 102.338 194.372 101.67 193.976C93.8358 190.923 86.1661 187.623 78.6602 184.076Z" fill="#5E200F"/>
<path opacity="0.01" fill-rule="evenodd" clip-rule="evenodd" d="M33.1768 189.962C33.8901 190.319 33.8901 190.319 33.1768 189.962Z" fill="#F2E2C6"/>
<path opacity="0.01" fill-rule="evenodd" clip-rule="evenodd" d="M237.052 189.962C237.765 190.319 237.765 190.319 237.052 189.962Z" fill="#EEDEC2"/>
<path opacity="0.01" fill-rule="evenodd" clip-rule="evenodd" d="M34.7822 190.497C35.4955 190.854 35.4955 190.854 34.7822 190.497Z" fill="#F1E2C7"/>
<path opacity="0.01" fill-rule="evenodd" clip-rule="evenodd" d="M234.377 190.497C234.772 190.427 235.129 190.517 235.447 190.765C234.946 191.135 234.589 191.046 234.377 190.497Z" fill="#F1E2C5"/>
<path opacity="0.01" fill-rule="evenodd" clip-rule="evenodd" d="M32.6406 191.033C33.3539 191.39 33.3539 191.39 32.6406 191.033Z" fill="#EDDEC3"/>
<path opacity="0.01" fill-rule="evenodd" clip-rule="evenodd" d="M39.5987 192.103C39.2418 192.46 39.2418 192.46 39.5987 192.103Z" fill="#F4E3C7"/>
<path fill-rule="evenodd" clip-rule="evenodd" d="M58.3271 185.682C58.3593 185.391 58.5374 185.213 58.8623 185.146C67.0451 188.677 75.2504 192.155 83.4771 195.581C83.3551 195.795 83.1764 195.883 82.942 195.849C74.6479 192.668 66.4431 189.279 58.3271 185.682Z" fill="#54170C"/>
<path opacity="0.01" fill-rule="evenodd" clip-rule="evenodd" d="M230.63 192.103C231.193 192.023 231.728 192.112 232.235 192.37C231.567 192.766 231.032 192.677 230.63 192.103Z" fill="#F5E3C6"/>
<path fill-rule="evenodd" clip-rule="evenodd" d="M176.05 190.497C167.409 194.816 158.49 198.561 149.295 201.735C150.945 200.645 152.729 199.753 154.646 199.059C161.745 196.099 168.879 193.245 176.05 190.497Z" fill="#5C230F"/>
<path opacity="0.992" fill-rule="evenodd" clip-rule="evenodd" d="M79.7305 184.076C80.1323 183.502 80.6674 183.413 81.3358 183.809C95.2485 189.517 109.161 195.224 123.074 200.932C122.952 201.146 122.773 201.234 122.539 201.2C116.075 198.807 109.654 196.31 103.275 193.708C95.4267 190.498 87.5789 187.287 79.7305 184.076Z" fill="#F8D599"/>
<path opacity="0.016" fill-rule="evenodd" clip-rule="evenodd" d="M46.5538 195.848C46.1969 195.135 46.1969 195.135 46.5538 195.848Z" fill="#F4E2C7"/>
<path opacity="0.01" fill-rule="evenodd" clip-rule="evenodd" d="M46.5547 195.849C47.268 196.206 47.268 196.206 46.5547 195.849Z" fill="#F3E5C9"/>
<path opacity="0.01" fill-rule="evenodd" clip-rule="evenodd" d="M52.4404 198.524C53.1537 198.881 53.1537 198.881 52.4404 198.524Z" fill="#F1E3C7"/>
<path opacity="0.01" fill-rule="evenodd" clip-rule="evenodd" d="M216.183 198.524C216.896 198.881 216.896 198.881 216.183 198.524Z" fill="#F0E2C5"/>
<path opacity="0.01" fill-rule="evenodd" clip-rule="evenodd" d="M219.928 198.524C220.641 198.881 220.641 198.881 219.928 198.524Z" fill="#EEE0C3"/>
<path opacity="0.01" fill-rule="evenodd" clip-rule="evenodd" d="M54.0449 199.059C54.7582 199.416 54.7582 199.416 54.0449 199.059Z" fill="#F4E4C8"/>
<path opacity="0.01" fill-rule="evenodd" clip-rule="evenodd" d="M55.1152 199.059C55.8285 199.416 55.8285 199.416 55.1152 199.059Z" fill="#F3E3C9"/>
<path opacity="0.01" fill-rule="evenodd" clip-rule="evenodd" d="M54.046 199.594C53.6891 199.951 53.6891 199.951 54.046 199.594Z" fill="#F2E3C6"/>
<path opacity="0.01" fill-rule="evenodd" clip-rule="evenodd" d="M215.112 200.665C215.325 200.116 215.681 200.027 216.183 200.397C215.865 200.645 215.508 200.735 215.112 200.665Z" fill="#F0E1C6"/>
<path opacity="0.01" fill-rule="evenodd" clip-rule="evenodd" d="M58.3271 200.665C59.0404 201.021 59.0404 201.021 58.3271 200.665Z" fill="#F4E4C9"/>
<path opacity="0.01" fill-rule="evenodd" clip-rule="evenodd" d="M210.832 201.2C211.044 200.651 211.401 200.562 211.902 200.932C211.584 201.181 211.227 201.27 210.832 201.2Z" fill="#F5E3C6"/>
<path opacity="0.992" fill-rule="evenodd" clip-rule="evenodd" d="M195.849 192.103C189.153 194.829 182.553 197.683 176.05 200.665C166.997 204.515 157.9 208.26 148.76 211.902C163.787 204.853 179.305 198.076 195.314 191.568C195.639 191.634 195.817 191.812 195.849 192.103Z" fill="#52140C"/>
<path opacity="0.01" fill-rule="evenodd" clip-rule="evenodd" d="M62.0723 202.805C62.7856 203.162 62.7856 203.162 62.0723 202.805Z" fill="#F3E1C5"/>
<path opacity="0.01" fill-rule="evenodd" clip-rule="evenodd" d="M63.1426 202.805C63.8559 203.162 63.8559 203.162 63.1426 202.805Z" fill="#F2E1C6"/>
<path fill-rule="evenodd" clip-rule="evenodd" d="M86.6875 197.454C92.2184 198.977 97.7476 201.028 103.276 203.608C103.154 203.821 102.975 203.91 102.741 203.875C97.3441 201.839 91.9931 199.698 86.6875 197.454Z" fill="#56160C"/>
<path opacity="0.01" fill-rule="evenodd" clip-rule="evenodd" d="M207.085 202.805C207.798 203.162 207.798 203.162 207.085 202.805Z" fill="#F0E1C7"/>
<path opacity="0.012" fill-rule="evenodd" clip-rule="evenodd" d="M64.2129 203.875C64.4253 203.327 64.7817 203.238 65.2831 203.608C64.9652 203.856 64.6083 203.945 64.2129 203.875Z" fill="#F3E3C8"/>
<path opacity="0.012" fill-rule="evenodd" clip-rule="evenodd" d="M204.41 203.34C205.123 203.697 205.123 203.697 204.41 203.34Z" fill="#F4E2C5"/>
<path opacity="0.012" fill-rule="evenodd" clip-rule="evenodd" d="M66.3525 203.875C67.0658 204.232 67.0658 204.232 66.3525 203.875Z" fill="#F3E3CA"/>
<path opacity="0.012" fill-rule="evenodd" clip-rule="evenodd" d="M203.34 203.875C204.053 204.232 204.053 204.232 203.34 203.875Z" fill="#F2E2C9"/>
<path opacity="0.01" fill-rule="evenodd" clip-rule="evenodd" d="M68.4932 204.41C68.4932 204.589 68.4932 204.767 68.4932 204.946C67.0661 204.767 67.0661 204.589 68.4932 204.41Z" fill="#F2E2C9"/>
<path opacity="0.01" fill-rule="evenodd" clip-rule="evenodd" d="M201.734 204.41C202.448 204.767 202.448 204.767 201.734 204.41Z" fill="#F4E2C6"/>
<path opacity="0.01" fill-rule="evenodd" clip-rule="evenodd" d="M68.4932 204.945C69.2065 205.302 69.2065 205.302 68.4932 204.945Z" fill="#F4E2C5"/>
<path opacity="0.01" fill-rule="evenodd" clip-rule="evenodd" d="M201.734 204.945C201.378 205.302 201.378 205.302 201.734 204.945Z" fill="#F5E4C6"/>
<path opacity="0.01" fill-rule="evenodd" clip-rule="evenodd" d="M203.34 204.945C204.053 205.302 204.053 205.302 203.34 204.945Z" fill="#F1E1C7"/>
<path opacity="0.01" fill-rule="evenodd" clip-rule="evenodd" d="M196.383 206.551C197.096 206.908 197.096 206.908 196.383 206.551Z" fill="#F0E1C6"/>
<path opacity="0.01" fill-rule="evenodd" clip-rule="evenodd" d="M74.915 207.621C75.6283 207.978 75.6283 207.978 74.915 207.621Z" fill="#F4E4C9"/>
<path opacity="0.01" fill-rule="evenodd" clip-rule="evenodd" d="M70.6348 208.156C71.3481 208.513 71.3481 208.513 70.6348 208.156Z" fill="#EDDEC4"/>
<path opacity="0.01" fill-rule="evenodd" clip-rule="evenodd" d="M75.9854 208.156C76.6986 208.513 76.6986 208.513 75.9854 208.156Z" fill="#F2E6CB"/>
<path fill-rule="evenodd" clip-rule="evenodd" d="M106.485 205.48C106.517 205.19 106.696 205.012 107.02 204.945C111.269 206.452 115.015 208.235 118.258 210.296C115.404 209.226 112.55 208.156 109.696 207.086C108.665 206.558 107.595 206.023 106.485 205.48Z" fill="#50140B"/>
<path opacity="0.01" fill-rule="evenodd" clip-rule="evenodd" d="M192.103 208.691C192.816 209.048 192.816 209.048 192.103 208.691Z" fill="#F3E5C7"/>
<path opacity="0.01" fill-rule="evenodd" clip-rule="evenodd" d="M83.4755 210.832C83.263 211.38 82.9067 211.47 82.4053 211.099C82.7231 210.851 83.08 210.762 83.4755 210.832Z" fill="#F4E5CA"/>
<path opacity="0.016" fill-rule="evenodd" clip-rule="evenodd" d="M84.0117 211.367C84.725 211.724 84.725 211.724 84.0117 211.367Z" fill="#F4E6C7"/>
<path opacity="0.01" fill-rule="evenodd" clip-rule="evenodd" d="M185.682 211.367C186.395 211.724 186.395 211.724 185.682 211.367Z" fill="#F3E3C8"/>
<path opacity="0.012" fill-rule="evenodd" clip-rule="evenodd" d="M183.006 212.437C183.719 212.794 183.719 212.794 183.006 212.437Z" fill="#F3E5C8"/>
<path opacity="0.01" fill-rule="evenodd" clip-rule="evenodd" d="M87.7578 212.972C88.4711 213.329 88.4711 213.329 87.7578 212.972Z" fill="#F2E4CA"/>
<path opacity="0.01" fill-rule="evenodd" clip-rule="evenodd" d="M181.936 212.972C182.649 213.329 182.649 213.329 181.936 212.972Z" fill="#F3E4C6"/>
<path opacity="0.018" fill-rule="evenodd" clip-rule="evenodd" d="M181.935 213.507C181.723 214.056 181.367 214.145 180.865 213.775C181.183 213.527 181.54 213.437 181.935 213.507Z" fill="#F5E1C4"/>
<path opacity="0.01" fill-rule="evenodd" clip-rule="evenodd" d="M93.6439 215.112C93.6439 215.29 93.6439 215.469 93.6439 215.647C93.2854 215.39 93.2854 215.211 93.6439 215.112Z" fill="#F3E2C7"/>
<path opacity="0.01" fill-rule="evenodd" clip-rule="evenodd" d="M93.6426 216.183C93.6426 216.004 93.6426 215.826 93.6426 215.647C95.0697 215.826 95.0697 216.004 93.6426 216.183Z" fill="#F2E3C8"/>
<path opacity="0.01" fill-rule="evenodd" clip-rule="evenodd" d="M93.6437 216.183C93.2867 216.54 93.2867 216.54 93.6437 216.183Z" fill="#F2E3C7"/>
<path fill-rule="evenodd" clip-rule="evenodd" d="M109.697 207.086C112.551 208.156 115.405 209.226 118.259 210.297C122.779 212.312 127.416 214.185 132.171 215.915C134.867 216.27 137.542 216.181 140.198 215.648C140.432 215.613 140.611 215.702 140.733 215.915C137.595 217.389 134.385 217.568 131.101 216.45C123.967 213.597 116.832 210.742 109.697 207.889C109.035 207.519 109.035 207.252 109.697 207.086Z" fill="#FCF9F1"/>
<path opacity="0.01" fill-rule="evenodd" clip-rule="evenodd" d="M174.443 216.183C174.839 216.112 175.196 216.202 175.514 216.45C175.012 216.82 174.656 216.731 174.443 216.183Z" fill="#F4E4C9"/>
<path opacity="0.01" fill-rule="evenodd" clip-rule="evenodd" d="M96.3193 216.718C97.0326 217.075 97.0326 217.075 96.3193 216.718Z" fill="#F1E2C6"/>
<path opacity="0.01" fill-rule="evenodd" clip-rule="evenodd" d="M98.995 217.253C98.7826 217.802 98.4262 217.891 97.9248 217.521C98.2427 217.272 98.5996 217.183 98.995 217.253Z" fill="#F2E4C9"/>
<path opacity="0.01" fill-rule="evenodd" clip-rule="evenodd" d="M171.77 217.788C172.483 218.145 172.483 218.145 171.77 217.788Z" fill="#F6E5C7"/>
<path opacity="0.01" fill-rule="evenodd" clip-rule="evenodd" d="M101.67 218.858C102.383 219.215 102.383 219.215 101.67 218.858Z" fill="#F3E2C8"/>
<path opacity="0.01" fill-rule="evenodd" clip-rule="evenodd" d="M103.811 219.928C104.524 220.285 104.524 220.285 103.811 219.928Z" fill="#F2E1C7"/>
<path opacity="0.01" fill-rule="evenodd" clip-rule="evenodd" d="M105.415 219.928C105.415 220.107 105.415 220.285 105.415 220.464C105.057 220.206 105.057 220.027 105.415 219.928Z" fill="#F5E8CE"/>
<path opacity="0.016" fill-rule="evenodd" clip-rule="evenodd" d="M105.415 220.463C106.128 220.82 106.128 220.82 105.415 220.463Z" fill="#F3E4CA"/>
<path opacity="0.01" fill-rule="evenodd" clip-rule="evenodd" d="M100.6 220.999C101.313 221.355 101.313 221.355 100.6 220.999Z" fill="#EDDFC4"/>
<path opacity="0.01" fill-rule="evenodd" clip-rule="evenodd" d="M108.091 221.534C108.804 221.891 108.804 221.891 108.091 221.534Z" fill="#F4E2C6"/>
<path opacity="0.01" fill-rule="evenodd" clip-rule="evenodd" d="M162.672 221.534C163.385 221.891 163.385 221.891 162.672 221.534Z" fill="#F5E6C9"/>
<path opacity="0.01" fill-rule="evenodd" clip-rule="evenodd" d="M109.162 222.069C109.875 222.426 109.875 222.426 109.162 222.069Z" fill="#F4E3C6"/>
<path opacity="0.01" fill-rule="evenodd" clip-rule="evenodd" d="M164.277 222.069C164.991 222.426 164.991 222.426 164.277 222.069Z" fill="#F3E1C4"/>
<path opacity="0.01" fill-rule="evenodd" clip-rule="evenodd" d="M158.391 223.139C159.104 223.496 159.104 223.496 158.391 223.139Z" fill="#F3E3C9"/>
<path opacity="0.012" fill-rule="evenodd" clip-rule="evenodd" d="M114.513 224.209C115.226 224.566 115.226 224.566 114.513 224.209Z" fill="#F3E3C7"/>
<path opacity="0.01" fill-rule="evenodd" clip-rule="evenodd" d="M156.25 224.209C156.963 224.566 156.963 224.566 156.25 224.209Z" fill="#F3E5C8"/>
<path opacity="0.01" fill-rule="evenodd" clip-rule="evenodd" d="M118.259 225.28C119.005 225.894 118.916 226.429 117.991 226.885C117.595 226.217 117.685 225.681 118.259 225.28Z" fill="#F3E4C9"/>
<path opacity="0.01" fill-rule="evenodd" clip-rule="evenodd" d="M154.11 225.28C154.824 225.636 154.824 225.636 154.11 225.28Z" fill="#F2E2C7"/>
<path opacity="0.01" fill-rule="evenodd" clip-rule="evenodd" d="M151.97 226.35C151.97 226.172 151.97 225.993 151.97 225.815C153.397 225.993 153.397 226.172 151.97 226.35Z" fill="#F4E2C8"/>
<path opacity="0.01" fill-rule="evenodd" clip-rule="evenodd" d="M155.181 225.815C155.894 226.172 155.894 226.172 155.181 225.815Z" fill="#F0E1C6"/>
<path opacity="0.01" fill-rule="evenodd" clip-rule="evenodd" d="M119.863 226.35C120.577 226.707 120.577 226.707 119.863 226.35Z" fill="#F4E1C5"/>
<path opacity="0.012" fill-rule="evenodd" clip-rule="evenodd" d="M151.97 226.35C151.757 226.898 151.401 226.988 150.899 226.617C151.217 226.369 151.574 226.28 151.97 226.35Z" fill="#F1DFC3"/>
<path opacity="0.01" fill-rule="evenodd" clip-rule="evenodd" d="M126.285 227.955C126.285 228.133 126.285 228.312 126.285 228.49C125.926 228.233 125.926 228.054 126.285 227.955Z" fill="#F1E2C7"/>
<path opacity="0.01" fill-rule="evenodd" clip-rule="evenodd" d="M146.083 228.49C146.295 227.942 146.652 227.852 147.153 228.223C146.835 228.471 146.478 228.56 146.083 228.49Z" fill="#F3E1C7"/>
<path opacity="0.01" fill-rule="evenodd" clip-rule="evenodd" d="M126.285 228.49C126.848 228.41 127.383 228.499 127.89 228.758C127.222 229.154 126.687 229.064 126.285 228.49Z" fill="#F2E1C7"/>
<path opacity="0.01" fill-rule="evenodd" clip-rule="evenodd" d="M143.408 228.49C144.121 228.847 144.121 228.847 143.408 228.49Z" fill="#F1E4C9"/>
<path opacity="0.01" fill-rule="evenodd" clip-rule="evenodd" d="M144.479 228.49C145.192 228.847 145.192 228.847 144.479 228.49Z" fill="#F0E2C6"/>
<path opacity="0.01" fill-rule="evenodd" clip-rule="evenodd" d="M128.96 229.025C129.673 229.382 129.673 229.382 128.96 229.025Z" fill="#F0E1C7"/>
<path opacity="0.01" fill-rule="evenodd" clip-rule="evenodd" d="M131.636 229.025C132.975 229.031 133.064 229.388 131.904 230.095C131.656 229.778 131.566 229.421 131.636 229.025Z" fill="#F5E4C8"/>
<path opacity="0.01" fill-rule="evenodd" clip-rule="evenodd" d="M140.197 229.56C140.971 228.965 141.863 228.875 142.873 229.293C141.998 229.557 141.106 229.646 140.197 229.56Z" fill="#F2E3C9"/>
<path opacity="0.01" fill-rule="evenodd" clip-rule="evenodd" d="M134.312 230.095C134.901 229.508 135.614 229.418 136.452 229.828C135.76 230.09 135.046 230.179 134.312 230.095Z" fill="#F1E1C5"/>
<path opacity="0.01" fill-rule="evenodd" clip-rule="evenodd" d="M140.198 229.56C139.841 229.917 139.841 229.917 140.198 229.56Z" fill="#EFE1C5"/>
<path opacity="0.01" fill-rule="evenodd" clip-rule="evenodd" d="M138.058 230.095C138.771 230.452 138.771 230.452 138.058 230.095Z" fill="#EFDFC3"/>
<path opacity="0.012" fill-rule="evenodd" clip-rule="evenodd" d="M140.732 230.63C140.945 230.082 141.301 229.993 141.803 230.363C141.485 230.611 141.128 230.701 140.732 230.63Z" fill="#EFE0C7"/>
<path opacity="0.01" fill-rule="evenodd" clip-rule="evenodd" d="M139.662 230.63C140.375 230.987 140.375 230.987 139.662 230.63Z" fill="#EEDFC3"/>
</svg>
