<svg width="231" height="237" viewBox="0 0 231 237" fill="none" xmlns="http://www.w3.org/2000/svg">
<path opacity="0.01" fill-rule="evenodd" clip-rule="evenodd" d="M196.295 0C197.018 0.361683 197.018 0.361683 196.295 0Z" fill="#EDDFC4"/>
<path opacity="0.01" fill-rule="evenodd" clip-rule="evenodd" d="M200.634 0C201.357 0.361683 201.357 0.361683 200.634 0Z" fill="#EEDEC6"/>
<path opacity="0.01" fill-rule="evenodd" clip-rule="evenodd" d="M196.296 0.542236C195.934 0.90392 195.934 0.90392 196.296 0.542236Z" fill="#ECDDC2"/>
<path opacity="0.01" fill-rule="evenodd" clip-rule="evenodd" d="M202.804 0.542236C203.527 0.90392 203.527 0.90392 202.804 0.542236Z" fill="#EEDEC4"/>
<path opacity="0.01" fill-rule="evenodd" clip-rule="evenodd" d="M104.654 3.25342C105.377 3.6151 105.377 3.6151 104.654 3.25342Z" fill="#F5E7CB"/>
<path opacity="0.012" fill-rule="evenodd" clip-rule="evenodd" d="M106.281 3.79573C106.497 3.23992 106.858 3.14936 107.366 3.5246C107.044 3.77621 106.682 3.86677 106.281 3.79573Z" fill="#F6E5CB"/>
<path opacity="0.016" fill-rule="evenodd" clip-rule="evenodd" d="M107.908 3.25342C108.631 3.6151 108.631 3.6151 107.908 3.25342Z" fill="#F5E6CA"/>
<path opacity="0.01" fill-rule="evenodd" clip-rule="evenodd" d="M108.994 3.25342C109.717 3.6151 109.717 3.6151 108.994 3.25342Z" fill="#F4E5CA"/>
<path opacity="0.01" fill-rule="evenodd" clip-rule="evenodd" d="M110.62 3.79573C110.835 3.23992 111.197 3.14936 111.705 3.5246C111.383 3.77621 111.021 3.86677 110.62 3.79573Z" fill="#F8E7CD"/>
<path opacity="0.01" fill-rule="evenodd" clip-rule="evenodd" d="M112.246 3.25342C112.969 3.6151 112.969 3.6151 112.246 3.25342Z" fill="#F6E8CD"/>
<path opacity="0.01" fill-rule="evenodd" clip-rule="evenodd" d="M114.958 3.79582C115.555 3.20043 116.278 3.10987 117.127 3.5247C116.426 3.7904 115.703 3.88096 114.958 3.79582Z" fill="#F7E8CE"/>
<path opacity="0.01" fill-rule="evenodd" clip-rule="evenodd" d="M119.295 3.25342C120.018 3.6151 120.018 3.6151 119.295 3.25342Z" fill="#F7E8CD"/>
<path opacity="0.01" fill-rule="evenodd" clip-rule="evenodd" d="M120.38 3.25342C121.103 3.6151 121.103 3.6151 120.38 3.25342Z" fill="#F6E7CC"/>
<path opacity="0.01" fill-rule="evenodd" clip-rule="evenodd" d="M122.55 3.79576C122.957 3.21392 123.499 3.12336 124.177 3.52463C123.663 3.78654 123.12 3.87655 122.55 3.79576Z" fill="#F6E6CC"/>
<path opacity="0.01" fill-rule="evenodd" clip-rule="evenodd" d="M124.719 3.79573C124.934 3.23992 125.295 3.14936 125.803 3.5246C125.481 3.77621 125.119 3.86677 124.719 3.79573Z" fill="#F6E6CC"/>
<path opacity="0.01" fill-rule="evenodd" clip-rule="evenodd" d="M103.028 3.79565C103.751 4.15734 103.751 4.15734 103.028 3.79565Z" fill="#F6E5CB"/>
<path opacity="0.01" fill-rule="evenodd" clip-rule="evenodd" d="M129.056 3.79565C129.778 4.15734 129.778 4.15734 129.056 3.79565Z" fill="#F6E5CE"/>
<path opacity="0.01" fill-rule="evenodd" clip-rule="evenodd" d="M135.021 3.79565C135.744 4.15734 135.744 4.15734 135.021 3.79565Z" fill="#F1E4C8"/>
<path opacity="0.01" fill-rule="evenodd" clip-rule="evenodd" d="M187.621 3.79565C188.343 4.15734 188.343 4.15734 187.621 3.79565Z" fill="#F5E6CA"/>
<path opacity="0.01" fill-rule="evenodd" clip-rule="evenodd" d="M94.3521 4.88037C95.0749 5.24205 95.0749 5.24205 94.3521 4.88037Z" fill="#F5E3C9"/>
<path opacity="0.01" fill-rule="evenodd" clip-rule="evenodd" d="M95.4355 4.88037C96.1584 5.24205 96.1584 5.24205 95.4355 4.88037Z" fill="#F3E5C9"/>
<path opacity="0.01" fill-rule="evenodd" clip-rule="evenodd" d="M93.2676 5.42261C93.9904 5.78429 93.9904 5.78429 93.2676 5.42261Z" fill="#F4E6CB"/>
<path opacity="0.998" fill-rule="evenodd" clip-rule="evenodd" d="M213.106 8.6762C213.959 11.2899 215.224 13.6394 216.902 15.7255C218.889 18.2649 221.419 20.1628 224.493 21.4192C231.608 27.5613 232.783 34.7011 228.018 42.8382C225.649 45.2984 223.209 47.648 220.697 49.8875C215.72 52.7967 214.274 56.9542 216.359 62.3593C233.714 95.9064 235.25 130.611 220.969 166.472C217.93 172.372 214.767 178.157 211.479 183.824C208.769 187.435 206.058 191.05 203.345 194.669C202.984 194.669 202.803 194.85 202.803 195.212C197.785 200.047 192.724 204.927 187.62 209.852C187.258 209.852 187.078 210.033 187.078 210.395C182.821 213.155 178.664 216.047 174.606 219.071C164.457 224.782 153.792 229.12 142.613 232.085C140.863 232.18 139.236 232.542 137.733 233.169C130.674 234.054 123.624 234.777 116.585 235.338C109.784 234.947 102.915 234.405 95.979 233.712C92.834 232.792 89.5804 232.069 86.2185 231.543C84.5646 230.674 82.7567 230.132 80.7959 229.916C78.0537 228.549 75.1614 227.465 72.1199 226.662C66.0911 223.738 60.1263 220.666 54.2255 217.444C51.1682 214.83 47.9147 212.48 44.4649 210.395C38.8932 205.548 33.4706 200.487 28.1973 195.212C27.8591 193.989 27.1361 193.085 26.0283 192.5C25.6667 191.777 25.1245 191.235 24.4015 190.874C22.4584 187.566 20.3798 184.313 18.1656 181.113C16.8886 180.653 15.8945 179.839 15.1832 178.673C16.5332 177.939 16.5332 177.306 15.1832 176.775C14.5548 174.795 13.651 172.987 12.4719 171.352C8.60624 163.009 5.71423 154.333 3.79585 145.324C3.25359 145.324 2.71134 145.324 2.16909 145.324C2.14566 142.942 2.41679 142.762 2.98247 144.782C3.24817 144.081 3.33857 143.357 3.25359 142.613C2.71134 142.613 2.16909 142.613 1.62683 142.613C1.57939 140.933 1.85051 140.752 2.44021 142.071C2.63022 139.966 2.35909 137.978 1.62683 136.106C0.310836 122.937 0.672357 109.742 2.71134 96.5213C4.58542 88.4163 7.11591 80.4636 10.3029 72.6622C13.6412 65.5315 17.437 58.6628 21.6902 52.0565C22.772 50.6152 23.8565 49.169 24.9438 47.7185C27.4803 45.1813 29.83 42.47 31.9931 39.5847C33.6198 38.3196 35.0658 36.8734 36.3311 35.2466C39.968 32.1683 43.5827 29.0959 47.1762 26.0283C50.1716 24.6228 52.8829 22.8155 55.31 20.6058C58.1118 19.2957 60.8231 17.85 63.4438 16.2678C71.0175 12.7203 78.7896 9.82848 86.7607 7.59169C111.908 1.7771 136.129 3.49442 159.423 12.7431C162.513 13.929 165.585 15.1035 168.641 16.2678C170.398 17.5968 172.386 18.5008 174.606 18.979C175.69 19.7018 176.775 19.7018 177.859 18.979C178.687 19.0186 179.23 18.6569 179.486 17.8945C180.688 17.5133 181.682 16.7905 182.469 15.7255C184.185 12.2909 186.173 9.03734 188.433 5.96493C194.252 0.589561 200.669 -0.22382 207.683 3.52478C209.777 4.9867 211.584 6.70402 213.106 8.6762Z" fill="#FFF9F5"/>
<path opacity="0.01" fill-rule="evenodd" clip-rule="evenodd" d="M137.733 5.42261C138.456 5.78429 138.456 5.78429 137.733 5.42261Z" fill="#F5E7CC"/>
<path opacity="0.01" fill-rule="evenodd" clip-rule="evenodd" d="M135.564 4.88037C136.287 5.24205 136.287 5.24205 135.564 4.88037Z" fill="#F5E7CB"/>
<path opacity="0.01" fill-rule="evenodd" clip-rule="evenodd" d="M132.31 4.33789C133.032 4.69957 133.032 4.69957 132.31 4.33789Z" fill="#F6E6CD"/>
<path opacity="0.01" fill-rule="evenodd" clip-rule="evenodd" d="M131.225 4.33789C131.947 4.69957 131.947 4.69957 131.225 4.33789Z" fill="#F6E7CE"/>
<path opacity="0.01" fill-rule="evenodd" clip-rule="evenodd" d="M84.5923 7.59163C84.8076 7.03582 85.1687 6.94526 85.6768 7.3205C85.3547 7.57211 84.993 7.66266 84.5923 7.59163Z" fill="#F7E6CC"/>
<path opacity="0.01" fill-rule="evenodd" clip-rule="evenodd" d="M86.7605 7.59168C86.3988 6.86885 86.3988 6.86885 86.7605 7.59168Z" fill="#F4E5CB"/>
<path opacity="0.01" fill-rule="evenodd" clip-rule="evenodd" d="M82.4229 7.59155C83.1457 7.95324 83.1457 7.95324 82.4229 7.59155Z" fill="#F2E3CA"/>
<path opacity="0.01" fill-rule="evenodd" clip-rule="evenodd" d="M146.408 7.59155C147.131 7.95324 147.131 7.95324 146.408 7.59155Z" fill="#F7E8CB"/>
<path opacity="0.01" fill-rule="evenodd" clip-rule="evenodd" d="M147.494 7.59155C148.217 7.95324 148.217 7.95324 147.494 7.59155Z" fill="#F6E5CC"/>
<path opacity="0.01" fill-rule="evenodd" clip-rule="evenodd" d="M80.2539 8.67586C80.4692 8.12005 80.8303 8.02949 81.3384 8.40473C81.0163 8.65634 80.6546 8.74689 80.2539 8.67586Z" fill="#F6E4CB"/>
<path opacity="0.01" fill-rule="evenodd" clip-rule="evenodd" d="M148.578 8.67586C148.793 8.12005 149.155 8.02949 149.663 8.40473C149.341 8.65634 148.979 8.74689 148.578 8.67586Z" fill="#F8E7CC"/>
<path opacity="0.01" fill-rule="evenodd" clip-rule="evenodd" d="M213.105 8.13403C213.828 8.49572 213.828 8.49572 213.105 8.13403Z" fill="#F2E4C9"/>
<path opacity="0.01" fill-rule="evenodd" clip-rule="evenodd" d="M79.1689 8.67627C79.8918 9.03795 79.8918 9.03795 79.1689 8.67627Z" fill="#F6E6CC"/>
<path opacity="0.01" fill-rule="evenodd" clip-rule="evenodd" d="M74.8315 9.7605C75.5544 10.1222 75.5544 10.1222 74.8315 9.7605Z" fill="#F3E3CA"/>
<path opacity="0.01" fill-rule="evenodd" clip-rule="evenodd" d="M158.88 11.3875C159.603 11.7491 159.603 11.7491 158.88 11.3875Z" fill="#F6E8CE"/>
<path opacity="0.01" fill-rule="evenodd" clip-rule="evenodd" d="M160.508 11.9297C161.231 12.2914 161.231 12.2914 160.508 11.9297Z" fill="#F6E8CC"/>
<path opacity="0.012" fill-rule="evenodd" clip-rule="evenodd" d="M162.676 13.0142C163.399 13.3758 163.399 13.3758 162.676 13.0142Z" fill="#F8ECD0"/>
<path opacity="0.01" fill-rule="evenodd" clip-rule="evenodd" d="M164.304 13.5564C165.027 13.9181 165.027 13.9181 164.304 13.5564Z" fill="#F8EACF"/>
<path opacity="0.01" fill-rule="evenodd" clip-rule="evenodd" d="M216.359 13.5564C217.082 13.9181 217.082 13.9181 216.359 13.5564Z" fill="#F4E5CA"/>
<path opacity="0.01" fill-rule="evenodd" clip-rule="evenodd" d="M216.901 15.1831C217.624 15.5448 217.624 15.5448 216.901 15.1831Z" fill="#F9E7CD"/>
<path opacity="0.01" fill-rule="evenodd" clip-rule="evenodd" d="M63.4439 16.2677C63.0432 16.3387 62.6815 16.2481 62.3594 15.9965C62.8675 15.6213 63.2286 15.7118 63.4439 16.2677Z" fill="#F4E4C8"/>
<path opacity="0.01" fill-rule="evenodd" clip-rule="evenodd" d="M168.641 15.7253C169.363 16.087 169.363 16.087 168.641 15.7253Z" fill="#F8EDD2"/>
<path opacity="0.01" fill-rule="evenodd" clip-rule="evenodd" d="M169.725 15.7253C170.447 16.087 170.447 16.087 169.725 15.7253Z" fill="#F9EACF"/>
<path opacity="0.01" fill-rule="evenodd" clip-rule="evenodd" d="M178.945 17.3522C178.583 16.6294 178.583 16.6294 178.945 17.3522Z" fill="#F8EACF"/>
<path opacity="0.01" fill-rule="evenodd" clip-rule="evenodd" d="M179.485 16.8098C180.208 17.1715 180.208 17.1715 179.485 16.8098Z" fill="#FAEACE"/>
<path opacity="0.999" fill-rule="evenodd" clip-rule="evenodd" d="M203.346 17.8946C204.088 25.4162 208.246 29.6637 215.817 30.6375C218.487 32.9709 218.669 35.5016 216.36 38.2291C210.389 39.595 206.413 43.1197 204.43 48.8031C204.249 48.8031 204.068 48.8031 203.888 48.8031C203.342 50.5074 202.438 52.0441 201.177 53.4122C199.883 53.7137 198.618 53.6237 197.381 53.1411C196.648 51.0182 196.015 48.8491 195.483 46.634C195.275 46.3325 195.004 46.152 194.669 46.0918C193.169 44.3181 191.542 42.6007 189.789 40.9404C187.664 39.9307 185.495 39.0268 183.282 38.2291C180.39 35.6984 180.39 33.1682 183.282 30.6375C186.988 29.8269 190.332 28.2907 193.314 26.0284C194.783 22.5894 195.958 19.0648 196.839 15.4544C200.007 13.8336 202.176 14.647 203.346 17.8946Z" fill="#7D4123"/>
<path opacity="0.01" fill-rule="evenodd" clip-rule="evenodd" d="M174.605 17.3521C175.328 17.7137 175.328 17.7137 174.605 17.3521Z" fill="#FBEBD1"/>
<path opacity="0.01" fill-rule="evenodd" clip-rule="evenodd" d="M178.944 17.3521C179.125 17.3521 179.306 17.3521 179.487 17.3521C179.487 17.5326 179.487 17.7137 179.487 17.8943C179.306 17.7137 179.125 17.5326 178.944 17.3521Z" fill="#FAECCF"/>
<path opacity="0.01" fill-rule="evenodd" clip-rule="evenodd" d="M174.605 18.4368C175.328 18.7985 175.328 18.7985 174.605 18.4368Z" fill="#FBEDD3"/>
<path opacity="0.01" fill-rule="evenodd" clip-rule="evenodd" d="M177.859 18.979C176.503 18.9731 176.413 18.6114 177.588 17.8945C177.84 18.2166 177.93 18.5783 177.859 18.979Z" fill="#F9EAD1"/>
<path opacity="0.01" fill-rule="evenodd" clip-rule="evenodd" d="M55.3103 20.6056C54.9486 19.8828 54.9486 19.8828 55.3103 20.6056Z" fill="#F5E6CA"/>
<path fill-rule="evenodd" clip-rule="evenodd" d="M121.464 19.5212C107.509 18.8651 93.9522 20.853 80.7949 25.486C82.6429 24.2069 84.9925 23.2124 87.8442 22.5036C99.9441 19.127 112.235 18.0425 124.717 19.2501C123.648 19.5185 122.563 19.6091 121.464 19.5212Z" fill="#FCF9F3"/>
<path opacity="0.01" fill-rule="evenodd" clip-rule="evenodd" d="M47.1756 26.028C46.8139 25.3051 46.8139 25.3051 47.1756 26.028Z" fill="#F2E3C9"/>
<path opacity="0.01" fill-rule="evenodd" clip-rule="evenodd" d="M42.2949 28.7395C43.0177 29.1012 43.0177 29.1012 42.2949 28.7395Z" fill="#F4E4C6"/>
<path opacity="0.994" fill-rule="evenodd" clip-rule="evenodd" d="M146.408 24.4016C153.784 26.4345 160.653 29.5075 167.014 33.6199C159.902 30.2601 153.033 27.1877 146.408 24.4016Z" fill="#52150B"/>
<path opacity="0.01" fill-rule="evenodd" clip-rule="evenodd" d="M36.3307 35.2465C35.9692 34.5236 35.9692 34.5236 36.3307 35.2465Z" fill="#F1E3C9"/>
<path opacity="0.01" fill-rule="evenodd" clip-rule="evenodd" d="M33.6201 36.3311C34.3431 36.6927 34.3431 36.6927 33.6201 36.3311Z" fill="#F1E3C9"/>
<path opacity="0.996" fill-rule="evenodd" clip-rule="evenodd" d="M199.55 31.4507C200.984 32.5238 202.25 33.7889 203.345 35.2465C202.261 36.6927 200.996 37.9577 199.55 39.0422C198.203 37.967 196.938 36.7919 195.754 35.5176C197.131 34.2324 198.396 32.8768 199.55 31.4507Z" fill="#FBE8B3"/>
<path opacity="0.999" fill-rule="evenodd" clip-rule="evenodd" d="M199.006 33.0774C203.078 34.1868 203.258 35.8136 199.549 37.9577C198.564 37.2446 197.66 36.4312 196.837 35.5175C197.673 34.7741 198.396 33.9607 199.006 33.0774Z" fill="#FCBA85"/>
<path opacity="0.996" fill-rule="evenodd" clip-rule="evenodd" d="M204.429 48.803C206.412 43.1196 210.388 39.595 216.359 38.2291C218.668 35.5015 218.487 32.9708 215.817 30.6375C208.245 29.6636 204.088 25.4161 203.345 17.8945C204.55 19.7762 205.544 22.1263 206.327 24.9438C209.176 27.5884 212.52 29.3057 216.359 30.0952C218.644 32.3727 219.096 34.994 217.714 37.9579C215.219 39.5158 212.598 40.8715 209.852 42.0248C207.098 44.1884 205.381 46.9903 204.7 50.4298C204.438 49.9157 204.348 49.3735 204.429 48.803Z" fill="#F9F4EB"/>
<path opacity="0.01" fill-rule="evenodd" clip-rule="evenodd" d="M31.9928 39.5846C31.6313 38.8618 31.6313 38.8618 31.9928 39.5846Z" fill="#F3E6CA"/>
<path opacity="0.992" fill-rule="evenodd" clip-rule="evenodd" d="M65.0701 33.6199C59.737 37.2812 54.4951 41.077 49.3447 45.0072C53.9105 40.2836 59.1525 36.4879 65.0701 33.6199Z" fill="#52160D"/>
<path opacity="0.01" fill-rule="evenodd" clip-rule="evenodd" d="M27.1133 41.7537C27.8363 42.1153 27.8363 42.1153 27.1133 41.7537Z" fill="#F4E3CA"/>
<path opacity="0.01" fill-rule="evenodd" clip-rule="evenodd" d="M226.12 45.5493C226.843 45.911 226.843 45.911 226.12 45.5493Z" fill="#F7E6C7"/>
<path opacity="0.01" fill-rule="evenodd" clip-rule="evenodd" d="M24.943 47.7184C24.5815 46.9956 24.5815 46.9956 24.943 47.7184Z" fill="#F6E5CA"/>
<path fill-rule="evenodd" clip-rule="evenodd" d="M180.571 43.3804C187.341 48.5209 192.944 54.6663 197.381 61.817C192.166 55.336 186.562 49.1901 180.571 43.3804Z" fill="#56190E"/>
<path opacity="0.01" fill-rule="evenodd" clip-rule="evenodd" d="M23.3164 48.2605C24.0394 48.6222 24.0394 48.6222 23.3164 48.2605Z" fill="#F8E7CC"/>
<path opacity="0.01" fill-rule="evenodd" clip-rule="evenodd" d="M23.3161 48.8027C22.9545 49.1644 22.9545 49.1644 23.3161 48.8027Z" fill="#F6E6CB"/>
<path fill-rule="evenodd" clip-rule="evenodd" d="M194.669 46.0916C195.004 46.1517 195.275 46.3323 195.482 46.6338C196.014 48.8489 196.647 51.0179 197.38 53.1409C196.861 52.8952 196.408 52.5341 196.025 52.0563C195.804 50.0039 195.352 48.0155 194.669 46.0916Z" fill="#4D110A"/>
<path opacity="0.01" fill-rule="evenodd" clip-rule="evenodd" d="M220.697 49.8875C221.42 50.2491 221.42 50.2491 220.697 49.8875Z" fill="#F8E8CA"/>
<path opacity="0.01" fill-rule="evenodd" clip-rule="evenodd" d="M221.781 49.8875C222.504 50.2491 222.504 50.2491 221.781 49.8875Z" fill="#F8E8CB"/>
<path opacity="0.01" fill-rule="evenodd" clip-rule="evenodd" d="M21.6901 52.0565C21.3286 51.3337 21.3286 51.3337 21.6901 52.0565Z" fill="#F5E6CC"/>
<path opacity="0.01" fill-rule="evenodd" clip-rule="evenodd" d="M19.5215 53.6831C20.2445 54.0448 20.2445 54.0448 19.5215 53.6831Z" fill="#F5E7CA"/>
<path opacity="0.996" fill-rule="evenodd" clip-rule="evenodd" d="M203.887 48.8027C203.726 53.696 201.557 55.1422 197.38 53.1408C198.617 53.6234 199.882 53.7134 201.176 53.4119C202.437 52.0438 203.341 50.507 203.887 48.8027Z" fill="#490C06"/>
<path opacity="0.01" fill-rule="evenodd" clip-rule="evenodd" d="M216.901 54.2253C217.624 54.587 217.624 54.587 216.901 54.2253Z" fill="#FAE9D0"/>
<path opacity="0.01" fill-rule="evenodd" clip-rule="evenodd" d="M215.818 56.9368C216.374 57.152 216.465 57.5132 216.089 58.0213C215.838 57.6992 215.747 57.3375 215.818 56.9368Z" fill="#FCECD1"/>
<path opacity="0.01" fill-rule="evenodd" clip-rule="evenodd" d="M14.0986 59.6479C14.8216 60.0096 14.8216 60.0096 14.0986 59.6479Z" fill="#F5E7CC"/>
<path opacity="0.01" fill-rule="evenodd" clip-rule="evenodd" d="M216.359 60.1902C217.082 60.5519 217.082 60.5519 216.359 60.1902Z" fill="#FBECD1"/>
<path opacity="0.01" fill-rule="evenodd" clip-rule="evenodd" d="M11.9297 66.6973C12.6527 67.0589 12.6527 67.0589 11.9297 66.6973Z" fill="#F5E8CE"/>
<path opacity="0.01" fill-rule="evenodd" clip-rule="evenodd" d="M10.8447 68.8665C11.5677 69.2281 11.5677 69.2281 10.8447 68.8665Z" fill="#F8EACF"/>
<path opacity="0.01" fill-rule="evenodd" clip-rule="evenodd" d="M9.76074 69.4087C10.4837 69.7704 10.4837 69.7704 9.76074 69.4087Z" fill="#F9EACF"/>
<path opacity="0.016" fill-rule="evenodd" clip-rule="evenodd" d="M10.3025 72.6619C9.74669 72.4466 9.65629 72.0855 10.0314 71.5774C10.2831 71.8995 10.3735 72.2612 10.3025 72.6619Z" fill="#F7E6CF"/>
<path opacity="0.999" fill-rule="evenodd" clip-rule="evenodd" d="M121.465 19.5213C129.951 20.2132 138.265 21.84 146.408 24.4016C153.033 27.1877 159.902 30.2601 167.014 33.6199C172.016 36.2102 176.535 39.4638 180.57 43.3805C186.562 49.1902 192.165 55.3361 197.38 61.8171C200.59 65.518 203.12 69.6754 204.972 74.2889C207.098 79.6708 209.177 85.0933 211.208 90.5566C211.424 90.4329 211.514 90.2518 211.479 90.0143C218.347 112.012 217.715 133.883 209.581 155.627C209.017 157.429 208.203 159.056 207.141 160.507C204.084 166.256 200.74 171.859 197.109 177.317C196.734 177.825 196.824 178.186 197.38 178.402C188.695 190.887 177.669 200.647 164.303 207.683C157.908 210.685 151.762 213.396 145.866 215.817C145.681 216.272 145.319 216.453 144.781 216.359C144.654 216.036 144.383 215.855 143.968 215.817C141.28 216.396 139.021 217.119 137.19 217.986C135.833 218.459 134.386 218.82 132.852 219.071C132.337 218.717 131.705 218.536 130.954 218.529C129.056 218.8 127.158 219.071 125.26 219.342C125.774 219.604 126.317 219.694 126.887 219.613C125.745 220.138 124.479 220.319 123.091 220.155C112.851 220.131 102.639 219.046 92.4539 216.902C91.8737 216.917 91.422 217.098 91.0983 217.444C88.2629 216.784 85.5516 215.88 82.9645 214.733C76.7324 211.644 70.2253 208.39 63.4433 204.972C59.3873 201.769 55.2298 198.696 50.9715 195.754C47.8725 192.294 44.619 189.04 41.2109 185.993C37.3354 182.118 34.0819 177.78 31.4504 172.979C26.9072 164.643 23.1115 156.328 20.063 148.035C19.6085 147.85 19.4277 147.489 19.5208 146.951C19.8443 146.824 20.0251 146.552 20.063 146.138C19.2825 142.378 18.3788 139.034 17.3518 136.106C16.6189 133.151 16.167 130.078 15.9961 126.888C15.5485 121.009 15.6389 115.225 16.2672 109.535C16.1804 110.457 16.2708 111.361 16.5384 112.247C16.9715 107.968 17.6041 103.72 18.4363 99.5037C18.4211 98.9235 18.2403 98.4718 17.894 98.1481C18.5685 94.1772 19.653 90.3814 21.1475 86.7608C24.5602 79.0375 28.5367 71.2653 33.0771 63.4439C35.3563 59.621 37.9772 56.0063 40.9398 52.5988C43.5204 49.7433 46.3217 47.2126 49.3447 45.0072C54.4951 41.077 59.737 37.2812 65.0701 33.6199C70.0908 30.477 75.3323 27.7657 80.7955 25.4861C93.9527 20.8531 107.509 18.8652 121.465 19.5213Z" fill="#7F4325"/>
<path opacity="0.992" fill-rule="evenodd" clip-rule="evenodd" d="M174.605 51.5142C182.091 57.101 188.056 63.9692 192.5 72.1198C189.831 68.4504 187.03 64.8357 184.095 61.2747C180.795 58.0668 177.632 54.8132 174.605 51.5142Z" fill="#F8C697"/>
<path fill-rule="evenodd" clip-rule="evenodd" d="M85.1332 35.2466C79.009 38.2225 72.6825 41.476 66.1543 45.0072C71.9217 40.7673 78.2482 37.5137 85.1332 35.2466Z" fill="#F9C89A"/>
<path fill-rule="evenodd" clip-rule="evenodd" d="M136.105 31.9929C136.89 31.3894 137.794 31.2988 138.817 31.7218C149.813 34.5095 159.754 39.2992 168.641 46.0915C164.42 43.5272 160.082 41.087 155.627 38.7711C151.445 36.7447 147.107 35.2085 142.613 34.1619C140.598 33.1289 138.429 32.4061 136.105 31.9929Z" fill="#602411"/>
<path opacity="0.998" fill-rule="evenodd" clip-rule="evenodd" d="M129.056 30.9085C131.439 31.0951 133.789 31.4562 136.106 31.993C138.429 32.4062 140.598 33.1291 142.613 34.1621C139.075 33.545 135.55 32.8216 132.039 31.993C131.298 32.1047 130.575 32.2859 129.87 32.5353C129.126 31.9491 128.313 31.4969 127.43 31.1797C127.944 30.9178 128.486 30.8277 129.056 30.9085Z" fill="#F8C194"/>
<path fill-rule="evenodd" clip-rule="evenodd" d="M101.944 30.9085C102.514 30.8277 103.056 30.9178 103.57 31.1797C99.6695 31.9236 95.7832 32.737 91.912 33.6198C91.4972 33.5818 91.2261 33.4013 91.0986 33.0775C94.6444 32.0104 98.2591 31.2876 101.944 30.9085Z" fill="#F7C195"/>
<path opacity="0.999" fill-rule="evenodd" clip-rule="evenodd" d="M129.056 30.9086C128.486 30.8278 127.943 30.9178 127.429 31.1797C128.313 31.4969 129.126 31.9492 129.869 32.5353C130.575 32.2859 131.298 32.1048 132.038 31.9931C135.55 32.8216 139.074 33.545 142.612 34.1621C147.107 35.2086 151.445 36.7448 155.627 38.7713C160.082 41.0872 164.42 43.5274 168.641 46.0917C170.629 47.899 172.617 49.7069 174.605 51.5142C177.632 54.8133 180.795 58.0668 184.095 61.2748C187.03 64.8358 189.831 68.4504 192.5 72.1199C194.841 76.9947 197.191 81.5133 199.549 85.6762C201.703 90.6959 203.33 95.9378 204.429 101.402C204.079 101.821 203.898 102.364 203.887 103.028C205.779 113.03 205.96 123.061 204.429 133.123C204.437 133.874 204.618 134.507 204.972 135.021C204.721 136.556 204.359 138.002 203.887 139.359C203.816 138.184 203.636 138.094 203.345 139.088C202.168 144.155 200.721 149.125 199.007 154C197.181 157.831 195.193 161.627 193.042 165.388C193.109 165.717 193.29 165.897 193.584 165.93C187.511 176.432 179.558 185.288 169.725 192.5C169.51 191.944 169.149 191.854 168.641 192.229C165.29 194.414 162.037 196.673 158.88 199.007C153.278 201.372 148.036 203.722 143.155 206.057C139.127 207.408 134.97 208.492 130.683 209.31C130.168 208.957 129.536 208.775 128.785 208.768C126.604 208.98 124.526 209.342 122.549 209.852C86.3265 211.579 58.4004 197.3 38.7708 167.014C36.0978 162.754 34.0192 158.235 32.5349 153.458C31.0971 148.612 29.7415 143.732 28.468 138.817C28.2162 139.139 28.1258 139.501 28.1968 139.902C27.5693 138.398 27.2078 136.771 27.1123 135.021C27.4632 134.602 27.644 134.059 27.6546 133.395C26.1372 122.795 26.318 112.221 28.1968 101.673C28.1816 101.093 28.0009 100.641 27.6546 100.317C32.8623 76.5045 45.6954 58.0679 66.1546 45.0072C72.6828 41.476 79.0093 38.2225 85.1335 35.2466C86.9235 34.1165 88.9119 33.3932 91.0983 33.0776C91.2257 33.4013 91.4968 33.5819 91.9117 33.6198C95.7828 32.737 99.6692 31.9237 103.57 31.1797C103.056 30.9178 102.514 30.8278 101.943 30.9086C106.435 30.1028 111.044 29.7416 115.771 29.8241C120.319 29.7303 124.748 30.0919 129.056 30.9086Z" fill="#F69F77"/>
<path fill-rule="evenodd" clip-rule="evenodd" d="M156.711 64.5281C157.482 64.6414 158.205 64.9125 158.88 65.3415C163.867 70.1475 168.657 75.1183 173.25 80.2534C174.535 83.2028 174.897 86.2757 174.334 89.4718C173.925 91.1983 173.112 92.6445 171.894 93.8098C174.358 89.5997 174.629 85.2617 172.707 80.7957C167.629 75.0847 162.297 69.6621 156.711 64.5281Z" fill="#F2B98C"/>
<path fill-rule="evenodd" clip-rule="evenodd" d="M105.74 82.4226C108.16 85.1149 110.691 87.7356 113.332 90.2853C115.243 91.4392 117.051 91.3486 118.754 90.0141C118.935 90.0141 119.116 90.0141 119.297 90.0141C117.471 92.5443 115.302 92.8154 112.789 90.8275C104.656 82.6937 96.5219 74.5599 88.388 66.4261C87.1859 65.7347 85.9203 65.1925 84.5923 64.7993C82.1418 64.7044 79.7917 64.4333 77.543 63.986C81.592 62.9183 85.3878 63.5511 88.9303 65.8838C94.4624 71.5065 100.065 77.019 105.74 82.4226Z" fill="#642514"/>
<path opacity="0.999" fill-rule="evenodd" clip-rule="evenodd" d="M156.712 64.5282C162.298 69.6622 167.63 75.0848 172.708 80.7958C174.63 85.2618 174.359 89.5998 171.895 93.8099C165.569 99.7747 159.423 105.92 153.458 112.247C151.128 114.305 148.869 116.474 146.68 118.754C146.412 119.823 146.321 120.908 146.409 122.007C145.886 122.669 145.976 123.392 146.68 124.176C153.596 131.364 160.735 138.232 168.099 144.782C169.364 145.866 170.63 146.951 171.895 148.035C173.85 152.462 174.031 156.981 172.437 161.592C168.837 165.373 165.222 169.169 161.592 172.979C157.127 176.987 151.885 178.433 145.867 177.317C145.505 176.955 145.144 176.594 144.782 176.233C136.786 168.51 128.652 160.466 120.381 152.102C120.059 151.851 119.697 151.76 119.296 151.831C117.768 150.965 116.141 150.694 114.416 151.018C110.166 154.635 106.19 158.521 102.487 162.676C98.1306 167.033 93.6115 171.191 88.9302 175.148C88.8977 174.854 88.7171 174.673 88.3879 174.606C82.4676 177.809 76.8645 177.357 71.5781 173.25C68.7318 170.312 65.8394 167.51 62.902 164.845C62.3597 164.665 61.9981 164.303 61.8175 163.761C58.8264 159.333 58.3742 154.633 60.4618 149.662C68.2183 141.363 76.1715 133.229 84.321 125.261C84.5726 124.939 84.6632 124.577 84.5922 124.176C85.418 122.476 85.7797 120.669 85.6767 118.754C77.9523 110.214 69.9085 101.9 61.5464 93.8099C61.33 93.9335 61.24 94.1146 61.2752 94.3522C60.0573 93.1868 59.2439 91.7407 58.8351 90.0141C58.1871 86.2254 58.6393 82.6107 60.1907 79.169C64.602 74.3061 69.3017 69.6969 74.2893 65.3416C75.3234 64.7332 76.4079 64.2815 77.5429 63.9859C79.7916 64.4333 82.1417 64.7044 84.5922 64.7993C85.9201 65.1924 87.1858 65.7347 88.3879 66.4261C96.5217 74.5599 104.656 82.6937 112.789 90.8275C115.302 92.8154 117.471 92.5443 119.296 90.0141C127.14 81.8993 135.093 73.8555 143.156 65.8838C147.407 63.1449 151.925 62.6932 156.712 64.5282Z" fill="#804325"/>
<path opacity="0.992" fill-rule="evenodd" clip-rule="evenodd" d="M82.4229 74.2887C83.0849 73.7654 83.8078 73.856 84.5919 74.5598C93.4642 83.6133 102.501 92.4699 111.705 101.13C115.396 102.512 118.83 102.061 122.007 99.7746C122.337 99.8419 122.517 100.022 122.55 100.317C118.81 103.424 114.833 103.785 110.62 101.401C110.435 100.947 110.073 100.766 109.536 100.859C100.843 91.624 91.8055 82.7674 82.4229 74.2887Z" fill="#5E1F0E"/>
<path opacity="0.01" fill-rule="evenodd" clip-rule="evenodd" d="M8.13477 75.3735C8.85775 75.7352 8.85775 75.7352 8.13477 75.3735Z" fill="#F8EBD0"/>
<path opacity="0.01" fill-rule="evenodd" clip-rule="evenodd" d="M7.0498 77.5422C7.77279 77.9039 7.77279 77.9039 7.0498 77.5422Z" fill="#F9EACF"/>
<path fill-rule="evenodd" clip-rule="evenodd" d="M33.078 63.4438C28.5376 71.2653 24.5611 79.0374 21.1484 86.7608C21.1484 86.3991 21.1484 86.0379 21.1484 85.6763C24.1354 77.7127 28.1119 70.3023 33.078 63.4438Z" fill="#4E140A"/>
<path opacity="0.999" fill-rule="evenodd" clip-rule="evenodd" d="M94.8948 87.3028C94.795 88.6177 94.4333 88.6177 93.8103 87.3028C93.1422 87.6525 92.4194 87.7425 91.6413 87.5739C91.2541 88.3022 91.4352 89.025 92.1835 89.7429C91.7318 90.1946 91.2796 90.6469 90.8279 91.0986C90.4933 90.584 90.5833 90.1323 91.099 89.7429C89.3259 89.0266 87.5185 88.6655 85.6765 88.6584C86.2914 89.2093 86.1108 89.571 85.1342 89.7429C85.767 90.014 86.2187 90.4657 86.4899 91.0986C87.0869 90.0715 87.8097 89.7098 88.6589 90.014C88.9208 90.5281 89.0108 91.0704 88.93 91.6408C88.2929 91.5221 87.7506 91.7026 87.3032 92.1831C88.0835 93.1824 87.993 94.0864 87.0321 94.8943C86.5956 93.5924 86.1439 93.6829 85.6765 95.1655C86.5804 95.346 87.4838 95.5271 88.3878 95.7077C87.3135 96.0358 87.1324 96.578 87.8455 97.3345C86.8141 97.4424 86.0008 97.8946 85.4054 98.6901C84.3545 97.3464 83.1794 97.2559 81.8807 98.419C83.3269 98.7807 83.3269 99.1418 81.8807 99.5035C82.7705 100.116 83.3128 100.929 83.5075 101.944C78.8078 97.425 74.1086 92.9059 69.4089 88.3873C69.0743 88.3271 68.8032 88.1465 68.5955 87.845C68.2338 86.7605 68.2338 85.676 68.5955 84.5915C70.0612 83.0347 71.5974 81.5885 73.2046 80.2535C75.23 79.047 77.0373 77.5108 78.6272 75.6443C79.8174 74.8998 81.083 74.7192 82.423 75.1021C86.8537 78.9006 91.0112 82.9675 94.8948 87.3028Z" fill="#F7A076"/>
<path fill-rule="evenodd" clip-rule="evenodd" d="M156.169 77.5422C154.875 77.0688 153.79 76.2554 152.915 75.102C151.395 74.6926 149.949 74.8732 148.577 75.6443C143.379 81.1162 137.956 86.2676 132.31 91.0985C137.441 85.6949 142.683 80.363 148.035 75.102C151.542 73.4335 154.254 74.2469 156.169 77.5422Z" fill="#FCD39D"/>
<path fill-rule="evenodd" clip-rule="evenodd" d="M192.5 72.1199C195.547 76.2247 197.897 80.7439 199.549 85.6762C197.191 81.5133 194.841 76.9947 192.5 72.1199Z" fill="#F5C193"/>
<path opacity="0.01" fill-rule="evenodd" clip-rule="evenodd" d="M5.96484 80.7959C6.68783 81.1576 6.68783 81.1576 5.96484 80.7959Z" fill="#F8EACE"/>
<path opacity="0.01" fill-rule="evenodd" clip-rule="evenodd" d="M225.035 80.7959C225.758 81.1576 225.758 81.1576 225.035 80.7959Z" fill="#FAEAD0"/>
<path opacity="0.996" fill-rule="evenodd" clip-rule="evenodd" d="M204.973 74.2888C207.975 79.1263 210.144 84.3682 211.48 90.0142C211.515 90.2517 211.425 90.4328 211.209 90.5564C209.178 85.0932 207.099 79.6707 204.973 74.2888Z" fill="#53180F"/>
<path opacity="0.01" fill-rule="evenodd" clip-rule="evenodd" d="M225.578 82.4226C226.301 82.7843 226.301 82.7843 225.578 82.4226Z" fill="#FCEBD1"/>
<path fill-rule="evenodd" clip-rule="evenodd" d="M82.4234 74.289C91.806 82.7677 100.844 91.6243 109.536 100.859C104.504 96.5518 99.6237 92.0332 94.8952 87.3031C91.0116 82.9678 86.8542 78.9009 82.4234 75.1024C81.0835 74.7195 79.8179 74.9001 78.6276 75.6446C77.0377 77.5111 75.2304 79.0473 73.2051 80.2538C74.7212 78.466 76.348 76.7486 78.0854 75.1024C79.4486 74.4235 80.8942 74.1523 82.4234 74.289Z" fill="#FCD09A"/>
<path opacity="0.998" fill-rule="evenodd" clip-rule="evenodd" d="M105.739 82.4226C108.672 84.5374 111.383 86.9775 113.873 89.743C115.362 90.789 116.808 90.6985 118.211 89.4719C118.54 89.5391 118.721 89.7197 118.753 90.0142C117.05 91.3487 115.242 91.4392 113.331 90.2853C110.69 87.7356 108.159 85.1149 105.739 82.4226Z" fill="#FACD99"/>
<path opacity="0.01" fill-rule="evenodd" clip-rule="evenodd" d="M3.25391 90.0142C3.80972 90.2294 3.90012 90.5906 3.52504 91.0987C3.27327 90.7766 3.18288 90.4149 3.25391 90.0142Z" fill="#FAEAD1"/>
<path opacity="0.01" fill-rule="evenodd" clip-rule="evenodd" d="M227.747 90.0142C228.47 90.3758 228.47 90.3758 227.747 90.0142Z" fill="#FAEDD1"/>
<path fill-rule="evenodd" clip-rule="evenodd" d="M69.4082 88.3875C74.1079 92.9061 78.8071 97.4252 83.5068 101.944C88.3844 106.912 93.1741 111.973 97.8765 117.127C98.6541 119.245 98.8347 121.414 98.4188 123.634C98.0408 124.764 97.408 125.668 96.5209 126.345C98.0365 123.548 98.3076 120.656 97.3343 117.669C94.2592 113.962 90.9151 110.527 87.3026 107.366C81.3378 101.221 75.373 95.0751 69.4082 88.9297C69.4082 88.7491 69.4082 88.568 69.4082 88.3875Z" fill="#F8C893"/>
<path opacity="0.01" fill-rule="evenodd" clip-rule="evenodd" d="M2.71138 93.8101C2.07304 92.9409 2.16338 92.2181 2.98251 91.6411C3.39734 92.4903 3.30694 93.2131 2.71138 93.8101Z" fill="#F9EBD1"/>
<path opacity="0.01" fill-rule="evenodd" clip-rule="evenodd" d="M2.71119 93.8098C2.71119 94.7138 2.71119 95.6171 2.71119 96.5211C1.9882 95.6171 1.9882 94.7138 2.71119 93.8098Z" fill="#FAECD4"/>
<path fill-rule="evenodd" clip-rule="evenodd" d="M85.6764 118.754C85.1342 118.392 84.5919 118.031 84.0497 117.669C76.4581 109.897 68.8666 102.124 61.275 94.3521C61.2398 94.1146 61.3298 93.9334 61.5461 93.8098C69.9082 101.9 77.952 110.214 85.6764 118.754Z" fill="#5B1E0C"/>
<path fill-rule="evenodd" clip-rule="evenodd" d="M69.408 88.9297C75.3728 95.0751 81.3376 101.221 87.3024 107.366C81.0231 101.902 74.9678 96.1183 69.1369 90.0142C68.7617 89.5061 68.8522 89.145 69.408 88.9297Z" fill="#531807"/>
<path opacity="0.01" fill-rule="evenodd" clip-rule="evenodd" d="M1.08441 100.317C1.66652 100.724 1.75686 101.266 1.35554 101.944C1.09374 101.43 1.00334 100.887 1.08441 100.317Z" fill="#F9ECD3"/>
<path opacity="0.01" fill-rule="evenodd" clip-rule="evenodd" d="M229.915 101.944C230.638 102.306 230.638 102.306 229.915 101.944Z" fill="#FAEBD1"/>
<path fill-rule="evenodd" clip-rule="evenodd" d="M155.627 95.4368C149.12 102.124 142.613 108.813 136.106 115.5C135.55 115.285 135.46 114.924 135.835 114.416C142.208 107.77 148.806 101.443 155.627 95.4368Z" fill="#FCD69C"/>
<path opacity="0.998" fill-rule="evenodd" clip-rule="evenodd" d="M21.1477 85.6763C21.1477 86.038 21.1477 86.3991 21.1477 86.7608C19.6532 90.3814 18.5687 94.1772 17.8942 98.1481C17.0018 101.889 16.4595 105.684 16.2674 109.535C15.6391 115.225 15.5487 121.009 15.9963 126.888C16.1672 130.078 16.6191 133.151 17.3519 136.106C17.7317 139.793 18.4547 143.408 19.521 146.951C19.4279 147.489 19.6087 147.85 20.0632 148.035C20.4247 149.662 20.7862 151.289 21.1477 152.916C19.8684 151.068 18.8743 148.718 18.1653 145.866C13.2875 127.377 13.4683 108.941 18.7076 90.5566C19.3262 88.451 20.1396 86.8242 21.1477 85.6763Z" fill="#FAF6EC"/>
<path opacity="0.996" fill-rule="evenodd" clip-rule="evenodd" d="M60.19 79.1692C58.6386 82.6109 58.1864 86.2256 58.8344 90.0143C59.2433 91.7408 60.0566 93.187 61.2745 94.3523C68.8661 102.124 76.4577 109.897 84.0492 117.669C75.4046 110.019 67.1802 101.885 59.3767 93.2678C56.7418 88.2747 56.9224 83.3945 59.9189 78.627C60.1353 78.7506 60.2253 78.9317 60.19 79.1692Z" fill="#FACB99"/>
<path fill-rule="evenodd" clip-rule="evenodd" d="M163.76 87.8452C154.931 97.5781 145.713 106.977 136.105 116.042C136.105 115.862 136.105 115.681 136.105 115.5C142.613 108.813 149.12 102.124 155.627 95.4368C158.338 92.9061 161.049 90.3759 163.76 87.8452Z" fill="#581A0C"/>
<path fill-rule="evenodd" clip-rule="evenodd" d="M171.895 93.8098C166.43 100.089 160.647 106.144 154.543 111.975C154.22 112.227 153.859 112.317 153.458 112.246C159.423 105.92 165.568 99.7746 171.895 93.8098Z" fill="#FCCC9A"/>
<path opacity="0.01" fill-rule="evenodd" clip-rule="evenodd" d="M230.459 105.197C231.015 105.413 231.105 105.774 230.73 106.282C230.478 105.96 230.388 105.598 230.459 105.197Z" fill="#FCECD2"/>
<path opacity="0.988" fill-rule="evenodd" clip-rule="evenodd" d="M17.894 98.1479C18.2403 98.4717 18.4211 98.9234 18.4363 99.5036C17.6042 103.72 16.9716 107.968 16.5384 112.247C16.2708 111.361 16.1804 110.457 16.2673 109.535C16.4593 105.684 17.0016 101.888 17.894 98.1479Z" fill="#50160D"/>
<path fill-rule="evenodd" clip-rule="evenodd" d="M26.0291 109.535C26.0291 111.704 26.0291 113.873 26.0291 116.042C25.5808 118.835 25.3097 121.727 25.2157 124.718C25.1253 122.73 25.035 120.742 24.9446 118.753C24.8459 114.528 25.2075 111.455 26.0291 109.535Z" fill="#52200C"/>
<path fill-rule="evenodd" clip-rule="evenodd" d="M146.408 122.007C147.467 123.97 148.913 125.597 150.746 126.887C156.53 132.852 162.314 138.817 168.098 144.782C160.734 138.232 153.594 131.364 146.679 124.176C145.975 123.392 145.885 122.669 146.408 122.007Z" fill="#5B1F0E"/>
<path opacity="0.01" fill-rule="evenodd" clip-rule="evenodd" d="M0 125.261C0.722987 125.622 0.722987 125.622 0 125.261Z" fill="#FAEBD1"/>
<path fill-rule="evenodd" clip-rule="evenodd" d="M156.17 77.5424C158.338 79.6192 160.597 81.6076 162.948 83.5071C163.627 84.8704 163.898 86.316 163.761 87.8452C161.05 90.3759 158.339 92.906 155.627 95.4367C148.806 101.443 142.208 107.77 135.835 114.416C135.46 114.924 135.55 115.285 136.106 115.5C136.106 115.681 136.106 115.862 136.106 116.042C134.962 116.559 134.329 117.463 134.208 118.754C133.841 120.771 133.931 122.76 134.479 124.718C134.593 125.49 134.864 126.212 135.293 126.887C138.053 129.923 141.036 132.634 144.24 135.021C151.16 141.398 157.667 148.085 163.761 155.085C163.545 156.005 163.274 156.908 162.948 157.796C159.566 161.541 155.861 164.885 151.831 167.828C151.109 168.189 150.385 168.189 149.662 167.828C148.578 167.105 147.493 166.381 146.409 165.659C137.522 156.591 128.485 147.734 119.296 139.088C116.7 138.612 114.17 138.793 111.705 139.63C104.562 146.141 97.6934 152.919 91.099 159.965C88.0261 162.496 84.9537 165.026 81.8807 167.557C80.7816 167.644 79.697 167.554 78.6272 167.285C75.2831 163.941 71.9396 160.598 68.5955 157.254C68.2338 156.169 68.2338 155.085 68.5955 154C68.8032 153.699 69.0743 153.518 69.4089 153.458C74.4697 148.758 79.35 143.878 84.0497 138.817C88.0261 134.479 92.1835 130.322 96.5216 126.345C97.4087 125.668 98.0415 124.764 98.4195 123.634C98.8354 121.414 98.6548 119.245 97.8772 117.127C93.1748 111.973 88.385 106.912 83.5075 101.944C83.3128 100.929 82.7705 100.116 81.8807 99.5036C83.3269 99.142 83.3269 98.7808 81.8807 98.4191C83.1794 97.256 84.3545 97.3466 85.4054 98.6903C86.0008 97.8948 86.8141 97.4425 87.8455 97.3346C87.1324 96.5782 87.3135 96.0359 88.3878 95.7079C87.4838 95.5273 86.5804 95.3462 85.6765 95.1656C86.1439 93.6831 86.5956 93.5925 87.0321 94.8945C87.993 94.0865 88.0835 93.1826 87.3032 92.1832C87.7506 91.7028 88.2929 91.5222 88.93 91.641C89.0108 91.0705 88.9208 90.5283 88.6589 90.0142C87.8097 89.71 87.0869 90.0717 86.4899 91.0987C86.2187 90.4659 85.767 90.0142 85.1342 89.7431C86.1108 89.5712 86.2914 89.2095 85.6765 88.6586C87.5185 88.6656 89.3259 89.0268 91.099 89.7431C90.5833 90.1324 90.4933 90.5841 90.8279 91.0987C91.2796 90.647 91.7318 90.1948 92.1835 89.7431C91.4352 89.0251 91.2541 88.3023 91.6413 87.5741C92.4194 87.7427 93.1422 87.6527 93.8103 87.3029C94.4333 88.6179 94.795 88.6179 94.8948 87.3029C99.6233 92.033 104.504 96.5516 109.536 100.859C110.074 100.766 110.435 100.947 110.62 101.402C109.949 101.57 109.949 101.841 110.62 102.215C113.779 103.8 117.032 103.98 120.381 102.757C121.529 102.188 122.433 101.375 123.092 100.317C125.984 97.0635 129.057 93.9905 132.31 91.0987C137.957 86.2678 143.379 81.1164 148.578 75.6445C149.95 74.8734 151.396 74.6928 152.916 75.1022C153.791 76.2556 154.876 77.069 156.17 77.5424Z" fill="#F7A876"/>
<path opacity="0.998" fill-rule="evenodd" clip-rule="evenodd" d="M122.55 100.317C122.731 100.317 122.912 100.317 123.093 100.317C122.433 101.375 121.53 102.188 120.381 102.757C117.033 103.98 113.779 103.8 110.621 102.215C109.949 101.841 109.949 101.57 110.621 101.401C114.834 103.785 118.811 103.424 122.55 100.317Z" fill="#FCD99F"/>
<path fill-rule="evenodd" clip-rule="evenodd" d="M204.43 101.402C206.362 112.573 206.543 123.779 204.972 135.021C204.619 134.507 204.438 133.874 204.43 133.123C205.961 123.061 205.78 113.03 203.888 103.028C203.899 102.364 204.079 101.821 204.43 101.402Z" fill="#F9C397"/>
<path fill-rule="evenodd" clip-rule="evenodd" d="M134.479 124.719C137.718 128.139 140.971 131.573 144.24 135.021C141.036 132.634 138.053 129.923 135.293 126.888C134.864 126.212 134.593 125.49 134.479 124.719Z" fill="#FCD49B"/>
<path opacity="0.996" fill-rule="evenodd" clip-rule="evenodd" d="M27.6551 100.317C28.0014 100.641 28.1822 101.092 28.1973 101.673C26.3185 112.22 26.1377 122.794 27.6551 133.394C27.6445 134.059 27.4637 134.601 27.1128 135.021C26.6624 131.779 26.3009 128.525 26.0283 125.261C26.0283 122.188 26.0283 119.115 26.0283 116.042C26.0283 113.873 26.0283 111.704 26.0283 109.535C26.6139 106.536 27.1562 103.463 27.6551 100.317Z" fill="#FAC498"/>
<path opacity="0.01" fill-rule="evenodd" clip-rule="evenodd" d="M230.458 132.31C231.181 132.672 231.181 132.672 230.458 132.31Z" fill="#FAECCF"/>
<path fill-rule="evenodd" clip-rule="evenodd" d="M26.0282 125.261C26.3008 128.526 26.6623 131.779 27.1127 135.021C27.2082 136.771 27.5698 138.398 28.1973 139.902C28.8355 142.997 29.5585 146.069 30.3663 149.12C29.62 148.986 29.1681 148.263 29.0106 146.951C26.4065 139.837 25.4124 132.607 26.0282 125.261Z" fill="#642A15"/>
<path opacity="0.016" fill-rule="evenodd" clip-rule="evenodd" d="M1.62661 136.106C1.26509 136.468 1.26509 136.468 1.62661 136.106Z" fill="#F9EBD2"/>
<path opacity="0.01" fill-rule="evenodd" clip-rule="evenodd" d="M1.08441 137.732C1.66652 138.14 1.75686 138.682 1.35554 139.359C1.09374 138.845 1.00334 138.303 1.08441 137.732Z" fill="#FBEAD1"/>
<path opacity="0.992" fill-rule="evenodd" clip-rule="evenodd" d="M150.746 126.887C157.929 133.256 164.889 139.944 171.623 146.951C171.874 147.273 171.965 147.635 171.894 148.035C170.629 146.951 169.363 145.866 168.098 144.782C162.314 138.817 156.53 132.852 150.746 126.887Z" fill="#F8C291"/>
<path fill-rule="evenodd" clip-rule="evenodd" d="M83.5077 124.719C77.7234 130.864 71.7586 136.829 65.6133 142.613C71.0093 136.394 76.8835 130.249 83.2365 124.176C83.4529 124.3 83.5429 124.481 83.5077 124.719Z" fill="#F9C28F"/>
<path opacity="0.998" fill-rule="evenodd" clip-rule="evenodd" d="M32.5353 153.458C31.7083 152.06 30.9852 150.613 30.3663 149.12C29.5585 146.069 28.8355 142.997 28.1973 139.902C28.1262 139.501 28.2166 139.139 28.4684 138.817C29.7419 143.732 31.0976 148.612 32.5353 153.458Z" fill="#FCC99C"/>
<path fill-rule="evenodd" clip-rule="evenodd" d="M84.5921 124.176C84.6632 124.577 84.5726 124.939 84.321 125.261C76.1715 133.229 68.2182 141.363 60.4618 149.662C58.3742 154.634 58.8264 159.333 61.8175 163.761C59.4717 161.613 58.3872 158.902 58.5639 155.627C58.3514 151.759 59.617 148.506 62.3597 145.866C63.6248 144.962 64.7093 143.878 65.6132 142.613C71.7586 136.829 77.7234 130.864 83.5076 124.719C83.8693 124.538 84.2305 124.357 84.5921 124.176Z" fill="#571E0C"/>
<path opacity="0.01" fill-rule="evenodd" clip-rule="evenodd" d="M1.62646 139.902C2.34945 140.263 2.34945 140.263 1.62646 139.902Z" fill="#F9EBD2"/>
<path opacity="0.01" fill-rule="evenodd" clip-rule="evenodd" d="M229.374 140.444C230.097 140.806 230.097 140.806 229.374 140.444Z" fill="#FCEED1"/>
<path fill-rule="evenodd" clip-rule="evenodd" d="M19.5206 146.951C18.4543 143.408 17.7313 139.793 17.3516 136.106C18.3786 139.034 19.2823 142.378 20.0628 146.138C20.0249 146.552 19.8441 146.824 19.5206 146.951Z" fill="#4C0F07"/>
<path opacity="0.01" fill-rule="evenodd" clip-rule="evenodd" d="M2.71094 146.409C3.43392 146.77 3.43392 146.77 2.71094 146.409Z" fill="#F8E9CE"/>
<path opacity="0.01" fill-rule="evenodd" clip-rule="evenodd" d="M2.16895 147.493C2.89193 147.855 2.89193 147.855 2.16895 147.493Z" fill="#F7E9CF"/>
<path opacity="0.01" fill-rule="evenodd" clip-rule="evenodd" d="M3.25391 148.035C3.97689 148.397 3.97689 148.397 3.25391 148.035Z" fill="#F8EACF"/>
<path fill-rule="evenodd" clip-rule="evenodd" d="M203.888 139.359C203.003 144.542 201.376 149.422 199.008 154C200.722 149.125 202.169 144.154 203.346 139.088C203.636 138.094 203.817 138.184 203.888 139.359Z" fill="#F9C498"/>
<path opacity="0.01" fill-rule="evenodd" clip-rule="evenodd" d="M2.71094 149.12C3.43392 149.482 3.43392 149.482 2.71094 149.12Z" fill="#F6EBCF"/>
<path fill-rule="evenodd" clip-rule="evenodd" d="M84.0491 138.817C79.3493 143.878 74.4691 148.758 69.4082 153.458C73.6058 148.444 78.1244 143.655 82.9646 139.088C83.2867 138.837 83.6483 138.746 84.0491 138.817Z" fill="#F8CF98"/>
<path opacity="0.01" fill-rule="evenodd" clip-rule="evenodd" d="M226.12 154C226.843 154.362 226.843 154.362 226.12 154Z" fill="#F9E7CC"/>
<path fill-rule="evenodd" clip-rule="evenodd" d="M62.3584 145.866C59.6156 148.506 58.35 151.759 58.5626 155.627C58.3858 158.902 59.4703 161.614 61.8161 163.761C61.9967 164.303 62.3584 164.665 62.9006 164.845C63.2314 165.329 63.412 165.871 63.4429 166.472C56.6674 160.945 55.6729 154.438 60.4605 146.951C61.0027 146.409 61.545 145.866 62.0872 145.324C62.3036 145.448 62.3936 145.629 62.3584 145.866Z" fill="#F4BE8F"/>
<path opacity="0.996" fill-rule="evenodd" clip-rule="evenodd" d="M119.295 151.831C126.777 159.585 134.369 167.267 142.07 174.877C142.926 175.47 143.83 175.923 144.781 176.233C145.143 176.594 145.504 176.956 145.866 177.317C144.23 177.132 142.785 176.5 141.528 175.419C133.74 167.45 125.787 159.678 117.668 152.102C116.149 151.693 114.702 151.874 113.33 152.645C109.938 156.311 106.323 159.655 102.485 162.676C106.188 158.522 110.165 154.635 114.415 151.018C116.14 150.694 117.767 150.965 119.295 151.831Z" fill="#FBCF99"/>
<path opacity="0.01" fill-rule="evenodd" clip-rule="evenodd" d="M5.42328 155.627C6.00539 156.034 6.09573 156.576 5.69441 157.254C5.43261 156.74 5.34221 156.197 5.42328 155.627Z" fill="#F7E7CD"/>
<path fill-rule="evenodd" clip-rule="evenodd" d="M119.295 151.831C119.696 151.76 120.057 151.851 120.379 152.102C128.65 160.466 136.784 168.51 144.781 176.232C143.829 175.922 142.925 175.47 142.07 174.877C134.369 167.266 126.777 159.585 119.295 151.831Z" fill="#561A08"/>
<path opacity="0.01" fill-rule="evenodd" clip-rule="evenodd" d="M225.035 157.796C225.758 158.158 225.758 158.158 225.035 157.796Z" fill="#F9EBCF"/>
<path opacity="0.01" fill-rule="evenodd" clip-rule="evenodd" d="M225.036 158.338C224.674 158.7 224.674 158.7 225.036 158.338Z" fill="#FAEAD0"/>
<path opacity="0.01" fill-rule="evenodd" clip-rule="evenodd" d="M5.96484 158.88C6.68783 159.242 6.68783 159.242 5.96484 158.88Z" fill="#F7E6CC"/>
<path opacity="0.01" fill-rule="evenodd" clip-rule="evenodd" d="M5.96548 159.423C5.60396 159.784 5.60396 159.784 5.96548 159.423Z" fill="#F6E7CD"/>
<path opacity="0.01" fill-rule="evenodd" clip-rule="evenodd" d="M5.42188 160.507C5.97769 160.722 6.06809 161.083 5.69301 161.592C5.44124 161.269 5.35085 160.908 5.42188 160.507Z" fill="#F6E6CC"/>
<path opacity="0.996" fill-rule="evenodd" clip-rule="evenodd" d="M31.4518 172.979C30.548 171.894 29.6443 170.81 28.7405 169.725C26.0409 164.149 23.5103 158.546 21.149 152.915C20.7874 151.289 20.426 149.662 20.0645 148.035C23.1129 156.328 26.9087 164.642 31.4518 172.979Z" fill="#52150C"/>
<path opacity="0.01" fill-rule="evenodd" clip-rule="evenodd" d="M7.04981 160.507C7.60562 160.722 7.69602 161.083 7.32094 161.592C7.06917 161.269 6.97878 160.908 7.04981 160.507Z" fill="#F7E7CC"/>
<path opacity="0.01" fill-rule="evenodd" clip-rule="evenodd" d="M7.0498 162.676C7.36258 161.986 7.7241 161.986 8.13431 162.676C7.87956 163.198 7.51804 163.198 7.0498 162.676Z" fill="#F7E7CD"/>
<path fill-rule="evenodd" clip-rule="evenodd" d="M199.008 154C197.788 158.248 195.98 162.224 193.585 165.93C193.291 165.897 193.11 165.716 193.043 165.387C195.194 161.627 197.182 157.831 199.008 154Z" fill="#F5C092"/>
<path opacity="0.996" fill-rule="evenodd" clip-rule="evenodd" d="M62.9014 164.845C65.8388 167.51 68.7311 170.312 71.5774 173.25C76.8639 177.357 82.467 177.809 88.3873 174.606C88.7165 174.673 88.897 174.854 88.9296 175.148C82.6541 178.423 76.6893 177.972 71.0352 173.792C68.5761 171.242 66.0454 168.802 63.4436 166.472C63.4127 165.871 63.2321 165.328 62.9014 164.845Z" fill="#5F2515"/>
<path fill-rule="evenodd" clip-rule="evenodd" d="M91.0992 159.965C88.6792 162.657 86.1485 165.278 83.5077 167.828C82.3174 168.572 81.0518 168.753 79.7119 168.37C80.5567 168.256 81.2796 167.985 81.8809 167.556C84.9539 165.026 88.0263 162.496 91.0992 159.965Z" fill="#591C0D"/>
<path opacity="0.012" fill-rule="evenodd" clip-rule="evenodd" d="M221.239 167.014C221.962 167.376 221.962 167.376 221.239 167.014Z" fill="#F7E6CC"/>
<path opacity="0.01" fill-rule="evenodd" clip-rule="evenodd" d="M220.697 168.099C221.42 168.461 221.42 168.461 220.697 168.099Z" fill="#F8E9CD"/>
<path opacity="0.01" fill-rule="evenodd" clip-rule="evenodd" d="M220.154 169.183C220.877 169.545 220.877 169.545 220.154 169.183Z" fill="#F7E9CC"/>
<path opacity="0.01" fill-rule="evenodd" clip-rule="evenodd" d="M219.613 170.268C220.336 170.629 220.336 170.629 219.613 170.268Z" fill="#F8E9CD"/>
<path opacity="0.01" fill-rule="evenodd" clip-rule="evenodd" d="M12.4712 171.352C12.1585 172.043 11.7969 172.043 11.3867 171.352C11.6415 170.83 12.003 170.83 12.4712 171.352Z" fill="#F6E7CC"/>
<path opacity="0.996" fill-rule="evenodd" clip-rule="evenodd" d="M172.437 161.592C172.324 162.363 172.053 163.086 171.624 163.761C168.502 167.157 165.158 170.23 161.592 172.979C165.222 169.169 168.837 165.373 172.437 161.592Z" fill="#FCC696"/>
<path opacity="0.01" fill-rule="evenodd" clip-rule="evenodd" d="M216.901 175.148C217.624 175.51 217.624 175.51 216.901 175.148Z" fill="#F9E7CD"/>
<path fill-rule="evenodd" clip-rule="evenodd" d="M207.141 160.507C204.594 166.868 201.34 172.833 197.381 178.401C196.825 178.186 196.734 177.825 197.11 177.317C200.74 171.859 204.085 166.256 207.141 160.507Z" fill="#581C11"/>
<path opacity="0.01" fill-rule="evenodd" clip-rule="evenodd" d="M15.1832 176.775C14.8217 177.136 14.8217 177.136 15.1832 176.775Z" fill="#F4E4CA"/>
<path opacity="0.01" fill-rule="evenodd" clip-rule="evenodd" d="M217.444 177.859C218.167 178.221 218.167 178.221 217.444 177.859Z" fill="#F6E7CC"/>
<path opacity="0.016" fill-rule="evenodd" clip-rule="evenodd" d="M18.4355 183.282C19.1585 183.644 19.1585 183.644 18.4355 183.282Z" fill="#F5E7CD"/>
<path opacity="0.01" fill-rule="evenodd" clip-rule="evenodd" d="M211.479 183.824C212.202 184.186 212.202 184.186 211.479 183.824Z" fill="#F8E8CD"/>
<path opacity="0.01" fill-rule="evenodd" clip-rule="evenodd" d="M18.9785 184.366C19.7015 184.728 19.7015 184.728 18.9785 184.366Z" fill="#F4E7CB"/>
<path opacity="0.01" fill-rule="evenodd" clip-rule="evenodd" d="M18.4355 187.62C19.1585 187.982 19.1585 187.982 18.4355 187.62Z" fill="#EEE2C8"/>
<path opacity="0.984" fill-rule="evenodd" clip-rule="evenodd" d="M41.2109 185.993C44.619 189.04 47.8725 192.294 50.9715 195.754C47.1757 193.042 43.9222 189.789 41.2109 185.993Z" fill="#581C0F"/>
<path opacity="0.01" fill-rule="evenodd" clip-rule="evenodd" d="M24.4022 190.874C23.8615 191.531 23.3192 191.441 22.7754 190.602C23.3593 190.348 23.9015 190.438 24.4022 190.874Z" fill="#F3E2C7"/>
<path opacity="0.012" fill-rule="evenodd" clip-rule="evenodd" d="M22.7754 191.958C23.4984 192.32 23.4984 192.32 22.7754 191.958Z" fill="#F1E1C6"/>
<path opacity="0.01" fill-rule="evenodd" clip-rule="evenodd" d="M26.0285 192.5C25.6669 192.862 25.6669 192.862 26.0285 192.5Z" fill="#F1E2C6"/>
<path opacity="0.998" fill-rule="evenodd" clip-rule="evenodd" d="M169.725 192.5C166.275 194.948 162.659 197.117 158.88 199.007C162.036 196.673 165.29 194.414 168.64 192.229C169.149 191.854 169.51 191.944 169.725 192.5Z" fill="#F9C798"/>
<path fill-rule="evenodd" clip-rule="evenodd" d="M28.7397 169.726C29.6435 170.81 30.5472 171.895 31.451 172.979C34.0825 177.78 37.336 182.118 41.2115 185.993C43.9228 189.789 47.1763 193.043 50.9721 195.754C53.0788 198.078 55.4283 200.156 58.0214 201.99C59.7713 203.135 61.5786 204.129 63.4439 204.972C68.2478 208.552 73.4897 211.443 79.1693 213.648C79.1368 213.943 78.9562 214.123 78.6271 214.19C57.4515 205.276 40.9127 190.996 29.0108 171.352C28.749 170.838 28.6586 170.296 28.7397 169.726Z" fill="#F9F4EA"/>
<path opacity="0.01" fill-rule="evenodd" clip-rule="evenodd" d="M203.345 194.669C204.068 195.031 204.068 195.031 203.345 194.669Z" fill="#F2E5CA"/>
<path opacity="0.01" fill-rule="evenodd" clip-rule="evenodd" d="M28.1969 195.211C27.8354 195.573 27.8354 195.573 28.1969 195.211Z" fill="#F2E3C8"/>
<path opacity="0.01" fill-rule="evenodd" clip-rule="evenodd" d="M202.804 195.211C202.984 195.211 203.165 195.211 203.346 195.211C203.246 195.575 203.065 195.575 202.804 195.211Z" fill="#F4E7CB"/>
<path opacity="0.01" fill-rule="evenodd" clip-rule="evenodd" d="M31.9941 200.092C32.7171 200.453 32.7171 200.453 31.9941 200.092Z" fill="#F2E2C8"/>
<path opacity="0.996" fill-rule="evenodd" clip-rule="evenodd" d="M50.9722 195.754C55.2305 198.695 59.388 201.768 63.444 204.972C61.5787 204.129 59.7713 203.135 58.0215 201.99C55.4284 200.156 53.0788 198.078 50.9722 195.754Z" fill="#571B10"/>
<path opacity="0.996" fill-rule="evenodd" clip-rule="evenodd" d="M158.88 199.007C154.1 202.292 148.859 204.641 143.154 206.056C148.036 203.722 153.278 201.372 158.88 199.007Z" fill="#F5C091"/>
<path opacity="0.01" fill-rule="evenodd" clip-rule="evenodd" d="M35.7891 203.887C36.512 204.249 36.512 204.249 35.7891 203.887Z" fill="#F2E3C7"/>
<path opacity="0.01" fill-rule="evenodd" clip-rule="evenodd" d="M194.126 204.43C194.849 204.791 194.849 204.791 194.126 204.43Z" fill="#F5E6C9"/>
<path opacity="0.992" fill-rule="evenodd" clip-rule="evenodd" d="M63.4443 204.972C70.2263 208.39 76.7334 211.643 82.9655 214.732C81.7004 214.371 80.4348 214.01 79.1697 213.648C73.4901 211.443 68.2482 208.551 63.4443 204.972Z" fill="#53190F"/>
<path opacity="0.01" fill-rule="evenodd" clip-rule="evenodd" d="M40.6689 208.226C41.3918 208.587 41.3918 208.587 40.6689 208.226Z" fill="#F1E3C6"/>
<path opacity="0.01" fill-rule="evenodd" clip-rule="evenodd" d="M42.2949 209.31C43.0177 209.672 43.0177 209.672 42.2949 209.31Z" fill="#F1E2C6"/>
<path fill-rule="evenodd" clip-rule="evenodd" d="M130.684 209.31C127.987 209.67 125.276 209.851 122.55 209.853C124.526 209.342 126.605 208.981 128.786 208.768C129.537 208.776 130.169 208.957 130.684 209.31Z" fill="#FDD0A2"/>
<path opacity="0.01" fill-rule="evenodd" clip-rule="evenodd" d="M187.621 209.852C188.343 210.214 188.343 210.214 187.621 209.852Z" fill="#F2E3C8"/>
<path opacity="0.01" fill-rule="evenodd" clip-rule="evenodd" d="M44.4644 210.395C44.2491 210.951 43.888 211.041 43.3799 210.666C43.702 210.414 44.0637 210.324 44.4644 210.395Z" fill="#F0E1C5"/>
<path opacity="0.024" fill-rule="evenodd" clip-rule="evenodd" d="M187.078 210.395C187.258 210.395 187.439 210.395 187.62 210.395C187.52 210.758 187.338 210.758 187.078 210.395Z" fill="#F5E1C3"/>
<path opacity="0.01" fill-rule="evenodd" clip-rule="evenodd" d="M47.1758 213.106C47.8986 213.468 47.8986 213.468 47.1758 213.106Z" fill="#EFE0C6"/>
<path opacity="0.012" fill-rule="evenodd" clip-rule="evenodd" d="M49.3455 214.733C48.9838 214.01 48.9838 214.01 49.3455 214.733Z" fill="#F3E3C8"/>
<path opacity="0.996" fill-rule="evenodd" clip-rule="evenodd" d="M164.302 207.683C158.661 211.435 152.515 214.146 145.865 215.817C151.762 213.396 157.907 210.685 164.302 207.683Z" fill="#51160F"/>
<path opacity="0.016" fill-rule="evenodd" clip-rule="evenodd" d="M49.3447 214.732C50.0676 215.094 50.0676 215.094 49.3447 214.732Z" fill="#F3E2C7"/>
<path opacity="0.01" fill-rule="evenodd" clip-rule="evenodd" d="M54.2263 217.444C53.8647 217.806 53.8647 217.806 54.2263 217.444Z" fill="#F2E1C6"/>
<path fill-rule="evenodd" clip-rule="evenodd" d="M91.0986 217.444C91.4224 217.097 91.8741 216.917 92.4543 216.902C102.639 219.046 112.852 220.131 123.092 220.155C112.282 220.751 101.618 219.847 91.0986 217.444Z" fill="#51170F"/>
<path fill-rule="evenodd" clip-rule="evenodd" d="M144.782 216.359C142.29 217.072 139.76 217.615 137.19 217.986C139.021 217.119 141.281 216.396 143.969 215.817C144.383 215.855 144.655 216.036 144.782 216.359Z" fill="#440603"/>
<path opacity="0.996" fill-rule="evenodd" clip-rule="evenodd" d="M132.852 219.071C130.871 219.31 128.882 219.492 126.888 219.613C126.317 219.694 125.775 219.604 125.261 219.342C127.159 219.071 129.057 218.8 130.954 218.529C131.705 218.536 132.338 218.717 132.852 219.071Z" fill="#490A03"/>
<path opacity="0.01" fill-rule="evenodd" clip-rule="evenodd" d="M176.233 218.529C176.956 218.89 176.956 218.89 176.233 218.529Z" fill="#F2E3C6"/>
<path opacity="0.01" fill-rule="evenodd" clip-rule="evenodd" d="M56.3945 219.071C57.1174 219.432 57.1174 219.432 56.3945 219.071Z" fill="#EDDFC2"/>
<path opacity="0.01" fill-rule="evenodd" clip-rule="evenodd" d="M174.605 219.071C175.328 219.432 175.328 219.432 174.605 219.071Z" fill="#F1E2C5"/>
<path opacity="0.01" fill-rule="evenodd" clip-rule="evenodd" d="M178.401 219.071C179.124 219.432 179.124 219.432 178.401 219.071Z" fill="#EEE0C5"/>
<path opacity="0.02" fill-rule="evenodd" clip-rule="evenodd" d="M61.8164 222.324C62.5392 222.686 62.5392 222.686 61.8164 222.324Z" fill="#F3E2C7"/>
<path opacity="0.01" fill-rule="evenodd" clip-rule="evenodd" d="M59.6484 222.866C60.3713 223.228 60.3713 223.228 59.6484 222.866Z" fill="#ECE0C3"/>
<path opacity="0.01" fill-rule="evenodd" clip-rule="evenodd" d="M168.099 222.866C168.821 223.228 168.821 223.228 168.099 222.866Z" fill="#F4E6CA"/>
<path opacity="0.01" fill-rule="evenodd" clip-rule="evenodd" d="M60.7334 223.409C61.4562 223.77 61.4562 223.77 60.7334 223.409Z" fill="#ECDFC3"/>
<path opacity="0.01" fill-rule="evenodd" clip-rule="evenodd" d="M63.4443 223.951C63.6596 223.395 64.0208 223.305 64.5288 223.68C64.2067 223.931 63.8451 224.022 63.4443 223.951Z" fill="#F1E1C7"/>
<path opacity="0.01" fill-rule="evenodd" clip-rule="evenodd" d="M70.4941 226.662C71.217 227.024 71.217 227.024 70.4941 226.662Z" fill="#F1E1C5"/>
<path opacity="0.01" fill-rule="evenodd" clip-rule="evenodd" d="M72.1201 226.662C72.1201 226.843 72.1201 227.024 72.1201 227.204C71.7568 226.944 71.7568 226.762 72.1201 226.662Z" fill="#F2E4C7"/>
<path opacity="0.012" fill-rule="evenodd" clip-rule="evenodd" d="M72.1201 227.205C72.5208 227.134 72.8825 227.224 73.2046 227.476C72.6965 227.851 72.3354 227.76 72.1201 227.205Z" fill="#F3E4C9"/>
<path opacity="0.012" fill-rule="evenodd" clip-rule="evenodd" d="M73.7461 227.747C74.4689 228.108 74.4689 228.108 73.7461 227.747Z" fill="#F0E0C6"/>
<path opacity="0.01" fill-rule="evenodd" clip-rule="evenodd" d="M80.7957 229.916C80.7897 231.101 80.2475 231.553 79.1689 231.271C79.8918 230.91 79.8918 230.549 79.1689 230.187C79.683 229.925 80.2253 229.835 80.7957 229.916Z" fill="#F1E2C7"/>
<path opacity="0.01" fill-rule="evenodd" clip-rule="evenodd" d="M149.663 230.458C150.386 230.82 150.386 230.82 149.663 230.458Z" fill="#F4E4C9"/>
<path opacity="0.012" fill-rule="evenodd" clip-rule="evenodd" d="M84.0496 231.542C83.6879 230.819 83.6879 230.819 84.0496 231.542Z" fill="#F5E5C9"/>
<path opacity="0.01" fill-rule="evenodd" clip-rule="evenodd" d="M148.578 231C149.301 231.362 149.301 231.362 148.578 231Z" fill="#F1E3C8"/>
<path opacity="0.01" fill-rule="evenodd" clip-rule="evenodd" d="M82.4229 231.542C83.1457 231.904 83.1457 231.904 82.4229 231.542Z" fill="#F1E4C6"/>
<path opacity="0.012" fill-rule="evenodd" clip-rule="evenodd" d="M84.0498 231.542C84.7726 231.542 85.496 231.542 86.2188 231.542C86.2188 231.723 86.2188 231.904 86.2188 232.085C85.3518 232.23 84.6289 232.049 84.0498 231.542Z" fill="#F3E4C9"/>
<path opacity="0.01" fill-rule="evenodd" clip-rule="evenodd" d="M145.865 231.542C146.588 231.904 146.588 231.904 145.865 231.542Z" fill="#F4E6C9"/>
<path opacity="0.014" fill-rule="evenodd" clip-rule="evenodd" d="M86.2188 232.085C86.6195 232.014 86.9812 232.104 87.3033 232.356C86.7952 232.731 86.434 232.641 86.2188 232.085Z" fill="#F2E3C8"/>
<path opacity="0.01" fill-rule="evenodd" clip-rule="evenodd" d="M142.613 232.085C143.184 232.004 143.726 232.094 144.24 232.356C143.563 232.757 143.021 232.667 142.613 232.085Z" fill="#F5E5C8"/>
<path opacity="0.01" fill-rule="evenodd" clip-rule="evenodd" d="M137.733 233.169C138.134 233.098 138.496 233.189 138.818 233.441C138.31 233.816 137.949 233.725 137.733 233.169Z" fill="#F1E1C8"/>
<path opacity="0.01" fill-rule="evenodd" clip-rule="evenodd" d="M95.9786 233.712C95.3816 234.307 94.6587 234.398 93.8096 233.983C94.5107 233.717 95.2341 233.626 95.9786 233.712Z" fill="#F3E4CB"/>
<path opacity="0.01" fill-rule="evenodd" clip-rule="evenodd" d="M92.1836 234.254C92.9064 234.616 92.9064 234.616 92.1836 234.254Z" fill="#F0E2C7"/>
<path opacity="0.01" fill-rule="evenodd" clip-rule="evenodd" d="M99.2328 234.796C98.4009 235.177 97.497 235.087 96.5215 234.525C97.5447 234.102 98.4487 234.193 99.2328 234.796Z" fill="#F3E4CA"/>
<path opacity="0.01" fill-rule="evenodd" clip-rule="evenodd" d="M135.021 234.254C135.744 234.616 135.744 234.616 135.021 234.254Z" fill="#F3E4C8"/>
<path opacity="0.01" fill-rule="evenodd" clip-rule="evenodd" d="M99.2334 234.796C99.9562 235.158 99.9562 235.158 99.2334 234.796Z" fill="#F2E3C8"/>
<path opacity="0.01" fill-rule="evenodd" clip-rule="evenodd" d="M101.401 235.338C101.809 234.756 102.351 234.666 103.028 235.067C102.514 235.329 101.972 235.419 101.401 235.338Z" fill="#F4E5C9"/>
<path opacity="0.01" fill-rule="evenodd" clip-rule="evenodd" d="M128.515 234.796C129.237 235.158 129.237 235.158 128.515 234.796Z" fill="#F3E4C8"/>
<path opacity="0.01" fill-rule="evenodd" clip-rule="evenodd" d="M129.598 234.796C130.321 235.158 130.321 235.158 129.598 234.796Z" fill="#F3E5C9"/>
<path opacity="0.01" fill-rule="evenodd" clip-rule="evenodd" d="M100.317 235.338C101.04 235.7 101.04 235.7 100.317 235.338Z" fill="#F2E4C8"/>
<path opacity="0.01" fill-rule="evenodd" clip-rule="evenodd" d="M104.654 235.881C105.251 235.285 105.974 235.195 106.823 235.609C106.122 235.875 105.399 235.966 104.654 235.881Z" fill="#F2E3CA"/>
<path opacity="0.01" fill-rule="evenodd" clip-rule="evenodd" d="M107.366 235.338C107.922 235.554 108.013 235.915 107.637 236.423C107.386 236.101 107.295 235.739 107.366 235.338Z" fill="#F4E3C9"/>
<path opacity="0.01" fill-rule="evenodd" clip-rule="evenodd" d="M113.874 235.338C115.904 235.316 115.994 235.678 114.145 236.423C113.894 236.101 113.803 235.739 113.874 235.338Z" fill="#F3E3C8"/>
<path opacity="0.01" fill-rule="evenodd" clip-rule="evenodd" d="M116.585 235.338C117.107 235.806 117.107 236.168 116.585 236.423C115.895 236.012 115.895 235.651 116.585 235.338Z" fill="#F4E4C7"/>
<path opacity="0.01" fill-rule="evenodd" clip-rule="evenodd" d="M119.295 235.88C119.702 235.298 120.244 235.208 120.922 235.609C120.408 235.871 119.865 235.961 119.295 235.88Z" fill="#F5E4CA"/>
<path opacity="0.01" fill-rule="evenodd" clip-rule="evenodd" d="M122.008 235.881C122.605 235.285 123.328 235.195 124.177 235.609C123.476 235.875 122.752 235.966 122.008 235.881Z" fill="#F4E3C9"/>
<path opacity="0.01" fill-rule="evenodd" clip-rule="evenodd" d="M104.656 235.881C104.294 236.242 104.294 236.242 104.656 235.881Z" fill="#F2E3C8"/>
<path opacity="0.01" fill-rule="evenodd" clip-rule="evenodd" d="M122.55 236.423C123.273 236.785 123.273 236.785 122.55 236.423Z" fill="#F1E1C5"/>
</svg>
