<svg width="231" height="262" viewBox="0 0 231 262" fill="none" xmlns="http://www.w3.org/2000/svg">
<path opacity="0.01" fill-rule="evenodd" clip-rule="evenodd" d="M95 0.918036C95.397 -0.106964 96.063 -0.273664 97 0.418036C96.406 0.882336 95.739 1.04904 95 0.918036Z" fill="#F7DEC3"/>
<path opacity="0.01" fill-rule="evenodd" clip-rule="evenodd" d="M137 4.91797C138.333 5.58467 138.333 5.58467 137 4.91797V4.91797Z" fill="#F7DFC6"/>
<path opacity="0.01" fill-rule="evenodd" clip-rule="evenodd" d="M67.0002 8.91794C66.3332 7.58464 66.3332 7.58464 67.0002 8.91794V8.91794Z" fill="#F6DEC2"/>
<path opacity="0.01" fill-rule="evenodd" clip-rule="evenodd" d="M153 11.918C154.333 12.5847 154.333 12.5847 153 11.918V11.918Z" fill="#F6DDC3"/>
<path opacity="0.01" fill-rule="evenodd" clip-rule="evenodd" d="M156 14.918C157.333 15.5847 157.333 15.5847 156 14.918V14.918Z" fill="#F6DCC2"/>
<path opacity="0.01" fill-rule="evenodd" clip-rule="evenodd" d="M158 15.918C159.333 16.5847 159.333 16.5847 158 15.918V15.918Z" fill="#F9DEC3"/>
<path opacity="0.01" fill-rule="evenodd" clip-rule="evenodd" d="M201 27.918C202.333 28.5847 202.333 28.5847 201 27.918V27.918Z" fill="#F6E1C6"/>
<path opacity="0.01" fill-rule="evenodd" clip-rule="evenodd" d="M13 64.918C12.667 64.918 12.333 64.918 12 64.918C12.333 62.2513 12.667 62.2513 13 64.918Z" fill="#F9DFC4"/>
<path opacity="0.01" fill-rule="evenodd" clip-rule="evenodd" d="M12.0002 64.918C11.3332 65.585 11.3332 65.585 12.0002 64.918V64.918Z" fill="#FAE0C5"/>
<path opacity="0.01" fill-rule="evenodd" clip-rule="evenodd" d="M225 75.918C226.333 76.585 226.333 76.585 225 75.918V75.918Z" fill="#FBE9D1"/>
<path opacity="0.012" fill-rule="evenodd" clip-rule="evenodd" d="M220 77.9182C219.333 76.5852 219.333 76.5852 220 77.9182V77.9182Z" fill="#F9E7CE"/>
<path opacity="0.01" fill-rule="evenodd" clip-rule="evenodd" d="M229 81.918C230.333 82.585 230.333 82.585 229 81.918V81.918Z" fill="#FAE5D0"/>
<path opacity="0.01" fill-rule="evenodd" clip-rule="evenodd" d="M230 87.918C231.333 88.585 231.333 88.585 230 87.918V87.918Z" fill="#FAE8D2"/>
<path opacity="0.01" fill-rule="evenodd" clip-rule="evenodd" d="M3 94.918C4.333 95.585 4.333 95.585 3 94.918V94.918Z" fill="#FCE2C7"/>
<path opacity="0.01" fill-rule="evenodd" clip-rule="evenodd" d="M0 105.918C1.333 106.585 1.333 106.585 0 105.918V105.918Z" fill="#FBE7CB"/>
<path opacity="0.01" fill-rule="evenodd" clip-rule="evenodd" d="M214 105.918C213.603 106.943 212.937 107.11 212 106.418C212.594 105.954 213.261 105.787 214 105.918Z" fill="#F9E2C9"/>
<path opacity="0.01" fill-rule="evenodd" clip-rule="evenodd" d="M5.00025 120.918C4.33325 119.585 4.33325 119.585 5.00025 120.918V120.918Z" fill="#FCE5CB"/>
<path opacity="0.01" fill-rule="evenodd" clip-rule="evenodd" d="M5 120.918C5.333 120.918 5.667 120.918 6 120.918C5.815 121.588 5.481 121.588 5 120.918Z" fill="#FEE7CC"/>
<path opacity="0.01" fill-rule="evenodd" clip-rule="evenodd" d="M227 126.918C228.333 127.585 228.333 127.585 227 126.918V126.918Z" fill="#FCE6CC"/>
<path opacity="0.01" fill-rule="evenodd" clip-rule="evenodd" d="M227 131.918C228.333 132.585 228.333 132.585 227 131.918V131.918Z" fill="#FCE6CC"/>
<path opacity="0.01" fill-rule="evenodd" clip-rule="evenodd" d="M227 133.918C228.098 135.019 228.265 136.352 227.5 137.918C227.01 136.625 226.843 135.291 227 133.918Z" fill="#FBE6CD"/>
<path opacity="0.01" fill-rule="evenodd" clip-rule="evenodd" d="M4.00023 136.918C5.02523 137.315 5.19223 137.981 4.50023 138.918C4.03623 138.324 3.86923 137.657 4.00023 136.918Z" fill="#FCE8D0"/>
<path opacity="0.01" fill-rule="evenodd" clip-rule="evenodd" d="M195 152.918C196.333 153.585 196.333 153.585 195 152.918V152.918Z" fill="#FCE8D0"/>
<path opacity="0.01" fill-rule="evenodd" clip-rule="evenodd" d="M225 163.918C226.333 164.585 226.333 164.585 225 163.918V163.918Z" fill="#FCE5CC"/>
<path opacity="0.01" fill-rule="evenodd" clip-rule="evenodd" d="M19.0002 167.918C18.3332 168.585 18.3332 168.585 19.0002 167.918V167.918Z" fill="#FBEAD2"/>
<path opacity="0.993" fill-rule="evenodd" clip-rule="evenodd" d="M182 40.9182C182 41.5849 182.333 41.9182 183 41.9182C183.333 43.2515 183.667 43.2515 184 41.9182C187.935 29.8815 195.602 26.7148 207 32.4182C208.287 33.8277 209.454 35.3277 210.5 36.9182C211.872 41.0965 212.372 45.2632 212 49.4182C209.637 50.0067 208.637 51.5067 209 53.9182C210.291 54.1555 211.291 53.8222 212 52.9182C217.927 49.7877 223.427 52.121 228.5 59.9182C229.114 62.2968 229.447 64.6302 229.5 66.9182C226.935 71.6612 223.102 74.6612 218 75.9182C217.781 77.0932 218.114 78.0932 219 78.9182C219.607 78.7942 219.94 78.4612 220 77.9182C224.482 80.5562 227.816 84.2232 230 88.9182C230.427 93.7302 229.094 97.8962 226 101.418C226.333 101.751 226.667 102.085 227 102.418C224.984 102.615 222.984 103.615 221 105.418C218.69 105.915 216.357 106.081 214 105.918C212.932 104.984 211.599 104.65 210 104.918C209.667 103.585 209.333 103.585 209 104.918C208.103 103.82 207.27 103.82 206.5 104.918C206.192 104.11 205.692 103.443 205 102.918C201.959 108.358 197.459 112.024 191.5 113.918C193.061 122.68 194.561 131.513 196 140.418C194.359 157.85 187.692 173.016 176 185.918C175.211 186.201 174.544 186.701 174 187.418C184.27 194.499 189.937 203.999 191 215.918C190.397 239.497 178.064 252.497 154 254.918C152.853 255.236 152.019 255.902 151.5 256.918C151.251 255.794 150.751 254.794 150 253.918C149.393 254.042 149.06 254.375 149 254.918C147.647 256.601 145.98 257.934 144 258.918C138.731 260.067 133.398 260.901 128 261.418C107.669 261.918 87.3361 262.085 67.0001 261.918C60.6591 261.831 54.6591 260.498 49.0001 257.918C44.0121 253.925 39.0121 249.925 34.0001 245.918C28.3591 242.273 23.3591 237.94 19.0001 232.918C6.89807 213.151 9.89808 195.984 28.0001 181.418C31.2051 179.316 34.5381 177.483 38.0001 175.918C37.5431 175.12 36.8761 174.787 36.0001 174.918C35.6671 173.585 35.3331 173.585 35.0001 174.918C34.6671 174.918 34.3331 174.918 34.0001 174.918C28.9321 172.949 23.9321 170.615 19.0001 167.918C5.66007 154.948 2.32707 139.781 9.00007 122.418C7.97307 121.905 6.97307 121.405 6.00007 120.918C2.26107 115.152 1.09407 108.819 2.50007 101.918C4.16707 98.2512 5.83307 94.5852 7.50007 90.9182C8.40907 82.0332 10.2421 73.3662 13.0001 64.9182C23.8331 39.179 41.8331 20.5123 67.0001 8.9182C112.749 -7.3926 151.083 3.2741 182 40.9182Z" fill="#FFF9F5"/>
<path fill-rule="evenodd" clip-rule="evenodd" d="M176 155.918C174.012 163.881 170.012 170.548 164 175.918C163.562 175.983 163.228 175.817 163 175.418C168.664 169.1 172.997 162.6 176 155.918Z" fill="#F9E3B6"/>
<path opacity="0.999" fill-rule="evenodd" clip-rule="evenodd" d="M102 131.918C102 132.585 102.333 132.918 103 132.918C104.068 133.852 105.401 134.186 107 133.918C107.149 134.97 106.983 135.97 106.5 136.918C105.433 135.135 103.933 134.635 102 135.418C102.647 137.027 103.48 138.527 104.5 139.918C105.167 138.585 105.833 138.585 106.5 139.918C106.833 139.251 107.167 138.585 107.5 137.918C108.362 139.505 109.029 141.172 109.5 142.918C112.234 142.056 112.401 141.223 110 140.418C112.262 139.776 114.429 138.943 116.5 137.918C119.268 138.626 120.101 140.126 119 142.418C121.473 143.82 121.473 145.32 119 146.918C117.43 146.724 115.93 146.724 114.5 146.918C113.296 145.947 112.796 144.947 113 143.918C111.229 144.453 110.896 145.287 112 146.418C108.947 146.597 105.947 147.097 103 147.918C102.257 148.6 101.591 149.267 101 149.918C97.3298 149.745 94.8298 151.411 93.4998 154.918C93.0898 169.505 99.9228 178.672 114 182.418C129.05 184.226 139.717 178.226 146 164.418C145.93 163.653 145.597 163.153 145 162.918C145 160.251 145 157.585 145 154.918C144.547 153.96 143.881 153.126 143 152.418C140.354 151.921 137.687 151.754 135 151.918C137.131 151.104 139.464 150.604 142 150.418C132.006 149.918 122.006 149.752 112 149.918C122.261 148.927 132.595 148.427 143 148.418C141.108 147.445 139.108 146.778 137 146.418C138.769 145.399 140.436 145.232 142 145.918C142.762 144.79 143.429 143.623 144 142.418C143.163 141.407 142.83 140.24 143 138.918C147.563 138.195 151.896 137.528 156 136.918C155.035 135.504 154.035 134.671 153 134.418C153.405 133.473 154.072 132.806 155 132.418C153.252 132.338 151.585 131.505 150 129.918C152.708 127.982 155.708 127.482 159 128.418C161.421 131.681 163.754 132.514 166 130.918C166.333 129.918 167 129.251 168 128.918C170.57 131.737 173.237 132.404 176 130.918C177.436 136.265 178.436 141.599 179 146.918C178.14 150.05 177.14 153.05 176 155.918C172.997 162.6 168.664 169.1 163 175.418C163.228 175.817 163.562 175.983 164 175.918C158.461 180.858 152.127 184.524 145 186.918C144.583 186.294 143.916 185.961 143 185.918C130.246 187.811 117.579 189.144 105 189.918C97.3918 189.479 90.0588 188.145 82.9998 185.918C79.5868 183.946 75.5868 181.779 70.9998 179.418C74.7128 178.255 74.7128 176.755 70.9998 174.918C71.8648 174.854 72.8648 174.521 73.9998 173.918C75.0208 173.416 75.1878 172.75 74.4998 171.918C73.9388 172.44 73.2718 172.773 72.4998 172.918C70.6548 171.662 68.6548 170.662 66.4998 169.918C64.2268 170.919 63.0598 169.919 62.9998 166.918C63.5098 165.33 64.5098 164.163 65.9998 163.418C62.7218 161.77 59.5548 159.937 56.4998 157.918C54.8088 160.127 54.9758 161.96 56.9998 163.418C50.5398 164.001 48.2068 161.168 49.9998 154.918C48.8488 153.687 47.6828 153.687 46.4998 154.918C45.8828 153.969 46.0488 153.136 46.9998 152.418C45.1058 151.317 44.4388 149.984 44.9998 148.418C46.7768 146.266 48.2768 146.433 49.4998 148.918C51.1668 148.251 52.8328 147.585 54.4998 146.918C56.3408 150.601 58.6738 153.934 61.4998 156.918C63.1508 154.197 64.8178 153.864 66.4998 155.918C68.8008 154.742 69.1338 153.408 67.4998 151.918C66.1118 152.972 64.6118 153.138 62.9998 152.418C64.3208 150.414 66.6538 148.914 69.9998 147.918C70.6888 145.974 71.1888 143.974 71.4998 141.918C71.8328 142.585 72.1668 143.251 72.4998 143.918C72.7268 141.358 74.0598 139.692 76.4998 138.918C77.1668 141.585 77.8328 141.585 78.4998 138.918C79.1578 140.526 78.6578 141.693 76.9998 142.418C80.4718 144.057 83.8058 143.724 86.9998 141.418C84.7048 140.434 85.0388 139.601 87.9998 138.918C88.5858 139.127 89.0858 139.461 89.4998 139.918C89.8088 138.652 90.3088 137.485 90.9998 136.418C90.3328 136.085 89.6668 135.751 88.9998 135.418C89.3328 134.418 89.6668 133.418 89.9998 132.418C88.0428 132.761 86.3768 132.595 84.9998 131.918C87.0668 129.551 89.7338 128.218 92.9998 127.918C96.4158 128.462 99.4158 129.796 102 131.918Z" fill="#FEC195"/>
<path fill-rule="evenodd" clip-rule="evenodd" d="M145 154.918C145 157.585 145 160.251 145 162.918C144.149 165.3 142.816 167.3 141 168.918C143.136 164.376 144.469 159.709 145 154.918Z" fill="#2C0603"/>
<path fill-rule="evenodd" clip-rule="evenodd" d="M135 151.918C137.687 151.754 140.354 151.921 143 152.418C143.881 153.126 144.547 153.96 145 154.918C144.469 159.709 143.136 164.376 141 168.918C136.348 177.17 129.181 181.504 119.5 181.918C103.265 180.026 95.2651 171.026 95.5001 154.918C95.9651 153.487 96.7991 152.321 98.0001 151.418C110.323 151.511 122.656 151.678 135 151.918Z" fill="#642818"/>
<path opacity="0.999" fill-rule="evenodd" clip-rule="evenodd" d="M110 160.918C117.747 160.315 124.58 162.315 130.5 166.918C131.687 168.462 132.02 170.129 131.5 171.918C122.457 178.464 113.624 177.964 105 170.418C102.852 168.343 102.518 166.01 104 163.418C106.223 162.852 108.223 162.018 110 160.918Z" fill="#C95B38"/>
<path fill-rule="evenodd" clip-rule="evenodd" d="M181 104.918C180.834 110.262 181.001 115.595 181.5 120.918C188.553 140.209 185.886 158.209 173.5 174.918C169.088 179.836 164.255 184.169 159 187.918C167.812 192.529 174.646 199.196 179.5 207.918C183.131 217.006 182.297 225.673 177 233.918C176.457 233.858 176.124 233.525 176 232.918C181.483 223.1 181.316 213.434 175.5 203.918C175.467 209.102 175.967 214.269 177 219.418C176.833 220.918 176.667 222.418 176.5 223.918C176.317 221.053 175.817 218.387 175 215.918C175 215.585 175 215.251 175 214.918C174.953 211.49 173.787 208.49 171.5 205.918C168.464 202.714 165.297 199.714 162 196.918C161.765 196.321 161.265 195.988 160.5 195.918C157.662 198.091 154.829 200.257 152 202.418C151.063 203.11 150.397 202.943 150 201.918C152.901 200.626 155.234 198.626 157 195.918C155.247 194.157 153.247 192.824 151 191.918C147.382 192.764 143.715 193.098 140 192.918C140.129 194.634 140.462 196.301 141 197.918C139.691 197.552 138.691 196.219 138 193.918C137.414 194.127 136.914 194.461 136.5 194.918C136.325 197.575 136.492 200.242 137 202.918C135.83 200.768 134.83 198.434 134 195.918C131.054 194.763 128.054 194.597 125 195.418C123.678 199.729 121.345 203.395 118 206.418C116.155 207.546 114.155 208.046 112 207.918C117.682 205.897 121.349 201.897 123 195.918C122.135 195.854 121.135 195.521 120 194.918C117.845 201.921 113.179 205.088 106 204.418C107.558 204.208 108.891 203.708 110 202.918C112.698 202.573 114.698 201.24 116 198.918C116.978 198.607 117.645 197.94 118 196.918C114.732 195.931 111.398 195.598 108 195.918C105.381 196.186 102.881 195.853 100.5 194.918C100.017 195.866 99.8509 196.866 99.9999 197.918C99.6899 199.156 99.1899 199.156 98.4999 197.918C98.0099 196.625 97.8429 195.291 97.9999 193.918C110.751 194.147 123.418 193.314 136 191.418C132.144 191.241 128.477 190.741 125 189.918C131.763 189.561 138.43 188.561 145 186.918C152.127 184.524 158.461 180.858 164 175.918C170.012 170.548 174.012 163.881 176 155.918C177.14 153.05 178.14 150.05 179 146.918C180.011 143.306 180.178 139.639 179.5 135.918C177.088 131.602 175.921 126.935 176 121.918C177.068 125.037 178.902 127.704 181.5 129.918C181.815 128.51 181.482 127.177 180.5 125.918C179.679 118.739 179.845 111.739 181 104.918Z" fill="#582016"/>
<path opacity="0.998" fill-rule="evenodd" clip-rule="evenodd" d="M21.0002 121.918C18.9992 124.586 17.4992 127.586 16.5002 130.918C16.2622 136.453 16.0962 141.786 16.0002 146.918C14.9212 140.969 14.7542 134.969 15.5002 128.918C16.4352 125.823 18.2692 123.489 21.0002 121.918Z" fill="#290D08"/>
<path fill-rule="evenodd" clip-rule="evenodd" d="M34 124.918C33.333 124.918 33 124.585 33 123.918C30.351 122.309 27.351 121.475 24 121.418C25.172 120.999 26.172 120.333 27 119.418C26.772 119.019 26.438 118.853 26 118.918C24.667 118.251 23.333 117.585 22 116.918C22.597 116.683 22.93 116.183 23 115.418C20.585 113.558 20.585 111.892 23 110.418C21.442 110.208 20.109 109.708 19 108.918C20.667 108.918 22.333 108.918 24 108.918C26.265 109.76 28.598 109.427 31 107.918C31.929 109.107 32.262 110.44 32 111.918C38.589 110.284 45.255 108.617 52 106.918C50.757 112.117 49.757 117.45 49 122.918C45.233 121.814 41.567 121.981 38 123.418C39.333 124.085 40.667 124.751 42 125.418C43.196 126.072 43.196 126.572 42 126.918C39.893 125.781 37.727 124.781 35.5 123.918C34.735 123.988 34.235 124.321 34 124.918Z" fill="#753320"/>
<path fill-rule="evenodd" clip-rule="evenodd" d="M174 111.918C174.049 115.496 174.715 118.829 176 121.918C175.921 126.935 177.088 131.602 179.5 135.918C180.178 139.639 180.011 143.306 179 146.918C178.436 141.599 177.436 136.265 176 130.918C173.721 124.595 173.054 118.262 174 111.918Z" fill="#F7DFB2"/>
<path opacity="0.999" fill-rule="evenodd" clip-rule="evenodd" d="M93 100.918C115.501 100.892 138.168 101.558 161 102.918C163.196 102.913 165.196 102.58 167 101.918C168.967 101.679 170.801 102.012 172.5 102.918C173.196 105.896 173.696 108.896 174 111.918C173.054 118.262 173.721 124.595 176 130.918C173.237 132.404 170.57 131.737 168 128.918C168.912 127.68 169.079 126.346 168.5 124.918C166.989 122.556 165.489 120.223 164 117.918C164.438 117.983 164.772 117.817 165 117.418C158.412 112.92 151.745 112.92 145 117.418C145.228 117.817 145.562 117.983 146 117.918C144.373 120.048 142.54 122.048 140.5 123.918C140.014 129.41 142.514 131.243 148 129.418C149.797 127.186 152.13 126.02 155 125.918C158.911 127.191 162.577 128.858 166 130.918C163.754 132.514 161.421 131.681 159 128.418C155.708 127.482 152.708 127.982 150 129.918C151.585 131.505 153.252 132.338 155 132.418C154.072 132.806 153.405 133.473 153 134.418C154.035 134.671 155.035 135.504 156 136.918C151.896 137.528 147.563 138.195 143 138.918C142.83 140.24 143.163 141.407 144 142.418C143.429 143.623 142.762 144.79 142 145.918C140.436 145.232 138.769 145.399 137 146.418C139.108 146.778 141.108 147.445 143 148.418C132.595 148.427 122.261 148.927 112 149.918C108.333 149.918 104.667 149.918 101 149.918C101.591 149.267 102.257 148.6 103 147.918C105.947 147.097 108.947 146.597 112 146.418C110.896 145.287 111.229 144.453 113 143.918C112.796 144.947 113.296 145.947 114.5 146.918C115.93 146.724 117.43 146.724 119 146.918C121.473 145.32 121.473 143.82 119 142.418C120.101 140.126 119.268 138.626 116.5 137.918C114.429 138.943 112.262 139.776 110 140.418C112.401 141.223 112.234 142.056 109.5 142.918C109.029 141.172 108.362 139.505 107.5 137.918C107.167 138.585 106.833 139.251 106.5 139.918C105.833 138.585 105.167 138.585 104.5 139.918C103.48 138.527 102.647 137.027 102 135.418C103.933 134.635 105.433 135.135 106.5 136.918C106.983 135.97 107.149 134.97 107 133.918C105.401 134.186 104.068 133.852 103 132.918C107.585 133.826 109.918 131.993 110 127.418C109.905 123.563 108.238 120.563 105 118.418C104.063 117.726 103.397 117.893 103 118.918C91.05 114.347 81.717 117.347 75 127.918C73.687 129.359 73.687 131.525 75 134.418C78.692 135.075 82.025 134.242 85 131.918C86.377 132.595 88.043 132.761 90 132.418C89.667 133.418 89.333 134.418 89 135.418C89.667 135.751 90.333 136.085 91 136.418C90.309 137.485 89.809 138.652 89.5 139.918C89.086 139.461 88.586 139.127 88 138.918C85.039 139.601 84.705 140.434 87 141.418C83.806 143.724 80.472 144.057 77 142.418C78.658 141.693 79.158 140.526 78.5 138.918C77.833 141.585 77.167 141.585 76.5 138.918C74.06 139.692 72.727 141.358 72.5 143.918C72.167 143.251 71.833 142.585 71.5 141.918C71.189 143.974 70.689 145.974 70 147.918C66.654 148.914 64.321 150.414 63 152.418C64.612 153.138 66.112 152.972 67.5 151.918C69.134 153.408 68.801 154.742 66.5 155.918C64.818 153.864 63.151 154.197 61.5 156.918C58.674 153.934 56.341 150.601 54.5 146.918C52.833 147.585 51.167 148.251 49.5 148.918C48.277 146.433 46.777 146.266 45 148.418C44.439 149.984 45.106 151.317 47 152.418C46.049 153.136 45.883 153.969 46.5 154.918C47.683 153.687 48.849 153.687 50 154.918C48.207 161.168 50.54 164.001 57 163.418C54.976 161.96 54.809 160.127 56.5 157.918C59.555 159.937 62.722 161.77 66 163.418C64.51 164.163 63.51 165.33 63 166.918C63.06 169.919 64.227 170.919 66.5 169.918C68.655 170.662 70.655 171.662 72.5 172.918C73.272 172.773 73.939 172.44 74.5 171.918C75.188 172.75 75.021 173.416 74 173.918C72.865 174.521 71.865 174.854 71 174.918C74.713 176.755 74.713 178.255 71 179.418C75.587 181.779 79.587 183.946 83 185.918C67.71 181.45 55.71 172.616 47 159.418C27.626 159.708 19.126 150.208 21.5 130.918C23.69 125.896 27.523 123.563 33 123.918C33 124.585 33.333 124.918 34 124.918C39.59 126.713 44.59 129.546 49 133.418C52.993 134.171 55.826 132.671 57.5 128.918C57.979 120.995 58.812 113.162 60 105.418C70.941 103.403 81.941 101.903 93 100.918Z" fill="#FDC598"/>
<path fill-rule="evenodd" clip-rule="evenodd" d="M35.0001 133.918C36.0521 133.769 37.0521 133.935 38.0001 134.418C38.8331 136.585 40.3331 138.085 42.5001 138.918C43.2691 141.517 43.1021 144.017 42.0001 146.418C39.5971 147.048 37.7631 146.215 36.5001 143.918C35.4571 140.661 34.9571 137.328 35.0001 133.918Z" fill="#D3754C"/>
<path fill-rule="evenodd" clip-rule="evenodd" d="M130 131.918C134.878 131.292 137.545 133.459 138 138.418C136.968 141.673 134.968 142.506 132 140.918C130.567 138.085 129.9 135.085 130 131.918Z" fill="#592015"/>
<path fill-rule="evenodd" clip-rule="evenodd" d="M74.9999 127.918C74.8399 129.617 75.0059 131.284 75.4999 132.918C76.0609 133.44 76.7279 133.773 77.4999 133.918C81.3979 131.885 85.2319 129.718 88.9999 127.418C94.5319 125.799 98.8659 127.299 102 131.918C99.4159 129.796 96.4159 128.462 92.9999 127.918C89.7339 128.218 87.0669 129.551 84.9999 131.918C82.0249 134.242 78.6919 135.075 74.9999 134.418C73.6869 131.525 73.6869 129.359 74.9999 127.918Z" fill="#FAE5B5"/>
<path fill-rule="evenodd" clip-rule="evenodd" d="M103 118.918C107.865 121.472 109.532 125.305 108 130.418C106.155 131.546 104.155 132.046 102 131.918C98.8663 127.299 94.5323 125.799 89.0003 127.418C85.2323 129.718 81.3983 131.885 77.5003 133.918C76.7283 133.773 76.0613 133.44 75.5003 132.918C75.0063 131.284 74.8403 129.617 75.0003 127.918C81.7173 117.347 91.0503 114.347 103 118.918Z" fill="#642617"/>
<path fill-rule="evenodd" clip-rule="evenodd" d="M103 118.918C103.397 117.893 104.063 117.726 105 118.418C108.238 120.563 109.905 123.563 110 127.418C109.918 131.993 107.585 133.826 103 132.918C102.333 132.918 102 132.585 102 131.918C104.155 132.046 106.155 131.546 108 130.418C109.532 125.305 107.865 121.472 103 118.918Z" fill="#FDECBC"/>
<path fill-rule="evenodd" clip-rule="evenodd" d="M164 117.918C165.489 120.223 166.989 122.556 168.5 124.918C169.079 126.346 168.912 127.68 168 128.918C167 129.251 166.333 129.918 166 130.918C162.577 128.858 158.911 127.191 155 125.918C152.13 126.02 149.797 127.186 148 129.418C142.514 131.243 140.014 129.41 140.5 123.918C142.54 122.048 144.373 120.048 146 117.918C152 113.918 158 113.918 164 117.918Z" fill="#642617"/>
<path opacity="0.016" fill-rule="evenodd" clip-rule="evenodd" d="M209 104.918C209.333 104.918 209.667 104.918 210 104.918C209.815 105.588 209.481 105.588 209 104.918Z" fill="#FAE7CE"/>
<path opacity="0.999" fill-rule="evenodd" clip-rule="evenodd" d="M162 33.5C165.25 35.2433 168.084 37.5766 170.5 40.5C180.029 52.5602 186.195 66.227 189 81.5C196.613 84.788 199.113 90.454 196.5 98.5C192.361 103 187.194 105 181 104.5C179.845 111.321 179.679 118.321 180.5 125.5C181.482 126.759 181.815 128.092 181.5 129.5C178.902 127.286 177.068 124.619 176 121.5C174.715 118.411 174.049 115.078 174 111.5C173.696 108.478 173.196 105.478 172.5 102.5C170.801 101.594 168.967 101.261 167 101.5C159.48 101.283 152.146 100.616 145 99.5C147.357 99.663 149.69 99.497 152 99C134.805 97.368 117.805 97.535 101 99.5C98.404 100.265 95.737 100.599 93 100.5C81.941 101.485 70.941 102.985 60 105C58.812 112.744 57.979 120.577 57.5 128.5C55.826 132.253 52.993 133.753 49 133C44.59 129.128 39.59 126.295 34 124.5C34.235 123.903 34.735 123.57 35.5 123.5C37.727 124.363 39.893 125.363 42 126.5C43.196 126.154 43.196 125.654 42 125C40.667 124.333 39.333 123.667 38 123C41.567 121.563 45.233 121.396 49 122.5C49.757 117.032 50.757 111.699 52 106.5C45.255 108.199 38.589 109.866 32 111.5C32.262 110.022 31.929 108.689 31 107.5C28.598 109.009 26.265 109.342 24 108.5C68.285 94.622 113.619 90.122 160 95C169.066 95.652 178.066 96.819 187 98.5C191.489 98.167 192.989 95.833 191.5 91.5C188.694 87.853 185.194 85.186 181 83.5C177.192 81.5 172.525 80 167 79C171.357 77.164 175.691 77.331 180 79.5C180.607 79.376 180.94 79.043 181 78.5C178.762 65.935 173.762 54.6014 166 44.5C166.131 43.7611 165.964 43.0944 165.5 42.5C161.633 38.2984 157.467 34.4651 153 31C155.885 31.3934 158.885 32.2267 162 33.5Z" fill="#632819"/>
<path opacity="0.999" fill-rule="evenodd" clip-rule="evenodd" d="M164 117.918C158 113.918 152 113.918 146 117.918C145.562 117.983 145.228 117.817 145 117.418C151.745 112.92 158.412 112.92 165 117.418C164.772 117.817 164.438 117.983 164 117.918Z" fill="#FCEAB9"/>
<path fill-rule="evenodd" clip-rule="evenodd" d="M101 99.918C115.667 99.918 130.333 99.918 145 99.918C152.146 101.034 159.48 101.701 167 101.918C165.196 102.58 163.196 102.913 161 102.918C138.168 101.558 115.501 100.892 93 100.918C95.737 101.017 98.404 100.683 101 99.918Z" fill="#F9E2B3"/>
<path fill-rule="evenodd" clip-rule="evenodd" d="M145 99.9181C130.333 99.9181 115.667 99.9181 101 99.9181C117.805 97.9531 134.805 97.7861 152 99.4181C149.69 99.9151 147.357 100.081 145 99.9181Z" fill="#2C0601"/>
<path opacity="0.997" fill-rule="evenodd" clip-rule="evenodd" d="M210 95.9181C212.469 95.1011 215.135 94.6011 218 94.4181C219.491 92.3961 219.158 90.7301 217 89.4181C214.333 88.7511 211.667 88.7511 209 89.4181C208.026 92.0831 207.359 92.2491 207 89.9181C210.474 86.3111 214.474 85.9781 219 88.9181C220.269 91.1131 220.269 93.2791 219 95.4181C216.018 95.9161 213.018 96.0831 210 95.9181Z" fill="#381715"/>
<path opacity="0.998" fill-rule="evenodd" clip-rule="evenodd" d="M210 95.9182C206.309 95.0822 205.309 93.0822 207 89.9182C207.359 92.2492 208.026 92.0832 209 89.4182C211.667 88.7512 214.333 88.7512 217 89.4182C219.158 90.7302 219.491 92.3962 218 94.4182C215.135 94.6012 212.469 95.1012 210 95.9182Z" fill="#6E311F"/>
<path opacity="0.999" fill-rule="evenodd" clip-rule="evenodd" d="M31.0001 62.918C24.7031 72.449 22.3701 82.782 24.0001 93.918C23.0371 94.781 23.0371 95.448 24.0001 95.918C45.9861 85.367 68.9861 78.034 93.0001 73.918C92.0671 69.989 91.7341 65.989 92.0001 61.918C93.5671 60.7372 94.4011 59.0706 94.5001 56.918C95.1731 62.6122 96.3401 67.946 98.0001 72.918C112.674 73.667 127.341 74 142 73.918C139.643 73.755 137.31 73.921 135 74.418C140 74.751 145 75.085 150 75.418C148.866 76.434 149.199 77.101 151 77.418C134.667 77.751 118.333 78.085 102 78.418C91.0621 79.129 80.3951 81.129 70.0001 84.418C70.2281 84.817 70.5621 84.983 71.0001 84.918C55.0441 89.294 39.3771 94.794 24.0001 101.418C21.4781 102.375 19.3111 103.875 17.5001 105.918C16.9151 107.416 17.4151 108.416 19.0001 108.918C20.1091 109.708 21.4421 110.208 23.0001 110.418C20.5851 111.892 20.5851 113.558 23.0001 115.418C22.9301 116.183 22.5971 116.683 22.0001 116.918C19.2421 116.041 16.5761 114.874 14.0001 113.418C10.5401 107.265 11.7071 102.098 17.5001 97.918C17.5481 90.674 18.3821 83.674 20.0001 76.918C22.7001 70.936 25.3671 64.269 28.0001 56.918C29.3851 55.8444 30.5511 54.5111 31.5001 52.918C31.9481 54.6424 32.7821 55.309 34.0001 54.918C33.2541 56.1542 32.9211 57.4875 33.0001 58.918C31.6271 58.7613 30.2931 58.928 29.0001 59.418C30.4731 60.1276 31.1401 61.2942 31.0001 62.918Z" fill="#612718"/>
<path fill-rule="evenodd" clip-rule="evenodd" d="M181 83.918C185.194 85.604 188.694 88.271 191.5 91.918C192.989 96.251 191.489 98.585 187 98.918C178.066 97.237 169.066 96.07 160 95.418C113.619 90.54 68.2852 95.04 24.0002 108.918C22.3332 108.918 20.6672 108.918 19.0002 108.918C17.4152 108.416 16.9152 107.416 17.5002 105.918C19.3112 103.875 21.4782 102.375 24.0002 101.418C39.3772 94.794 55.0442 89.294 71.0002 84.918C107.567 77.366 144.234 77.032 181 83.918Z" fill="#E46C3E"/>
<path fill-rule="evenodd" clip-rule="evenodd" d="M219 66.918C218.21 67.819 217.21 68.486 216 68.918C215.94 68.375 215.607 68.042 215 67.918C211.291 69.876 207.457 71.543 203.5 72.918C202.47 73.254 201.97 73.921 202 74.918C201.096 74.209 200.763 73.209 201 71.918C205.337 66.581 211.004 63.581 218 62.918C217.732 64.517 218.066 65.85 219 66.918Z" fill="#682B19"/>
<path fill-rule="evenodd" clip-rule="evenodd" d="M216 68.918C211.415 71.113 206.749 73.113 202 74.918C201.97 73.921 202.47 73.254 203.5 72.918C207.457 71.543 211.291 69.876 215 67.918C215.607 68.042 215.94 68.375 216 68.918Z" fill="#300F0D"/>
<path fill-rule="evenodd" clip-rule="evenodd" d="M30.9999 62.918C26.6249 72.756 24.2909 83.089 23.9999 93.918C22.3699 82.782 24.7029 72.449 30.9999 62.918Z" fill="#3E130C"/>
<path fill-rule="evenodd" clip-rule="evenodd" d="M28 56.918C25.367 64.269 22.7 70.936 20 76.918C21.053 69.497 23.72 62.8302 28 56.918Z" fill="#33100D"/>
<path fill-rule="evenodd" clip-rule="evenodd" d="M146 30.918C152.792 44.3692 155.959 58.7025 155.5 73.918C164.124 74.975 172.624 76.642 181 78.918C180.94 79.461 180.607 79.794 180 79.918C175.691 77.749 171.357 77.582 167 79.418C172.525 80.418 177.192 81.918 181 83.918C144.234 77.032 107.567 77.366 71 84.918C70.562 84.983 70.228 84.817 70 84.418C80.395 81.129 91.062 79.129 102 78.418C118.333 78.085 134.667 77.751 151 77.418C149.199 77.101 148.866 76.434 150 75.418C145 75.085 140 74.751 135 74.418C137.31 73.921 139.643 73.755 142 73.918C144.333 73.918 146.667 73.918 149 73.918C148.754 65.213 148.087 56.546 147 47.918C149.145 53.3626 150.311 59.696 150.5 66.918C153.183 54.6718 151.35 43.1718 145 32.418C145.07 31.6532 145.403 31.1532 146 30.918Z" fill="#501D14"/>
<path fill-rule="evenodd" clip-rule="evenodd" d="M219 66.918C218.066 65.85 217.732 64.517 218 62.918C211.004 63.581 205.337 66.581 201 71.918C200.797 70.028 201.463 68.528 203 67.418C207.529 63.978 212.529 61.9783 218 61.418C220.053 63.0959 220.387 64.929 219 66.918Z" fill="#3E1A16"/>
<path opacity="0.01" fill-rule="evenodd" clip-rule="evenodd" d="M212 52.9179C211.333 51.5846 211.333 51.5846 212 52.9179V52.9179Z" fill="#FBE6D1"/>
<path opacity="0.996" fill-rule="evenodd" clip-rule="evenodd" d="M199 50.918C197.65 53.1009 195.816 54.7676 193.5 55.918C192.041 55.6098 190.874 54.9431 190 53.918C189.935 53.4798 190.101 53.1464 190.5 52.918C191.5 53.5847 192.5 54.2513 193.5 54.918C195.167 53.2513 196.833 51.5847 198.5 49.918C198.899 50.1464 199.065 50.4798 199 50.918Z" fill="#2B0702"/>
<path fill-rule="evenodd" clip-rule="evenodd" d="M201 48.9183C200.667 49.9183 200 50.585 199 50.9183C199.065 50.4801 198.899 50.1467 198.5 49.9183C196.833 51.585 195.167 53.2516 193.5 54.9183C192.5 54.2516 191.5 53.585 190.5 52.9183C190.101 53.1467 189.935 53.4801 190 53.9183C189.029 52.4562 189.362 51.1229 191 49.9183C192.499 47.4595 194.499 44.6262 197 41.4183C198.293 40.9283 199.627 40.7616 201 40.9183C200.695 43.8323 200.695 46.499 201 48.9183Z" fill="#6E2F1E"/>
<path fill-rule="evenodd" clip-rule="evenodd" d="M201 48.918C200.695 46.4987 200.695 43.832 201 40.918C199.627 40.7613 198.293 40.928 197 41.418C194.499 44.6259 192.499 47.4592 191 49.918C191.472 44.6358 194.139 40.9691 199 38.918C202.172 41.622 202.838 44.9553 201 48.918Z" fill="#3A110F"/>
<path opacity="0.024" fill-rule="evenodd" clip-rule="evenodd" d="M182 40.9183C183.123 39.6609 183.789 39.9942 184 41.9183C183.667 41.9183 183.333 41.9183 183 41.9183C182.333 41.9183 182 41.585 182 40.9183Z" fill="#F9DFC5"/>
<path fill-rule="evenodd" clip-rule="evenodd" d="M145 27.9181C152.29 33.2057 159.29 38.8724 166 44.9181C173.762 55.0195 178.762 66.3531 181 78.9181C172.624 76.6421 164.124 74.9751 155.5 73.9181C155.959 58.7026 152.792 44.3693 146 30.9181C145.547 29.9597 144.881 29.1264 144 28.4181C144.228 28.0193 144.562 27.8527 145 27.9181Z" fill="#E56C3D"/>
<path fill-rule="evenodd" clip-rule="evenodd" d="M162 33.9182C158.885 32.6449 155.885 31.8116 153 31.4182C157.467 34.8833 161.633 38.7166 165.5 42.9182C165.964 43.5126 166.131 44.1793 166 44.9182C159.29 38.8725 152.29 33.2058 145 27.9182C146.148 27.2541 147.481 27.0874 149 27.4182C150.333 26.7515 150.333 26.0849 149 25.4182C147.282 25.0722 145.615 24.5722 144 23.9182C143.249 24.7942 142.749 25.7942 142.5 26.9182C139.817 25.5255 139.65 24.1921 142 22.9182C137.241 18.2019 131.574 15.7019 125 15.4182C126.333 16.0849 126.333 16.7515 125 17.4182C131.421 18.7742 136.088 22.2742 139 27.9182C129.805 19.2976 118.805 15.6309 106 16.9182C100.3 17.0496 94.634 17.5496 89 18.4182C88.192 18.7258 87.525 19.2258 87 19.9182C91.471 26.2022 94.304 33.2022 95.5 40.9182C96.592 51.5689 97.425 62.2355 98 72.9182C96.34 67.9462 95.173 62.6124 94.5 56.9182C94.401 59.0708 93.567 60.7374 92 61.9182C91.796 48.6519 88.963 35.9852 83.5 23.9182C82.696 22.6137 81.529 21.947 80 21.9182C62.797 27.6042 48.63 37.6042 37.5 51.9182C35.811 55.9781 33.644 59.6448 31 62.9182C31.14 61.2944 30.473 60.1278 29 59.4182C30.293 58.9282 31.627 58.7615 33 58.9182C32.921 57.4877 33.254 56.1544 34 54.9182C32.782 55.3092 31.948 54.6426 31.5 52.9182C30.551 54.5113 29.385 55.8446 28 56.9182C36.6 40.1545 49.6 27.9879 67 20.4182C86.097 10.5652 106.097 8.23175 127 13.4182C135.124 16.3152 142.791 19.9818 150 24.4182C154.475 27.0681 158.475 30.2348 162 33.9182Z" fill="#582116"/>
<path fill-rule="evenodd" clip-rule="evenodd" d="M145 27.918C144.562 27.8526 144.228 28.0192 144 28.418C144.881 29.1263 145.547 29.9596 146 30.918C145.403 31.1532 145.07 31.6532 145 32.418C151.35 43.1718 153.183 54.6718 150.5 66.918C150.311 59.696 149.145 53.3626 147 47.918C144.938 41.0768 142.271 34.4102 139 27.918C136.088 22.274 131.421 18.774 125 17.418C126.333 16.7513 126.333 16.0847 125 15.418C131.574 15.7017 137.241 18.2017 142 22.918C139.65 24.1919 139.817 25.5253 142.5 26.918C142.749 25.794 143.249 24.794 144 23.918C145.615 24.572 147.282 25.072 149 25.418C150.333 26.0847 150.333 26.7513 149 27.418C147.481 27.0872 146.148 27.2539 145 27.918Z" fill="#67291A"/>
<path fill-rule="evenodd" clip-rule="evenodd" d="M92.0001 61.918C91.7341 65.989 92.0671 69.989 93.0001 73.918C68.9861 78.034 45.9861 85.367 24.0001 95.918C23.0371 95.448 23.0371 94.781 24.0001 93.918C24.2911 83.089 26.6251 72.756 31.0001 62.918C33.6441 59.6446 35.8111 55.9779 37.5001 51.918C48.6301 37.604 62.7971 27.604 80.0001 21.918C81.5291 21.9468 82.6961 22.6135 83.5001 23.918C88.9631 35.985 91.7961 48.6517 92.0001 61.918Z" fill="#E3693C"/>
<path fill-rule="evenodd" clip-rule="evenodd" d="M139 27.9179C142.271 34.4101 144.938 41.0767 147 47.9179C148.087 56.5459 148.754 65.2129 149 73.9179C146.667 73.9179 144.333 73.9179 142 73.9179C127.341 73.9999 112.674 73.6669 98 72.9179C97.425 62.2352 96.592 51.5686 95.5 40.9179C94.304 33.2019 91.471 26.2019 87 19.9179C87.525 19.2255 88.192 18.7255 89 18.4179C94.634 17.5493 100.3 17.0493 106 16.9179C118.805 15.6306 129.805 19.2973 139 27.9179Z" fill="#E2673A"/>
<path fill-rule="evenodd" clip-rule="evenodd" d="M116 34.9182C120.748 34.693 125.415 35.193 130 36.4182C138.378 43.0199 141.211 51.5199 138.5 61.9182C130.522 72.1642 121.355 73.3302 111 65.4182C103.947 59.2807 102.114 51.7807 105.5 42.9182C108.355 39.2075 111.855 36.5408 116 34.9182Z" fill="#FEEBCD"/>
<path fill-rule="evenodd" clip-rule="evenodd" d="M117 40.918C120.35 40.753 123.683 40.9197 127 41.418C127.833 42.2513 128.667 43.0847 129.5 43.918C130.374 51.1117 131.874 58.1117 134 64.918C132.301 65.078 130.634 64.912 129 64.418C127.821 61.9053 125.987 60.072 123.5 58.918C121.67 60.5645 119.837 62.2311 118 63.918C116.471 63.889 115.304 63.2225 114.5 61.918C113.029 55.9872 112.696 49.9872 113.5 43.918C114.645 42.7816 115.812 41.7816 117 40.918Z" fill="#D86036"/>
<path fill-rule="evenodd" clip-rule="evenodd" d="M121 44.918C124.973 45.4935 125.973 47.6601 124 51.418C123.052 51.9008 122.052 52.0675 121 51.918C121 49.5847 121 47.2513 121 44.918Z" fill="#FEE3BD"/>
<path opacity="0.01" fill-rule="evenodd" clip-rule="evenodd" d="M190 172.918C191.333 173.585 191.333 173.585 190 172.918V172.918Z" fill="#FBE6D0"/>
<path opacity="0.01" fill-rule="evenodd" clip-rule="evenodd" d="M34 174.918C33.603 175.943 32.937 176.11 32 175.418C32.594 174.954 33.261 174.787 34 174.918Z" fill="#FEE5C9"/>
<path opacity="0.01" fill-rule="evenodd" clip-rule="evenodd" d="M35 174.918C35.333 174.918 35.667 174.918 36 174.918C35.815 175.588 35.481 175.588 35 174.918Z" fill="#FBE2C8"/>
<path opacity="0.01" fill-rule="evenodd" clip-rule="evenodd" d="M225 174.918C226.333 175.585 226.333 175.585 225 174.918V174.918Z" fill="#FAE7CE"/>
<path fill-rule="evenodd" clip-rule="evenodd" d="M101 149.918C104.667 149.918 108.333 149.918 112 149.918C122.006 149.752 132.006 149.918 142 150.418C139.464 150.604 137.131 151.104 135 151.918C122.656 151.678 110.323 151.511 97.9998 151.418C96.7988 152.321 95.9648 153.487 95.4998 154.918C95.2648 171.026 103.265 180.026 119.5 181.918C129.181 181.504 136.348 177.17 141 168.918C142.816 167.3 144.149 165.3 145 162.918C145.597 163.153 145.93 163.653 146 164.418C139.717 178.226 129.05 184.226 114 182.418C99.9228 178.672 93.0898 169.505 93.4998 154.918C94.8298 151.411 97.3298 149.745 101 149.918Z" fill="#F8E1B3"/>
<path opacity="0.01" fill-rule="evenodd" clip-rule="evenodd" d="M224 181.918C225.333 182.585 225.333 182.585 224 181.918V181.918Z" fill="#FBE6CE"/>
<path opacity="0.01" fill-rule="evenodd" clip-rule="evenodd" d="M176 185.918C177.333 186.585 177.333 186.585 176 185.918V185.918Z" fill="#F9E2C7"/>
<path opacity="0.01" fill-rule="evenodd" clip-rule="evenodd" d="M18 186.918C19.333 187.585 19.333 187.585 18 186.918V186.918Z" fill="#FEE9CE"/>
<path opacity="0.992" fill-rule="evenodd" clip-rule="evenodd" d="M145 186.918C138.43 188.561 131.763 189.561 125 189.918C118.311 190.989 111.645 190.989 105 189.918C117.579 189.144 130.246 187.811 143 185.918C143.916 185.961 144.583 186.294 145 186.918Z" fill="#F7DCAC"/>
<path opacity="0.012" fill-rule="evenodd" clip-rule="evenodd" d="M225 189.918C226.025 190.315 226.192 190.981 225.5 191.918C225.036 191.324 224.869 190.657 225 189.918Z" fill="#FDE9D2"/>
<path opacity="0.998" fill-rule="evenodd" clip-rule="evenodd" d="M150 201.918C147.411 202.837 145.411 204.504 144 206.918C142.866 203.842 141.866 200.842 141 197.918C140.462 196.301 140.129 194.634 140 192.918C143.715 193.098 147.382 192.764 151 191.918C153.247 192.824 155.247 194.157 157 195.918C155.234 198.626 152.901 200.626 150 201.918Z" fill="#F5AC78"/>
<path opacity="0.012" fill-rule="evenodd" clip-rule="evenodd" d="M11 200.918C12.333 201.585 12.333 201.585 11 200.918V200.918Z" fill="#FBE7CD"/>
<path fill-rule="evenodd" clip-rule="evenodd" d="M112 207.918C114.155 208.046 116.155 207.546 118 206.418C121.345 203.395 123.678 199.729 125 195.418C128.054 194.597 131.054 194.763 134 195.918C134.83 198.434 135.83 200.768 137 202.918C139.777 216.275 139.611 229.608 136.5 242.918C135.333 244.085 134.167 245.251 133 246.418C113.67 246.918 94.336 247.085 75 246.918C76.709 241.833 79.209 237.166 82.5 232.918C86.085 223.908 84.085 216.575 76.5 210.918C75.862 209.809 75.362 208.643 75 207.418C77.21 202.73 78.877 197.897 80 192.918C84.549 194.181 89.216 194.848 94 194.918C94.319 204.069 99.153 208.736 108.5 208.918C109.885 208.904 111.051 208.57 112 207.918Z" fill="#E46B3D"/>
<path fill-rule="evenodd" clip-rule="evenodd" d="M162 201.918C162 203.251 162 204.585 162 205.918C159.597 205.97 157.264 205.637 155 204.918C157.071 203.473 159.404 202.473 162 201.918Z" fill="#B06243"/>
<path opacity="0.01" fill-rule="evenodd" clip-rule="evenodd" d="M189 203.918C190.333 204.585 190.333 204.585 189 203.918V203.918Z" fill="#F7E1C9"/>
<path opacity="0.01" fill-rule="evenodd" clip-rule="evenodd" d="M10 205.918C11.333 206.585 11.333 206.585 10 205.918V205.918Z" fill="#FCE6CD"/>
<path opacity="0.999" fill-rule="evenodd" clip-rule="evenodd" d="M162 196.918C165.297 199.714 168.464 202.714 171.5 205.918C173.787 208.49 174.953 211.49 175 214.918C174.299 219.145 173.466 223.478 172.5 227.918C171.547 229.873 170.213 231.54 168.5 232.918C167.895 230.937 166.895 230.603 165.5 231.918C164.456 230.795 163.79 229.462 163.5 227.918C163.167 228.251 162.833 228.585 162.5 228.918C162.173 225.668 161.506 222.334 160.5 218.918C159.544 217.839 158.711 216.673 158 215.418C157.063 214.726 156.397 214.893 156 215.918C151.422 216.311 149.089 214.144 149 209.418C150.397 207.209 152.397 205.709 155 204.918C157.264 205.637 159.597 205.97 162 205.918C162 204.585 162 203.251 162 201.918C161.797 200.374 161.13 199.04 160 197.918C160.457 197.12 161.124 196.787 162 196.918Z" fill="#F9B281"/>
<path fill-rule="evenodd" clip-rule="evenodd" d="M125 218.918C119.537 213.272 112.871 211.439 105 213.418C104.084 213.792 103.25 214.292 102.5 214.918C102.003 217.228 101.837 219.561 102 221.918C101.173 227.069 100.673 232.402 100.5 237.918C99.8332 230.251 99.8332 222.585 100.5 214.918C106.903 210.163 113.737 209.663 121 213.418C122.964 214.869 124.297 216.702 125 218.918Z" fill="#D8461E"/>
<path fill-rule="evenodd" clip-rule="evenodd" d="M141 197.918C141.866 200.842 142.866 203.842 144 206.918C145.411 204.504 147.411 202.837 150 201.918C150.397 202.943 151.063 203.11 152 202.418C154.829 200.257 157.662 198.091 160.5 195.918C161.265 195.988 161.765 196.321 162 196.918C161.124 196.787 160.457 197.12 160 197.918C161.13 199.04 161.797 200.374 162 201.918C159.404 202.473 157.071 203.473 155 204.918C152.397 205.709 150.397 207.209 149 209.418C149.089 214.144 151.422 216.311 156 215.918C156.988 217.213 157.988 218.546 159 219.918C158.344 220.696 157.511 221.362 156.5 221.918C154.537 220.793 152.704 219.459 151 217.918C150.393 218.042 150.06 218.375 150 218.918C149.35 218.614 148.683 218.281 148 217.918C146.699 219.862 145.699 221.862 145 223.918C145.131 223.179 144.964 222.512 144.5 221.918C142.898 225.402 141.732 229.069 141 232.918C142.031 234.118 142.865 235.452 143.5 236.918C148.422 238.009 148.922 239.675 145 241.918C143.891 241.975 142.891 242.308 142 242.918C140.734 244.071 139.734 246.071 139 248.918C138.109 250.008 137.109 250.008 136 248.918C135.213 249.66 134.547 250.493 134 251.418C118.333 252.085 102.667 252.085 87 251.418C89.333 251.085 91.667 250.751 94 250.418C88.333 250.085 82.667 249.751 77 249.418C91.667 249.085 106.333 248.751 121 248.418C105.495 248.249 90.161 247.749 75 246.918C94.336 247.085 113.67 246.918 133 246.418C134.167 245.251 135.333 244.085 136.5 242.918C139.611 229.608 139.777 216.275 137 202.918C136.492 200.242 136.325 197.575 136.5 194.918C136.914 194.461 137.414 194.127 138 193.918C138.691 196.219 139.691 197.552 141 197.918Z" fill="#6B2B1A"/>
<path fill-rule="evenodd" clip-rule="evenodd" d="M125 218.918C125.008 223.054 124.008 226.887 122 230.418C122.648 231.858 122.981 233.358 123 234.918C121.775 234.266 121.108 233.099 121 231.418C122.765 227.466 123.265 223.3 122.5 218.918C120.463 215.779 117.963 214.946 115 216.418C117.769 217.253 118.435 218.753 117 220.918C116.166 219.67 114.833 219.003 113 218.918C111.667 219.085 110.333 219.251 109 219.418C108.077 221.459 107.744 223.626 108 225.918C110.687 226.082 113.354 225.915 116 225.418C117.323 224.602 117.989 223.435 118 221.918C119.212 223.682 118.879 225.348 117 226.918C112.333 228.069 107.666 228.069 103 226.918C102.39 231.053 103.223 234.719 105.5 237.918C106.439 234.478 108.605 232.145 112 230.918C112.963 231.388 112.963 232.055 112 232.918C111.004 232.832 110.171 233.166 109.5 233.918C108.751 238.021 106.251 239.688 102 238.918C102 233.251 102 227.585 102 221.918C101.837 219.561 102.003 217.228 102.5 214.918C103.25 214.292 104.084 213.792 105 213.418C112.871 211.439 119.537 213.272 125 218.918Z" fill="#FEE9C5"/>
<path fill-rule="evenodd" clip-rule="evenodd" d="M123 234.918C123.163 237.275 122.997 239.608 122.5 241.918C122.117 242.474 121.617 242.807 121 242.918C117.181 241.304 115.348 238.304 115.5 233.918C114.489 233.081 113.322 232.748 112 232.918C112.963 232.055 112.963 231.388 112 230.918C108.605 232.145 106.439 234.478 105.5 237.918C103.223 234.719 102.39 231.053 103 226.918C107.666 228.069 112.333 228.069 117 226.918C118.879 225.348 119.212 223.682 118 221.918C117.333 221.918 117 221.585 117 220.918C118.435 218.753 117.769 217.253 115 216.418C117.963 214.946 120.463 215.779 122.5 218.918C123.265 223.3 122.765 227.466 121 231.418C121.108 233.099 121.775 234.266 123 234.918Z" fill="#FEDCB2"/>
<path fill-rule="evenodd" clip-rule="evenodd" d="M117 220.918C117 221.585 117.333 221.918 118 221.918C117.989 223.435 117.323 224.602 116 225.418C113.354 225.915 110.687 226.082 108 225.918C107.744 223.626 108.077 221.459 109 219.418C110.333 219.251 111.667 219.085 113 218.918C114.833 219.003 116.166 219.67 117 220.918Z" fill="#D55128"/>
<path fill-rule="evenodd" clip-rule="evenodd" d="M177 233.918C176.667 234.918 176 235.585 175 235.918C175.065 235.48 174.899 235.146 174.5 234.918C173.333 236.085 172.167 237.251 171 238.418C169.556 239.199 168.223 239.032 167 237.918C170.354 235.397 173.188 232.397 175.5 228.918C176.265 227.352 176.098 226.019 175 224.918C175 221.918 175 218.918 175 215.918C175.817 218.387 176.317 221.053 176.5 223.918C176.667 222.418 176.833 220.918 177 219.418C175.967 214.269 175.467 209.102 175.5 203.918C181.316 213.434 181.483 223.1 176 232.918C176.124 233.525 176.457 233.858 177 233.918Z" fill="#71311E"/>
<path opacity="0.997" fill-rule="evenodd" clip-rule="evenodd" d="M156 215.918C156.397 214.893 157.063 214.726 158 215.418C158.711 216.673 159.544 217.839 160.5 218.918C161.506 222.334 162.173 225.668 162.5 228.918C162.833 228.585 163.167 228.251 163.5 227.918C163.79 229.462 164.456 230.795 165.5 231.918C166.895 230.603 167.895 230.937 168.5 232.918C170.213 231.54 171.547 229.873 172.5 227.918C173.466 223.478 174.299 219.145 175 214.918C175 215.251 175 215.585 175 215.918C175 218.918 175 221.918 175 224.918C172.217 234.359 165.883 238.692 156 237.918C157.627 233.198 158.961 228.364 160 223.418C159.852 222.162 159.518 220.995 159 219.918C157.988 218.546 156.988 217.213 156 215.918Z" fill="#FAC290"/>
<path opacity="0.999" fill-rule="evenodd" clip-rule="evenodd" d="M150 218.918C152.532 220.117 153.865 222.117 154 224.918C153.694 229.833 152.028 234.167 149 237.918C147.441 237.344 145.941 236.678 144.5 235.918C144.517 231.943 144.684 227.943 145 223.918C145.699 221.862 146.699 219.862 148 217.918C148.683 218.281 149.35 218.614 150 218.918Z" fill="#F9BB88"/>
<path opacity="0.01" fill-rule="evenodd" clip-rule="evenodd" d="M19.0002 232.918C18.3332 233.585 18.3332 233.585 19.0002 232.918V232.918Z" fill="#FBE5CB"/>
<path opacity="0.999" fill-rule="evenodd" clip-rule="evenodd" d="M26 118.918C26.438 118.853 26.772 119.019 27 119.418C26.172 120.333 25.172 120.999 24 121.418C27.351 121.475 30.351 122.309 33 123.918C27.523 123.563 23.69 125.896 21.5 130.918C19.126 150.208 27.626 159.708 47 159.418C55.71 172.616 67.71 181.45 83 185.918C90.059 188.145 97.392 189.479 105 189.918C111.645 190.989 118.311 190.989 125 189.918C128.477 190.741 132.144 191.241 136 191.418C123.418 193.314 110.751 194.147 98 193.918C97.843 195.291 98.01 196.625 98.5 197.918C99.19 199.156 99.69 199.156 100 197.918C101.948 202.171 105.281 203.838 110 202.918C108.891 203.708 107.558 204.208 106 204.418C113.179 205.088 117.845 201.921 120 194.918C121.135 195.521 122.135 195.854 123 195.918C121.349 201.897 117.682 205.897 112 207.918C111.051 208.57 109.885 208.904 108.5 208.918C99.153 208.736 94.319 204.069 94 194.918C89.216 194.848 84.549 194.181 80 192.918C78.877 197.897 77.21 202.73 75 207.418C75.362 208.643 75.862 209.809 76.5 210.918C84.085 216.575 86.085 223.908 82.5 232.918C79.209 237.166 76.709 241.833 75 246.918C90.161 247.749 105.495 248.249 121 248.418C106.333 248.751 91.667 249.085 77 249.418C82.667 249.751 88.333 250.085 94 250.418C91.667 250.751 89.333 251.085 87 251.418C102.667 252.085 118.333 252.085 134 251.418C134.547 250.493 135.213 249.66 136 248.918C137.109 250.008 138.109 250.008 139 248.918C139.734 246.071 140.734 244.071 142 242.918C141.925 247.015 140.258 250.181 137 252.418C114.366 254.008 91.699 254.341 69 253.418C64.495 253.155 60.161 252.155 56 250.418C44.629 243.709 34.462 235.543 25.5 225.918C17.653 208.077 22.486 194.577 40 185.418C45.26 183.284 50.593 181.45 56 179.918C51.814 175.567 47.814 171.067 44 166.418C29.92 166.558 20.587 160.058 16 146.918C16.096 141.786 16.262 136.453 16.5 130.918C17.499 127.586 18.999 124.586 21 121.918C22.159 120.168 23.826 119.168 26 118.918Z" fill="#5C2216"/>
<path fill-rule="evenodd" clip-rule="evenodd" d="M68 211.918C73.501 213.921 77.168 217.754 79 223.418C78.557 226.497 77.557 229.33 76 231.918C73.591 229.5 70.924 227.5 68 225.918C65.652 226.266 64.318 227.6 64 229.918C62.962 227.033 64.129 225.033 67.5 223.918C70.721 225.134 73.388 227.134 75.5 229.918C78.09 221.435 75.09 215.769 66.5 212.918C64.382 214.781 62.216 215.448 60 214.918C62.298 212.957 64.965 211.957 68 211.918Z" fill="#F7CE9B"/>
<path fill-rule="evenodd" clip-rule="evenodd" d="M64.0002 229.918C65.9293 231.566 67.9292 233.233 70.0002 234.918C70.9263 243.482 67.2593 246.315 59.0002 243.418C55.8333 240.918 52.6673 238.418 49.5002 235.918C48.8332 233.585 48.8332 231.251 49.5002 228.918C50.5942 227.34 51.4283 225.673 52.0003 223.918C54.2253 220.485 56.8923 217.485 60.0002 214.918C62.2162 215.448 64.3822 214.781 66.5002 212.918C75.0903 215.769 78.0903 221.435 75.5002 229.918C73.3883 227.134 70.7213 225.134 67.5002 223.918C64.1292 225.033 62.9622 227.033 64.0002 229.918Z" fill="#FCB787"/>
<path fill-rule="evenodd" clip-rule="evenodd" d="M71.0003 204.918C71.0003 206.585 71.0003 208.251 71.0003 209.918C69.3213 209.703 68.3213 210.37 68.0003 211.918C64.9653 211.957 62.2983 212.957 60.0003 214.918C56.8923 217.485 54.2253 220.485 52.0003 223.918C51.0003 224.585 50.0003 225.251 49.0003 225.918C45.5843 225.446 45.2513 223.613 48.0003 220.418C49.2383 220.495 50.2383 220.329 51.0003 219.918C50.5063 218.392 49.8393 217.059 49.0003 215.918C47.1273 212.852 44.9613 209.852 42.5003 206.918C42.0063 205.284 41.8403 203.617 42.0003 201.918C44.8253 201.499 46.9913 202.499 48.5003 204.918C50.4933 207.236 51.6593 209.902 52.0003 212.918C53.0523 213.067 54.0523 212.901 55.0003 212.418C58.0173 209.332 61.0173 206.332 64.0003 203.418C66.4223 203.283 68.7553 203.783 71.0003 204.918Z" fill="#6D2C1C"/>
<path opacity="0.998" fill-rule="evenodd" clip-rule="evenodd" d="M62.0001 184.918C58.7981 186.28 55.7981 188.114 53.0001 190.418C39.1741 190.912 30.8411 197.912 28.0001 211.418C28.7751 214.24 29.4421 217.074 30.0001 219.918C24.7081 206.3 29.0411 196.467 43.0001 190.418C48.5521 190.968 53.2181 189.301 57.0001 185.418C58.6341 184.924 60.3011 184.758 62.0001 184.918Z" fill="#FAD9A1"/>
<path opacity="0.998" fill-rule="evenodd" clip-rule="evenodd" d="M108 195.918C111.398 195.598 114.732 195.931 118 196.918C117.645 197.94 116.978 198.607 116 198.918C114.245 199.49 112.578 200.324 111 201.418C106.974 202.755 103.974 201.588 102 197.918C104.131 197.249 106.131 196.583 108 195.918Z" fill="#FBB986"/>
<path fill-rule="evenodd" clip-rule="evenodd" d="M108 195.918C106.131 196.583 104.131 197.249 102 197.918C103.974 201.588 106.974 202.755 111 201.418C112.578 200.324 114.245 199.49 116 198.918C114.698 201.24 112.698 202.573 110 202.918C105.281 203.838 101.948 202.171 100 197.918C99.8511 196.866 100.017 195.866 100.5 194.918C102.881 195.853 105.381 196.186 108 195.918Z" fill="#FADEA9"/>
<path opacity="0.999" fill-rule="evenodd" clip-rule="evenodd" d="M62 184.918C66.818 186.306 71.152 188.639 75 191.918C73.258 196.143 71.924 200.477 71 204.918C68.755 203.783 66.422 203.283 64 203.418C61.017 206.332 58.017 209.332 55 212.418C54.052 212.901 53.052 213.067 52 212.918C51.659 209.902 50.493 207.236 48.5 204.918C46.991 202.499 44.825 201.499 42 201.918C41.84 203.617 42.006 205.284 42.5 206.918C44.961 209.852 47.127 212.852 49 215.918C45.773 220.905 43.107 226.238 41 231.918C35.899 229.154 32.232 225.154 30 219.918C29.442 217.074 28.775 214.24 28 211.418C30.841 197.912 39.174 190.912 53 190.418C55.798 188.114 58.798 186.28 62 184.918Z" fill="#FAB282"/>
<path fill-rule="evenodd" clip-rule="evenodd" d="M125 218.918C125.656 220.04 125.989 221.373 126 222.918C124.459 229.456 123.626 236.123 123.5 242.918C122.108 245.26 121.275 245.26 121 242.918C121.617 242.807 122.117 242.474 122.5 241.918C122.997 239.608 123.163 237.275 123 234.918C122.981 233.358 122.648 231.858 122 230.418C124.008 226.887 125.008 223.054 125 218.918Z" fill="#CD3812"/>
<path fill-rule="evenodd" clip-rule="evenodd" d="M150 218.918C150.06 218.375 150.393 218.042 151 217.918C152.704 219.459 154.537 220.793 156.5 221.918C157.511 221.362 158.344 220.696 159 219.918C159.518 220.995 159.852 222.162 160 223.418C158.961 228.364 157.627 233.198 156 237.918C165.883 238.692 172.217 234.359 175 224.918C176.098 226.019 176.265 227.352 175.5 228.918C173.188 232.397 170.354 235.397 167 237.918C168.223 239.032 169.556 239.199 171 238.418C172.167 237.251 173.333 236.085 174.5 234.918C174.899 235.146 175.065 235.48 175 235.918C171.648 239.933 167.315 242.433 162 243.418C156.15 244.366 150.483 243.866 145 241.918C148.922 239.675 148.422 238.009 143.5 236.918C142.865 235.452 142.031 234.118 141 232.918C141.732 229.069 142.898 225.402 144.5 221.918C144.964 222.512 145.131 223.179 145 223.918C144.684 227.943 144.517 231.943 144.5 235.918C145.941 236.678 147.441 237.344 149 237.918C152.028 234.167 153.694 229.833 154 224.918C153.865 222.117 152.532 220.117 150 218.918Z" fill="#571F15"/>
<path fill-rule="evenodd" clip-rule="evenodd" d="M52 223.918C51.428 225.673 50.594 227.34 49.5 228.918C48.833 231.251 48.833 233.585 49.5 235.918C52.667 238.418 55.833 240.918 59 243.418C67.259 246.315 70.926 243.482 70 234.918C67.929 233.233 65.929 231.566 64 229.918C74.328 232.728 75.661 237.895 68 245.418C60.141 245.935 53.641 243.101 48.5 236.918C46.465 233.137 46.632 229.47 49 225.918C50 225.251 51 224.585 52 223.918Z" fill="#F9D6A3"/>
<path fill-rule="evenodd" clip-rule="evenodd" d="M61.0001 231.918C62.6341 232.625 63.9681 233.791 65.0001 235.418C62.0101 236.265 60.6761 235.098 61.0001 231.918Z" fill="#B25737"/>
<path opacity="0.01" fill-rule="evenodd" clip-rule="evenodd" d="M34 245.918C33.861 247.755 33.194 248.088 32 246.918C32.457 246.12 33.124 245.787 34 245.918Z" fill="#FDE6CC"/>
<path opacity="0.016" fill-rule="evenodd" clip-rule="evenodd" d="M149 254.918C150.333 255.585 150.333 255.585 149 254.918V254.918Z" fill="#F9E6CF"/>
<path opacity="0.01" fill-rule="evenodd" clip-rule="evenodd" d="M161 254.918C162.333 255.585 162.333 255.585 161 254.918V254.918Z" fill="#FAE5CC"/>
</svg>
