<svg width="167" height="201" viewBox="0 0 167 201" fill="none" xmlns="http://www.w3.org/2000/svg">
<path opacity="0.997" fill-rule="evenodd" clip-rule="evenodd" d="M78.1376 5.64188e-05C105.01 -0.0290537 126.077 11.2067 141.337 33.7065C146.513 42.7291 149.578 52.432 150.53 62.8166C159.02 70.8464 159.786 79.5289 152.828 88.8625C150.59 90.5571 148.164 91.9612 145.551 93.0759C148.275 100.294 148.53 107.827 146.317 115.674C148.39 115.732 150.433 115.987 152.445 116.441C155.038 118.674 156.953 121.483 158.19 124.867C159.118 134.794 159.629 144.753 159.723 154.743C162.732 157.696 164.519 161.272 165.085 165.468C166.305 174.686 165.283 183.624 162.021 192.28C159.791 194.466 157.748 196.764 155.892 199.175C155.637 198.919 155.381 198.664 155.126 198.409C151.92 199.546 148.599 200.312 145.167 200.707C142.26 200.814 139.324 200.559 136.358 199.941C123.08 199.941 109.801 199.941 96.5229 199.941C96.2679 199.941 96.012 199.941 95.7569 199.941C95.5018 199.941 95.2459 199.941 94.9908 199.941C94.7357 199.941 94.4799 199.941 94.2248 199.941C90.3945 199.941 86.5642 199.941 82.7339 199.941C82.4788 199.941 82.223 199.941 81.9679 199.941C80.4358 199.941 78.9037 199.941 77.3716 199.941C77.1165 199.941 76.8606 199.941 76.6055 199.941C65.3782 200.746 54.1424 200.746 42.899 199.941C42.4264 200.026 42.0434 200.281 41.75 200.707C35.9279 198.921 30.0553 197.134 24.1307 195.344C23.8947 195.963 23.5117 196.474 22.9816 196.876C22.8521 196.189 22.597 195.423 22.2155 194.578C17.1887 192.354 13.1033 189.035 9.95863 184.62C9.07077 181.823 7.79375 179.269 6.12835 176.959C3.0894 161.31 6.53666 147.01 16.4701 134.06C19.0425 131.87 21.7237 129.827 24.5137 127.931C20.5294 125.318 16.4441 122.892 12.2568 120.654C3.94126 112.811 0.749102 103.491 2.6811 92.6928C3.29164 90.6091 4.18486 88.694 5.36229 86.9474C4.49358 86.1691 4.74868 85.6581 6.12835 85.4153C4.00101 83.7506 4.12894 83.3676 6.51137 84.2662C6.92658 82.2882 6.28769 80.7561 4.59624 79.6699C3.20355 75.9553 2.82052 72.125 3.44715 68.179C5.61969 64.6483 7.02463 61.0731 7.66046 57.4543C8.92598 52.6618 10.3302 47.8104 11.8738 42.8992C14.4983 38.3726 16.9236 33.7762 19.1513 29.1102C28.7017 16.4044 41.2145 7.84983 56.688 3.44731C63.8844 1.86387 71.034 0.714787 78.1376 5.64188e-05Z" fill="#FDF9ED"/>
<path opacity="0.01" fill-rule="evenodd" clip-rule="evenodd" d="M52.8579 3.06445C53.8791 3.57541 53.8791 3.57541 52.8579 3.06445V3.06445Z" fill="#FCE3C7"/>
<path opacity="0.01" fill-rule="evenodd" clip-rule="evenodd" d="M108.78 4.59668C109.801 5.10764 109.801 5.10764 108.78 4.59668V4.59668Z" fill="#FAE5CB"/>
<path opacity="0.01" fill-rule="evenodd" clip-rule="evenodd" d="M45.9634 5.3623C46.9845 5.87326 46.9845 5.87326 45.9634 5.3623V5.3623Z" fill="#FEE5CC"/>
<path opacity="0.01" fill-rule="evenodd" clip-rule="evenodd" d="M39.835 6.89453C40.8561 7.40549 40.8561 7.40549 39.835 6.89453V6.89453Z" fill="#FBE5CB"/>
<path fill-rule="evenodd" clip-rule="evenodd" d="M95.757 9.19255C90.2475 8.84246 84.63 9.22549 78.9037 10.3416C82.7968 10.8105 85.6059 11.4486 87.3303 12.2568C81.7129 12.2568 76.0946 12.2568 70.4771 12.2568C74.5962 11.526 78.6816 10.3769 82.734 8.80952C74.8344 8.63716 67.0459 9.53115 59.3693 11.4907C58.7833 11.4371 58.4002 11.182 58.2202 10.7247C70.6058 7.36474 83.1178 6.85378 95.757 9.19255Z" fill="#441813"/>
<path opacity="0.996" fill-rule="evenodd" clip-rule="evenodd" d="M96.5229 9.95898C103.273 11.1831 109.401 13.7364 114.908 17.6195C108.784 14.9016 102.655 12.3483 96.5229 9.95898Z" fill="#35100D"/>
<path opacity="0.01" fill-rule="evenodd" clip-rule="evenodd" d="M122.569 11.4912C123.59 12.0022 123.59 12.0022 122.569 11.4912V11.4912Z" fill="#FAE4C9"/>
<path opacity="0.999" fill-rule="evenodd" clip-rule="evenodd" d="M70.4773 12.2572C70.3923 12.7299 70.1372 13.1129 69.7113 13.4063C73.4427 18.5082 75.3579 24.2536 75.4567 30.6426C75.8397 39.8314 75.9676 49.0241 75.8397 58.2206C75.2046 52.2277 74.8216 46.0993 74.6906 39.8352C74.4355 45.7086 74.1797 51.5812 73.9246 57.4545C72.7165 59.2524 73.3554 60.4015 75.8397 60.9018C69.1727 61.091 62.5333 61.6019 55.9223 62.4339C56.6485 62.8039 57.4145 62.931 58.2204 62.8169C57.1334 63.5454 55.8571 63.8005 54.3901 63.583C49.4276 62.9533 44.4483 62.9533 39.452 63.583C39.1211 62.7403 39.5041 62.2293 40.6011 62.0508C44.4398 61.4748 48.2701 60.8366 52.092 60.1357C51.1015 59.7603 50.0795 59.6324 49.0277 59.7527C56.0149 58.5592 63.1645 58.0482 70.4773 58.2206C70.236 55.2552 70.4911 52.446 71.2434 49.7939C72.1381 45.2252 72.2653 37.5646 71.6264 26.8123C71.5069 24.7508 70.8688 22.9636 69.7113 21.4499C67.8467 19.4037 66.0595 17.2335 64.3489 14.9384C58.3346 15.3253 52.7163 17.1125 47.4956 20.3008C31.2384 30.2044 21.7906 44.6315 19.1516 63.583C19.1845 64.2847 19.4396 64.7956 19.9176 65.1151C22.9098 64.9864 25.9741 65.3694 29.1103 66.2641C25.0356 67.4883 20.9503 67.8713 16.8534 67.4132C16.383 63.9913 15.8728 60.6719 15.3213 57.4545C15.7097 54.7097 16.4757 52.1557 17.6195 49.7939C19.648 45.9675 21.691 41.6263 23.7479 36.771C31.6659 23.506 43.1567 14.8243 58.2204 10.7251C58.4004 11.1824 58.7835 11.4375 59.3695 11.4912C67.0461 9.53158 74.8346 8.6376 82.7342 8.80996C78.6818 10.3773 74.5964 11.5264 70.4773 12.2572Z" fill="#632719"/>
<path fill-rule="evenodd" clip-rule="evenodd" d="M70.477 12.2568C76.0945 12.2568 81.7127 12.2568 87.3302 12.2568C92.5785 13.2067 97.6858 14.8668 102.651 17.2362C109.735 23.8994 113.438 32.198 113.759 42.133C114.279 48.0002 114.662 53.8736 114.908 59.7523C106.99 59.2842 99.0731 58.7733 91.1605 58.2202C86.0532 58.2202 80.9467 58.2202 75.8394 58.2202C75.9673 49.0237 75.8394 39.831 75.4564 30.6422C75.3575 24.2533 73.4424 18.5079 69.7109 13.4059C70.1369 13.1125 70.392 12.7295 70.477 12.2568Z" fill="#E3683B"/>
<path fill-rule="evenodd" clip-rule="evenodd" d="M69.7111 21.45C71.0999 30.8257 71.6109 40.2742 71.2432 49.794C70.4909 52.4461 70.2358 55.2552 70.4771 58.2206C63.1643 58.0483 56.0147 58.5592 49.0275 59.7528C39.186 60.8819 29.4832 62.6691 19.9174 65.1151C19.4394 64.7957 19.1843 64.2847 19.1514 63.583C21.7904 44.6316 31.2382 30.2044 47.4954 20.3009C52.7161 17.1125 58.3344 15.3253 64.3487 14.9385C66.0593 17.2336 67.8465 19.4038 69.7111 21.45Z" fill="#E36A3D"/>
<path fill-rule="evenodd" clip-rule="evenodd" d="M121.037 26.812C124.379 30.9166 127.699 35.0019 130.996 39.0689C135.098 47.5476 137.652 56.4852 138.656 65.8809C134.61 64.7019 130.524 63.6808 126.399 62.8167C123.846 62.3057 121.292 61.7955 118.739 61.2845C118.866 55.4058 118.739 49.5325 118.356 43.6653C118.204 42.2235 117.821 40.9473 117.207 39.835C116.999 32.8286 114.956 26.4451 111.078 20.6836C111.463 19.9014 111.973 19.7735 112.61 20.3005C115.412 22.4693 118.222 24.6395 121.037 26.812Z" fill="#E46B3E"/>
<path opacity="0.01" fill-rule="evenodd" clip-rule="evenodd" d="M19.1518 29.1106C18.6408 28.0894 18.6408 28.0894 19.1518 29.1106V29.1106Z" fill="#FAE3C8"/>
<path opacity="0.01" fill-rule="evenodd" clip-rule="evenodd" d="M143.252 29.876C144.274 30.3869 144.274 30.3869 143.252 29.876V29.876Z" fill="#FBE5CC"/>
<path fill-rule="evenodd" clip-rule="evenodd" d="M121.037 26.8125C123.794 28.1631 125.964 30.2061 127.548 32.9409C127.931 32.5579 128.314 32.1749 128.697 31.7919C127.401 30.7186 126.89 29.3144 127.165 27.5786C133.936 34.7305 138.533 43.1571 140.954 52.8584C138.559 48.2896 136.133 43.1823 133.677 37.5373C131.843 35.6267 130.949 36.1377 130.995 39.0694C127.699 35.0024 124.379 30.917 121.037 26.8125Z" fill="#4E1C14"/>
<path fill-rule="evenodd" clip-rule="evenodd" d="M23.7476 36.7705C21.6907 41.6258 19.6477 45.967 17.6191 49.7935C18.6518 44.9213 20.6949 40.5801 23.7476 36.7705Z" fill="#2F0F0B"/>
<path fill-rule="evenodd" clip-rule="evenodd" d="M69.7109 21.4492C70.8684 22.9629 71.5066 24.7502 71.6261 26.8116C72.265 37.564 72.1378 45.2245 71.243 49.7933C71.6108 40.2735 71.0998 30.825 69.7109 21.4492Z" fill="#2B0B07"/>
<path opacity="0.012" fill-rule="evenodd" clip-rule="evenodd" d="M147.849 45.9639C148.87 46.4748 148.87 46.4748 147.849 45.9639V45.9639Z" fill="#FAE8CE"/>
<path fill-rule="evenodd" clip-rule="evenodd" d="M89.6286 25.2803C104.666 25.6618 110.411 33.3223 106.865 48.2619C102.629 55.292 96.6288 57.4623 88.8625 54.7734C81.0741 48.5002 78.9031 40.7117 82.3511 31.4087C84.4746 28.8938 86.9007 26.8507 89.6286 25.2803Z" fill="#FEEBCE"/>
<path fill-rule="evenodd" clip-rule="evenodd" d="M97.2889 52.092C96.4991 50.2068 95.9881 48.1644 95.7568 45.9636C94.649 45.111 93.372 44.983 91.9265 45.5805C90.9406 46.6607 90.0466 47.8098 89.2453 49.0278C87.7132 44.4315 87.7132 39.8351 89.2453 35.2388C89.8834 34.6007 90.5223 33.9618 91.1604 33.3236C93.7137 32.8127 96.2677 32.8127 98.821 33.3236C99.7242 36.7249 99.7242 40.1722 98.821 43.6654C99.0922 45.7728 99.6031 47.8151 100.353 49.7938C99.492 50.8349 98.4701 51.601 97.2889 52.092Z" fill="#D86137"/>
<path opacity="0.994" fill-rule="evenodd" clip-rule="evenodd" d="M97.2894 52.0914C98.4707 51.6004 99.4926 50.8343 100.354 49.7932C99.6037 47.8145 99.0927 45.7722 98.8215 43.6648C99.7247 40.1716 99.7247 36.7243 98.8215 33.323C96.2682 32.8121 93.7142 32.8121 91.1609 33.323C90.5228 33.9612 89.8839 34.6001 89.2458 35.2382C87.7137 39.8345 87.7137 44.4309 89.2458 49.0272C90.0471 47.8092 90.9411 46.6601 91.927 45.5799C93.3726 44.9824 94.6496 45.1103 95.7573 45.963C93.0837 45.6956 91.2965 46.8447 90.3949 49.4102C89.6687 49.7802 88.9026 49.9074 88.0967 49.7932C87.3866 44.9587 87.2587 40.1072 87.7137 35.2382C90.2064 31.6201 93.6537 30.471 98.0555 31.7909C99.7584 32.2904 100.652 33.4395 100.737 35.2382C101.32 38.1737 100.937 40.9821 99.5876 43.6648C100.915 46.3115 101.17 48.9927 100.354 51.7084C99.3631 52.0838 98.3412 52.2117 97.2894 52.0914Z" fill="#CF3E19"/>
<path fill-rule="evenodd" clip-rule="evenodd" d="M92.6931 35.2386C96.1924 34.9192 97.3415 36.4513 96.1403 39.8349C95.0709 41.3877 93.7947 41.6428 92.31 40.601C91.7715 38.7402 91.8987 36.953 92.6931 35.2386Z" fill="#FDDAB2"/>
<path opacity="0.01" fill-rule="evenodd" clip-rule="evenodd" d="M149.381 51.3262C150.402 51.8371 150.402 51.8371 149.381 51.3262V51.3262Z" fill="#FDE4CD"/>
<path opacity="0.01" fill-rule="evenodd" clip-rule="evenodd" d="M7.66056 57.4543C7.1496 56.4332 7.1496 56.4332 7.66056 57.4543V57.4543Z" fill="#FDE4CA"/>
<path opacity="0.01" fill-rule="evenodd" clip-rule="evenodd" d="M3.06445 58.9863C4.08561 59.4973 4.08561 59.4973 3.06445 58.9863V58.9863Z" fill="#FDE7CF"/>
<path opacity="0.01" fill-rule="evenodd" clip-rule="evenodd" d="M5.3623 60.5186C6.38346 61.0295 6.38346 61.0295 5.3623 60.5186V60.5186Z" fill="#FBE4C7"/>
<path fill-rule="evenodd" clip-rule="evenodd" d="M75.8393 58.2203C80.9466 58.2203 86.0532 58.2203 91.1604 58.2203C86.4094 59.0729 81.5579 59.9661 76.6054 60.9015C82.7338 61.1566 88.8623 61.4125 94.9907 61.6676C85.9199 61.797 76.983 62.18 68.1788 62.8166C64.8594 62.8166 61.5394 62.8166 58.22 62.8166C57.4142 62.9308 56.6481 62.8036 55.9219 62.4336C62.5329 61.6017 69.1723 61.0907 75.8393 60.9015C73.355 60.4013 72.7161 59.2522 73.9242 57.4542C74.1793 51.5809 74.4351 45.7083 74.6902 39.835C74.8212 46.099 75.2043 52.2274 75.8393 58.2203Z" fill="#481911"/>
<path fill-rule="evenodd" clip-rule="evenodd" d="M58.22 62.8162C61.5393 62.8162 64.8594 62.8162 68.1787 62.8162C87.7706 61.8755 107.177 63.2797 126.399 67.0295C133.278 68.3824 139.535 71.0636 145.167 75.0731C145.678 76.8603 145.678 78.6483 145.167 80.4355C144.85 80.7856 144.467 81.0415 144.018 81.2016C128.255 76.7447 112.168 74.1914 95.7567 73.541C74.5293 72.3107 53.3348 72.5658 32.1741 74.3071C30.9492 74.1018 29.928 74.3576 29.1099 75.0731C24.7801 75.6875 20.4396 75.8154 16.0869 75.4562C14.1802 73.5188 14.4353 71.7316 16.853 70.0938C29.2003 66.8832 41.713 64.713 54.3897 63.5823C55.8567 63.7999 57.1329 63.5448 58.22 62.8162Z" fill="#E56C3E"/>
<path fill-rule="evenodd" clip-rule="evenodd" d="M141.72 54.3896C142.793 58.9078 143.432 63.5042 143.635 68.1787C144.512 69.0489 145.406 69.8149 146.316 70.4768C144.869 70.6323 143.72 70.1221 142.869 68.9447C142.203 64.605 141.565 60.2638 140.954 55.9218C140.987 55.2201 141.242 54.7091 141.72 54.3896Z" fill="#3A100B"/>
<path fill-rule="evenodd" clip-rule="evenodd" d="M15.3209 57.4541C15.8724 60.6715 16.3826 63.9909 16.853 67.4128C20.9498 67.8709 25.0352 67.4879 29.1099 66.2637C25.9736 65.369 22.9094 64.986 19.9172 65.1147C29.4829 62.6686 39.1858 60.8814 49.0273 59.7523C50.0791 59.632 51.101 59.7599 52.0915 60.1353C48.2697 60.8362 44.4394 61.4744 40.6007 62.0504C39.5037 62.2289 39.1207 62.7399 39.4516 63.5825C44.4478 62.9529 49.4272 62.9529 54.3897 63.5825C41.713 64.7132 29.2003 66.8835 16.853 70.094C14.4353 71.7319 14.1802 73.5191 16.0869 75.4564C20.4396 75.8157 24.7801 75.6878 29.1099 75.0734C25.6251 76.3052 20.5178 76.9433 13.7887 76.9885C14.7371 77.5171 14.7371 77.9001 13.7887 78.1376C8.58109 73.8883 8.70902 69.8029 14.1718 65.8807C14.5916 63.0693 14.9746 60.2602 15.3209 57.4541Z" fill="#521E14"/>
<path fill-rule="evenodd" clip-rule="evenodd" d="M95.7572 9.19277C96.2682 9.19277 96.5233 9.44786 96.5233 9.95882C102.656 12.3482 108.784 14.9014 114.909 17.6194C119.844 19.8394 123.929 23.1587 127.166 27.5781C126.89 29.314 127.401 30.7182 128.698 31.7914C128.315 32.1744 127.932 32.5575 127.549 32.9405C125.964 30.2057 123.794 28.1626 121.037 26.8121C118.222 24.6395 115.413 22.4693 112.61 20.3006C111.973 19.7735 111.463 19.9015 111.078 20.6836C114.956 26.4451 116.999 32.8287 117.207 39.835C117.65 47.2328 118.033 54.6383 118.356 62.0506C121.07 63.2955 123.751 63.5513 126.399 62.8167C130.524 63.6808 134.61 64.7019 138.656 65.8809C137.652 56.4852 135.098 47.5477 130.996 39.0689C130.95 36.1372 131.844 35.6263 133.677 37.5368C136.133 43.1819 138.559 48.2892 140.955 52.858C141.596 53.1199 141.852 53.6301 141.721 54.3901C141.243 54.7095 140.987 55.2205 140.955 55.9222C141.565 60.2642 142.203 64.6054 142.87 68.9451C143.72 70.1226 144.869 70.6327 146.317 70.4772C148.164 70.1992 149.313 70.9652 149.764 72.7754C151.039 82.6077 146.826 86.949 137.124 85.7984C136.378 87.5166 136.122 89.3038 136.358 91.1607C135.805 91.481 135.422 91.9911 135.209 92.6929C135.058 90.8842 134.164 89.6072 132.528 88.8626C131.524 92.6599 130.758 95.9792 130.23 98.8213C130.357 93.7079 130.23 88.6006 129.847 83.5002C129.553 83.0743 129.17 82.8192 128.698 82.7341C124.75 81.4916 120.665 80.4704 116.441 79.6699C111.19 79.4899 106.083 78.9789 101.12 78.1378C92.9879 76.8914 82.7741 75.9982 70.4774 75.4566C79.0143 74.7258 87.4409 74.0877 95.7572 73.5415C112.168 74.1918 128.256 76.7451 144.019 81.202C144.468 81.0419 144.851 80.786 145.168 80.436C145.679 78.6488 145.679 76.8608 145.168 75.0736C139.535 71.064 133.279 68.3828 126.399 67.03C107.178 63.2801 87.7711 61.876 68.1792 62.8167C76.9835 62.1801 85.9203 61.7971 94.9912 61.6676C88.8627 61.4125 82.7343 61.1566 76.6058 60.9015C81.5584 59.9662 86.4098 59.073 91.1609 58.2203C99.0735 58.7734 106.99 59.2844 114.909 59.7525C114.663 53.8737 114.28 48.0004 113.76 42.1332C113.439 32.1982 109.735 23.8995 102.652 17.2364C97.6861 14.8669 92.5788 13.2069 87.3306 12.257C85.6062 11.4488 82.7971 10.8107 78.904 10.3419C84.6302 9.22571 90.2477 8.84268 95.7572 9.19277Z" fill="#632719"/>
<path fill-rule="evenodd" clip-rule="evenodd" d="M117.207 39.835C117.821 40.9473 118.204 42.2235 118.356 43.6652C118.739 49.5325 118.866 55.4058 118.739 61.2845C121.292 61.7955 123.846 62.3057 126.399 62.8166C123.751 63.5513 121.07 63.2954 118.356 62.0506C118.033 54.6382 117.65 47.2328 117.207 39.835Z" fill="#3B140E"/>
<path opacity="0.01" fill-rule="evenodd" clip-rule="evenodd" d="M157.808 72.7754C158.829 73.2863 158.829 73.2863 157.808 72.7754V72.7754Z" fill="#FAE4CC"/>
<path fill-rule="evenodd" clip-rule="evenodd" d="M95.757 73.5415C87.4407 74.0877 79.014 74.7259 70.4771 75.4567C82.7738 75.9983 92.9877 76.8915 101.119 78.1379C84.784 77.5419 68.4417 77.2868 52.0918 77.3718C50.0334 77.4975 47.9903 77.3695 45.9633 76.9888C48.7724 76.7337 51.5808 76.4778 54.3899 76.2227C55.8332 76.0573 57.1102 75.5463 58.2202 74.6906C49.4029 74.6002 40.7212 74.4731 32.1743 74.3076C53.3351 72.5663 74.5295 72.3113 95.757 73.5415Z" fill="#4C1A12"/>
<path fill-rule="evenodd" clip-rule="evenodd" d="M29.1102 75.0739C29.9283 74.3584 30.9495 74.1025 32.1744 74.3078C40.7213 74.4733 49.403 74.6005 58.2203 74.6909C57.1103 75.5465 55.8333 76.0575 54.39 76.223C51.5809 76.4781 48.7725 76.7339 45.9634 76.989C47.9904 77.3697 50.0335 77.4977 52.0919 77.372C49.9569 78.1205 47.6587 78.3756 45.1974 78.1381C45.4233 79.8502 45.1675 81.3823 44.4313 82.7344C44.4313 80.6914 44.4313 78.6491 44.4313 76.606C42.749 76.537 41.089 76.2819 39.4519 75.8399C37.608 76.7056 35.6929 77.3437 33.7065 77.7551C35.4937 78.0102 37.2817 78.266 39.0689 78.5211C39.4496 81.7347 38.9387 84.9261 37.5368 88.0968C36.5026 89.2076 35.2264 89.7186 33.7065 89.6289C33.8268 90.6807 33.6989 91.7027 33.3235 92.6932C31.7102 90.6876 29.795 89.1555 27.5781 88.0968C24.5958 85.29 21.2765 85.0349 17.6193 87.3308C16.9169 86.8505 16.1508 86.5946 15.3212 86.5647C16.5384 85.1812 18.0705 84.1601 19.9175 83.5005C21.8939 81.8052 21.8939 80.1452 19.9175 78.5211C18.223 77.9167 16.6909 78.0446 15.3212 78.9042C14.5612 79.0359 14.0511 78.7801 13.7891 78.1381C14.7374 77.9006 14.7374 77.5176 13.7891 76.989C20.5181 76.9438 25.6254 76.3057 29.1102 75.0739Z" fill="#73311E"/>
<path opacity="0.999" fill-rule="evenodd" clip-rule="evenodd" d="M44.4314 82.7343C42.9337 98.8047 37.3162 100.592 27.5781 88.0967C29.7951 89.1554 31.7102 90.6875 33.3235 92.6931C33.6989 91.7026 33.8268 90.6806 33.7066 89.6288C35.2264 89.7185 36.5027 89.2075 37.5369 88.0967C38.9387 84.926 39.4497 81.7346 39.069 78.521C37.2818 78.2659 35.4938 78.0101 33.7066 77.755C35.693 77.3436 37.6081 76.7055 39.452 75.8398C41.0891 76.2819 42.7491 76.537 44.4314 76.6059C44.4314 78.649 44.4314 80.6913 44.4314 82.7343Z" fill="#612518"/>
<path opacity="0.01" fill-rule="evenodd" clip-rule="evenodd" d="M4.59643 79.6699C4.69679 80.236 4.56885 80.747 4.2134 81.202C3.68329 80.4842 3.81123 79.974 4.59643 79.6699Z" fill="#FCE5CD"/>
<path opacity="0.999" fill-rule="evenodd" clip-rule="evenodd" d="M116.441 79.6705C120.665 80.471 124.75 81.4922 128.698 82.7347C129.081 90.5217 129.081 98.1822 128.698 105.716C128.166 110.5 127.145 115.097 125.633 119.505C125.174 120.578 124.408 121.344 123.335 121.804C102.395 121.676 81.4557 121.804 60.5186 122.187C59.6047 123.025 58.5828 123.664 57.4544 124.102C56.4639 123.225 55.5707 123.48 54.7732 124.868C54.3641 128.207 54.4913 131.526 55.1562 134.827C52.3946 134.597 49.8406 133.704 47.4957 132.145C43.9902 129.531 40.926 126.594 38.303 123.336C36.8475 121.712 35.5712 119.924 34.4727 117.973C34 116.303 33.234 114.771 32.1745 113.377C30.1001 114.86 27.8019 115.243 25.28 114.526C14.5943 109.546 11.4022 101.502 15.7043 90.3953C18.7203 87.3847 22.1676 86.6186 26.0461 88.0971C28.4285 90.6465 30.9826 93.5836 33.7066 96.9067C37.1003 98.5017 40.0366 97.8636 42.5163 94.9916C44.9991 89.9119 46.1482 84.5495 45.9635 78.9044C61.287 78.7765 76.6081 78.9044 91.9269 79.2875C93.97 79.7984 93.97 80.3086 91.9269 80.8196C92.8125 82.0568 93.8336 82.0568 94.9911 80.8196C94.736 80.5645 94.4802 80.3086 94.2251 80.0535C101.767 79.9562 109.172 79.8283 116.441 79.6705Z" fill="#FDC295"/>
<path fill-rule="evenodd" clip-rule="evenodd" d="M71.2434 105.716C71.2434 105.971 71.2434 106.227 71.2434 106.482C67.9187 108.733 64.8545 108.478 62.0507 105.716C61.7956 104.183 61.5398 102.651 61.2847 101.119C62.1587 98.1492 63.0527 95.085 63.9659 91.9266C67.168 88.6386 69.7212 89.1488 71.6264 93.4587C72.4285 97.4843 72.0455 101.315 70.4773 104.95C70.5723 105.415 70.8274 105.67 71.2434 105.716Z" fill="#6A2B1A"/>
<path fill-rule="evenodd" clip-rule="evenodd" d="M71.2434 106.482C71.2434 106.226 71.2434 105.971 71.2434 105.716C73.7967 101.369 74.1797 96.7726 72.3925 91.9265C69.5627 88.2173 66.4984 87.9622 63.1998 91.1605C61.7451 94.3174 61.1069 97.6367 61.2847 101.119C61.5398 102.651 61.7956 104.183 62.0507 105.716C62.1005 106.051 61.9734 106.307 61.6677 106.482C58.808 99.9188 59.702 93.9183 64.3489 88.4793C68.8556 87.0069 72.047 88.4111 73.9246 92.6926C74.8316 95.7177 75.0875 98.782 74.6906 101.885C74.0839 103.882 72.9348 105.414 71.2434 106.482Z" fill="#F9E4B6"/>
<path fill-rule="evenodd" clip-rule="evenodd" d="M71.2431 105.716C70.8272 105.67 70.5721 105.415 70.4771 104.95C72.0452 101.315 72.4282 97.4847 71.6262 93.4591C69.721 89.1492 67.1677 88.639 63.9656 91.927C63.0525 95.0854 62.1585 98.1496 61.2844 101.12C61.1067 97.6371 61.7448 94.3178 63.1995 91.1609C66.4982 87.9626 69.5624 88.2177 72.3922 91.927C74.1794 96.773 73.7964 101.369 71.2431 105.716Z" fill="#3F0F0A"/>
<path fill-rule="evenodd" clip-rule="evenodd" d="M117.973 106.482C117.462 107.503 116.696 108.269 115.674 108.78C114.302 108.16 112.77 107.777 111.078 107.631C110.184 107.248 109.546 106.61 109.163 105.716C108.49 102.049 108.745 98.4741 109.929 94.9908C112.264 92.302 114.817 92.0469 117.59 94.2248C117.867 98.4948 117.995 102.58 117.973 106.482Z" fill="#6F2E1B"/>
<path opacity="0.998" fill-rule="evenodd" clip-rule="evenodd" d="M119.505 95.7565C119.797 99.4849 119.286 103.06 117.973 106.481C117.995 102.58 117.867 98.4944 117.59 94.2244C114.817 92.0465 112.264 92.3016 109.929 94.9904C108.745 98.4737 108.49 102.048 109.163 105.715C109.546 106.609 110.184 107.247 111.078 107.63C112.77 107.777 114.302 108.16 115.674 108.779C109.396 110.039 106.587 107.358 107.248 100.736C107.144 98.3818 107.654 96.2115 108.78 94.2244C113.179 89.7667 116.754 90.2769 119.505 95.7565Z" fill="#4E1810"/>
<path opacity="0.992" fill-rule="evenodd" clip-rule="evenodd" d="M52.0918 77.3714C68.4417 77.2864 84.784 77.5415 101.119 78.1375C106.083 78.9786 111.19 79.4896 116.44 79.6696C109.172 79.8274 101.767 79.9553 94.2249 80.0526C94.48 80.3077 94.7358 80.5636 94.9909 80.8187C93.8334 82.0558 92.8123 82.0558 91.9267 80.8187C93.9698 80.3077 93.9698 79.7975 91.9267 79.2866C76.6079 78.9035 61.2868 78.7756 45.9634 78.9035C46.148 84.5486 44.9989 89.911 42.5161 94.9907C40.0364 97.8626 37.1001 98.5008 33.7065 96.9058C30.9824 93.5827 28.4283 90.6456 26.0459 88.0962C26.5569 88.0962 27.0671 88.0962 27.578 88.0962C37.3161 100.591 42.9336 98.8041 44.4312 82.7338C45.1674 81.3817 45.4233 79.8496 45.1973 78.1375C47.6586 78.3749 49.9568 78.1198 52.0918 77.3714Z" fill="#FADFB0"/>
<path fill-rule="evenodd" clip-rule="evenodd" d="M15.3211 78.9037C16.6908 78.0442 18.2229 77.9162 19.9174 78.5207C21.8938 80.1447 21.8938 81.8047 19.9174 83.5C18.0705 84.1596 16.5383 85.1808 15.3211 86.5643C13.1577 88.3262 11.7536 90.6243 11.1078 93.4588C10.9745 97.43 10.5915 101.26 9.95869 104.95C7.62835 94.5557 10.9477 86.6401 19.9174 81.2019C19.8347 80.4802 19.5796 79.8421 19.1514 79.2867C17.8996 78.9083 16.6226 78.7811 15.3211 78.9037Z" fill="#3C110D"/>
<path opacity="0.999" fill-rule="evenodd" clip-rule="evenodd" d="M137.124 93.459C138.377 94.4158 139.271 95.6928 139.805 97.2893C140.41 102.204 140.283 107.055 139.422 111.844C138.911 107.62 138.401 103.279 137.89 98.8214C136.961 102.138 136.961 105.457 137.89 108.78C137.671 111.359 136.522 113.402 134.443 114.909C134.137 114.734 134.01 114.478 134.06 114.142C136.811 108.728 137.067 103.11 134.826 97.2893C135.925 95.8023 136.691 94.5253 137.124 93.459Z" fill="#53241B"/>
<path fill-rule="evenodd" clip-rule="evenodd" d="M128.698 82.7344C129.17 82.8194 129.553 83.0745 129.847 83.5004C130.23 88.6008 130.357 93.7081 130.23 98.8216C129.537 99.3647 129.282 100.131 129.464 101.12C128.819 102.559 128.564 104.091 128.698 105.716C129.081 98.1819 129.081 90.5213 128.698 82.7344Z" fill="#FAEABB"/>
<path opacity="0.01" fill-rule="evenodd" clip-rule="evenodd" d="M0 98.0557C1.02115 98.5666 1.02115 98.5666 0 98.0557V98.0557Z" fill="#FCE7CC"/>
<path opacity="0.999" fill-rule="evenodd" clip-rule="evenodd" d="M136.358 91.1605C136.402 92.01 136.657 92.7761 137.124 93.4586C136.691 94.525 135.925 95.802 134.826 97.2889C134.315 98.821 133.805 100.353 133.294 101.885C133.418 100.332 133.29 98.8003 132.911 97.2889C132.291 103.561 131.015 109.689 129.081 115.674C129.122 111.841 129.505 108.011 130.23 104.183C130.221 103 129.966 101.979 129.464 101.119C129.282 100.13 129.537 99.3642 130.23 98.821C130.758 95.979 131.524 92.6596 132.528 88.8623C134.164 89.6069 135.058 90.8839 135.209 92.6926C135.422 91.9909 135.805 91.4807 136.358 91.1605Z" fill="#73311F"/>
<path opacity="0.999" fill-rule="evenodd" clip-rule="evenodd" d="M24.5136 96.5234C29.6676 96.8666 31.4548 99.4199 29.876 104.184C25.7929 105.353 23.7499 103.693 23.7476 99.2046C23.8609 98.2425 24.1168 97.3485 24.5136 96.5234Z" fill="#CD6D47"/>
<path fill-rule="evenodd" clip-rule="evenodd" d="M108.78 94.225C107.654 96.2122 107.144 98.3824 107.248 100.737C106.587 107.358 109.396 110.039 115.675 108.78C116.696 108.269 117.462 107.503 117.973 106.482C119.287 103.061 119.798 99.4855 119.505 95.7572C120.38 98.2338 120.508 101.298 119.888 104.95C117.812 110.367 114.11 111.772 108.78 109.163C107.86 108.471 107.221 107.578 106.865 106.482C106.354 102.907 106.354 99.3323 106.865 95.7572C107.186 94.8593 107.696 94.0933 108.397 93.459C108.703 93.6336 108.83 93.8895 108.78 94.225Z" fill="#FDEEC0"/>
<path opacity="0.996" fill-rule="evenodd" clip-rule="evenodd" d="M134.826 97.2891C137.067 103.11 136.811 108.728 134.06 114.142C133.474 115.031 132.708 115.797 131.762 116.44C131.507 115.674 131.251 114.908 130.996 114.142C132.24 110.13 133.007 106.045 133.294 101.885C133.805 100.353 134.315 98.8212 134.826 97.2891Z" fill="#F0AD7B"/>
<path fill-rule="evenodd" clip-rule="evenodd" d="M83.4999 111.845C86.5228 112.525 89.587 113.291 92.6926 114.143C94.7579 113.284 96.801 113.284 98.8211 114.143C96.647 116.965 93.7099 118.242 90.0114 117.973C86.722 118.182 84.2966 116.905 82.7339 114.143C82.7776 113.293 83.0326 112.527 83.4999 111.845Z" fill="#511A11"/>
<path fill-rule="evenodd" clip-rule="evenodd" d="M82.7338 114.142C84.2966 116.904 86.7219 118.181 90.0114 117.973C93.7099 118.242 96.6469 116.964 98.821 114.142C96.8009 113.284 94.7578 113.284 92.6926 114.142C89.587 113.29 86.5227 112.524 83.4999 111.844C82.9338 111.945 82.4228 111.817 81.9678 111.461C82.9889 111.333 84.0108 111.206 85.032 111.078C89.8252 112.603 94.6766 113.114 99.5871 112.61C99.908 114.774 99.142 116.434 97.2889 117.59C91.4347 120.58 86.3274 119.686 81.9678 114.908C82.0628 114.443 82.3179 114.188 82.7338 114.142Z" fill="#FBE1B1"/>
<path opacity="0.01" fill-rule="evenodd" clip-rule="evenodd" d="M147.083 114.143C148.104 114.654 148.104 114.654 147.083 114.143V114.143Z" fill="#FAE7CE"/>
<path opacity="0.01" fill-rule="evenodd" clip-rule="evenodd" d="M149.381 114.143C150.402 114.654 150.402 114.654 149.381 114.143V114.143Z" fill="#FCE5CC"/>
<path opacity="0.01" fill-rule="evenodd" clip-rule="evenodd" d="M152.445 115.675C153.466 116.186 153.466 116.186 152.445 115.675V115.675Z" fill="#FAE5CD"/>
<path opacity="0.999" fill-rule="evenodd" clip-rule="evenodd" d="M133.294 101.885C133.006 106.045 132.24 110.13 130.996 114.142C131.251 114.908 131.507 115.674 131.762 116.44C132.708 115.797 133.474 115.031 134.06 114.142C134.01 114.478 134.137 114.734 134.443 114.908C136.522 113.402 137.671 111.359 137.89 108.78C136.961 105.457 136.961 102.137 137.89 98.8212C138.401 103.279 138.911 107.62 139.422 111.844C139.167 112.865 138.911 113.887 138.656 114.908C135.884 117.17 133.331 119.723 130.996 122.569C137.083 122.657 143.211 122.785 149.381 122.952C150.911 124.861 151.677 127.031 151.679 129.463C151.807 139.425 151.679 149.384 151.296 159.34C151.041 150.147 150.785 140.954 150.53 131.762C149.922 134.038 149.411 136.336 148.998 138.656C148.743 145.806 148.487 152.956 148.232 160.106C148.102 150.78 147.719 141.587 147.083 132.528C147.083 131.762 147.083 130.996 147.083 130.229C147.143 129.134 146.888 128.112 146.317 127.165C140.979 126.401 135.616 126.146 130.23 126.399C136.301 125.968 142.429 125.329 148.615 124.484C147.765 123.995 146.872 123.612 145.934 123.335C140.734 124.059 135.499 124.314 130.23 124.101C130.436 121.784 129.797 119.741 128.314 117.973C127.253 118.778 126.487 119.799 126.016 121.037C125.661 120.582 125.533 120.071 125.633 119.505C127.145 115.096 128.166 110.5 128.697 105.716C128.563 104.091 128.819 102.559 129.463 101.119C129.966 101.979 130.221 103 130.23 104.184C129.505 108.011 129.122 111.841 129.08 115.674C131.015 109.689 132.291 103.561 132.911 97.2891C133.29 98.8005 133.418 100.333 133.294 101.885Z" fill="#511B12"/>
<path opacity="0.01" fill-rule="evenodd" clip-rule="evenodd" d="M13.0229 122.569C14.0441 123.08 14.0441 123.08 13.0229 122.569V122.569Z" fill="#FCE5CC"/>
<path opacity="0.027" fill-rule="evenodd" clip-rule="evenodd" d="M15.3213 123.335C16.3424 123.846 16.3424 123.846 15.3213 123.335V123.335Z" fill="#F9E5CB"/>
<path fill-rule="evenodd" clip-rule="evenodd" d="M27.5778 88.0969C27.0668 88.0969 26.5566 88.0969 26.0457 88.0969C22.1671 86.6185 18.7199 87.3845 15.7039 90.3951C11.4017 101.502 14.5939 109.546 25.2796 114.526C27.8015 115.243 30.0996 114.86 32.1741 113.377C33.2336 114.771 33.9996 116.303 34.4723 117.973C34.0563 118.019 33.8012 118.274 33.7062 118.739C35.1755 121.423 36.8348 123.977 38.6856 126.4C40.4881 129.567 39.85 130.205 36.7705 128.315C33.7928 125.737 32.0056 122.545 31.4081 118.739C26.8837 118.423 22.5425 117.402 18.3851 115.675C13.8953 113.476 11.0861 109.902 9.9585 104.95C10.5913 101.261 10.9743 97.4306 11.1076 93.4593C11.7534 90.6249 13.1575 88.3268 15.3209 86.5648C16.1505 86.5947 16.9166 86.8506 17.6191 87.3309C21.2762 85.035 24.5955 85.2901 27.5778 88.0969Z" fill="#632719"/>
<path fill-rule="evenodd" clip-rule="evenodd" d="M123.335 121.803C104.059 122.44 84.6515 122.823 65.1148 122.952C66.902 123.207 68.69 123.463 70.4772 123.718C68.4341 123.973 66.3918 124.229 64.3487 124.484C68.179 124.739 72.0093 124.995 75.8396 125.25C71.8683 125.383 68.0381 125.766 64.3487 126.399C61.2845 125.888 60.0075 127.165 60.5185 130.229C60.5185 131.506 60.5185 132.783 60.5185 134.06C59.8911 136.209 59.508 138.507 59.3694 140.954C59.2729 135.765 58.6347 130.658 57.4542 125.633C57.4596 128.822 57.3317 132.142 57.0712 135.592C56.9195 134.15 56.5365 132.874 55.9221 131.762C55.7957 129.45 55.9237 127.151 56.3052 124.867C56.5986 124.441 56.9816 124.186 57.4542 124.101C58.5826 123.663 59.6046 123.025 60.5185 122.186C81.4555 121.803 102.395 121.675 123.335 121.803Z" fill="#44150F"/>
<path opacity="0.999" fill-rule="evenodd" clip-rule="evenodd" d="M64.3485 126.4C68.0294 127.156 71.8597 127.412 75.8393 127.166C75.5858 145.173 75.8409 163.047 76.6054 180.79C76.6054 183.599 76.6054 186.407 76.6054 189.216C73.7963 189.216 70.9879 189.216 68.1788 189.216C68.7931 184.886 68.9211 180.546 68.5618 176.193C66.8037 173.667 64.7606 171.369 62.4333 169.299C61.9262 167.527 61.5432 165.74 61.2843 163.936C62.2066 152.684 61.9515 141.448 60.5182 130.23C60.0072 127.166 61.2843 125.889 64.3485 126.4Z" fill="#F19969"/>
<path opacity="0.996" fill-rule="evenodd" clip-rule="evenodd" d="M38.3027 123.335C40.9257 126.594 43.9899 129.53 47.4954 132.145C49.8403 133.704 52.3943 134.597 55.156 134.826C54.491 131.526 54.3639 128.206 54.7729 124.867C55.5704 123.48 56.4636 123.224 57.4541 124.101C56.9815 124.186 56.5984 124.441 56.305 124.867C55.9236 127.151 55.7956 129.45 55.922 131.762C56.0461 133.314 55.9182 134.846 55.539 136.358C54.5002 135.684 53.3511 135.428 52.0917 135.592C48.2959 134.201 44.9766 132.03 42.133 129.08C40.666 127.242 39.3898 125.327 38.3027 123.335Z" fill="#FADDAC"/>
<path opacity="0.01" fill-rule="evenodd" clip-rule="evenodd" d="M160.105 132.527C161.127 133.038 161.127 133.038 160.105 132.527V132.527Z" fill="#F9E6CC"/>
<path fill-rule="evenodd" clip-rule="evenodd" d="M32.9404 131.761C33.276 131.712 33.5318 131.839 33.7065 132.145C28.3372 134.579 23.7409 138.026 19.9175 142.486C22.863 137.245 27.2042 133.67 32.9404 131.761Z" fill="#390E09"/>
<path opacity="0.999" fill-rule="evenodd" clip-rule="evenodd" d="M130.229 126.399C128.961 133.131 128.195 140.025 127.931 147.083C127.981 146.747 127.854 146.491 127.548 146.317C122.493 146.815 117.514 147.325 112.61 147.849C111.85 147.981 111.34 147.725 111.078 147.083C111.04 143.992 111.168 140.672 111.461 137.124C111.736 139.456 112.247 139.712 112.993 137.89C113.716 140.071 113.333 141.986 111.844 143.636C112.099 143.891 112.355 144.146 112.61 144.402C116.327 145.026 119.902 144.898 123.335 144.019C124.095 144.15 124.605 143.894 124.867 143.253C125.878 137.499 125.878 131.626 124.867 125.633C121.645 124.728 118.581 124.983 115.674 126.399C115.674 128.186 115.674 129.974 115.674 131.762C115.419 131.762 115.163 131.762 114.908 131.762C114.653 124.612 114.397 124.612 114.142 131.762C113.121 131.762 112.099 131.762 111.078 131.762C111.304 130.05 111.048 128.517 110.312 127.165C109.494 126.45 108.473 126.194 107.248 126.399C103.194 125.381 98.8532 124.87 94.2247 124.867C89.8835 124.995 85.543 125.122 81.2017 125.25C80.8187 125.633 80.4357 126.016 80.0527 126.399C79.5417 147.083 79.5417 167.766 80.0527 188.45C80.1898 185.749 80.5728 183.195 81.2017 180.789C81.2017 183.343 81.2017 185.897 81.2017 188.45C99.8422 188.45 118.483 188.45 137.124 188.45C118.614 189.087 99.9724 189.47 81.2017 189.599C100.096 189.982 118.992 190.11 137.89 189.982C141.465 190.493 145.039 191.003 148.615 191.514C120.145 192.152 91.545 192.535 62.8164 192.663C61.7953 192.918 60.7733 193.174 59.7522 193.429C60.2072 193.785 60.7182 193.913 61.2843 193.812C60.7412 194.505 59.9751 194.76 58.9861 194.578C56.0023 194.023 52.9381 193.513 49.7935 193.046C52.5252 191.971 55.3343 191.205 58.2201 190.748C59.2481 189.757 60.5251 189.119 62.0504 188.833C62.6264 188.319 62.8823 187.681 62.8164 186.918C63.3695 187.238 63.7525 187.748 63.9655 188.45C64.7829 187.084 65.932 186.701 67.4127 187.301C66.3916 188.067 66.3916 188.833 67.4127 189.599C70.6218 190.221 73.686 190.093 76.6054 189.216C77.2359 186.552 77.6189 183.743 77.7545 180.789C78.2655 162.404 78.2655 144.019 77.7545 125.633C77.6258 138.788 77.2428 151.811 76.6054 164.702C76.6054 151.934 76.6054 139.167 76.6054 126.399C72.52 126.399 68.4339 126.399 64.3485 126.399C68.0378 125.767 71.8681 125.383 75.8394 125.25C72.0091 124.995 68.1788 124.739 64.3485 124.484C66.3916 124.229 68.4339 123.973 70.477 123.718C68.6898 123.463 66.9018 123.207 65.1146 122.952C84.6513 122.823 104.059 122.44 123.335 121.803C124.407 121.343 125.173 120.577 125.633 119.505C125.533 120.071 125.661 120.582 126.016 121.037C126.487 119.799 127.253 118.778 128.314 117.973C129.797 119.741 130.435 121.784 130.229 124.101C135.499 124.314 140.733 124.059 145.933 123.335C146.872 123.612 147.765 123.995 148.615 124.484C142.429 125.329 136.3 125.968 130.229 126.399Z" fill="#71301F"/>
<path opacity="0.999" fill-rule="evenodd" clip-rule="evenodd" d="M114.908 131.762C114.908 132.783 114.908 133.805 114.908 134.826C114.908 137.635 114.908 140.443 114.908 143.252C117.56 144.005 120.369 144.26 123.335 144.019C119.902 144.898 116.327 145.026 112.61 144.402C112.355 144.146 112.099 143.891 111.844 143.635C113.333 141.986 113.716 140.071 112.993 137.89C112.247 139.712 111.736 139.456 111.461 137.124C111.168 140.672 111.04 143.992 111.078 147.083C110.317 140.584 110.062 133.944 110.312 127.165C111.048 128.517 111.304 130.049 111.078 131.762C112.099 131.762 113.121 131.762 114.142 131.762C114.397 124.612 114.653 124.612 114.908 131.762Z" fill="#4D1711"/>
<path fill-rule="evenodd" clip-rule="evenodd" d="M124.867 143.253C125.116 137.493 124.861 131.875 124.101 126.399C121.292 126.399 118.483 126.399 115.674 126.399C118.581 124.983 121.645 124.728 124.867 125.633C125.878 131.626 125.878 137.5 124.867 143.253Z" fill="#340702"/>
<path fill-rule="evenodd" clip-rule="evenodd" d="M124.101 126.399C124.861 131.875 125.116 137.493 124.867 143.253C124.605 143.895 124.095 144.15 123.335 144.019C120.369 144.26 117.56 144.005 114.908 143.253C117.972 143.253 121.037 143.253 124.101 143.253C124.101 137.635 124.101 132.017 124.101 126.399Z" fill="#A25237"/>
<path fill-rule="evenodd" clip-rule="evenodd" d="M115.674 126.399C118.483 126.399 121.292 126.399 124.101 126.399C124.101 132.017 124.101 137.635 124.101 143.253C121.037 143.253 117.972 143.253 114.908 143.253C114.908 140.444 114.908 137.635 114.908 134.826C115.658 137.22 115.914 139.773 115.674 142.487C118.228 142.487 120.782 142.487 123.335 142.487C123.335 137.379 123.335 132.273 123.335 127.165C121.023 127.322 118.725 127.577 116.44 127.932C116.819 130.553 116.564 131.83 115.674 131.762C115.674 129.975 115.674 128.187 115.674 126.399Z" fill="#FED292"/>
<path fill-rule="evenodd" clip-rule="evenodd" d="M64.3486 126.399C68.434 126.399 72.5202 126.399 76.6055 126.399C76.6055 139.167 76.6055 151.934 76.6055 164.702C76.6055 170.065 76.6055 175.427 76.6055 180.789C75.841 163.047 75.5859 145.172 75.8395 127.165C71.8598 127.411 68.0295 127.156 64.3486 126.399Z" fill="#FDCF90"/>
<path opacity="0.01" fill-rule="evenodd" clip-rule="evenodd" d="M160.105 144.785C161.127 145.296 161.127 145.296 160.105 144.785V144.785Z" fill="#FBE2CA"/>
<path fill-rule="evenodd" clip-rule="evenodd" d="M18.3853 115.675C22.5426 117.401 26.8839 118.423 31.4082 118.739C32.0057 122.545 33.7929 125.737 36.7706 128.315C39.8501 130.205 40.4883 129.566 38.6857 126.4C36.8349 123.977 35.1757 121.423 33.7064 118.739C33.8014 118.274 34.0565 118.019 34.4724 117.973C35.571 119.924 36.8472 121.712 38.3027 123.335C39.3897 125.327 40.666 127.242 42.133 129.081C44.9766 132.031 48.2959 134.202 52.0917 135.592C50.1191 135.663 48.0768 135.663 45.9633 135.592C43.2637 138.43 41.8595 141.749 41.75 145.551C42.2609 142.487 42.7711 142.487 43.2821 145.551C43.97 143.583 44.864 141.796 45.9633 140.189C43.4062 147.867 42.1292 155.783 42.133 163.936C41.4734 161.201 41.0904 157.881 40.9839 153.978C39.8823 155.05 39.2442 156.327 39.0688 157.808C32.3045 157.447 25.6658 156.936 19.1513 156.276C25.5349 156.276 31.9192 156.276 38.3027 156.276C38.3027 154.233 38.3027 152.19 38.3027 150.147C39.1959 145.281 40.9839 140.685 43.6651 136.358C43.0369 135.124 42.015 134.613 40.6009 134.826C41.763 133.88 43.04 133.88 44.4312 134.826C45.0501 134.59 45.5611 134.207 45.9633 133.677C44.7912 131.434 43.1312 130.796 40.9839 131.762C39.3874 130.79 37.7274 130.024 36.0045 129.464C33.7064 126.639 31.6641 123.575 29.8761 120.271C26.7483 119.612 23.6841 118.718 20.6834 117.59C19.5788 117.301 18.8127 116.663 18.3853 115.675Z" fill="#531C13"/>
<path opacity="0.999" fill-rule="evenodd" clip-rule="evenodd" d="M60.5181 130.229C61.9514 141.448 62.2065 152.683 61.2842 163.936C60.5334 154.038 60.2776 144.079 60.5181 134.06C60.5181 132.783 60.5181 131.507 60.5181 130.229Z" fill="#F6B67D"/>
<path fill-rule="evenodd" clip-rule="evenodd" d="M130.229 126.399C135.616 126.146 140.978 126.401 146.316 127.165C146.888 128.112 147.143 129.134 147.082 130.229C146.827 130.229 146.571 130.229 146.316 130.229C145.624 129.686 145.369 128.92 145.55 127.931C140.443 127.931 135.336 127.931 130.229 127.931C130.356 133.81 130.229 139.683 129.846 145.55C129.637 146.952 128.998 148.101 127.931 148.998C122.824 149.509 117.717 149.509 112.61 148.998C109.736 148.552 108.459 146.892 108.78 144.018C109.291 138.401 109.801 132.783 110.312 127.165C110.062 133.944 110.317 140.583 111.078 147.083C111.34 147.725 111.85 147.98 112.61 147.849C117.86 148.097 122.968 147.842 127.931 147.083C128.195 140.025 128.961 133.13 130.229 126.399Z" fill="#F2A871"/>
<path fill-rule="evenodd" clip-rule="evenodd" d="M114.908 134.826C114.908 133.804 114.908 132.783 114.908 131.761C115.163 131.761 115.419 131.761 115.674 131.761C116.564 131.83 116.819 130.553 116.44 127.931C118.725 127.576 121.023 127.321 123.335 127.165C123.335 132.272 123.335 137.379 123.335 142.486C120.782 142.486 118.228 142.486 115.674 142.486C115.914 139.773 115.658 137.22 114.908 134.826Z" fill="#F39A69"/>
<path fill-rule="evenodd" clip-rule="evenodd" d="M19.9175 142.486C17.3535 148.262 15.0553 153.625 13.0229 158.574C13.8763 152.532 16.1745 147.17 19.9175 142.486Z" fill="#310F0B"/>
<path opacity="0.999" fill-rule="evenodd" clip-rule="evenodd" d="M108.78 144.018C108.46 146.892 109.737 148.552 112.61 148.998C117.717 149.509 122.824 149.509 127.931 148.998C128.998 148.101 129.637 146.951 129.846 145.55C130.229 139.683 130.356 133.81 130.229 127.931C135.337 127.931 140.443 127.931 145.55 127.931C145.369 128.92 145.624 129.686 146.316 130.229C146.316 139.933 146.316 149.636 146.316 159.339C144.156 159.146 142.114 159.529 140.188 160.488C140.363 160.794 140.619 160.921 140.954 160.872C140.478 161.735 139.839 162.501 139.039 163.17C138.48 166.775 137.842 170.35 137.124 173.894C137.124 178.491 137.124 183.087 137.124 187.683C118.738 187.683 100.353 187.683 81.9678 187.683C81.9678 167.511 81.9678 147.338 81.9678 127.165C90.9053 127.165 99.8422 127.165 108.78 127.165C108.78 132.783 108.78 138.401 108.78 144.018Z" fill="#F29A6A"/>
<path opacity="0.998" fill-rule="evenodd" clip-rule="evenodd" d="M127.931 147.082C122.968 147.842 117.861 148.097 112.61 147.849C117.514 147.325 122.493 146.814 127.548 146.316C127.854 146.491 127.981 146.747 127.931 147.082Z" fill="#310200"/>
<path fill-rule="evenodd" clip-rule="evenodd" d="M146.317 130.229C146.572 130.229 146.828 130.229 147.083 130.229C147.083 130.996 147.083 131.762 147.083 132.528C147.083 141.72 147.083 150.913 147.083 160.106C144.986 160.03 142.943 160.286 140.955 160.872C140.619 160.922 140.363 160.794 140.188 160.489C142.114 159.53 144.157 159.147 146.317 159.34C146.317 149.636 146.317 139.933 146.317 130.229Z" fill="#FDD391"/>
<path opacity="0.999" fill-rule="evenodd" clip-rule="evenodd" d="M60.5183 134.059C60.2777 144.079 60.5336 154.037 61.2843 163.936C60.8323 165.843 60.7044 167.886 60.9013 170.064C59.2305 168.604 57.8263 166.945 56.688 165.085C54.6878 164.764 53.4108 165.147 52.8577 166.234C49.5292 166.75 46.7201 168.282 44.4311 170.83C42.4822 171.133 40.8222 170.623 39.4517 169.298C37.9932 166.676 37.355 163.867 37.5366 160.871C30.7509 160.668 24.1115 160.668 17.6191 160.871C15.6925 169.359 17.9907 176.509 24.5136 182.321C28.6419 185.28 33.2382 186.684 38.3026 186.534C38.7768 185.188 39.6708 184.294 40.9838 183.853C42.6577 185.273 44.0619 186.933 45.1971 188.832C49.3339 190.577 53.6743 191.216 58.2201 190.748C55.3344 191.205 52.5252 191.971 49.7935 193.046C46.5967 192.629 43.5325 191.736 40.6008 190.365C35.9125 190.23 31.3162 189.592 26.8118 188.449C22.0983 186.55 18.268 183.486 15.321 179.257C13.9405 176.902 13.1745 174.348 13.0228 171.596C13.2687 167.617 13.0128 163.786 12.2567 160.105C12.125 159.345 12.3808 158.835 13.0228 158.573C15.0551 153.624 17.3533 148.262 19.9173 142.486C23.7407 138.026 28.337 134.579 33.7063 132.144C33.5316 131.839 33.2758 131.711 32.9403 131.761C34.2571 131.361 35.2783 130.595 36.0045 129.463C37.7273 130.023 39.3874 130.789 40.9838 131.761C43.1311 130.795 44.7911 131.433 45.9632 133.676C45.561 134.207 45.0501 134.59 44.4311 134.825C43.0399 133.879 41.7629 133.879 40.6008 134.825C40.1021 134.373 39.5912 133.863 39.0687 133.293C35.8681 134.252 33.059 135.785 30.6421 137.89C24.0601 142.606 20.2299 148.735 19.1512 156.275C25.6658 156.935 32.3044 157.446 39.0687 157.807C39.2441 156.326 39.8823 155.049 40.9838 153.977C41.0903 157.881 41.4734 161.2 42.1329 163.936C42.719 164.26 43.3571 164.516 44.0481 164.702C48.1212 163.066 52.3345 162.044 56.688 161.637C56.1012 154.759 55.8461 147.865 55.9219 140.954C53.4514 140.641 51.1532 139.875 49.0274 138.656C47.8224 138.849 46.8013 139.359 45.9632 140.188C44.8639 141.795 43.9699 143.582 43.282 145.55C42.771 142.486 42.2609 142.486 41.7499 145.55C41.8594 141.748 43.2636 138.429 45.9632 135.592C48.0768 135.662 50.1191 135.662 52.0917 135.592C53.351 135.428 54.5001 135.683 55.5389 136.358C55.9181 134.846 56.046 133.314 55.9219 131.761C56.5363 132.874 56.9193 134.15 57.071 135.592C57.3315 132.141 57.4594 128.822 57.454 125.633C58.6345 130.658 59.2727 135.765 59.3692 140.954C59.5078 138.506 59.8909 136.208 60.5183 134.059Z" fill="#652819"/>
<path fill-rule="evenodd" clip-rule="evenodd" d="M30.6422 137.89C30.9777 137.841 31.2336 137.968 31.4083 138.273C26.1738 142.488 22.3435 147.723 19.9174 153.978C25.4506 154.501 30.941 155.011 36.3876 155.51C36.6864 153.515 37.3253 151.727 38.3028 150.147C38.3028 152.19 38.3028 154.233 38.3028 156.276C31.9192 156.276 25.5349 156.276 19.1514 156.276C20.23 148.735 24.0603 142.607 30.6422 137.89Z" fill="#F7C28B"/>
<path fill-rule="evenodd" clip-rule="evenodd" d="M42.1333 163.936C42.1295 155.783 43.4065 147.867 45.9636 140.188C46.8017 139.359 47.8228 138.849 49.0278 138.656C51.1536 139.876 53.4518 140.642 55.9223 140.954C55.8465 147.865 56.1016 154.76 56.6884 161.638C52.3349 162.045 48.1216 163.067 44.0484 164.702C43.3575 164.516 42.7193 164.26 42.1333 163.936Z" fill="#E57647"/>
<path fill-rule="evenodd" clip-rule="evenodd" d="M40.601 134.826C42.0151 134.613 43.037 135.124 43.6652 136.358C40.984 140.685 39.196 145.281 38.3028 150.147C37.3253 151.727 36.6864 153.515 36.3877 155.51C30.941 155.011 25.4507 154.501 19.9175 153.977C22.3436 147.723 26.1739 142.488 31.4083 138.273C31.2337 137.968 30.9778 137.84 30.6423 137.89C33.0592 135.785 35.8683 134.253 39.0689 133.294C39.5913 133.863 40.1023 134.373 40.601 134.826Z" fill="#F6A473"/>
<path fill-rule="evenodd" clip-rule="evenodd" d="M107.248 126.4C108.473 126.194 109.494 126.45 110.312 127.166C109.801 132.783 109.291 138.401 108.78 144.019C108.78 138.401 108.78 132.783 108.78 127.166C99.8426 127.166 90.9058 127.166 81.9682 127.166C81.9682 147.338 81.9682 167.512 81.9682 187.684C100.354 187.684 118.739 187.684 137.124 187.684C137.124 187.939 137.124 188.195 137.124 188.45C118.484 188.45 99.8426 188.45 81.2021 188.45C81.2021 185.897 81.2021 183.343 81.2021 180.79C81.2021 162.659 81.2021 144.53 81.2021 126.4C89.8839 126.4 98.5663 126.4 107.248 126.4Z" fill="#FEDB9B"/>
<path fill-rule="evenodd" clip-rule="evenodd" d="M44.4311 170.83C44.4311 171.085 44.4311 171.341 44.4311 171.596C38.0744 171.446 35.5211 168.127 36.7705 161.638C30.8543 161.867 24.9809 161.612 19.1513 160.872C18.2711 162.729 17.7601 162.729 17.6191 160.872C24.1115 160.668 30.7509 160.668 37.5366 160.872C37.355 163.867 37.9932 166.676 39.4517 169.298C40.8222 170.623 42.4823 171.134 44.4311 170.83Z" fill="#FDDBA0"/>
<path fill-rule="evenodd" clip-rule="evenodd" d="M107.248 126.399C98.5664 126.399 89.8839 126.399 81.2022 126.399C81.2022 144.53 81.2022 162.659 81.2022 180.789C80.5733 183.195 80.1903 185.749 80.0531 188.45C79.5422 167.766 79.5422 147.083 80.0531 126.399C80.4362 126.016 80.8192 125.633 81.2022 125.25C85.5435 125.122 89.8839 124.995 94.2252 124.867C98.8537 124.87 103.194 125.381 107.248 126.399Z" fill="#4F140D"/>
<path fill-rule="evenodd" clip-rule="evenodd" d="M12.257 160.105C13.0131 163.786 13.2689 167.617 13.023 171.596C11.3278 167.953 11.0719 164.123 12.257 160.105Z" fill="#401E1C"/>
<path opacity="0.999" fill-rule="evenodd" clip-rule="evenodd" d="M52.8577 166.234C54.3899 166.234 55.922 166.234 57.4541 166.234C57.3238 167.247 57.5789 168.141 58.2201 168.916C56.3402 170.249 55.1911 171.909 54.7729 173.895C57.4441 174.461 60.1253 175.1 62.8165 175.81C65.0089 177.178 65.5191 178.965 64.3486 181.172C61.5395 181.428 58.7311 181.683 55.922 181.939C54.7629 183.818 55.2739 185.095 57.4541 185.769C59.3968 185.911 61.184 186.294 62.8165 186.918C62.8823 187.681 62.6265 188.319 62.0504 188.833C60.5252 189.12 59.2482 189.758 58.2201 190.748C53.6744 191.216 49.3339 190.578 45.1972 188.833C44.0619 186.933 42.6577 185.273 40.9839 183.854C39.6709 184.295 38.7769 185.189 38.3027 186.535C33.2383 186.685 28.6419 185.281 24.5137 182.322C24.5596 181.906 24.8147 181.65 25.2797 181.555C29.2157 184.489 33.557 185.51 38.3027 184.62C38.8136 183.854 39.3238 183.088 39.8348 182.322C39.4326 181.791 38.9217 181.408 38.3027 181.172C39.8348 180.917 41.3669 180.662 42.899 180.406C43.7938 178.973 43.4107 177.824 41.7499 176.959C41.242 173.511 41.6251 173.255 42.899 176.193C43.8972 175.26 44.6632 175.515 45.1972 176.959C45.8238 175.727 46.3348 174.45 46.7293 173.129C45.8851 172.611 45.119 172.101 44.4311 171.597C44.4311 171.342 44.4311 171.086 44.4311 170.831C46.7201 168.283 49.5292 166.751 52.8577 166.234Z" fill="#FABB8B"/>
<path fill-rule="evenodd" clip-rule="evenodd" d="M17.6194 160.872C17.7604 162.73 18.2713 162.73 19.1515 160.872C24.9812 161.613 30.8545 161.868 36.7708 161.638C35.5214 168.127 38.0746 171.447 44.4314 171.597C45.1193 172.101 45.8853 172.611 46.7295 173.129C46.335 174.45 45.824 175.727 45.1974 176.959C44.6635 175.515 43.8974 175.26 42.8992 176.193C41.6253 173.255 41.2423 173.511 41.7502 176.959C43.411 177.824 43.794 178.973 42.8992 180.406C41.3671 180.662 39.835 180.917 38.3029 181.173C38.9219 181.408 39.4328 181.792 39.835 182.322C39.3241 183.088 38.8139 183.854 38.3029 184.62C33.5572 185.51 29.216 184.489 25.28 181.556C24.815 181.651 24.5599 181.906 24.5139 182.322C17.9909 176.51 15.6928 169.36 17.6194 160.872Z" fill="#FBB283"/>
<path opacity="0.01" fill-rule="evenodd" clip-rule="evenodd" d="M166.234 168.532C167.256 169.043 167.256 169.043 166.234 168.532V168.532Z" fill="#FCE6CE"/>
<path fill-rule="evenodd" clip-rule="evenodd" d="M156.275 163.17C157.175 163.947 157.685 164.968 157.808 166.234C157.934 169.055 157.807 171.863 157.424 174.661C157.167 170.806 156.784 166.976 156.275 163.17Z" fill="#2B0401"/>
<path opacity="0.999" fill-rule="evenodd" clip-rule="evenodd" d="M61.2845 163.937C61.5435 165.74 61.9265 167.527 62.4336 169.299C64.7609 171.37 66.804 173.668 68.5621 176.193C68.9213 180.546 68.7934 184.887 68.179 189.216C70.9882 189.216 73.7965 189.216 76.6056 189.216C73.6862 190.094 70.622 190.221 67.413 189.599C66.3918 188.833 66.3918 188.067 67.413 187.301C65.9322 186.701 64.7831 187.084 63.9657 188.45C63.7528 187.749 63.3697 187.238 62.8166 186.918C61.1842 186.295 59.397 185.912 57.4542 185.769C55.2741 185.096 54.7631 183.819 55.9221 181.939C58.7313 181.684 61.5396 181.428 64.3487 181.173C65.5193 178.966 65.0091 177.179 62.8166 175.81C60.1255 175.1 57.4443 174.461 54.773 173.895C55.1913 171.909 56.3404 170.249 58.2203 168.916C57.5791 168.141 57.324 167.247 57.4542 166.235C55.9221 166.235 54.39 166.235 52.8579 166.235C53.411 165.148 54.688 164.765 56.6882 165.086C57.8265 166.946 59.2307 168.605 60.9015 170.065C60.7046 167.887 60.8326 165.844 61.2845 163.937Z" fill="#5A2115"/>
<path fill-rule="evenodd" clip-rule="evenodd" d="M76.6055 189.215C76.6055 186.406 76.6055 183.598 76.6055 180.789C76.6055 175.426 76.6055 170.064 76.6055 164.702C77.2428 151.81 77.6259 138.788 77.7546 125.633C78.2655 144.018 78.2655 162.403 77.7546 180.789C77.619 183.743 77.2359 186.552 76.6055 189.215Z" fill="#481209"/>
<path fill-rule="evenodd" clip-rule="evenodd" d="M151.679 129.464C152.19 139.555 152.7 149.769 153.211 160.106C154.979 160.462 156.001 161.484 156.275 163.17C156.784 166.976 157.167 170.806 157.425 174.661C157.807 171.864 157.934 169.055 157.808 166.235C159.26 174.067 158.366 181.728 155.126 189.216C154.029 190.702 152.625 191.723 150.913 192.28C150.37 191.588 149.604 191.333 148.615 191.514C145.04 191.003 141.465 190.493 137.89 189.982C137.92 189.153 138.176 188.387 138.656 187.684C138.174 182.987 137.664 178.391 137.124 173.895C137.843 170.351 138.481 166.775 139.039 163.17C139.84 162.502 140.478 161.736 140.954 160.872C142.943 160.286 144.986 160.03 147.083 160.106C147.083 150.913 147.083 141.721 147.083 132.528C147.719 141.587 148.102 150.78 148.232 160.106C148.487 152.957 148.743 145.806 148.998 138.657C149.411 136.336 149.922 134.038 150.53 131.762C150.785 140.955 151.041 150.147 151.296 159.34C151.679 149.384 151.807 139.426 151.679 129.464Z" fill="#63271A"/>
<path opacity="0.01" fill-rule="evenodd" clip-rule="evenodd" d="M6.12882 176.959C5.61787 177.47 5.61787 177.47 6.12882 176.959V176.959Z" fill="#FCE5CC"/>
<path opacity="0.01" fill-rule="evenodd" clip-rule="evenodd" d="M9.9589 184.619C9.44794 185.13 9.44794 185.13 9.9589 184.619V184.619Z" fill="#FCE4C5"/>
<path opacity="0.999" fill-rule="evenodd" clip-rule="evenodd" d="M146.317 163.936C149.324 163.589 151.75 164.61 153.594 167C154.276 172.68 154.021 178.297 152.828 183.854C151.424 185.258 150.019 186.663 148.615 188.067C145.137 189.108 142.839 187.959 141.72 184.62C143.978 183.991 146.276 183.608 148.615 183.471C150.066 182.644 150.321 181.622 149.381 180.406C146.553 180.085 143.744 179.702 140.954 179.257C140.771 177.75 141.026 176.345 141.72 175.044C143.508 174.789 145.296 174.533 147.083 174.278C149.126 173.001 149.126 171.725 147.083 170.448C145.313 170.067 143.526 169.94 141.72 170.065C141.817 166.908 143.349 164.865 146.317 163.936Z" fill="#F6B480"/>
<path opacity="0.999" fill-rule="evenodd" clip-rule="evenodd" d="M137.124 173.895C137.664 178.391 138.174 182.987 138.656 187.684C138.176 188.386 137.92 189.152 137.89 189.982C118.992 190.11 100.096 189.982 81.2021 189.599C99.9728 189.47 118.614 189.087 137.124 188.45C137.124 188.194 137.124 187.939 137.124 187.684C137.124 183.087 137.124 178.491 137.124 173.895Z" fill="#2B0200"/>
<path opacity="0.998" fill-rule="evenodd" clip-rule="evenodd" d="M138.656 114.908C138.46 116.775 137.949 118.563 137.124 120.271C138.837 121.276 140.369 121.021 141.721 119.505C143.795 120.988 146.093 121.371 148.615 120.654C148.104 120.399 147.594 120.143 147.083 119.888C148.104 119.377 149.126 119.377 150.147 119.888C149.741 121.524 150.379 122.929 152.062 124.101C153.003 133.513 153.514 142.96 153.594 152.445C155.546 154.916 156.695 157.725 157.042 160.872C158.912 161.685 160.444 162.834 161.638 164.319C161.328 165.043 160.817 165.554 160.106 165.851C160.617 166.106 161.127 166.362 161.638 166.617C160.617 167.128 160.617 167.638 161.638 168.149C160.558 168.431 159.792 169.069 159.34 170.064C160.613 170.698 161.634 171.591 162.404 172.745C161.931 177.297 161.037 182.022 159.723 186.917C159.155 186.043 158.516 186.043 157.808 186.917C156.152 190.231 153.599 192.657 150.147 194.195C121.548 194.45 92.948 194.706 64.3489 194.961C58.2641 195.902 52.2636 196.285 46.3466 196.11C45.9635 195.216 45.3254 194.578 44.4314 194.195C38.2386 193.166 32.1102 191.89 26.0461 190.365C23.1519 188.747 20.4707 186.832 18.0025 184.619C16.2881 183.233 15.3941 181.446 15.3213 179.257C18.2683 183.486 22.0986 186.551 26.8121 188.45C27.461 189.573 28.4821 190.212 29.8764 190.365C36.2369 190.866 42.3654 192.142 48.2617 194.195C51.8277 194.577 55.4021 194.705 58.9865 194.578C59.9755 194.76 60.7415 194.504 61.2846 193.812C91.1784 193.315 121.055 192.805 150.913 192.28C152.625 191.722 154.029 190.701 155.126 189.216C158.366 181.727 159.26 174.067 157.808 166.234C157.685 164.968 157.175 163.947 156.276 163.17C156.001 161.484 154.979 160.462 153.211 160.106C152.7 149.768 152.19 139.555 151.679 129.463C151.677 127.031 150.911 124.861 149.381 122.952C143.211 122.785 137.083 122.657 130.996 122.569C133.331 119.723 135.884 117.17 138.656 114.908Z" fill="#EFE8E3"/>
<path fill-rule="evenodd" clip-rule="evenodd" d="M26.812 188.45C31.3164 189.593 35.9128 190.231 40.601 190.365C43.5327 191.737 46.5969 192.63 49.7937 193.047C52.9383 193.513 56.0026 194.023 58.9864 194.579C55.402 194.706 51.8276 194.578 48.2616 194.196C42.3652 192.143 36.2368 190.866 29.8762 190.365C28.482 190.212 27.4609 189.573 26.812 188.45Z" fill="#43140F"/>
</svg>
