<svg width="234" height="177" viewBox="0 0 234 177" fill="none" xmlns="http://www.w3.org/2000/svg">
<path opacity="0.01" fill-rule="evenodd" clip-rule="evenodd" d="M157 4C158.333 4.667 158.333 4.667 157 4V4Z" fill="#F9DCBF"/>
<path opacity="0.01" fill-rule="evenodd" clip-rule="evenodd" d="M160 5C161.333 5.667 161.333 5.667 160 5V5Z" fill="#FAE0C3"/>
<path opacity="0.01" fill-rule="evenodd" clip-rule="evenodd" d="M166 6C167.333 6.667 167.333 6.667 166 6V6Z" fill="#F9DFC2"/>
<path opacity="0.01" fill-rule="evenodd" clip-rule="evenodd" d="M4.00025 14.9997C3.33325 13.6668 3.33325 13.6668 4.00025 14.9997V14.9997Z" fill="#FBE3C8"/>
<path opacity="0.01" fill-rule="evenodd" clip-rule="evenodd" d="M182 14C183.333 14.667 183.333 14.667 182 14V14Z" fill="#FCE0C5"/>
<path opacity="0.01" fill-rule="evenodd" clip-rule="evenodd" d="M188 32C189.333 32.667 189.333 32.667 188 32V32Z" fill="#FADDC2"/>
<path opacity="0.01" fill-rule="evenodd" clip-rule="evenodd" d="M206 43C207.333 43.667 207.333 43.667 206 43V43Z" fill="#F5DABD"/>
<path opacity="0.012" fill-rule="evenodd" clip-rule="evenodd" d="M221 67C222.333 67.667 222.333 67.667 221 67V67Z" fill="#F5DAC1"/>
<path opacity="0.01" fill-rule="evenodd" clip-rule="evenodd" d="M230 90C231.333 90.667 231.333 90.667 230 90V90Z" fill="#F8DBC0"/>
<path opacity="0.01" fill-rule="evenodd" clip-rule="evenodd" d="M0 102C1.333 102.667 1.333 102.667 0 102V102Z" fill="#FAE0C6"/>
<path opacity="0.01" fill-rule="evenodd" clip-rule="evenodd" d="M0 104C1.333 104.667 1.333 104.667 0 104V104Z" fill="#FAE0C3"/>
<path opacity="0.01" fill-rule="evenodd" clip-rule="evenodd" d="M1 118C2.333 118.667 2.333 118.667 1 118V118Z" fill="#FADFC4"/>
<path opacity="0.997" fill-rule="evenodd" clip-rule="evenodd" d="M160 6C171.093 7.914 179.259 13.914 184.5 24C185.227 27.364 186.06 30.697 187 34C194.088 36.042 200.421 39.376 206 44C209.069 47.795 211.903 51.795 214.5 56C219.717 67.757 224.884 79.423 230 91C234.975 108.628 235.141 126.295 230.5 144C227.729 150.733 223.229 155.899 217 159.5C216.429 160.705 215.762 161.872 215 163C209.731 167.13 204.065 170.46 198 173C190.343 173.87 183.177 172.53 176.5 169C173.005 171.28 169.172 172.78 165 173.5C163.833 174 163 174.83 162.5 176C162.176 173.93 161.342 173.6 160 175C152.724 174.26 145.724 172.43 139 169.5C135.408 166.58 132.575 163.079 130.5 159C130.167 159.667 129.833 160.333 129.5 161C128.5 159.667 127.5 158.333 126.5 157C125.833 158.333 125.167 158.333 124.5 157C122.554 159.92 120.387 162.587 118 165C113.192 168.74 107.858 171.4 102 173C99.708 172.74 97.541 173.08 95.5 174C91.131 172.94 86.631 171.27 82 169C81.414 169.21 80.914 169.54 80.5 170C80.24 167.88 79.24 166.22 77.5 165C75.174 166.57 73.008 168.23 71 170C65.79 171.97 60.456 173.64 55 175C53.804 174.65 53.804 174.15 55 173.5C47.188 172.71 40.522 170.21 35 166C29.319 161.693 23.653 156.693 18 151C15.878 149.049 14.378 146.715 13.5 144C13.167 144.667 12.833 145.333 12.5 146C13.175 141.007 12.842 136.007 11.5 131C11.083 129.744 10.25 129.077 9 129C8 128 7 127 6 126C4.542 122.459 3.376 118.792 2.5 115C2.328 92.761 1.828 70.594 1 48.5C2.315 43.03 2.315 37.53 1 32C1.673 26.271 2.673 20.604 4 15C7.55 11.525 11.217 8.025 15 4.5C18.36 2.436 22.026 1.269 26 1C55.667 1 85.333 1 115 1C116.967 1.239 118.801 0.906 120.5 0C121 0.5 121.5 1 122 1.5C134.985 2.114 147.652 3.614 160 6Z" fill="#FDF8EB"/>
<path fill-rule="evenodd" clip-rule="evenodd" d="M121 18C121.59 19.266 122.09 20.599 122.5 22C122.541 53.998 122.374 85.998 122 118C120.542 108.709 119.876 99.209 120 89.5C120.816 65.451 121.149 41.617 121 18Z" fill="#562015"/>
<path opacity="0.998" fill-rule="evenodd" clip-rule="evenodd" d="M13.0002 43C12.8332 67.002 13.0002 91.002 13.5002 115C14.1082 116.654 14.6082 118.321 15.0002 120C12.8452 117.883 11.8452 115.216 12.0002 112C11.6692 88.827 12.0022 65.827 13.0002 43Z" fill="#2B0300"/>
<path fill-rule="evenodd" clip-rule="evenodd" d="M159 47.9997C168.198 48.6817 177.532 49.5147 187 50.4997C191.975 52.5737 196.142 55.7407 199.5 59.9997C206.078 73.3947 212.078 87.0617 217.5 101C218.321 107.846 218.154 114.513 217 121C217.675 114.173 214.675 111.34 208 112.5C206.833 113 206 113.833 205.5 115C203.753 123.893 207.253 126.893 216 124C215.935 124.438 216.101 124.772 216.5 125C216.808 124.192 217.308 123.525 218 123C219.632 129.333 218.632 135.166 215 140.5C202.634 140.726 190.301 141.226 178 142C178.149 143.052 177.983 144.052 177.5 145C175.415 138.331 171.915 132.498 167 127.5C157.271 121.754 148.937 123.254 142 132C139.109 131.097 136.109 130.764 133 131C133 123 133 115 133 107C133.305 90.3047 132.972 73.6377 132 56.9997C132.346 52.4907 134.679 49.6567 139 48.4997C145.658 47.9997 152.325 47.8337 159 47.9997Z" fill="#E3693C"/>
<path opacity="0.996" fill-rule="evenodd" clip-rule="evenodd" d="M204 58C211.332 70.635 217.332 83.968 222 98C215.938 85.333 209.938 71.999 204 58Z" fill="#3B1411"/>
<path fill-rule="evenodd" clip-rule="evenodd" d="M117 9.99968C118.291 9.76268 119.291 10.0957 120 10.9997C122.556 12.0967 125.889 12.9297 130 13.4997C128.333 13.8327 126.667 14.1667 125 14.4997C126 14.8327 127 15.1667 128 15.4997C125.792 15.6907 123.792 16.1907 122 16.9997C121.333 16.9997 121 17.3327 121 17.9997C121.149 41.6167 120.816 65.4507 120 89.4997C119.876 99.2087 120.542 108.709 122 118C123.542 118.801 125.208 119.134 127 119C126.582 119.722 125.916 120.222 125 120.5C128.782 121.434 128.615 122.268 124.5 123C123.667 122.833 122.833 122.667 122 122.5C123.196 121.846 123.196 121.346 122 121C121.207 121.431 120.373 121.765 119.5 122C118.2 120.793 116.7 120.126 115 120C115.534 93.8367 116.201 67.8367 117 41.9997C116.833 53.0047 117 64.0047 117.5 74.9997C118.167 57.9997 118.167 40.9997 117.5 23.9997C115.747 17.5767 111.581 14.0767 105 13.4997C80.3328 12.8327 55.6668 12.8327 30.9998 13.4997C29.7628 13.7317 28.7628 14.2317 27.9998 14.9997C26.2508 16.7557 24.2508 18.0887 21.9998 18.9997C20.7718 19.8057 19.7718 20.8057 18.9998 21.9997C18.6898 20.7617 18.1898 20.7617 17.4998 21.9997C17.1668 23.3327 16.8328 24.6667 16.4998 25.9997C15.8328 53.3327 15.8328 80.6667 16.4998 108C16.6908 110.208 17.1908 112.208 17.9998 114C19.3028 115.642 20.6358 117.309 21.9998 119C21.5618 118.935 21.2278 119.101 20.9998 119.5C21.8278 120.415 22.8278 121.081 23.9998 121.5C47.3428 121.729 70.6758 122.229 93.9998 123C99.9838 122.335 105.984 122.001 112 122C113.702 122.575 115.369 123.408 117 124.5C101.828 124.669 86.8278 125.169 71.9998 126C71.1618 126.342 70.8278 127.008 70.9998 128C71.2028 129.544 71.8698 130.878 72.9998 132C72.6668 132.333 72.3328 132.667 71.9998 133C70.1838 131.685 68.5168 130.185 66.9998 128.5C66.0628 127.808 65.3968 127.975 64.9998 129C63.0078 126.936 60.6748 125.603 57.9998 125C58.1208 123.657 55.7878 123.49 50.9998 124.5C45.5208 126.931 42.0208 131.097 40.4998 137C39.7328 141.058 39.8998 145.058 40.9998 149C40.1748 149.886 39.1748 150.219 37.9998 150C37.9608 148.917 37.6268 147.917 36.9998 147C33.6518 146.213 30.3178 145.379 26.9998 144.5C25.0008 142.245 23.6678 139.745 22.9998 137C22.1618 136.658 21.8278 135.992 21.9998 135C23.1408 131.86 23.3078 128.527 22.4998 125C20.0288 123.189 17.5288 121.522 14.9998 120C14.6078 118.321 14.1078 116.654 13.4998 115C12.9998 91.0017 12.8328 67.0017 12.9998 42.9997C12.7298 34.9447 13.0628 26.9447 13.9998 18.9997C18.0718 14.6277 23.0718 11.7937 28.9998 10.4997C58.5198 10.0717 87.8528 9.90568 117 9.99968Z" fill="#6D2D1C"/>
<path fill-rule="evenodd" clip-rule="evenodd" d="M22.0003 19C22.4383 18.935 22.7723 19.101 23.0003 19.5C21.1833 21.3 20.0163 23.466 19.5003 26C19.3323 54.836 18.8323 83.503 18.0003 112C17.6753 81.926 18.0083 51.926 19.0003 22C19.7723 20.806 20.7723 19.806 22.0003 19Z" fill="#FE8C51"/>
<path fill-rule="evenodd" clip-rule="evenodd" d="M19.0003 21.9998C18.0083 51.9258 17.6753 81.9258 18.0003 112C18.0003 112.667 18.0003 113.333 18.0003 114C17.1913 112.208 16.6912 110.208 16.5002 108C15.8332 80.6668 15.8332 53.3328 16.5002 25.9998C16.8332 24.6668 17.1672 23.3328 17.5002 21.9998C18.1902 20.7618 18.6903 20.7618 19.0003 21.9998Z" fill="#4C1A11"/>
<path fill-rule="evenodd" clip-rule="evenodd" d="M166 42.9997C166.763 43.7677 167.763 44.2677 169 44.4997C162.345 44.6067 155.679 44.4397 149 43.9997C144.249 43.9267 139.583 44.4267 135 45.4997C143.587 46.5977 151.587 47.4307 159 47.9997C152.325 47.8337 145.658 47.9997 139 48.4997C134.679 49.6567 132.346 52.4907 132 56.9997C132.972 73.6377 133.305 90.3047 133 107C131.962 87.8357 131.128 68.5017 130.5 48.9997C129.181 65.5147 128.514 82.1817 128.5 98.9997C128 83.0027 127.833 67.0027 128 50.9997C128.748 47.0827 131.082 44.5827 135 43.4997C145.328 42.9997 155.661 42.8337 166 42.9997Z" fill="#4C1A11"/>
<path fill-rule="evenodd" clip-rule="evenodd" d="M117 42.0002C117.282 36.5732 116.949 31.2402 116 26.0002C115.611 21.1952 113.277 17.8623 109 16.0003C83.378 15.0182 57.711 14.6853 32 15.0003C30.667 15.0003 29.333 15.0003 28 15.0003C28.763 14.2323 29.763 13.7322 31 13.5002C55.667 12.8332 80.333 12.8332 105 13.5002C111.581 14.0773 115.747 17.5773 117.5 24.0002C118.167 41.0002 118.167 58.0003 117.5 75.0003C117 64.0053 116.833 53.0052 117 42.0002Z" fill="#521D14"/>
<path opacity="0.996" fill-rule="evenodd" clip-rule="evenodd" d="M14 19C13.063 26.945 12.73 34.945 13 43C12.002 65.827 11.669 88.827 12 112C10.836 82.503 10.669 52.836 11.5 23C11.7 21.18 12.534 19.847 14 19Z" fill="#59261A"/>
<path fill-rule="evenodd" clip-rule="evenodd" d="M179 44.0002C190.552 43.2682 198.885 47.9352 204 58.0002C201.566 55.0622 198.899 52.2292 196 49.5002C190.439 46.9682 184.772 45.1342 179 44.0002Z" fill="#39120F"/>
<path opacity="0.998" fill-rule="evenodd" clip-rule="evenodd" d="M166 18.0003C161.476 16.3693 156.809 15.3693 152 15.0003C151.291 14.0963 150.291 13.7633 149 14.0003C139.362 12.7183 129.696 11.7183 120 11.0003C119.291 10.0963 118.291 9.76329 117 10.0003C87.016 8.88129 57.016 8.71529 27 9.50029C21.104 10.7583 16.77 13.9253 14 19.0003C12.534 19.8473 11.7 21.1803 11.5 23.0003C10.669 52.8363 10.836 82.5033 12 112C11.845 115.216 12.845 117.883 15 120C14.914 120.996 15.248 121.829 16 122.5C21.574 124.738 23.574 128.904 22 135C21.828 135.992 22.162 136.658 23 137C22.783 139.921 23.449 142.587 25 145C24 145 23 145 22 145C20.726 138.728 19.726 132.394 19 126C15.435 124.663 12.935 122.33 11.5 119C10.451 120.017 9.284 120.184 8 119.5C9.41 119.132 10.41 118.299 11 117C10.344 95.0353 9.677 73.0353 9 51.0003C8.279 48.8143 7.613 46.6473 7 44.5003C7.817 36.4123 8.317 28.2453 8.5 20.0003C12.258 17.1673 14.758 14.1673 16 11.0003C19.255 11.4863 21.922 10.4863 24 8.00029C52.661 6.83328 81.328 6.66729 110 7.50029C127.433 9.17629 144.766 11.5103 162 14.5003C163.819 15.2403 165.152 16.4073 166 18.0003Z" fill="#F5F0EA"/>
<path fill-rule="evenodd" clip-rule="evenodd" d="M122 17C127.293 17.946 132.626 18.613 138 19C139.765 19.961 141.765 20.295 144 20C152.034 20.286 159.7 21.952 167 25C170.421 30.443 171.755 36.443 171 43C169.333 43 167.667 43 166 43C155.661 42.834 145.328 43 135 43.5C131.082 44.583 128.748 47.083 128 51C127.003 73.494 126.669 96.161 127 119C125.208 119.134 123.542 118.801 122 118C122.374 85.998 122.541 53.998 122.5 22C122.09 20.599 121.59 19.266 121 18C121 17.333 121.333 17 122 17Z" fill="#E56B3D"/>
<path opacity="0.999" fill-rule="evenodd" clip-rule="evenodd" d="M152 15.0002C156.809 15.3692 161.476 16.3692 166 18.0002C175.018 23.3302 178.684 31.3302 177 42.0002C175.581 36.8482 174.415 31.5152 173.5 26.0002C171.388 23.2162 168.721 21.2162 165.5 20.0002C164.441 20.1302 163.608 20.6302 163 21.5002C164.333 22.1672 165.667 22.8332 167 23.5002C168.238 24.1902 168.238 24.6902 167 25.0002C159.7 21.9522 152.034 20.2862 144 20.0002C148.594 19.3852 153.261 18.5512 158 17.5002C155.333 16.8332 152.667 16.1672 150 15.5002C150.594 15.0362 151.261 14.8692 152 15.0002Z" fill="#4E1B13"/>
<path fill-rule="evenodd" clip-rule="evenodd" d="M149 13.9997C150.291 13.7627 151.291 14.0957 152 14.9997C151.261 14.8687 150.594 15.0357 150 15.4997C152.667 16.1667 155.333 16.8327 158 17.4997C153.261 18.5507 148.594 19.3847 144 19.9997C141.765 20.2947 139.765 19.9607 138 18.9997C139.052 19.1487 140.052 18.9827 141 18.4997C137.971 17.9607 134.971 17.2937 132 16.4997C137.008 15.6307 136.675 14.9637 131 14.4997C137.166 14.8357 143.166 14.6687 149 13.9997Z" fill="#71311E"/>
<path fill-rule="evenodd" clip-rule="evenodd" d="M28 15C29.333 15 30.667 15 32 15C57.027 15.68 82.193 16.347 107.5 17C108.265 16.93 108.765 16.597 109 16C113.277 17.862 115.611 21.195 116 26C114.966 56.499 114.133 87.165 113.5 118C83.902 118.663 54.402 119.33 25 120C23.891 119.943 22.891 119.61 22 119C20.636 117.309 19.303 115.642 18 114C18 113.333 18 112.667 18 112C18.832 83.503 19.332 54.836 19.5 26C20.016 23.466 21.183 21.3 23 19.5C22.772 19.101 22.438 18.935 22 19C24.251 18.089 26.251 16.756 28 15Z" fill="#E2673A"/>
<path fill-rule="evenodd" clip-rule="evenodd" d="M38.0001 91C40.8971 96.394 45.2301 100.227 51.0001 102.5C58.2791 103.747 65.6121 104.247 73.0001 104C70.8151 105.131 67.8151 105.798 64.0001 106C54.2751 106.208 46.1081 102.874 39.5001 96C38.4911 94.475 37.9911 92.808 38.0001 91Z" fill="#DA471D"/>
<path fill-rule="evenodd" clip-rule="evenodd" d="M81 36C88.872 37.008 94.039 41.675 96.5 50C98.067 62.952 98.4 75.952 97.5 89C97.167 89.667 96.833 90.333 96.5 91C96.101 90.772 95.935 90.438 96 90C97.68 75.928 97.18 61.928 94.5 48C91.718 42.05 87.218 38.05 81 36Z" fill="#D73C14"/>
<path opacity="0.999" fill-rule="evenodd" clip-rule="evenodd" d="M75.0003 34C76.8023 34.958 78.8023 35.625 81.0003 36C87.2183 38.05 91.7183 42.05 94.5003 48C97.1803 61.928 97.6803 75.928 96.0003 90C90.4083 97.967 82.7423 102.634 73.0003 104C65.6123 104.247 58.2793 103.747 51.0003 102.5C45.2303 100.227 40.8973 96.394 38.0003 91C36.3043 81.423 35.6373 71.756 36.0003 62C35.7013 52.99 38.7013 45.324 45.0003 39C46.5273 39.073 47.5273 38.406 48.0003 37C56.7833 34.47 65.7833 33.47 75.0003 34Z" fill="#FEDDB6"/>
<path opacity="0.998" fill-rule="evenodd" clip-rule="evenodd" d="M44.9997 39C38.7007 45.324 35.7007 52.99 35.9997 62C33.6917 52.279 36.6917 44.613 44.9997 39Z" fill="#D43912"/>
<path fill-rule="evenodd" clip-rule="evenodd" d="M58.0001 47.0002C66.4681 46.0782 74.3011 47.7452 81.5001 52.0002C83.0631 57.2182 83.3961 62.5512 82.5001 68.0002C80.7401 70.9112 79.2401 73.9112 78.0001 77.0002C78.7551 79.4882 80.2551 81.4882 82.5001 83.0002C84.1681 88.9932 82.0021 91.4932 76.0001 90.5002C72.7061 86.5262 68.8731 83.3602 64.5001 81.0002C63.3931 81.0852 62.3931 81.4192 61.5001 82.0002C60.3291 84.8502 59.1621 87.6842 58.0001 90.5002C55.6901 90.9972 53.3571 91.1632 51.0001 91.0002C50.8331 80.3282 51.0001 69.6612 51.5001 59.0002C51.3991 53.5202 53.5651 49.5202 58.0001 47.0002Z" fill="#DD5E33"/>
<path opacity="0.999" fill-rule="evenodd" clip-rule="evenodd" d="M62 57.0005C69.217 55.2545 73.217 57.9215 74 65.0005C74.094 67.4125 73.094 69.2455 71 70.5005C68.018 70.9985 65.018 71.1655 62 71.0005C62 66.3335 62 61.6675 62 57.0005Z" fill="#FEE2BD"/>
<path fill-rule="evenodd" clip-rule="evenodd" d="M75 34.0003C65.783 33.4703 56.783 34.4703 48 37.0003C50.167 34.9893 52.834 33.8223 56 33.5003C64.388 32.6803 70.722 32.8473 75 34.0003Z" fill="#D73D16"/>
<path fill-rule="evenodd" clip-rule="evenodd" d="M32 14.9996C57.711 14.6846 83.378 15.0176 109 15.9996C108.765 16.5966 108.265 16.9296 107.5 16.9996C82.193 16.3466 57.027 15.6796 32 14.9996Z" fill="#FD8A4F"/>
<path fill-rule="evenodd" clip-rule="evenodd" d="M120 11C129.696 11.718 139.362 12.718 149 14C143.166 14.669 137.166 14.836 131 14.5C136.675 14.964 137.008 15.631 132 16.5C134.971 17.294 137.971 17.961 141 18.5C140.052 18.983 139.052 19.149 138 19C132.626 18.613 127.293 17.946 122 17C123.792 16.191 125.792 15.691 128 15.5C127 15.167 126 14.833 125 14.5C126.667 14.167 128.333 13.833 130 13.5C125.889 12.93 122.556 12.097 120 11Z" fill="#4D1B13"/>
<path opacity="0.998" fill-rule="evenodd" clip-rule="evenodd" d="M117 9.99951C87.853 9.90551 58.52 10.0715 29 10.4995C23.072 11.7935 18.072 14.6275 14 18.9995C16.77 13.9245 21.104 10.7575 27 9.49951C57.016 8.71451 87.016 8.88051 117 9.99951Z" fill="#290502"/>
<path opacity="0.998" fill-rule="evenodd" clip-rule="evenodd" d="M116 26C116.949 31.24 117.282 36.573 117 42C116.201 67.837 115.534 93.837 115 120C113.891 120.057 112.891 120.39 112 121C82.998 120.816 53.998 120.483 25 120C54.402 119.33 83.902 118.663 113.5 118C114.133 87.165 114.966 56.499 116 26Z" fill="#F27845"/>
<path fill-rule="evenodd" clip-rule="evenodd" d="M22 119C22.891 119.61 23.891 119.943 25 120C53.998 120.483 82.998 120.816 112 121C112 121.333 112 121.667 112 122C105.984 122.001 99.984 122.335 94 123C70.676 122.229 47.343 121.729 24 121.5C22.828 121.081 21.828 120.415 21 119.5C21.228 119.101 21.562 118.935 22 119Z" fill="#4C1A11"/>
<path opacity="0.01" fill-rule="evenodd" clip-rule="evenodd" d="M6.0002 126C6.1312 126.739 5.9642 127.406 5.5002 128C4.8082 127.063 4.9752 126.397 6.0002 126Z" fill="#FADFC4"/>
<path opacity="0.01" fill-rule="evenodd" clip-rule="evenodd" d="M9.00006 129C9.00006 129.333 9.00006 129.667 9.00006 130C8.33006 129.519 8.33006 129.185 9.00006 129Z" fill="#F6DDC2"/>
<path opacity="0.01" fill-rule="evenodd" clip-rule="evenodd" d="M9 130C10.333 130.667 10.333 130.667 9 130V130Z" fill="#F8DEC3"/>
<path opacity="0.998" fill-rule="evenodd" clip-rule="evenodd" d="M15 120C17.529 121.522 20.029 123.189 22.5 125C23.308 128.527 23.141 131.86 22 135C23.574 128.904 21.574 124.738 16 122.5C15.248 121.829 14.914 120.996 15 120Z" fill="#2E0F0D"/>
<path fill-rule="evenodd" clip-rule="evenodd" d="M40.0003 125C40.8763 124.869 41.5433 125.202 42.0003 126C38.1443 130.235 36.4773 135.235 37.0003 141C34.2513 141.226 31.5843 140.893 29.0003 140C28.0073 135.38 27.6733 130.714 28.0003 126C32.2023 126.317 36.2023 125.983 40.0003 125Z" fill="#C26D4A"/>
<path fill-rule="evenodd" clip-rule="evenodd" d="M177 42C177.333 43 178 43.667 179 44C184.772 45.134 190.439 46.968 196 49.5C198.899 52.229 201.566 55.062 204 58C209.938 71.999 215.938 85.333 222 98C224.155 105.709 225.155 113.709 225 122C225.519 129.303 224.352 136.303 221.5 143C219.562 145.606 217.062 147.439 214 148.5C206.294 162.683 194.96 166.68 180 160.5C178.013 159.181 176.846 157.348 176.5 155C176.117 155.556 175.617 155.889 175 156C168.594 163.359 160.594 165.86 151 163.5C147.741 162.289 144.908 160.456 142.5 158C140.371 154.682 138.538 151.349 137 148C129.992 147.834 122.992 148 116 148.5C113.81 158.353 107.644 163.52 97.5 164C88.047 163.201 81.381 158.534 77.5 150C77.117 150.556 76.617 150.889 76 151C75.69 149.762 75.19 149.762 74.5 151C69.241 160.875 61.075 164.38 50 161.5C45.934 160.877 42.601 159.044 40 156C39.333 154 38.667 152 38 150C39.175 150.219 40.175 149.886 41 149C39.9 145.058 39.733 141.058 40.5 137C42.021 131.097 45.521 126.931 51 124.5C55.788 123.49 58.121 123.657 58 125C49.969 124.519 44.803 128.185 42.5 136C39.624 150.446 45.458 157.613 60 157.5C71.832 152.667 74.999 144.5 69.5 133C68.129 131.459 66.629 130.125 65 129C65.397 127.975 66.063 127.808 67 128.5C68.517 130.185 70.184 131.685 72 133C72.333 132.667 72.667 132.333 73 132C71.87 130.878 71.203 129.544 71 128C71.333 128 71.667 128 72 128C74.84 131.677 77.173 135.677 79 140C93.989 141.166 108.989 141.333 124 140.5C124.5 140 125 139.5 125.5 139C125.837 135.639 126.337 132.306 127 129C126.753 127.787 126.086 127.12 125 127C107.508 126.003 89.841 125.67 72 126C86.828 125.169 101.828 124.669 117 124.5C115.369 123.408 113.702 122.575 112 122C112 121.667 112 121.333 112 121C112.891 120.39 113.891 120.057 115 120C116.7 120.126 118.2 120.793 119.5 122C120.373 121.765 121.207 121.431 122 121C123.196 121.346 123.196 121.846 122 122.5C122.833 122.667 123.667 122.833 124.5 123C128.615 122.268 128.782 121.434 125 120.5C125.916 120.222 126.582 119.722 127 119C126.669 96.161 127.003 73.494 128 51C127.833 67.003 128 83.003 128.5 99C128.514 82.182 129.181 65.515 130.5 49C131.128 68.502 131.962 87.836 133 107C133 115 133 123 133 131C130.908 134.416 130.575 138.083 132 142C133.762 141.857 135.429 142.191 137 143C137.87 138.93 139.537 135.263 142 132C148.937 123.254 157.271 121.754 167 127.5C171.915 132.498 175.415 138.331 177.5 145C177.983 144.052 178.149 143.052 178 142C190.301 141.226 202.634 140.726 215 140.5C218.632 135.166 219.632 129.333 218 123C217.308 123.525 216.808 124.192 216.5 125C216.101 124.772 215.935 124.438 216 124C216.057 122.891 216.39 121.891 217 121C218.154 114.513 218.321 107.846 217.5 101C212.078 87.062 206.078 73.395 199.5 60C196.142 55.741 191.975 52.574 187 50.5C177.532 49.515 168.198 48.682 159 48C151.587 47.431 143.587 46.598 135 45.5C139.583 44.427 144.249 43.927 149 44C155.679 44.44 162.345 44.607 169 44.5C167.763 44.268 166.763 43.768 166 43C167.667 43 169.333 43 171 43C171.755 36.443 170.421 30.443 167 25C168.238 24.69 168.238 24.19 167 23.5C165.667 22.833 164.333 22.167 163 21.5C163.608 20.63 164.441 20.13 165.5 20C168.721 21.216 171.388 23.216 173.5 26C174.415 31.515 175.581 36.848 177 42Z" fill="#632718"/>
<path fill-rule="evenodd" clip-rule="evenodd" d="M154 129C158.602 128.884 162.435 130.551 165.5 134C171.611 141 172.445 148.5 168 156.5C155.226 164.31 146.559 161.145 142 147C142.182 144.274 142.682 141.607 143.5 139C146.235 134.762 149.735 131.429 154 129Z" fill="#AF5F41"/>
<path fill-rule="evenodd" clip-rule="evenodd" d="M57.9998 125C60.6748 125.603 63.0078 126.936 64.9998 129C66.6288 130.125 68.1288 131.459 69.4998 133C74.9988 144.5 71.8318 152.667 59.9998 157.5C45.4578 157.613 39.6238 150.446 42.4998 136C44.8028 128.185 49.9688 124.519 57.9998 125Z" fill="#B86948"/>
<path fill-rule="evenodd" clip-rule="evenodd" d="M52 134C63.85 133.349 68.017 138.682 64.5 150C59.849 154.707 54.683 155.207 49 151.5C45.774 147.693 45.274 143.527 47.5 139C49.207 137.463 50.707 135.796 52 134Z" fill="#5F2214"/>
<path fill-rule="evenodd" clip-rule="evenodd" d="M55.0002 138C61.5303 137.743 63.6973 140.743 61.5002 147C58.3672 150.367 55.0342 150.701 51.5002 148C50.8332 146 50.8332 144 51.5002 142C53.1272 140.968 54.2932 139.634 55.0002 138Z" fill="#D98357"/>
<path fill-rule="evenodd" clip-rule="evenodd" d="M133 131C136.109 130.764 139.109 131.097 142 132C139.537 135.263 137.87 138.93 137 143C135.429 142.191 133.762 141.857 132 142C130.575 138.083 130.908 134.416 133 131Z" fill="#C16845"/>
<path opacity="0.999" fill-rule="evenodd" clip-rule="evenodd" d="M125 127C126.086 127.12 126.753 127.787 127 129C126.337 132.306 125.837 135.639 125.5 139C125 139.5 124.5 140 124 140.5C108.989 141.333 93.989 141.166 79 140C77.173 135.677 74.84 131.677 72 128C89.492 127.003 107.159 126.67 125 127Z" fill="#B36443"/>
<path fill-rule="evenodd" clip-rule="evenodd" d="M71.9999 126C89.8409 125.67 107.508 126.003 125 127C107.159 126.67 89.4919 127.003 71.9999 128C71.6669 128 71.3329 128 70.9999 128C70.8279 127.008 71.1619 126.342 71.9999 126Z" fill="#9E5237"/>
<path opacity="0.999" fill-rule="evenodd" clip-rule="evenodd" d="M185 112C187.865 111.555 190.365 112.222 192.5 114C193.324 117.382 193.157 120.716 192 124C183.52 126.006 180.687 122.672 183.5 114C184.217 113.456 184.717 112.789 185 112Z" fill="#FEE2BC"/>
<path fill-rule="evenodd" clip-rule="evenodd" d="M217 121C216.39 121.891 216.057 122.891 216 124C207.253 126.893 203.753 123.893 205.5 115C206 113.833 206.833 113 208 112.5C214.675 111.34 217.675 114.173 217 121Z" fill="#FEE9C6"/>
<path fill-rule="evenodd" clip-rule="evenodd" d="M207 91C208.291 92.042 208.291 93.208 207 94.5C200.342 95 193.675 95.166 187 95C193.153 94.172 199.487 93.672 206 93.5C206.384 92.549 206.717 91.716 207 91Z" fill="#2A0906"/>
<path opacity="0.999" fill-rule="evenodd" clip-rule="evenodd" d="M207 91.0005C206.717 91.7165 206.384 92.5495 206 93.5005C199.487 93.6725 193.153 94.1725 187 95.0005C179.197 93.6925 175.03 89.0255 174.5 81.0005C172.177 74.0885 171.344 67.0885 172 60.0005C179.753 55.5505 186.919 56.5505 193.5 63.0005C198.284 72.2335 202.784 81.5675 207 91.0005Z" fill="#602517"/>
<path fill-rule="evenodd" clip-rule="evenodd" d="M178 63.0001C182.103 62.2691 185.603 63.2691 188.5 66.0001C192.548 73.4281 196.048 81.0951 199 89.0001C198.167 89.3331 197.333 89.6671 196.5 90.0001C192.688 89.3541 188.854 88.8541 185 88.5001C179.768 80.7331 177.434 72.2331 178 63.0001Z" fill="#DA673C"/>
<path fill-rule="evenodd" clip-rule="evenodd" d="M144 57.0002C149.703 56.8752 155.37 57.2082 161 58.0002C164.429 68.4532 167.762 78.9532 171 89.5002C170.857 91.6512 169.857 93.3182 168 94.5002C158.982 95.3322 149.982 95.1652 141 94.0002C140.5 93.0002 140 92.0002 139.5 91.0002C138.542 80.6752 138.209 70.3422 138.5 60.0002C140.376 58.8912 142.209 57.8912 144 57.0002Z" fill="#5F2417"/>
<path opacity="0.999" fill-rule="evenodd" clip-rule="evenodd" d="M146 62.0001C150.541 61.2691 154.541 62.2691 158 65.0001C160.523 72.5731 162.857 80.2391 165 88.0001C159.028 89.1641 153.028 89.3301 147 88.5001C143.726 83.9051 142.392 78.7391 143 73.0001C143.167 70.3331 143.333 67.6671 143.5 65.0001C144.198 63.8091 145.031 62.8091 146 62.0001Z" fill="#B36040"/>
<path fill-rule="evenodd" clip-rule="evenodd" d="M179 147C188.357 146.668 197.69 147.002 207 148C203.935 155.212 198.435 158.545 190.5 158C183.561 157.56 179.727 153.894 179 147Z" fill="#9F4F35"/>
<path fill-rule="evenodd" clip-rule="evenodd" d="M83 148C92 148 101 148 110 148C109.334 154.83 105.501 158.497 98.5 159C90.694 159.024 85.527 155.358 83 148Z" fill="#9C4D33"/>
<path fill-rule="evenodd" clip-rule="evenodd" d="M154 135C163.76 135.942 167.594 141.275 165.5 151C161.629 154.567 157.129 156.9 152 158C152 156.333 152 154.667 152 153C150 153 148 153 146 153C146.113 150.451 145.446 148.118 144 146C144.886 142.003 147.219 139.503 151 138.5C152.21 137.461 153.21 136.294 154 135Z" fill="#612516"/>
<path fill-rule="evenodd" clip-rule="evenodd" d="M154 140C161.038 140.835 163.038 144.335 160 150.5C149.304 151.794 147.304 148.294 154 140Z" fill="#E28D5E"/>
<path opacity="0.996" fill-rule="evenodd" clip-rule="evenodd" d="M23 137C23.668 139.745 25.001 142.245 27 144.5C30.318 145.379 33.652 146.213 37 147C37.627 147.917 37.961 148.917 38 150C38.667 152 39.333 154 40 156C37.783 153.881 36.45 151.214 36 148C32.168 147.404 28.501 146.404 25 145C23.449 142.587 22.783 139.921 23 137Z" fill="#3B0C07"/>
<path opacity="0.01" fill-rule="evenodd" clip-rule="evenodd" d="M220 158C221.333 158.667 221.333 158.667 220 158V158Z" fill="#F9DBC0"/>
<path opacity="0.01" fill-rule="evenodd" clip-rule="evenodd" d="M24 159C25.333 159.667 25.333 159.667 24 159V159Z" fill="#FDE5CC"/>
<path fill-rule="evenodd" clip-rule="evenodd" d="M137 148C138.538 151.349 140.371 154.682 142.5 158C144.908 160.456 147.741 162.289 151 163.5C160.594 165.86 168.594 163.359 175 156C173.106 160.384 169.773 163.218 165 164.5C150.033 168.34 140.699 162.84 137 148Z" fill="#3B120E"/>
<path fill-rule="evenodd" clip-rule="evenodd" d="M76 151C70.06 162.67 60.726 166.5 48 162.5C43.934 161.924 41.267 159.757 40 156C42.601 159.044 45.934 160.877 50 161.5C61.075 164.38 69.241 160.875 74.5 151C75.19 149.762 75.69 149.762 76 151Z" fill="#3C100F"/>
<path opacity="0.016" fill-rule="evenodd" clip-rule="evenodd" d="M118 165C119.333 165.67 119.333 165.67 118 165V165Z" fill="#FBDEC5"/>
<path opacity="0.01" fill-rule="evenodd" clip-rule="evenodd" d="M32 166C33.333 166.67 33.333 166.67 32 166V166Z" fill="#FEE3CA"/>
<path opacity="0.01" fill-rule="evenodd" clip-rule="evenodd" d="M35.0002 166C34.3332 166.67 34.3332 166.67 35.0002 166V166Z" fill="#F8E0C6"/>
<path opacity="0.012" fill-rule="evenodd" clip-rule="evenodd" d="M212 166C213.333 166.67 213.333 166.67 212 166V166Z" fill="#F8DBBE"/>
<path opacity="0.01" fill-rule="evenodd" clip-rule="evenodd" d="M136 169C137.333 169.67 137.333 169.67 136 169V169Z" fill="#FADDC3"/>
<path opacity="0.012" fill-rule="evenodd" clip-rule="evenodd" d="M71 170C72.333 170.67 72.333 170.67 71 170V170Z" fill="#FCE4C7"/>
<path opacity="0.01" fill-rule="evenodd" clip-rule="evenodd" d="M76 170C77.333 170.67 77.333 170.67 76 170V170Z" fill="#FCE1C9"/>
<path opacity="0.01" fill-rule="evenodd" clip-rule="evenodd" d="M102 172.999C102.739 172.869 103.406 173.039 104 173.499C103.063 174.189 102.397 174.029 102 172.999Z" fill="#FBDDC3"/>
<path opacity="0.01" fill-rule="evenodd" clip-rule="evenodd" d="M198 173C199.333 173.67 199.333 173.67 198 173V173Z" fill="#FADCC2"/>
<path opacity="0.01" fill-rule="evenodd" clip-rule="evenodd" d="M50 175C50.751 173.93 51.751 173.76 53 174.5C52.052 174.98 51.052 175.15 50 175Z" fill="#FBE1C8"/>
<path opacity="0.01" fill-rule="evenodd" clip-rule="evenodd" d="M166 174C167.333 174.67 167.333 174.67 166 174V174Z" fill="#F8DEC3"/>
<path opacity="0.01" fill-rule="evenodd" clip-rule="evenodd" d="M191 174C192.333 174.67 192.333 174.67 191 174V174Z" fill="#F9DDC2"/>
<path opacity="0.01" fill-rule="evenodd" clip-rule="evenodd" d="M196 174C197.333 174.67 197.333 174.67 196 174V174Z" fill="#FBDDC1"/>
<path opacity="0.01" fill-rule="evenodd" clip-rule="evenodd" d="M153 176C153.397 174.97 154.063 174.81 155 175.5C154.406 175.96 153.739 176.13 153 176Z" fill="#FCDFC5"/>
<path opacity="0.01" fill-rule="evenodd" clip-rule="evenodd" d="M156 175C157.333 175.67 157.333 175.67 156 175V175Z" fill="#FAE1C6"/>
<path opacity="0.01" fill-rule="evenodd" clip-rule="evenodd" d="M164 175C165.333 175.67 165.333 175.67 164 175V175Z" fill="#FBDEC5"/>
<path opacity="0.01" fill-rule="evenodd" clip-rule="evenodd" d="M153 176C152.333 176.67 152.333 176.67 153 176V176Z" fill="#FCDCC4"/>
<path opacity="0.01" fill-rule="evenodd" clip-rule="evenodd" d="M167 176C168.333 176.67 168.333 176.67 167 176V176Z" fill="#FBDFC5"/>
</svg>
