<svg width="109" height="108" viewBox="0 0 109 108" fill="none" xmlns="http://www.w3.org/2000/svg">
<path opacity="0.01" fill-rule="evenodd" clip-rule="evenodd" d="M48.0879 0C48.6221 0.26717 48.6221 0.26717 48.0879 0V0Z" fill="#F7DABC"/>
<path opacity="0.01" fill-rule="evenodd" clip-rule="evenodd" d="M48.8896 0C49.4238 0.26717 49.4238 0.26717 48.8896 0V0Z" fill="#F8DCC0"/>
<path opacity="0.01" fill-rule="evenodd" clip-rule="evenodd" d="M61.7129 0.401092C61.872 -0.00966099 62.1389 -0.0764635 62.5144 0.200725C62.2763 0.386786 62.009 0.453589 61.7129 0.401092Z" fill="#F8DDC1"/>
<path opacity="0.01" fill-rule="evenodd" clip-rule="evenodd" d="M41.6768 2.00391C42.2109 2.27108 42.2109 2.27108 41.6768 2.00391V2.00391Z" fill="#F6DABC"/>
<path opacity="0.01" fill-rule="evenodd" clip-rule="evenodd" d="M42.4782 1.60352C42.889 1.76245 42.9559 2.02958 42.6786 2.40499C42.4927 2.16679 42.4258 1.89962 42.4782 1.60352Z" fill="#F8DABE"/>
<path opacity="0.01" fill-rule="evenodd" clip-rule="evenodd" d="M41.2757 3.20639C41.0084 2.67209 41.0084 2.67209 41.2757 3.20639V3.20639Z" fill="#F6D7BA"/>
<path opacity="0.01" fill-rule="evenodd" clip-rule="evenodd" d="M28.4521 10.8203C28.9864 11.0875 28.9864 11.0875 28.4521 10.8203V10.8203Z" fill="#F0D4B7"/>
<path opacity="0.01" fill-rule="evenodd" clip-rule="evenodd" d="M28.4523 11.2207C28.1852 11.4879 28.1852 11.4879 28.4523 11.2207V11.2207Z" fill="#F3D5B9"/>
<path opacity="0.01" fill-rule="evenodd" clip-rule="evenodd" d="M88.5625 17.2314C89.0967 17.4986 89.0967 17.4986 88.5625 17.2314V17.2314Z" fill="#F7DDC2"/>
<path opacity="0.01" fill-rule="evenodd" clip-rule="evenodd" d="M15.6289 38.4707C16.1632 38.738 16.1632 38.738 15.6289 38.4707V38.4707Z" fill="#F8E0C4"/>
<path opacity="0.01" fill-rule="evenodd" clip-rule="evenodd" d="M15.6289 39.6729C16.1632 39.9401 16.1632 39.9401 15.6289 39.6729V39.6729Z" fill="#F9DFC3"/>
<path opacity="0.01" fill-rule="evenodd" clip-rule="evenodd" d="M18.4336 44.4814C18.9679 44.7487 18.9679 44.7487 18.4336 44.4814V44.4814Z" fill="#FAE1C5"/>
<path opacity="0.01" fill-rule="evenodd" clip-rule="evenodd" d="M18.835 45.2832C19.3693 45.5505 19.3693 45.5505 18.835 45.2832V45.2832Z" fill="#FAE2C6"/>
<path opacity="0.01" fill-rule="evenodd" clip-rule="evenodd" d="M8.81659 48.0881C8.54942 47.554 8.54942 47.554 8.81659 48.0881V48.0881Z" fill="#F5DDC2"/>
<path opacity="0.013" fill-rule="evenodd" clip-rule="evenodd" d="M108.199 47.6875C108.629 47.9885 108.696 48.3892 108.399 48.8897C108.206 48.5098 108.139 48.1091 108.199 47.6875Z" fill="#FBE2C9"/>
<path opacity="0.01" fill-rule="evenodd" clip-rule="evenodd" d="M7.61398 48.8894C7.20323 48.7303 7.13643 48.4634 7.41362 48.0879C7.59968 48.3259 7.66648 48.5932 7.61398 48.8894Z" fill="#F4DDC4"/>
<path opacity="0.01" fill-rule="evenodd" clip-rule="evenodd" d="M2.80469 51.6953C3.33899 51.9626 3.33899 51.9626 2.80469 51.6953V51.6953Z" fill="#F2DDC0"/>
<path opacity="0.01" fill-rule="evenodd" clip-rule="evenodd" d="M109 61.3125C108.733 61.5798 108.733 61.5798 109 61.3125V61.3125Z" fill="#FDE5CD"/>
<path opacity="0.01" fill-rule="evenodd" clip-rule="evenodd" d="M0 63.7168C0.5343 63.9841 0.5343 63.9841 0 63.7168V63.7168Z" fill="#F3DCBF"/>
<path opacity="0.01" fill-rule="evenodd" clip-rule="evenodd" d="M0 65.7207C0.5343 65.988 0.5343 65.988 0 65.7207V65.7207Z" fill="#F2DBC0"/>
<path opacity="0.01" fill-rule="evenodd" clip-rule="evenodd" d="M0 67.324C0.158931 66.9132 0.426061 66.8463 0.80147 67.1236C0.563273 67.3096 0.296103 67.3765 0 67.324Z" fill="#F3DBC0"/>
<path opacity="0.01" fill-rule="evenodd" clip-rule="evenodd" d="M89.7646 67.7246C90.2988 67.9919 90.2988 67.9919 89.7646 67.7246V67.7246Z" fill="#FAE5CF"/>
<path opacity="0.01" fill-rule="evenodd" clip-rule="evenodd" d="M88.5625 68.5254C89.0967 68.7927 89.0967 68.7927 88.5625 68.5254V68.5254Z" fill="#FEE5CA"/>
<path opacity="0.01" fill-rule="evenodd" clip-rule="evenodd" d="M84.9563 70.5295C84.689 69.9954 84.689 69.9954 84.9563 70.5295V70.5295Z" fill="#F8E0C8"/>
<path opacity="0.01" fill-rule="evenodd" clip-rule="evenodd" d="M84.9558 70.5293C85.3665 70.6884 85.4335 70.9553 85.1562 71.3308C84.9702 71.0927 84.9033 70.8254 84.9558 70.5293Z" fill="#FEE3CB"/>
<path opacity="0.01" fill-rule="evenodd" clip-rule="evenodd" d="M84.5547 71.7314C85.0889 71.9987 85.0889 71.9987 84.5547 71.7314V71.7314Z" fill="#F9E5CB"/>
<path opacity="0.01" fill-rule="evenodd" clip-rule="evenodd" d="M81.75 73.3347C81.9091 72.924 82.176 72.8571 82.5515 73.1344C82.3134 73.3203 82.0461 73.3872 81.75 73.3347Z" fill="#FBE4C9"/>
<path opacity="0.014" fill-rule="evenodd" clip-rule="evenodd" d="M81.7503 73.335C81.8838 73.6023 82.0176 73.8691 82.1511 74.1364C81.8838 74.1364 81.6169 74.1364 81.3496 74.1364C81.2807 73.7389 81.4145 73.472 81.7503 73.335Z" fill="#FBE4CA"/>
<path opacity="0.01" fill-rule="evenodd" clip-rule="evenodd" d="M107.396 75.3379C107.931 75.6052 107.931 75.6052 107.396 75.3379V75.3379Z" fill="#FBE7CF"/>
<path opacity="0.01" fill-rule="evenodd" clip-rule="evenodd" d="M94.5732 75.7393C95.1074 76.0065 95.1074 76.0065 94.5732 75.7393V75.7393Z" fill="#FBE5CE"/>
<path opacity="0.01" fill-rule="evenodd" clip-rule="evenodd" d="M103.39 82.9521C103.83 83.3934 103.897 83.9275 103.59 84.5551C103.394 84.0369 103.327 83.5024 103.39 82.9521Z" fill="#FCE6CD"/>
<path opacity="0.01" fill-rule="evenodd" clip-rule="evenodd" d="M22.842 92.5703C22.5748 92.8376 22.5748 92.8376 22.842 92.5703V92.5703Z" fill="#F9E0C4"/>
<path opacity="0.01" fill-rule="evenodd" clip-rule="evenodd" d="M105.794 93.3713C105.527 92.8372 105.527 92.8372 105.794 93.3713V93.3713Z" fill="#FCE4CB"/>
<path opacity="0.01" fill-rule="evenodd" clip-rule="evenodd" d="M105.794 93.3711C105.927 93.3711 106.061 93.3711 106.195 93.3711C106.121 93.6396 105.987 93.6396 105.794 93.3711Z" fill="#FAE5CD"/>
<path opacity="0.01" fill-rule="evenodd" clip-rule="evenodd" d="M32.0586 96.5769C32.2177 96.1662 32.4846 96.0992 32.8601 96.3766C32.622 96.5625 32.3547 96.6294 32.0586 96.5769Z" fill="#F8DEC3"/>
<path opacity="0.01" fill-rule="evenodd" clip-rule="evenodd" d="M108.198 96.5771C108.732 96.8444 108.732 96.8444 108.198 96.5771V96.5771Z" fill="#FAE5CD"/>
<path opacity="0.01" fill-rule="evenodd" clip-rule="evenodd" d="M32.4594 98.9814C32.8994 99.4227 32.9663 99.9568 32.6598 100.584C32.4634 100.066 32.3965 99.5317 32.4594 98.9814Z" fill="#FBE1C6"/>
<path opacity="0.995" fill-rule="evenodd" clip-rule="evenodd" d="M81.3495 74.1365C82.1085 75.2133 82.3758 75.2133 82.151 74.1365C82.7589 74.7977 83.4934 75.3319 84.355 75.7394C84.6644 75.6813 84.9317 75.5479 85.1565 75.3387C87.0596 75.6613 88.9963 75.8616 90.9671 75.9398C94.4892 76.3578 97.094 78.2945 98.7815 81.7504C99.0487 88.1622 99.0487 94.574 98.7815 100.986C97.9327 104.039 95.9959 105.91 92.9708 106.596C76.5851 106.85 60.2219 107.118 43.8808 107.397C42.5207 107.014 41.1181 106.881 39.673 106.997C38.8976 106.736 38.0962 106.603 37.2686 106.596C36.7144 106.218 36.1802 105.817 35.6657 105.394C33.44 102.602 32.6385 99.3964 33.2613 95.7762C29.6548 95.4668 26.1817 94.3984 22.8422 92.5703C19.2441 90.3081 16.3054 87.3691 14.026 83.7541C13.675 83.4532 13.2742 83.2528 12.8238 83.153C13.091 83.0196 13.3581 82.8857 13.6253 82.7523C12.4097 80.3354 10.5396 78.5987 8.01499 77.5427C5.02607 74.8919 2.62166 71.8198 0.801758 68.3258C0.854975 65.893 0.921778 63.422 1.00213 60.9122C1.21812 59.6984 1.48529 58.4962 1.8036 57.3056C2.71266 55.8878 3.51413 54.4183 4.208 52.8975C5.57812 51.7306 6.71356 50.3945 7.61425 48.8902C8.09894 48.7171 8.49968 48.4498 8.81646 48.0887C10.3137 47.7661 11.7163 47.2319 13.0242 46.4858C14.6236 47.2191 16.2933 47.7537 18.0334 48.0887C19.4195 47.5794 20.2209 46.7114 20.4378 45.4839C16.8173 42.7698 15.6818 39.2301 17.0315 34.8645C17.7312 33.3308 18.5327 31.8618 19.4359 30.4564C20.9663 20.3761 25.9755 12.5618 34.4635 7.01338C36.6563 5.55274 38.9273 4.28374 41.276 3.2064C49.7656 -0.444055 57.9137 -0.911592 65.7208 1.80383C71.4012 3.97613 76.7446 6.78128 81.7502 10.2193C86.9678 14.8422 90.5075 20.5193 92.3697 27.2505C92.9636 31.0839 93.8985 34.824 95.1748 38.4711C95.6185 40.8891 95.2846 43.1601 94.173 45.2836C99.7921 57.2219 96.4528 65.4369 84.1546 69.9288C83.2197 71.3983 82.0175 72.6005 80.548 73.5354C80.766 73.8227 81.0333 74.0231 81.3495 74.1365ZM81.3495 74.1365C81.6168 74.1365 81.8837 74.1365 82.151 74.1365C82.3758 75.2133 82.1085 75.2133 81.3495 74.1365Z" fill="#FDF9EC"/>
<path opacity="0.998" fill-rule="evenodd" clip-rule="evenodd" d="M92.9707 80.9482C94.3617 81.3402 95.0966 82.2755 95.1747 83.7534C95.3751 88.9613 95.442 94.1709 95.3751 99.382C95.0421 94.643 94.8417 89.8341 94.774 84.9556C94.6406 84.1541 94.5067 83.3527 94.3733 82.5512C93.8219 82.0683 93.3546 81.5341 92.9707 80.9482Z" fill="#330602"/>
<path fill-rule="evenodd" clip-rule="evenodd" d="M14.0256 73.7355C15.577 73.6092 17.0463 73.7427 18.4336 74.1362C18.2745 75.0026 17.7402 75.5368 16.8307 75.7391C18.965 80.691 22.3044 84.5649 26.8491 87.3605C27.2553 87.8309 27.7896 88.0978 28.452 88.1619C27.6534 88.5775 26.852 88.4436 26.0476 87.7612C25.6469 87.9616 25.2461 88.1619 24.8454 88.3623C25.5089 89.0952 26.3104 89.6298 27.2498 89.9652C30.4328 91.0003 33.6387 91.6014 36.8675 91.7685C30.4605 92.4402 25.1175 90.4365 20.8381 85.7575C18.6157 83.8472 16.8792 81.5766 15.6285 78.945C15.1502 77.9223 14.6159 76.9205 14.0256 75.9395C12.4719 75.9644 11.2697 75.3633 10.4189 74.1362C11.1114 74.4885 11.8461 74.7557 12.623 74.9377C14.2838 74.6716 15.9536 74.4712 17.6322 74.3366C15.849 74.3193 14.6468 74.119 14.0256 73.7355Z" fill="#4A1911"/>
<path opacity="0.999" fill-rule="evenodd" clip-rule="evenodd" d="M32.059 77.3418C32.4758 81.3287 31.8078 85.2026 30.0554 88.9631C29.5104 88.6906 28.9761 88.4233 28.4524 88.1616C27.79 88.0975 27.2557 87.8306 26.8495 87.3602C27.0251 87.3862 27.1587 87.3197 27.2502 87.1598C25.3405 86.1191 23.7375 84.7165 22.4414 82.9521C22.9994 82.7257 23.6673 82.3249 24.4451 81.7499C24.5786 81.4161 24.7123 81.0819 24.8458 80.748C24.4198 80.0319 24.2194 79.297 24.2447 78.544C24.6352 79.4969 24.9024 79.3631 25.0462 78.1433C25.3134 78.6774 25.5805 78.6774 25.8477 78.1433C26.8085 78.3268 27.4764 78.8614 27.8513 79.7462C28.0448 79.3663 28.1116 78.9656 28.0517 78.544C29.3383 78.7396 30.4737 78.4723 31.4579 77.7425C31.9016 78.2282 32.1019 78.0948 32.059 77.3418Z" fill="#EE8E5B"/>
<path opacity="0.997" fill-rule="evenodd" clip-rule="evenodd" d="M20.8381 85.7576C19.4999 84.1459 18.2977 82.4095 17.2314 80.5481C17.7657 80.0139 18.3001 80.0139 18.8344 80.5481C20.7687 82.9397 22.7055 85.2106 24.645 87.3606C23.9272 86.5539 23.3929 86.5539 23.0421 87.3606C22.4606 86.5735 21.726 86.0394 20.8381 85.7576Z" fill="#6A2C1B"/>
<path opacity="0.999" fill-rule="evenodd" clip-rule="evenodd" d="M27.6508 62.1143C27.5581 64.0065 27.291 65.8768 26.8494 67.7245C28.1887 70.6022 30.1923 72.9401 32.8604 74.7374C33.5284 74.8043 34.1961 74.8709 34.8641 74.9378C35.7216 74.9153 36.3893 74.648 36.8678 74.1363C35.829 72.8888 34.5603 71.5532 33.0608 70.129C32.7935 69.8617 32.7935 69.5948 33.0608 69.3275C33.3281 69.8617 33.5949 69.8617 33.8622 69.3275C36.1332 71.8305 38.8714 73.5669 42.0773 74.537C44.9209 75.04 47.7261 75.4407 50.4927 75.7392C53.4169 76.2005 57.4243 76.267 62.5148 75.9396C63.1828 75.8062 63.8504 75.6723 64.5185 75.5389C64.1386 75.3453 63.7378 75.2788 63.3163 75.3385C64.3025 74.9254 65.3708 74.6581 66.5221 74.537C67.6935 74.846 68.8288 74.5787 69.9284 73.7356C71.2167 74.0125 72.4855 74.1463 73.7354 74.1363C75.8857 75.6924 78.0232 77.3618 80.1471 79.1455C83.2196 79.2789 86.2916 79.4128 89.364 79.5462C90.7125 79.7486 91.9147 80.2163 92.9706 80.9488C93.3545 81.5347 93.8218 82.0689 94.3732 82.5517C94.5067 83.3532 94.6405 84.1547 94.7739 84.9562C94.8417 89.8347 95.042 94.6435 95.3751 99.3826C95.2031 100.443 94.669 101.245 93.7721 101.787C92.7991 102.405 91.7308 102.806 90.5662 102.989C75.0029 102.856 59.5077 102.99 44.081 103.39C42.3129 103.229 40.5762 102.895 38.8714 102.388C37.9213 101.317 37.454 100.047 37.4689 98.5811C37.2753 98.961 37.2088 99.3618 37.2685 99.7833C36.8714 97.187 36.7379 94.5153 36.8678 91.7686C33.639 91.6015 30.4332 91.0004 27.2501 89.9653C26.3107 89.6299 25.5092 89.0953 24.8457 88.3624C25.2464 88.162 25.6472 87.9617 26.0479 87.7613C26.8523 88.4437 27.6537 88.5776 28.4523 88.162C28.976 88.4237 29.5103 88.691 30.0553 88.9635C31.8077 85.203 32.4757 81.3291 32.0589 77.3422C31.027 76.9142 30.1586 76.2462 29.4542 75.3385C28.0871 73.776 26.8182 72.1731 25.6472 70.5297C25.6712 70.3121 25.8048 70.1786 26.0479 70.129C26.3608 70.6247 26.7615 71.0254 27.2501 71.3312C27.3837 71.1308 27.5173 70.9304 27.6508 70.7301C26.9162 69.7935 26.5155 68.7252 26.4486 67.5242C26.6783 65.8579 26.8787 64.1885 27.0497 62.515C27.2031 62.2922 27.4034 62.1587 27.6508 62.1143Z" fill="#66291A"/>
<path fill-rule="evenodd" clip-rule="evenodd" d="M39.6727 83.7539C39.6727 84.1546 39.6727 84.5554 39.6727 84.9561C39.3397 89.9625 39.1393 95.0386 39.0716 100.184C38.8043 94.841 38.8043 89.4976 39.0716 84.1546C39.225 83.9318 39.4254 83.7984 39.6727 83.7539Z" fill="#380500"/>
<path opacity="0.997" fill-rule="evenodd" clip-rule="evenodd" d="M92.9703 83.7539C93.2484 88.7066 93.5157 93.7158 93.7717 98.7815C93.4022 100.086 92.6008 101.021 91.3673 101.587C74.2018 101.92 57.1037 101.853 40.0732 101.386C57.0384 101.453 74.0027 101.386 90.9666 101.186C91.6823 100.871 92.2834 100.404 92.7699 99.7833C92.9703 94.4419 93.0372 89.0985 92.9703 83.7539Z" fill="#2A0500"/>
<path opacity="0.999" fill-rule="evenodd" clip-rule="evenodd" d="M42.4783 79.7468C42.7745 79.6943 43.0418 79.7612 43.2798 79.9472C42.0993 80.2702 41.0309 80.8043 40.0739 81.5501C40.3176 81.8988 40.6514 82.0991 41.0758 82.1512C57.9784 81.6178 74.342 81.6178 90.1658 82.1512C74.2695 82.0843 58.3735 82.1512 42.4783 82.3516C41.4208 82.6133 40.4855 83.0809 39.6732 83.7542C39.6387 83.355 39.7726 83.0212 40.0739 82.7523C39.7578 81.5112 39.2901 81.4443 38.6714 82.5519C37.8883 84.7492 37.4876 87.0197 37.4692 89.3644C37.2696 88.1695 37.2027 86.9672 37.2688 85.7578C37.4339 82.3872 39.1707 80.3836 42.4783 79.7468Z" fill="#35120B"/>
<path fill-rule="evenodd" clip-rule="evenodd" d="M70.1286 75.7393C78.5989 78.742 78.4655 80.0776 69.7279 79.7466C69.7118 78.3917 69.8453 77.0561 70.1286 75.7393Z" fill="#EE7C49"/>
<path opacity="0.999" fill-rule="evenodd" clip-rule="evenodd" d="M42.4783 79.7466C39.1707 80.3833 37.4339 82.387 37.2688 85.7576C36.9398 87.0163 36.7394 88.3523 36.6677 89.7649C35.2815 89.5113 33.879 89.244 32.46 88.9635C33.8136 85.2186 34.4813 81.3447 34.4636 77.3421C36.6769 77.3746 38.8809 77.2412 41.0758 76.9414C49.7084 77.9641 58.3242 77.9641 66.9232 76.9414C67.378 77.8258 67.6449 78.7607 67.7246 79.7466C59.2375 79.6672 50.822 79.6672 42.4783 79.7466Z" fill="#E87041"/>
<path opacity="0.997" fill-rule="evenodd" clip-rule="evenodd" d="M63.3157 75.3386C63.7373 75.2788 64.138 75.3454 64.5179 75.5389C63.8499 75.6724 63.1823 75.8062 62.5142 75.9397C57.4237 76.2671 53.4164 76.2005 50.4922 75.7393C54.7792 75.8343 59.0539 75.7008 63.3157 75.3386Z" fill="#230401"/>
<path fill-rule="evenodd" clip-rule="evenodd" d="M25.6472 70.5293C26.8182 72.1727 28.0872 73.7757 29.4542 75.3381C30.1587 76.2458 31.0271 76.9138 32.059 77.3418C32.1019 78.0948 31.9015 78.2282 31.4579 77.7425C30.4737 78.4723 29.3383 78.7396 28.0516 78.544C28.1115 78.9656 28.0447 79.3663 27.8513 79.7462C27.4763 78.8614 26.8084 78.3268 25.8476 78.1433C25.5804 78.6774 25.3133 78.6774 25.0461 78.1433C24.9023 79.3631 24.6352 79.4969 24.2447 78.544C24.2193 79.297 24.4197 80.0319 24.8458 80.748C24.7122 81.0819 24.5786 81.4161 24.445 81.7499C23.6672 82.3249 22.9993 82.7257 22.4413 82.9521C23.7375 84.7165 25.3404 86.1191 27.2502 87.1598C27.1586 87.3197 27.025 87.3862 26.8494 87.3602C22.3048 84.5646 18.9653 80.6907 16.8311 75.7389C17.7405 75.5365 18.2748 75.0023 18.434 74.1359C18.7232 74.3034 18.9235 74.5703 19.0351 74.9374C19.6804 74.097 20.148 73.1621 20.4377 72.1322C20.8455 71.8545 21.2463 71.5876 21.6399 71.3308C21.7565 71.7912 22.0905 72.0585 22.6417 72.1322C23.3226 72.1775 23.7901 71.9106 24.0443 71.3308C24.432 70.8074 24.9663 70.5401 25.6472 70.5293Z" fill="#ED9463"/>
<path opacity="0.992" fill-rule="evenodd" clip-rule="evenodd" d="M10.4195 74.1361C7.79113 72.433 6.05459 70.0285 5.20996 66.9229C6.48326 69.393 8.2198 71.7974 10.4195 74.1361Z" fill="#33110E"/>
<path fill-rule="evenodd" clip-rule="evenodd" d="M30.8569 58.1064C30.7327 59.7895 31 61.3925 31.6584 62.9153C32.5115 66.6934 34.5152 69.6989 37.6694 71.9318C39.1641 72.8106 40.6336 73.679 42.0775 74.5366C38.8716 73.5664 36.1334 71.83 33.8624 69.327C33.5951 69.8612 33.3282 69.8612 33.0609 69.327C32.7937 69.5943 32.7937 69.8612 33.0609 70.1285C34.5605 71.5527 35.8292 72.8884 36.8679 74.1358C34.7476 72.7505 32.9443 71.0141 31.458 68.9263C30.3532 66.5964 29.2178 64.3255 28.0518 62.1138C28.328 61.6033 28.662 61.6033 29.0536 62.1138C29.4543 63.0487 29.8551 63.984 30.2558 64.9189C30.6257 64.3042 30.826 63.6362 30.8569 62.9153C30.3973 61.2478 30.3973 59.6449 30.8569 58.1064Z" fill="#521C14"/>
<path opacity="0.998" fill-rule="evenodd" clip-rule="evenodd" d="M27.6511 62.1143C27.7846 62.1143 27.9182 62.1143 28.0518 62.1143C29.2179 64.3259 30.3532 66.5969 31.4581 68.9268C32.9444 71.0146 34.7477 72.751 36.868 74.1363C36.3895 74.648 35.7219 74.9153 34.8643 74.9378C34.1963 74.8709 33.5287 74.8043 32.8606 74.7374C30.1925 72.9401 28.1889 70.6022 26.8496 67.7245C27.2912 65.8768 27.5583 64.0065 27.6511 62.1143Z" fill="#FBF6ED"/>
<path opacity="0.999" fill-rule="evenodd" clip-rule="evenodd" d="M16.43 57.305C16.6971 57.305 16.8307 57.4384 16.8307 57.7057C16.6131 57.7297 16.4795 57.8632 16.43 58.1064C17.9904 60.6788 17.9904 63.2835 16.43 65.9208C16.458 66.2273 16.5916 66.4277 16.8307 66.5219C16.8307 66.7892 16.8307 67.056 16.8307 67.3233C16.3314 67.9337 16.5318 68.3344 17.4318 68.5255C17.9372 68.4218 18.338 68.1545 18.634 67.7241C20.0077 65.0796 21.4103 62.4748 22.8417 59.9097C23.8691 59.7294 24.4702 60.1967 24.645 61.3123C24.8311 61.0743 24.8979 60.807 24.8454 60.5108C25.7951 64.7101 24.7265 68.3168 21.6395 71.3307C21.2459 71.5876 20.8452 71.8544 20.4373 72.1322C20.1476 73.162 19.6801 74.097 19.0347 74.9373C18.9232 74.5702 18.7228 74.3033 18.4336 74.1358C17.0463 73.7423 15.577 73.6089 14.0256 73.7351C12.6318 73.225 11.3628 72.4235 10.2186 71.3307C8.81336 69.323 7.61115 67.1859 6.61196 64.9189C6.22525 63.7716 6.49242 62.8367 7.41343 62.1138C8.28751 62.8575 9.02222 63.7259 9.61747 64.7186C10.1357 64.9149 10.67 64.9818 11.2204 64.9189C11.2832 64.3687 11.2164 63.8341 11.02 63.316C9.31327 61.7788 8.5118 59.9085 8.61563 57.7057C9.14993 57.1715 9.68427 56.6369 10.2186 56.1028C11.8934 57.6488 13.0956 59.519 13.8252 61.713C14.2304 62.0485 14.6979 62.1819 15.2278 62.1138C15.3223 60.8679 15.1887 59.6657 14.827 58.5072C14.8144 57.2909 14.2133 56.2222 13.0237 55.3013C12.8207 54.1708 13.2883 53.7032 14.4263 53.8987C14.9486 55.1426 15.6165 56.2779 16.43 57.305Z" fill="#FAB989"/>
<path fill-rule="evenodd" clip-rule="evenodd" d="M79.3455 65.7201C79.2269 64.5921 79.6276 63.5233 80.5477 62.5143C88.3448 62.6625 91.3503 58.9225 89.5643 51.2937C88.033 49.9592 86.3632 49.7589 84.5551 50.6926C83.6294 51.9549 82.4941 52.9567 81.1488 53.6981C79.9065 53.6067 79.4389 53.0725 79.7462 52.0951C80.0047 52.6209 80.4055 53.0216 80.9485 53.2973C81.7583 52.7544 82.4264 52.0867 82.9521 51.2937C83.3529 51.1602 83.6202 50.8929 83.7536 50.4922C86.7876 48.6757 89.1255 49.3437 90.7665 52.4959C91.3091 59.7688 87.9028 63.3754 80.5477 63.3157C80.1418 64.128 79.741 64.9295 79.3455 65.7201Z" fill="#FAE2B4"/>
<path opacity="0.996" fill-rule="evenodd" clip-rule="evenodd" d="M68.5253 18.8347C68.9513 22.5538 69.2186 26.294 69.3268 30.0553C75.5694 30.5474 81.4466 32.2838 86.9591 35.2649C87.2789 35.0817 87.4123 34.8144 87.3599 34.4634C87.6492 34.6309 87.8495 34.8978 87.961 35.2649C88.0968 34.3295 88.0299 33.3942 87.7606 32.4597C87.7353 31.6659 88.0026 30.9978 88.5621 30.456C88.8646 33.5068 89.5996 36.4458 90.7661 39.2722C90.952 39.0342 91.019 38.7669 90.9665 38.4707C91.477 39.903 91.4101 41.3725 90.7661 42.8788C90.0448 43.607 89.1768 44.0746 88.1613 44.2814C87.5863 45.1899 87.7197 45.9913 88.5621 46.6858C91.6882 48.3897 93.2911 51.0614 93.3709 54.7005C92.6832 61.2657 89.0766 64.8724 82.551 65.5203C80.1963 69.0107 77.2573 71.8828 73.7349 74.1362C72.485 74.1462 71.2162 74.0123 69.9279 73.7354C68.8283 74.5786 67.693 74.8459 66.5216 74.5369C71.9175 73.1788 76.1922 70.2402 79.3452 65.7207C79.7407 64.9301 80.1414 64.1286 80.5474 63.3163C87.9024 63.376 91.3087 59.7694 90.7661 52.4965C89.1251 49.3443 86.7872 48.6763 83.7532 50.4928C83.2571 50.3686 83.2571 50.1682 83.7532 49.8917C85.1037 49.059 86.5732 48.7251 88.1613 48.8899C87.7834 46.7115 87.2492 44.8412 86.5584 43.2796C84.4681 43.3729 83.9336 42.6384 84.9554 41.0755C83.5637 40.7068 82.4949 40.2392 81.7496 39.6729C83.8141 39.804 85.7513 40.3382 87.5602 41.2759C88.5164 40.6563 88.7167 39.8549 88.1613 38.8715C86.7608 37.5687 85.1578 36.5668 83.3525 35.866C76.9788 33.6379 70.4332 32.2353 63.7165 31.6582C65.5871 31.3216 67.1901 30.9209 68.5253 30.456C68.6395 29.7395 68.5061 29.0715 68.1246 28.4524C67.7523 28.9288 67.6188 29.463 67.7238 30.0553C59.2431 29.8505 50.8277 29.5832 42.4775 29.2538C50.6485 28.6812 58.7967 28.7477 66.9224 29.4542C67.1552 29.0963 67.289 28.6956 67.3231 28.252C66.8562 24.8504 66.4555 21.4442 66.1209 18.0333C66.0612 17.6117 66.1277 17.211 66.3213 16.8311C66.6294 18.772 67.0967 20.6421 67.7238 22.4413C67.9911 21.1824 68.2584 19.9801 68.5253 18.8347Z" fill="#592116"/>
<path fill-rule="evenodd" clip-rule="evenodd" d="M30.8565 46.4854C30.8565 50.3593 30.8565 54.2328 30.8565 58.1067C30.3969 59.6451 30.3969 61.2481 30.8565 62.9155C30.8257 63.6364 30.6253 64.3045 30.2554 64.9192C29.8547 63.9843 29.454 63.049 29.0532 62.114C28.6616 61.6035 28.3277 61.6035 28.0514 62.114C27.9178 62.114 27.7842 62.114 27.6507 62.114C27.4032 62.1585 27.2029 62.292 27.0496 62.5148C26.8785 64.1882 26.6781 65.8577 26.4485 67.524C26.5153 68.725 26.916 69.7933 27.6507 70.7298C27.5171 70.9302 27.3835 71.1306 27.2499 71.3309C26.7613 71.0252 26.3606 70.6244 26.0477 70.1287C25.8046 70.1784 25.671 70.3119 25.647 70.5295C24.966 70.5403 24.4317 70.8076 24.044 71.3309C22.9976 70.4565 23.198 69.7885 24.6451 69.3273C24.7894 68.4825 25.0565 67.6811 25.4466 66.9229C25.6693 67.7624 25.8696 67.8293 26.0477 67.1232C25.6049 64.6675 25.5381 62.1966 25.8474 59.7096C25.9809 60.1104 26.1145 60.5111 26.2481 60.9118C26.5153 60.3777 26.7824 60.3777 27.0496 60.9118C27.2356 60.6738 27.3024 60.4065 27.2499 60.1104C27.5104 60.2322 27.7775 60.3656 28.0514 60.5111C28.185 59.9769 28.3186 59.4423 28.4521 58.9082C28.1595 54.9068 27.9591 50.8995 27.851 46.8861C27.2881 47.3794 26.8206 47.9136 26.4485 48.4891C26.056 48.996 25.6553 49.5306 25.2463 50.092C24.8455 49.9585 24.5783 49.6913 24.4448 49.2905C25.2087 48.0322 25.743 46.6966 26.0477 45.2832C27.8052 44.2669 27.9388 43.1316 26.4485 41.8769C24.9037 41.592 23.4344 41.1243 22.0404 40.4744C21.9985 38.6093 22.5328 38.409 23.6433 39.8733C25.9227 40.0953 28.1935 40.0283 30.4558 39.6729C30.0855 45.6803 30.0186 51.6913 30.2554 57.706C30.3236 53.8954 30.5239 50.1553 30.8565 46.4854Z" fill="#6D2E1C"/>
<path fill-rule="evenodd" clip-rule="evenodd" d="M26.0475 45.2832C25.7429 46.6966 25.2086 48.0322 24.4446 49.2906C24.5782 49.6913 24.8453 49.9586 25.2461 50.092C25.6551 49.5306 26.0558 48.996 26.4483 48.4891C25.8031 50.1601 25.4024 51.8965 25.2461 53.6986C25.4367 56.0057 26.1046 58.1432 27.2497 60.1104C27.3022 60.4065 27.2354 60.6738 27.0494 60.9119C26.7822 60.3777 26.5151 60.3777 26.2479 60.9119C26.1143 60.5111 25.9807 60.1104 25.8472 59.7097C25.5379 62.1966 25.6047 64.6676 26.0475 67.1233C25.8695 67.8294 25.6691 67.7624 25.4464 66.9229C25.0564 67.6811 24.7892 68.4825 24.645 69.3273C23.1978 69.7885 22.9974 70.4566 24.0439 71.331C23.7897 71.9108 23.3222 72.1777 22.6413 72.1324C22.09 72.0587 21.7561 71.7914 21.6395 71.331C24.7264 68.317 25.795 64.7104 24.8453 60.5111C24.659 59.3197 23.991 58.8521 22.8417 59.1086C22.0967 59.7329 21.4956 60.4675 21.0384 61.3126C20.2128 63.3644 19.2778 65.368 18.2332 67.3236C17.7156 67.841 17.2481 67.841 16.8306 67.3236C16.8306 67.0563 16.8306 66.7894 16.8306 66.5222C17.9195 64.2356 18.2534 61.8312 17.8325 59.3089C17.5671 58.7142 17.2332 58.1801 16.8306 57.706C16.8306 57.4387 16.6971 57.3053 16.4299 57.3053C16.5898 54.5246 15.3876 53.3223 12.8233 53.6986C12.3701 54.3294 12.3033 54.9974 12.6229 55.7023C13.559 56.5198 14.2937 57.4547 14.827 58.5075C15.1886 59.666 15.3222 60.8682 15.2277 62.1141C14.6979 62.1822 14.2304 62.0487 13.8251 61.7133C13.0956 59.5193 11.8934 57.6491 10.2185 56.103C9.68421 56.6372 9.14987 57.1718 8.61557 57.706C8.51174 59.9088 9.31321 61.7791 11.02 63.3163C11.2163 63.8344 11.2831 64.369 11.2203 64.9192C10.67 64.9821 10.1356 64.9152 9.61741 64.7188C9.02215 63.7262 8.28745 62.8578 7.41336 62.1141C6.49235 62.837 6.22518 63.7719 6.61189 64.9192C7.61109 67.1862 8.81329 69.3233 10.2185 71.331C11.3627 72.4238 12.6317 73.2252 14.0255 73.7354C14.6467 74.1189 15.8489 74.3193 17.6321 74.3365C15.9535 74.4711 14.2838 74.6715 12.6229 74.9376C11.8461 74.7557 11.1113 74.4884 10.4189 74.1361C8.21916 71.7974 6.48262 69.393 5.20932 66.9229C4.06526 60.4186 6.2025 55.1425 11.6211 51.0939C13.4531 50.7384 15.1896 51.0057 16.8306 51.8953C17.9691 53.986 19.1045 56.0562 20.2369 58.1067C20.9824 57.4251 21.8506 57.0243 22.8417 56.9045C22.7752 54.8964 22.8419 52.8928 23.042 50.8935C23.9534 48.9351 24.9552 47.0649 26.0475 45.2832Z" fill="#5E2317"/>
<path fill-rule="evenodd" clip-rule="evenodd" d="M24.8454 60.5107C24.8979 60.8069 24.8311 61.0742 24.645 61.3122C24.4702 60.1966 23.8691 59.7293 22.8417 59.9096C21.4103 62.4747 20.0077 65.0795 18.634 67.724C18.338 68.1544 17.9372 68.4216 17.4318 68.5254C16.5318 68.3343 16.3314 67.9336 16.8307 67.3232C17.2481 67.8406 17.7156 67.8406 18.2333 67.3232C19.2779 65.3676 20.2129 63.364 21.0384 61.3122C21.4957 60.4671 22.0968 59.7325 22.8417 59.1082C23.9911 58.8517 24.659 59.3194 24.8454 60.5107Z" fill="#F6D2A3"/>
<path fill-rule="evenodd" clip-rule="evenodd" d="M16.8304 57.7061C17.233 58.1801 17.5669 58.7143 17.8323 59.309C18.2532 61.8312 17.9193 64.2356 16.8304 66.5222C16.5913 66.4281 16.4577 66.2277 16.4297 65.9211C17.9901 63.2839 17.9901 60.6791 16.4297 58.1068C16.4792 57.8635 16.6128 57.7301 16.8304 57.7061Z" fill="#FBE4B0"/>
<path opacity="0.999" fill-rule="evenodd" clip-rule="evenodd" d="M27.2498 60.11C26.1046 58.1428 25.4367 56.0053 25.2461 53.6982C25.4024 51.8961 25.8031 50.1597 26.4483 48.4887C26.8204 47.9132 27.2879 47.379 27.8509 46.8857C27.959 50.8991 28.1594 54.9065 28.452 58.9078C28.3184 59.442 28.1848 59.9766 28.0512 60.5107C27.7773 60.3653 27.5102 60.2318 27.2498 60.11Z" fill="#F29E69"/>
<path fill-rule="evenodd" clip-rule="evenodd" d="M16.4301 57.3048C15.6166 56.2777 14.9487 55.1424 14.4264 53.8985C13.2884 53.7029 12.8208 54.1706 13.0238 55.3011C14.2133 56.222 14.8144 57.2907 14.8271 58.507C14.2938 57.4542 13.5591 56.5193 12.6231 55.7018C12.3035 54.9969 12.3702 54.3289 12.8234 53.6981C15.3878 53.3218 16.59 54.5241 16.4301 57.3048Z" fill="#F9CF9C"/>
<path fill-rule="evenodd" clip-rule="evenodd" d="M30.8567 44.0811C31.0996 50.044 31.5003 56.055 32.0589 62.1141C32.0417 62.4812 31.9082 62.7485 31.6582 62.9156C30.9998 61.3928 30.7325 59.7899 30.8567 58.1068C30.8567 54.2329 30.8567 50.3594 30.8567 46.4855C30.8567 45.684 30.8567 44.8825 30.8567 44.0811Z" fill="#FAEBBF"/>
<path fill-rule="evenodd" clip-rule="evenodd" d="M78.9443 41.2754C79.2337 41.4429 79.434 41.7098 79.5454 42.0769C79.6961 45.4262 79.9634 48.7655 80.3469 52.0952C80.5128 52.2784 80.7132 52.4122 80.948 52.496C81.6088 52.0359 82.2099 51.5017 82.7513 50.893C82.9112 50.9844 82.9777 51.1182 82.9517 51.2938C82.4259 52.0868 81.7579 52.7544 80.948 53.2974C80.405 53.0217 80.0043 52.621 79.7458 52.0952C79.7458 51.8279 79.6124 51.6945 79.3451 51.6945C79.3595 48.2141 79.2261 44.7413 78.9443 41.2754Z" fill="#45120B"/>
<path fill-rule="evenodd" clip-rule="evenodd" d="M80.9486 39.272C81.3462 39.2031 81.6131 39.337 81.7501 39.6728C82.4955 40.239 83.5642 40.7067 84.956 41.0753C83.9341 42.6382 84.4687 43.3728 86.5589 43.2794C87.2498 44.841 87.784 46.7113 88.1619 48.8897C86.5738 48.725 85.1043 49.0588 83.7538 49.8915C83.2577 50.168 83.2577 50.3684 83.7538 50.4926C83.6203 50.8933 83.353 51.1606 82.9523 51.2941C82.9784 51.1186 82.9118 50.9847 82.7519 50.8933C82.2106 51.5021 81.6094 52.0362 80.9486 52.4963C80.7138 52.4125 80.5134 52.2787 80.3475 52.0955C79.964 48.7658 79.6967 45.4265 79.5461 42.0772C79.4347 41.7101 79.2343 41.4432 78.945 41.2757C78.3042 41.3831 77.77 41.2493 77.342 40.875C77.6382 40.9275 77.9055 40.8605 78.1435 40.6746C75.911 40.3805 74.0408 39.8463 72.5332 39.0717C73.5871 38.733 74.5225 38.9334 75.3383 39.6728C77.2675 39.3802 79.1377 39.2468 80.9486 39.272Z" fill="#702F1D"/>
<path opacity="0.01" fill-rule="evenodd" clip-rule="evenodd" d="M16.8311 46.4854C17.3654 46.7526 17.3654 46.7526 16.8311 46.4854V46.4854Z" fill="#F7E0C3"/>
<path opacity="0.01" fill-rule="evenodd" clip-rule="evenodd" d="M14.8271 46.4854C15.3614 46.7526 15.3614 46.7526 14.8271 46.4854V46.4854Z" fill="#F5DFC5"/>
<path fill-rule="evenodd" clip-rule="evenodd" d="M69.3277 44.0809C69.2832 43.8337 69.1498 43.6333 68.927 43.4798C66.7786 43.2358 64.6411 43.3027 62.5152 43.6802C62.3261 42.5349 62.7268 41.7334 63.7174 41.2758C65.9551 40.8278 68.2261 40.7609 70.5299 41.0754C72.0054 41.6044 72.6065 42.6062 72.3332 44.0809C71.3586 44.4616 70.3568 44.4616 69.3277 44.0809Z" fill="#561E13"/>
<path fill-rule="evenodd" clip-rule="evenodd" d="M64.5186 40.0732C65.8543 40.0732 67.1903 40.0732 68.526 40.0732C71.4493 40.4872 74.3883 40.7541 77.3421 40.8747C77.7701 41.249 78.3043 41.3828 78.9451 41.2754C79.2268 44.7414 79.3602 48.2142 79.3458 51.6946C79.038 51.3888 78.8377 50.9881 78.7447 50.4924C78.5988 47.5461 78.3985 44.6076 78.1436 41.6762C76.39 41.6213 74.6536 41.5544 72.934 41.4758C73.6089 44.872 72.4067 45.7404 69.3274 44.0806C70.3565 44.4613 71.3584 44.4613 72.3329 44.0806C72.6062 42.6059 72.0051 41.604 70.5296 41.0751C68.2258 40.7605 65.9548 40.8274 63.7171 41.2754C63.5416 41.3015 63.4078 41.235 63.3164 41.0751C63.548 40.5072 63.9488 40.1734 64.5186 40.0732Z" fill="#FAD8A9"/>
<path opacity="0.996" fill-rule="evenodd" clip-rule="evenodd" d="M43.2791 39.6729C49.8243 39.6729 56.3699 39.6729 62.9151 39.6729C56.565 39.9722 50.1533 40.306 43.6798 40.6747C44.5474 41.1399 44.9481 41.8745 44.882 42.8787C44.8355 43.701 44.4348 44.2352 43.6798 44.4817C40.748 43.6734 38.0098 44.0741 35.4647 45.6839C35.066 45.4571 34.7322 45.1898 34.4629 44.8824C36.4862 44.0244 38.6233 43.4903 40.8746 43.2795C42.0232 43.7984 43.1584 43.7984 44.2809 43.2795C44.5814 42.0801 44.1138 41.3451 42.8783 41.0754C40.8538 40.7845 38.8501 40.8514 36.8673 41.2758C36.4666 41.0085 36.0658 40.7416 35.6651 40.4743C38.2803 40.3954 40.8181 40.1281 43.2791 39.6729Z" fill="#FCE4B4"/>
<path opacity="0.999" fill-rule="evenodd" clip-rule="evenodd" d="M62.915 39.6729C63.4492 39.6729 63.9838 39.6729 64.518 39.6729C64.518 39.8063 64.518 39.9401 64.518 40.0736C63.9481 40.1738 63.5474 40.5076 63.3158 41.0754C63.4071 41.2353 63.541 41.3018 63.7165 41.2758C62.7259 41.7334 62.3251 42.5349 62.5143 43.6802C64.6402 43.3027 66.7777 43.2358 68.926 43.4798C69.1489 43.6333 69.2823 43.8337 69.3268 44.0809C72.406 45.7408 73.6082 44.8724 72.9334 41.4762C74.653 41.5547 76.3893 41.6216 78.1429 41.6765C78.3978 44.6079 78.5982 47.5465 78.7441 50.4927C78.837 50.9884 79.0374 51.3891 79.3452 51.6949C79.6124 51.6949 79.7459 51.8283 79.7459 52.0956C79.4385 53.073 79.9062 53.6072 81.1485 53.6986C82.4937 52.9572 83.629 51.9554 84.5547 50.6931C86.3628 49.7593 88.0327 49.9597 89.5639 51.2942C91.35 58.923 88.3445 62.663 80.5474 62.5147C79.6273 63.5238 79.2265 64.5926 79.3452 65.7206C76.1922 70.2401 71.9175 73.1787 66.5216 74.5368C65.3703 74.6578 64.302 74.9251 63.3158 75.3383C59.0539 75.7005 54.7793 75.834 50.4922 75.739C47.7256 75.4404 44.9204 75.0397 42.0768 74.5368C40.633 73.6792 39.1635 72.8108 37.6687 71.932C34.5145 69.6991 32.5109 66.6936 31.6577 62.9155C31.9078 62.7484 32.0412 62.4811 32.0584 62.114C31.4998 56.0549 31.0991 50.0439 30.8562 44.0809C30.7488 43.0314 30.8823 42.0296 31.257 41.0754C32.6836 40.5797 34.1531 40.3793 35.665 40.4743C36.0658 40.7416 36.4665 41.0085 36.8672 41.2758C35.4182 42.0552 34.6167 43.2574 34.4628 44.8824C34.7321 45.1898 35.0659 45.4571 35.4647 45.6839C38.0097 44.0741 40.748 43.6734 43.6797 44.4817C44.4347 44.2352 44.8355 43.701 44.8819 42.8787C44.9481 41.8745 44.5473 41.1399 43.6797 40.6747C50.1532 40.306 56.565 39.9722 62.915 39.6729Z" fill="#FDC497"/>
<path fill-rule="evenodd" clip-rule="evenodd" d="M62.1136 68.5257C61.3778 69.5949 60.4429 70.4628 59.3084 71.1305C54.819 72.5875 50.8785 71.7191 47.4867 68.5257C46.9241 67.6685 46.5903 66.7336 46.4849 65.7205C46.4208 64.9772 46.6881 64.443 47.2864 64.1176C51.9722 63.5257 56.6475 63.5926 61.3121 64.318C61.5629 64.6185 61.7633 64.9527 61.9132 65.3198C61.9877 66.4815 62.0542 67.5503 62.1136 68.5257Z" fill="#682A19"/>
<path opacity="0.999" fill-rule="evenodd" clip-rule="evenodd" d="M53.6985 66.5225C55.4257 66.7549 57.1621 66.8887 58.9081 66.9232C59.0411 69.4558 57.8389 70.3908 55.3014 69.7283C53.7666 69.7816 52.2975 69.5143 50.8934 68.9269C50.5119 68.3077 50.3784 67.6397 50.4926 66.9232C51.6487 67.0458 52.7175 66.9124 53.6985 66.5225Z" fill="#BF5736"/>
<path opacity="0.996" fill-rule="evenodd" clip-rule="evenodd" d="M60.1106 63.3159C62.0867 63.691 63.022 64.8932 62.9158 66.9226C62.5772 67.3918 62.3103 67.9264 62.1143 68.5255C62.055 67.5501 61.9885 66.4814 61.9139 65.3196C61.7641 64.9526 61.5637 64.6183 61.3128 64.3178C56.6483 63.5925 51.9729 63.5255 47.2871 64.1174C47.3316 63.8702 47.465 63.6698 47.6878 63.5163C51.8266 63.3159 55.9674 63.2494 60.1106 63.3159Z" fill="#310804"/>
<path opacity="0.996" fill-rule="evenodd" clip-rule="evenodd" d="M62.9151 66.9228C63.0213 64.8935 62.086 63.6913 60.11 63.3162C58.0458 62.9848 55.9087 62.7844 53.6982 62.7151C55.9692 62.4478 58.2398 62.4478 60.5107 62.7151C62.8815 63.6588 63.683 65.0614 62.9151 66.9228Z" fill="#FCE9BA"/>
<path fill-rule="evenodd" clip-rule="evenodd" d="M39.6729 58.9079C42.238 59.2813 43.8409 58.2126 44.4817 55.702C44.8716 54.721 45.005 53.6522 44.8824 52.4961C45.7977 54.8556 45.1297 57.0597 42.8787 59.1082C41.7298 59.4292 40.6611 59.3623 39.6729 58.9079Z" fill="#FBE9BB"/>
<path fill-rule="evenodd" clip-rule="evenodd" d="M84.1547 54.0996C84.8227 54.0996 85.4903 54.0996 86.1584 54.0996C86.2189 56.8034 85.0167 58.5402 82.5518 59.3092C82.5666 57.5199 83.1008 55.7835 84.1547 54.0996Z" fill="#CB6A44"/>
<path fill-rule="evenodd" clip-rule="evenodd" d="M64.9187 50.4925C64.3428 52.6449 64.4097 54.7824 65.119 56.9043C66.1998 58.2548 67.6024 58.7893 69.3267 58.5072C67.5743 59.4217 66.0383 59.021 64.7183 57.305C63.9168 54.9006 63.9168 52.4962 64.7183 50.0918C64.8782 50.1832 64.9447 50.317 64.9187 50.4925Z" fill="#F9E4B5"/>
<path fill-rule="evenodd" clip-rule="evenodd" d="M44.4812 51.695C44.4812 51.9623 44.4812 52.2292 44.4812 52.4965C44.0016 52.1915 43.6677 51.5235 43.4794 50.4928C42.1437 48.8898 40.8077 48.8898 39.472 50.4928C39.0453 51.6449 38.8449 52.8471 38.8709 54.0994C38.5504 58.2506 40.0868 59.1855 43.4794 56.9045C43.8693 56.1463 44.1366 55.3449 44.2809 54.5001C44.4744 54.88 44.5409 55.2808 44.4812 55.7023C43.8405 58.2129 42.2375 59.2817 39.6724 58.9082C37.7825 56.1163 37.5822 53.1777 39.0713 50.092C41.6589 48.1056 43.4622 48.6398 44.4812 51.695Z" fill="#471611"/>
<path fill-rule="evenodd" clip-rule="evenodd" d="M49.6916 54.5C50.493 54.5 51.2945 54.5 52.096 54.5C52.2907 55.8044 51.89 56.8732 50.8938 57.7059C51.4508 58.3747 51.5842 59.0427 51.2945 59.7096C48.2585 58.7145 47.7243 56.9781 49.6916 54.5Z" fill="#591E13"/>
<path fill-rule="evenodd" clip-rule="evenodd" d="M44.4819 52.4959C44.6153 52.4959 44.7492 52.4959 44.8826 52.4959C45.0052 53.652 44.8718 54.7208 44.4819 55.7018C44.5416 55.2802 44.4751 54.8795 44.2815 54.4996C44.1372 55.3443 43.87 56.1458 43.48 56.904C40.0874 59.185 38.551 58.2501 38.8716 54.0989C38.8455 52.8466 39.0459 51.6444 39.4727 50.4922C40.8083 48.8893 42.1444 48.8893 43.48 50.4922C43.6684 51.5229 44.0022 52.191 44.4819 52.4959Z" fill="#6C2D1A"/>
<path fill-rule="evenodd" clip-rule="evenodd" d="M69.3273 58.507C67.6029 58.7891 66.2003 58.2545 65.1196 56.904C64.4103 54.7821 64.3433 52.6446 64.9192 50.4923C66.3166 48.3992 68.1199 47.9985 70.3291 49.2901C71.8439 52.5789 71.5097 55.6509 69.3273 58.507Z" fill="#662818"/>
<path fill-rule="evenodd" clip-rule="evenodd" d="M44.4818 51.6946C43.4627 48.6394 41.6594 48.1052 39.0718 50.0916C37.5827 53.1773 37.7831 56.1159 39.6729 58.9078C38.5958 58.6978 37.9947 58.0298 37.8696 56.9041C37.4445 54.41 37.7117 52.0056 38.6711 49.6909C41.0022 47.4845 43.0059 47.7518 44.6821 50.4924C44.9787 50.9929 44.9118 51.3936 44.4818 51.6946Z" fill="#FAE5B7"/>
<path fill-rule="evenodd" clip-rule="evenodd" d="M34.4629 44.8828C34.6168 43.2579 35.4182 42.0557 36.8673 41.2762C38.8501 40.8518 40.8538 40.7849 42.8783 41.0759C44.1138 41.3456 44.5814 42.0805 44.2809 43.2799C43.1584 43.7989 42.0232 43.7989 40.8746 43.2799C38.6233 43.4907 36.4862 44.0249 34.4629 44.8828Z" fill="#5A2115"/>
<path fill-rule="evenodd" clip-rule="evenodd" d="M63.3164 37.6689C69.2497 37.7283 75.1273 38.2624 80.9487 39.2719C79.1378 39.2466 77.2676 39.3801 75.3385 39.6726C74.5226 38.9333 73.5872 38.7329 72.5333 39.0715C74.0409 39.8461 75.9111 40.3803 78.1436 40.6745C77.9056 40.8604 77.6383 40.9273 77.3421 40.8748C74.3883 40.7542 71.4493 40.4873 68.526 40.0734C69.5154 39.746 70.5837 39.5456 71.7318 39.4723C71.1977 39.3388 70.6631 39.205 70.1289 39.0715C70.3962 38.9381 70.6631 38.8042 70.9304 38.6708C68.308 38.5381 65.7701 38.2039 63.3164 37.6689Z" fill="#531F14"/>
<path fill-rule="evenodd" clip-rule="evenodd" d="M41.2762 37.6692C48.6229 37.135 55.9699 37.135 63.3166 37.6692C65.7703 38.2042 68.3082 38.5384 70.9306 38.671C70.6633 38.8045 70.3964 38.9383 70.1291 39.0718C70.6633 39.2052 71.1979 39.3391 71.732 39.4725C70.5839 39.5458 69.5156 39.7462 68.5262 40.0736C67.1905 40.0736 65.8545 40.0736 64.5188 40.0736C64.5188 39.9402 64.5188 39.8063 64.5188 39.6729C65.5956 39.7386 66.6643 39.6717 67.7247 39.4725C58.9033 38.7195 50.0871 38.7195 41.2762 39.4725C41.931 39.6705 42.599 39.737 43.2799 39.6729C40.8189 40.1281 38.2811 40.3954 35.6659 40.4743C34.2549 40.2074 32.7858 39.9402 31.2578 39.6729C31.3913 39.5394 31.5251 39.4056 31.6585 39.2721C35.9095 38.6734 40.1842 38.2058 44.4821 37.8696C43.4217 37.6704 42.353 37.6035 41.2762 37.6692Z" fill="#662B1B"/>
<path fill-rule="evenodd" clip-rule="evenodd" d="M22.8416 34.0625C21.6979 35.2154 21.03 36.618 20.838 38.2702C20.8833 39.2316 21.2841 39.9661 22.0402 40.4743C23.4342 41.1243 24.9035 41.5919 26.4483 41.8768C27.9386 43.1315 27.805 44.2668 26.0475 45.2831C26.5773 44.5573 26.7777 43.7559 26.6486 42.8787C25.6438 42.2155 24.5084 41.8812 23.2424 41.8768C20.4381 40.6017 19.7035 38.5311 21.0383 35.6654C21.3379 34.7634 21.939 34.2292 22.8416 34.0625Z" fill="#3B1412"/>
<path opacity="0.998" fill-rule="evenodd" clip-rule="evenodd" d="M28.0511 19.2354C27.0167 21.1718 26.0816 23.1755 25.246 25.2464C25.4719 26.1757 25.6723 27.111 25.8471 28.0515C26.4529 26.021 27.3212 24.151 28.4519 22.4412C27.2709 25.5597 26.3359 28.7656 25.6467 32.0589C25.7803 32.3262 25.9139 32.593 26.0474 32.8603C30.4275 31.0975 34.969 29.9618 39.6724 29.4541C40.0607 27.5558 40.1946 25.6191 40.0732 23.6434C40.6037 25.6741 40.6037 27.7446 40.0732 29.8548C36.6785 30.4427 33.3392 31.2442 30.0548 32.2592C31.5535 32.6471 33.023 32.8475 34.4629 32.8603C30.9128 33.5761 27.4399 34.5779 24.0438 35.8659C22.5102 37.1061 22.5102 38.3083 24.0438 39.4725C25.3795 39.7398 26.7154 39.7398 28.0511 39.4725C32.3734 38.3143 36.7815 37.7132 41.2754 37.6692C42.3521 37.6034 43.4209 37.6704 44.4813 37.8695C40.1834 38.2057 35.9087 38.6734 31.6577 39.2721C31.5243 39.4055 31.3904 39.5394 31.257 39.6728C32.785 39.9401 34.2541 40.2074 35.6651 40.4743C34.1531 40.3793 32.6836 40.5797 31.257 41.0754C30.8823 42.0296 30.7489 43.0314 30.8563 44.0809C30.8563 44.8824 30.8563 45.6839 30.8563 46.4853C30.5237 50.1553 30.3233 53.8953 30.2552 57.7059C30.0183 51.6913 30.0853 45.6803 30.4555 39.6728C28.1932 40.0283 25.9224 40.0952 23.643 39.8732C22.5325 38.4089 21.9982 38.6093 22.0401 40.4743C21.284 39.9662 20.8833 39.2316 20.8379 38.2703C21.0299 36.618 21.6978 35.2155 22.8416 34.0625C23.08 28.5356 24.8165 23.5933 28.0511 19.2354Z" fill="#521F15"/>
<path fill-rule="evenodd" clip-rule="evenodd" d="M61.3121 31.2576C62.0194 31.6427 62.8209 31.7766 63.7165 31.6584C70.4332 32.2354 76.9788 33.638 83.3525 35.8661C85.1578 36.567 86.7608 37.5688 88.1614 38.8716C88.7168 39.855 88.5164 40.6565 87.5602 41.276C85.7513 40.3383 83.8142 39.8041 81.7496 39.6731C81.6125 39.3372 81.3457 39.2034 80.9481 39.2723C75.1266 38.2629 69.2491 37.7287 63.3158 37.6694C55.9691 37.1352 48.622 37.1352 41.2754 37.6694C36.7815 37.7135 32.3734 38.3146 28.0511 39.4727C26.7153 39.74 25.3795 39.74 24.0438 39.4727C22.5102 38.3085 22.5102 37.1063 24.0438 35.8661C27.4399 34.5781 30.9128 33.5763 34.4629 32.8606C36.6685 32.5524 38.806 32.1517 40.8746 31.6584C47.6803 31.3073 54.4928 31.1739 61.3121 31.2576Z" fill="#E46B3E"/>
<path opacity="0.992" fill-rule="evenodd" clip-rule="evenodd" d="M64.518 39.6733C63.9838 39.6733 63.4493 39.6733 62.9151 39.6733C56.3699 39.6733 49.8243 39.6733 43.2791 39.6733C42.5982 39.7374 41.9302 39.6709 41.2754 39.4729C50.0863 38.72 58.9025 38.72 67.7239 39.4729C66.6636 39.6721 65.5948 39.739 64.518 39.6733Z" fill="#46100C"/>
<path fill-rule="evenodd" clip-rule="evenodd" d="M76.1396 11.2207C82.1174 14.8711 86.1913 20.0806 88.3621 26.8494C89.404 30.7032 90.2724 34.5771 90.9668 38.4707C91.0193 38.7668 90.9524 39.0341 90.7665 39.2721C89.5999 36.4458 88.865 33.5068 88.5624 30.456C88.003 30.9978 87.7357 31.6658 87.761 32.4597C88.0303 33.3942 88.0972 34.3295 87.9613 35.2648C87.8499 34.8977 87.6496 34.6308 87.3602 34.4633C87.2216 32.5735 86.9543 30.7032 86.5588 28.853C86.8958 28.6491 87.0961 28.916 87.1599 29.6545C87.3093 28.7737 87.5097 27.9053 87.761 27.0497C85.5878 20.4886 81.7139 15.2123 76.1396 11.2207Z" fill="#4C1C16"/>
<path fill-rule="evenodd" clip-rule="evenodd" d="M40.0739 23.6439C40.1953 25.6195 40.0615 27.5563 39.6732 29.4545C34.9698 29.9623 30.4282 31.098 26.0482 32.8608C25.9146 32.5935 25.781 32.3266 25.6475 32.0593C26.3366 28.7661 27.2716 25.5602 28.4526 22.4417C31.8356 16.7894 36.511 12.5148 42.4783 9.61816C42.6118 9.68497 42.7456 9.75173 42.8791 9.81853C41.1551 14.2295 40.2202 18.838 40.0739 23.6439Z" fill="#E46A3D"/>
<path fill-rule="evenodd" clip-rule="evenodd" d="M86.5589 28.8531C86.9544 30.7033 87.2217 32.5735 87.3603 34.4634C87.4128 34.8144 87.2794 35.0817 86.9596 35.2649C81.4471 32.2838 75.5699 30.5474 69.3273 30.0553C69.2191 26.294 68.9518 22.5538 68.5258 18.8347C67.754 15.9494 67.2198 13.0106 66.9229 10.0186C77.0029 12.6184 83.5481 18.8966 86.5589 28.8531Z" fill="#E46A3D"/>
<path fill-rule="evenodd" clip-rule="evenodd" d="M56.9042 4.00781C60.6923 4.01879 64.1655 5.02063 67.3233 7.01332C70.5897 7.85058 73.5286 9.25315 76.1394 11.221C81.7137 15.2126 85.5876 20.489 87.7607 27.0501C87.5095 27.9056 87.3091 28.774 87.1596 29.6548C87.0959 28.9163 86.8956 28.6494 86.5585 28.8534C83.5478 18.8969 77.0026 12.6187 66.9225 10.0188C67.2195 13.0109 67.7537 15.9496 68.5255 18.835C68.2586 19.9804 67.9913 21.1826 67.724 22.4416C67.0968 20.6424 66.6296 18.7723 66.3214 16.8313C66.1279 17.2112 66.0613 17.612 66.1211 18.0335C65.4017 14.8845 64.6672 11.6786 63.917 8.4159C63.5832 8.08196 63.249 7.74799 62.9152 7.41406C57.2231 5.89567 51.6128 6.09604 46.0843 8.01516C43.8282 12.8098 42.559 17.8857 42.2773 23.2431C41.9503 25.3206 42.0169 27.3242 42.4777 29.2541C50.8278 29.5835 59.2432 29.8508 67.724 30.0556C67.619 29.4633 67.7524 28.9291 68.1247 28.4526C68.5062 29.0718 68.6397 29.7398 68.5255 30.4563C67.1902 30.9212 65.5873 31.3219 63.7166 31.6585C62.821 31.7767 62.0195 31.6429 61.3122 31.2578C56.38 30.7973 50.1017 30.7304 42.4777 31.0574C41.8534 31.1416 41.3192 31.3419 40.8748 31.6585C38.8062 32.1518 36.6686 32.5526 34.463 32.8607C33.0232 32.8479 31.5537 32.6475 30.0549 32.2596C33.3393 31.2446 36.6787 30.4431 40.0733 29.8552C40.6039 27.7449 40.6039 25.6745 40.0733 23.6438C40.2196 18.8379 41.1545 14.2294 42.8784 9.81847C42.745 9.75167 42.6111 9.6849 42.4777 9.6181C36.5104 12.5148 31.835 16.7893 28.452 22.4416C27.3213 24.1514 26.4531 26.0214 25.8472 28.0519C25.6724 27.1114 25.4721 26.1761 25.2461 25.2468C26.0817 23.1759 27.0168 21.1722 28.0512 19.2357C28.8113 17.8544 29.6795 16.5186 30.656 15.2284C31.3681 14.3107 32.2365 13.6428 33.2608 13.2247C37.5927 10.0611 42.2681 7.4563 47.2865 5.41038C50.5437 4.91351 53.7496 4.44598 56.9042 4.00781Z" fill="#652819"/>
<path opacity="0.996" fill-rule="evenodd" clip-rule="evenodd" d="M61.3125 31.2575C54.4932 31.1737 47.6807 31.3072 40.875 31.6582C41.3194 31.3417 41.8536 31.1413 42.4779 31.0571C50.1019 30.7301 56.3802 30.7971 61.3125 31.2575Z" fill="#38100C"/>
<path fill-rule="evenodd" clip-rule="evenodd" d="M66.1217 18.0327C66.4563 21.4436 66.857 24.8499 67.3239 28.2515C67.2898 28.6951 67.156 29.0958 66.9232 29.4537C58.7974 28.7472 50.6493 28.6807 42.4783 29.2533C42.0175 27.3234 41.951 25.3198 42.278 23.2423C42.5597 17.8849 43.8288 12.809 46.0849 8.01436C51.6135 6.09524 57.2238 5.89487 62.9158 7.41326C63.2496 7.74719 63.5838 8.08116 63.9176 8.4151C64.6678 11.6778 65.4024 14.8837 66.1217 18.0327Z" fill="#E2673B"/>
<path opacity="0.999" fill-rule="evenodd" clip-rule="evenodd" d="M52.0956 12.8236C57.8333 12.2851 61.306 14.8231 62.5147 20.4376C61.6543 26.1661 58.3146 28.6374 52.4963 27.8512C47.675 25.8896 45.8717 22.3498 47.0864 17.2317C48.1716 15.0594 49.8414 13.5901 52.0956 12.8236Z" fill="#FEE8C7"/>
<path fill-rule="evenodd" clip-rule="evenodd" d="M56.5035 16.0296C57.1114 16.0339 57.5791 16.301 57.9061 16.8311C58.2756 18.5146 58.0752 20.1175 57.305 21.6399C58.2563 22.6531 58.6571 23.8553 58.5072 25.2465C57.664 25.3663 56.8626 25.2327 56.1028 24.8458C54.9959 22.9252 53.7937 22.7917 52.4962 24.4451C52.3339 24.0244 52.067 24.0244 51.6947 24.4451C50.9637 22.0871 50.7634 19.6827 51.0936 17.2318C51.4274 16.8979 51.7616 16.5639 52.0954 16.23C53.5589 16.0302 55.028 15.9634 56.5035 16.0296Z" fill="#D85B31"/>
<path fill-rule="evenodd" clip-rule="evenodd" d="M56.504 16.03C55.0285 15.9637 53.5594 16.0305 52.0959 16.2303C51.7621 16.5643 51.4279 16.8982 51.0941 17.2322C50.7639 19.6831 50.9642 22.0875 51.6952 24.4454C52.0675 24.0247 52.3344 24.0247 52.4967 24.4454C52.3592 25.1368 51.9585 25.3371 51.2945 25.0465C50.505 22.3728 50.3046 19.6345 50.6933 16.8314C52.16 15.2816 53.9633 14.8141 56.1033 15.4289C56.3261 15.5822 56.4595 15.7826 56.504 16.03Z" fill="#CE3813"/>
<path fill-rule="evenodd" clip-rule="evenodd" d="M53.2979 17.232C55.6001 16.9617 56.2677 17.8967 55.3015 20.0371C54.6824 20.4186 54.0144 20.5522 53.2979 20.4379C53.2979 19.3692 53.2979 18.3006 53.2979 17.232Z" fill="#FEE2BE"/>
<path opacity="0.996" fill-rule="evenodd" clip-rule="evenodd" d="M56.9041 4.0071C53.7495 4.44527 50.5436 4.91281 47.2865 5.40968C42.2681 7.45559 37.5927 10.0604 33.2607 13.224C34.5519 11.7727 36.021 10.5037 37.6688 9.41703C40.3429 8.30575 42.8808 6.96994 45.2828 5.40968C49.0761 4.31771 52.9501 3.85022 56.9041 4.0071Z" fill="#39110D"/>
<path fill-rule="evenodd" clip-rule="evenodd" d="M90.1655 82.1511C91.2375 82.3927 92.1724 82.9269 92.9707 83.754C93.0376 89.0986 92.9707 94.442 92.7703 99.7834C92.2838 100.404 91.6827 100.871 90.967 101.186C74.0031 101.386 57.0388 101.453 40.0737 101.386C39.6805 95.9412 39.5467 90.4647 39.6729 84.9562C39.6729 84.5555 39.6729 84.1548 39.6729 83.754C40.4852 83.0808 41.4205 82.6131 42.4781 82.3514C58.3732 82.1511 74.2692 82.0842 90.1655 82.1511Z" fill="#FAE9C0"/>
<path opacity="0.999" fill-rule="evenodd" clip-rule="evenodd" d="M41.6769 82.9519C58.2412 82.8849 74.8048 82.9519 91.368 83.1522C91.5684 83.3526 91.7687 83.553 91.9691 83.7533C92.7325 89.0991 92.7325 94.4421 91.9691 99.7827C91.6686 100.034 91.3343 100.234 90.9673 100.384C74.0034 100.584 57.039 100.651 40.0739 100.584C40.007 95.2396 40.0739 89.8962 40.2743 84.5548C40.7159 83.9741 41.1836 83.44 41.6769 82.9519Z" fill="#FDCCA1"/>
<path opacity="0.999" fill-rule="evenodd" clip-rule="evenodd" d="M60.1105 90.1649C60.389 92.2143 60.8566 94.218 61.513 96.1759C62.4964 96.7823 63.1645 96.515 63.5167 95.3745C63.9231 93.3492 64.3907 91.3455 64.9193 89.3634C65.1866 90.0315 65.4535 90.6991 65.7208 91.3671C65.7208 93.1035 65.7208 94.8403 65.7208 96.5767C66.923 96.5767 68.1252 96.5767 69.3274 96.5767C69.3274 96.1759 69.3274 95.7752 69.3274 95.3745C68.5259 95.3745 67.7244 95.3745 66.923 95.3745C66.923 94.7064 66.923 94.0388 66.923 93.3708C67.591 93.3708 68.2586 93.3708 68.9266 93.3708C68.9266 92.9701 68.9266 92.5693 68.9266 92.1686C68.4986 91.7943 67.9645 91.6605 67.3237 91.7679C67.3237 91.2337 67.3237 90.6991 67.3237 90.1649C67.9917 90.1649 68.6593 90.1649 69.3274 90.1649C69.3274 89.7642 69.3274 89.3634 69.3274 88.9627C68.4734 88.6365 67.5385 88.4361 66.5222 88.3616C68.3925 88.0943 70.2623 88.0943 72.1325 88.3616C72.3834 88.6622 72.5837 88.9964 72.7336 89.3634C73.0025 89.0621 73.3363 88.9283 73.7355 88.9627C73.8016 90.1721 73.7347 91.3743 73.5351 92.5693C73.1259 91.5795 72.6583 90.6442 72.1325 89.7642C72.2014 89.3667 72.0676 89.0998 71.7318 88.9627C71.3038 88.5884 70.7696 88.4546 70.1288 88.562C69.999 91.3086 70.1324 93.9803 70.5296 96.5767C70.7969 96.5767 71.0638 96.5767 71.331 96.5767C71.6608 95.1833 71.8612 93.7138 71.9321 92.1686C72.405 93.3792 72.8723 94.5814 73.3347 95.7752C73.3872 96.0714 73.3203 96.3386 73.1343 96.5767C72.4086 94.476 72.0079 94.6099 71.9321 96.9774C71.3479 97.4771 70.7468 97.4771 70.1288 96.9774C68.6818 97.2828 67.2123 97.4831 65.7208 97.5785C67.5189 97.7733 67.7861 98.5747 66.5222 99.9829C63.3191 100.183 60.1133 100.25 56.9046 100.183C56.9394 98.9418 56.7391 98.808 56.3035 99.7826C55.4547 99.6655 54.5867 99.5986 53.6987 99.5822C53.966 99.3149 54.2329 99.048 54.5002 98.7807C53.9099 98.4962 53.6426 98.0289 53.6987 97.3781C54.1836 97.205 54.5843 96.9377 54.9009 96.5767C55.3016 96.5767 55.7024 96.5767 56.1031 96.5767C55.9156 90.3032 56.4498 90.3032 57.7061 96.5767C58.2402 96.5767 58.7748 96.5767 59.309 96.5767C59.309 93.905 59.309 91.2337 59.309 88.562C58.9083 88.562 58.5075 88.562 58.1068 88.562C58.1729 89.9044 58.106 91.2401 57.9064 92.5693C57.3899 91.7098 57.0561 90.7748 56.9046 89.7642C57.2985 88.3668 58.2338 87.8326 59.7097 88.1612C59.5959 88.9287 59.7294 89.5963 60.1105 90.1649Z" fill="#FCD6AA"/>
<path fill-rule="evenodd" clip-rule="evenodd" d="M47.687 91.3674C47.5595 93.1835 47.693 94.9203 48.0877 96.5769C48.355 96.5769 48.6219 96.5769 48.8892 96.5769C49.2863 93.9806 49.4198 91.3089 49.2899 88.5622C49.8189 89.7356 50.0858 91.0712 50.0914 92.5696C50.0245 93.9052 49.9579 95.2413 49.891 96.5769C48.771 97.6241 47.6353 97.6241 46.4848 96.5769C45.3451 97.2193 44.1429 97.4197 42.8782 97.178C43.2452 97.0666 43.5121 96.8663 43.6796 96.5769C43.8131 96.5769 43.9469 96.5769 44.0804 96.5769C46.9396 96.155 47.6072 94.6859 46.084 92.1689C46.3353 91.8014 46.4691 91.4006 46.4848 90.9666C46.6371 90.0858 46.3698 89.4178 45.6833 88.963C44.5665 88.5715 43.3643 88.438 42.0767 88.5622C42.0767 91.1001 42.0767 93.6383 42.0767 96.1762C41.6764 93.8087 41.5425 91.1374 41.676 88.1615C43.5229 87.9507 45.2597 88.218 46.8855 88.963C47.1536 89.8169 47.4205 90.6184 47.687 91.3674Z" fill="#FBE4B7"/>
<path fill-rule="evenodd" clip-rule="evenodd" d="M86.1582 88.5625C87.6289 88.4932 88.6308 89.1608 89.1637 90.5662C89.431 92.1691 89.431 93.7721 89.1637 95.375C88.1382 96.5167 86.8691 96.8509 85.3567 96.3768C84.2659 94.5815 83.9321 92.6448 84.3549 90.5662C84.7657 89.6898 85.3668 89.0218 86.1582 88.5625Z" fill="#5D1B11"/>
<path fill-rule="evenodd" clip-rule="evenodd" d="M78.9443 88.963C83.3689 88.7851 84.7714 90.7888 83.1521 94.9741C82.7689 95.4064 82.4351 95.8737 82.1502 96.3766C81.0899 96.5758 80.0211 96.6427 78.9443 96.577C78.9443 94.0391 78.9443 91.5009 78.9443 88.963Z" fill="#55140C"/>
<path fill-rule="evenodd" clip-rule="evenodd" d="M71.731 88.963C71.3303 88.963 70.9296 88.963 70.5288 88.963C70.5288 91.5008 70.5288 94.0391 70.5288 96.5769C70.1317 93.9806 69.9983 91.3089 70.1281 88.5622C70.7689 88.4548 71.303 88.5887 71.731 88.963Z" fill="#B35E3B"/>
<path fill-rule="evenodd" clip-rule="evenodd" d="M47.6875 88.963C48.1155 88.5887 48.6497 88.4548 49.2904 88.5622C49.4203 91.3089 49.2868 93.9806 48.8897 96.5769C48.8897 94.0391 48.8897 91.5008 48.8897 88.963C48.489 88.963 48.0882 88.963 47.6875 88.963Z" fill="#B86040"/>
<path fill-rule="evenodd" clip-rule="evenodd" d="M64.9192 89.364C64.3906 91.346 63.9229 93.3497 63.5166 95.375C63.1644 96.5155 62.4963 96.7828 61.5129 96.1765C60.8565 94.2185 60.3889 92.2148 60.1104 90.1655C60.1104 89.7647 60.1104 89.364 60.1104 88.9632C60.6401 88.8951 61.1078 89.0286 61.5129 89.364C61.6941 90.7173 61.9609 92.0533 62.3144 93.3713C62.7572 91.9195 63.1579 90.45 63.5166 88.9632C64.1494 88.4423 64.6166 88.5761 64.9192 89.364Z" fill="#561912"/>
<path fill-rule="evenodd" clip-rule="evenodd" d="M50.4922 88.5626C51.6483 88.44 52.7171 88.5734 53.6981 88.9633C53.6981 89.2306 53.6981 89.4975 53.6981 89.7648C52.7732 89.2783 51.8383 89.2783 50.8929 89.7648C51.0188 91.7921 51.0188 93.7958 50.8929 95.7758C51.6627 96.2331 52.4642 96.3 53.2973 95.9762C53.0745 95.8227 52.9411 95.6223 52.8966 95.3751C53.2973 95.3751 53.6981 95.3751 54.0988 95.3751C54.1938 95.8924 54.0603 96.2932 53.6981 96.5773C52.6293 96.5773 51.5609 96.5773 50.4922 96.5773C50.4922 93.9056 50.4922 91.2343 50.4922 88.5626Z" fill="#4E110B"/>
<path fill-rule="evenodd" clip-rule="evenodd" d="M45.6834 88.9629C46.3699 89.4177 46.6372 90.0857 46.4849 90.9666C46.1847 90.5534 45.9178 90.0857 45.6834 89.564C44.7577 89.3648 43.8228 89.2983 42.8783 89.3636C42.8783 91.6346 42.8783 93.9052 42.8783 96.1761C43.3956 96.0811 43.7964 96.2146 44.0805 96.5769C43.947 96.5769 43.8132 96.5769 43.6797 96.5769C43.1624 96.6718 42.7617 96.5384 42.4775 96.1761C42.4775 93.7717 42.4775 91.3673 42.4775 88.9629C43.5463 88.9629 44.6147 88.9629 45.6834 88.9629Z" fill="#340100"/>
<path fill-rule="evenodd" clip-rule="evenodd" d="M56.1026 88.5625C56.2757 89.0474 56.543 89.4481 56.9041 89.7647C57.0555 90.7754 57.3894 91.7103 57.9059 92.5698C58.1055 91.2406 58.1724 89.905 58.1063 88.5625C58.507 88.5625 58.9077 88.5625 59.3085 88.5625C59.3085 91.2342 59.3085 93.9055 59.3085 96.5772C58.7743 96.5772 58.2397 96.5772 57.7055 96.5772C56.4492 90.3037 55.9151 90.3037 56.1026 96.5772C55.7019 96.5772 55.3011 96.5772 54.9004 96.5772C54.9004 93.9055 54.9004 91.2342 54.9004 88.5625C55.3011 88.5625 55.7019 88.5625 56.1026 88.5625Z" fill="#5D1C12"/>
<path fill-rule="evenodd" clip-rule="evenodd" d="M86.1582 89.7646C86.7662 89.7691 87.2338 90.0359 87.5608 90.5661C87.8281 92.0356 87.8281 93.5047 87.5608 94.9742C87.0266 95.5084 86.4921 95.5084 85.9579 94.9742C85.675 93.2162 85.7415 91.4798 86.1582 89.7646Z" fill="#FCE4B8"/>
<path opacity="0.996" fill-rule="evenodd" clip-rule="evenodd" d="M80.5474 90.165C81.9087 90.4688 82.4429 91.3372 82.1504 92.7698C82.3327 93.9412 81.932 94.8096 80.9482 95.3746C80.5506 93.6582 80.4168 91.9219 80.5474 90.165Z" fill="#FCE0B4"/>
<path opacity="0.999" fill-rule="evenodd" clip-rule="evenodd" d="M76.1396 88.9629C76.5404 88.9629 76.9411 88.9629 77.3419 88.9629C77.3419 91.5007 77.3419 94.039 77.3419 96.5769C76.9411 96.5769 76.5404 96.5769 76.1396 96.5769C76.1396 94.039 76.1396 91.5007 76.1396 88.9629Z" fill="#52140A"/>
<path fill-rule="evenodd" clip-rule="evenodd" d="M53.6987 89.7643C53.1301 90.1454 52.4624 90.2788 51.695 90.165C51.695 90.6992 51.695 91.2338 51.695 91.768C52.363 91.768 53.0307 91.768 53.6987 91.768C53.6987 92.3021 53.6987 92.8367 53.6987 93.3709C53.0307 93.3709 52.363 93.3709 51.695 93.3709C51.695 94.0389 51.695 94.7065 51.695 95.3746C52.0958 95.3746 52.4965 95.3746 52.8972 95.3746C52.9417 95.6218 53.0752 95.8222 53.298 95.9757C52.4648 96.2995 51.6634 96.2325 50.8936 95.7753C51.0194 93.7953 51.0194 91.7916 50.8936 89.7643C51.8389 89.2778 52.7738 89.2778 53.6987 89.7643Z" fill="#691D0E"/>
<path opacity="0.996" fill-rule="evenodd" clip-rule="evenodd" d="M48.088 96.5775C47.6933 94.9208 47.5599 93.1841 47.6873 91.3679C48.0087 90.7861 48.2091 90.1184 48.2884 89.3643C48.5874 91.7891 48.5204 94.1935 48.088 96.5775Z" fill="#6C2111"/>
<path fill-rule="evenodd" clip-rule="evenodd" d="M73.7348 88.9629C74.1356 88.9629 74.5363 88.9629 74.937 88.9629C74.937 91.5007 74.937 94.039 74.937 96.5769C74.2562 96.566 73.7216 96.2987 73.3341 95.7754C72.8716 94.5816 72.4044 93.3794 71.9315 92.1688C71.8606 93.714 71.6602 95.1835 71.3304 96.5769C71.3961 94.5596 71.2627 92.5559 70.9297 90.5658C71.0431 89.2666 71.3773 89.1328 71.9315 90.1651C72.0914 90.0737 72.1579 89.9399 72.1319 89.7644C72.6577 90.6444 73.1253 91.5797 73.5345 92.5695C73.734 91.3745 73.801 90.1723 73.7348 88.9629Z" fill="#622014"/>
<path opacity="0.998" fill-rule="evenodd" clip-rule="evenodd" d="M53.698 88.9629C54.5524 91.0231 54.6858 93.1602 54.0987 95.3746C53.698 95.3746 53.2973 95.3746 52.8965 95.3746C52.4958 95.3746 52.0951 95.3746 51.6943 95.3746C51.6943 94.7066 51.6943 94.039 51.6943 93.371C52.3624 93.371 53.03 93.371 53.698 93.371C53.698 92.8368 53.698 92.3022 53.698 91.768C53.03 91.768 52.3624 91.768 51.6943 91.768C51.6943 91.2339 51.6943 90.6993 51.6943 90.1651C52.4617 90.2789 53.1294 90.1455 53.698 89.7644C53.698 89.4971 53.698 89.2302 53.698 88.9629Z" fill="#FBD4A1"/>
<path fill-rule="evenodd" clip-rule="evenodd" d="M45.6838 88.9632C44.615 88.9632 43.5466 88.9632 42.4779 88.9632C42.4779 91.3676 42.4779 93.772 42.4779 96.1765C42.3444 96.1765 42.2106 96.1765 42.0771 96.1765C42.0771 93.6386 42.0771 91.1003 42.0771 88.5625C43.3647 88.4383 44.5669 88.5717 45.6838 88.9632Z" fill="#B96A47"/>
<path opacity="0.996" fill-rule="evenodd" clip-rule="evenodd" d="M67.3238 90.165C67.3238 90.6992 67.3238 91.2338 67.3238 91.768C67.9646 91.6606 68.4988 91.7944 68.9267 92.1687C68.2587 92.1687 67.5911 92.1687 66.9231 92.1687C66.8093 91.4013 66.9427 90.7337 67.3238 90.165Z" fill="#DB9469"/>
<path fill-rule="evenodd" clip-rule="evenodd" d="M47.6875 88.9629C48.0882 88.9629 48.489 88.9629 48.8897 88.9629C48.8897 91.5007 48.8897 94.039 48.8897 96.5769C48.6224 96.5769 48.3555 96.5769 48.0882 96.5769C48.5206 94.1929 48.5876 91.7885 48.2886 89.3636C48.2093 90.1178 48.0089 90.7854 47.6875 91.3673C47.6875 90.5658 47.6875 89.7644 47.6875 88.9629Z" fill="#320200"/>
<path opacity="0.988" fill-rule="evenodd" clip-rule="evenodd" d="M46.4855 90.967C46.4699 91.401 46.336 91.8018 46.0848 92.1692C47.608 94.6863 46.9404 96.1554 44.0811 96.5773C43.797 96.2151 43.3963 96.0816 42.8789 96.1766C42.8789 93.9056 42.8789 91.6351 42.8789 89.3641C43.8234 89.2988 44.7584 89.3653 45.6841 89.5645C45.9185 90.0862 46.1854 90.5539 46.4855 90.967Z" fill="#621A0D"/>
<path fill-rule="evenodd" clip-rule="evenodd" d="M43.6797 92.9707C44.2139 92.9707 44.7484 92.9707 45.2826 92.9707C45.6437 94.4699 45.1095 95.2713 43.6797 95.3751C43.6797 94.5736 43.6797 93.7722 43.6797 92.9707Z" fill="#F9E1B4"/>
<path fill-rule="evenodd" clip-rule="evenodd" d="M43.6797 89.7648C44.4194 89.6534 44.954 89.9207 45.2826 90.5663C45.0514 91.3878 44.5172 91.7885 43.6797 91.7685C43.6797 91.1005 43.6797 90.4328 43.6797 89.7648Z" fill="#F9E4B6"/>
<path opacity="0.998" fill-rule="evenodd" clip-rule="evenodd" d="M71.7315 88.9629C72.0673 89.0999 72.2012 89.3668 72.1322 89.7644C72.1583 89.9399 72.0918 90.0737 71.9319 90.1651C71.3777 89.1328 71.0434 89.2666 70.93 90.5658C71.263 92.5559 71.3965 94.5596 71.3308 96.5769C71.0635 96.5769 70.7966 96.5769 70.5293 96.5769C70.5293 94.039 70.5293 91.5007 70.5293 88.9629C70.93 88.9629 71.3308 88.9629 71.7315 88.9629Z" fill="#390501"/>
<path fill-rule="evenodd" clip-rule="evenodd" d="M69.3273 88.9629C69.3273 89.3636 69.3273 89.7644 69.3273 90.1651C68.6593 90.1651 67.9917 90.1651 67.3236 90.1651C66.9425 90.7337 66.8091 91.4014 66.9229 92.1688C67.5909 92.1688 68.2586 92.1688 68.9266 92.1688C68.9266 92.5695 68.9266 92.9702 68.9266 93.371C68.2586 93.371 67.5909 93.371 66.9229 93.371C66.9229 94.039 66.9229 94.7066 66.9229 95.3746C67.7244 95.3746 68.5258 95.3746 69.3273 95.3746C69.3273 95.7754 69.3273 96.1761 69.3273 96.5769C68.1251 96.5769 66.9229 96.5769 65.7207 96.5769C65.7207 94.8405 65.7207 93.1037 65.7207 91.3673C65.7207 90.5658 65.7207 89.7644 65.7207 88.9629C66.9229 88.9629 68.1251 88.9629 69.3273 88.9629Z" fill="#500E06"/>
<path fill-rule="evenodd" clip-rule="evenodd" d="M50.4922 88.5629C52.6554 88.2395 54.5252 88.2395 56.1025 88.5629C55.7017 88.5629 55.301 88.5629 54.9003 88.5629C54.9003 91.2346 54.9003 93.9059 54.9003 96.5776C54.5837 96.9386 54.183 97.2059 53.6981 97.379C52.6213 97.4447 51.5525 97.3778 50.4922 97.1787C51.6403 97.1053 52.7087 96.905 53.6981 96.5776C54.0603 96.2934 54.1938 95.8927 54.0988 95.3754C54.6859 93.1609 54.5524 91.0238 53.6981 88.9636C52.7171 88.5737 51.6483 88.4402 50.4922 88.5629Z" fill="#FEF1C6"/>
<path opacity="0.992" fill-rule="evenodd" clip-rule="evenodd" d="M44.0807 103.39C44.0807 103.523 44.0807 103.657 44.0807 103.791C42.1616 103.741 40.2918 103.407 38.4704 102.789C37.57 101.989 37.1693 100.987 37.2682 99.7833C37.2085 99.3617 37.2751 98.961 37.4686 98.5811C37.4538 100.047 37.921 101.316 38.8712 102.388C40.5759 102.895 42.3127 103.229 44.0807 103.39Z" fill="#310E09"/>
<path opacity="0.999" fill-rule="evenodd" clip-rule="evenodd" d="M90.5663 102.989C76.1399 103.257 61.7134 103.523 47.2869 103.791C46.2182 103.791 45.1498 103.791 44.0811 103.791C44.0811 103.657 44.0811 103.523 44.0811 103.39C59.5077 102.99 75.003 102.856 90.5663 102.989Z" fill="#5B1A0B"/>
<path opacity="0.01" fill-rule="evenodd" clip-rule="evenodd" d="M33.6614 103.79C33.3941 103.256 33.3941 103.256 33.6614 103.79V103.79Z" fill="#FCE2C7"/>
<path opacity="0.999" fill-rule="evenodd" clip-rule="evenodd" d="M93.7724 101.787C93.035 102.754 92.1001 103.423 90.9672 103.791C76.4073 103.791 61.847 103.791 47.2871 103.791C61.7136 103.523 76.14 103.257 90.5665 102.989C91.731 102.806 92.7994 102.405 93.7724 101.787Z" fill="#370501"/>
<path opacity="0.01" fill-rule="evenodd" clip-rule="evenodd" d="M33.6621 103.79C34.1963 104.057 34.1963 104.057 33.6621 103.79V103.79Z" fill="#FBE2C6"/>
<path opacity="0.998" fill-rule="evenodd" clip-rule="evenodd" d="M15.6283 78.9453C16.879 81.5769 18.6155 83.8475 20.8378 85.7578C25.1173 90.4368 30.4603 92.4405 36.8672 91.7688C36.7374 94.5155 36.8708 97.1872 37.268 99.7835C37.169 100.988 37.5697 101.99 38.4702 102.789C40.2915 103.407 42.1613 103.741 44.0805 103.791C45.1492 103.791 46.2176 103.791 47.2863 103.791C61.8462 103.791 76.4065 103.791 90.9664 103.791C91.2626 103.738 91.5299 103.805 91.7679 103.991C90.9664 104.125 90.165 104.259 89.3635 104.392C85.6234 104.459 81.883 104.525 78.1429 104.592C67.8801 104.422 57.6614 104.422 47.4867 104.592C44.7625 104.645 42.0912 104.378 39.472 103.791C39.0713 103.924 38.6705 104.058 38.2698 104.192C37.3108 103.342 36.7767 102.274 36.6669 100.986C36.4665 98.1838 36.4 95.3787 36.4665 92.5703C31.0437 92.9534 26.235 91.4839 22.04 88.1622C19.2219 85.6833 16.9511 82.8112 15.2275 79.5464C15.4503 79.3929 15.5839 79.1926 15.6283 78.9453Z" fill="#FAFAF5"/>
</svg>
